<?xml version="1.0" encoding="UTF-8"?>
<svg version="1.1" viewBox="0 0 1000 1000" fill="none" xmlns="http://www.w3.org/2000/svg">
<path d="M0 0 C1.95767172 -0.00115381 3.91534322 -0.00274307 5.87301427 -0.00472724 C11.22464514 -0.00888506 16.57625807 -0.00684593 21.92788899 -0.00374103 C27.71060945 -0.00147258 33.4933269 -0.00497378 39.27604675 -0.00772095 C50.5948162 -0.01216259 61.913579 -0.01120918 73.2323487 -0.00830831 C82.4362139 -0.00604742 91.64007724 -0.00574473 100.84394264 -0.00683212 C102.15528085 -0.00698536 103.46661906 -0.00713859 104.81769479 -0.00729647 C106.81398641 -0.00753604 108.81027804 -0.00777563 110.80656966 -0.00802336 C135.73511707 -0.0110799 160.66366087 -0.00831312 185.59220772 -0.00292646 C207.70790218 0.00181608 229.82359087 0.00139656 251.93928528 -0.00338745 C276.81600655 -0.0087508 301.69272462 -0.01086032 326.56944638 -0.00777519 C329.22527619 -0.00745665 331.881106 -0.00714228 334.53693581 -0.00683212 C335.84352052 -0.00667785 337.15010524 -0.00652357 338.49628344 -0.00636462 C347.68123064 -0.00550305 356.86617578 -0.00695465 366.05112267 -0.00931168 C377.25617646 -0.01212396 388.46122324 -0.01134145 399.66627624 -0.00603093 C405.37782697 -0.00341277 411.08936605 -0.00235672 416.80091667 -0.00568008 C422.03989527 -0.00868222 427.27885154 -0.00698565 432.51782814 -0.00170253 C434.40267309 -0.00059491 436.28751997 -0.00113226 438.17236366 -0.00357832 C447.28260919 -0.01448459 456.36446624 0.08702436 465.46324635 0.57534981 C466.57118316 0.6340564 466.57118316 0.6340564 467.70150254 0.69394898 C472.82776648 1.00143045 477.58641798 1.77744142 482.52497864 3.12698364 C483.91758585 3.42265396 485.31221131 3.70895727 486.70857239 3.98635864 C515.20106233 9.87642514 539.80354303 21.17456388 561.96247864 40.12698364 C562.93072571 40.95504517 562.93072571 40.95504517 563.91853333 41.79983521 C568.39823973 45.74676693 568.39823973 45.74676693 569.52497864 49.12698364 C570.18497864 49.12698364 570.84497864 49.12698364 571.52497864 49.12698364 C599.89168746 78.13875999 609.97744607 121.40962078 611.09011841 160.5604248 C611.11060249 161.25936802 611.13108657 161.95831123 611.15219138 162.67843454 C611.70649696 182.0035171 611.67497477 201.3329729 611.67036235 220.66433644 C611.67015476 226.11619259 611.67571016 231.56804376 611.68041992 237.01989746 C611.68864695 247.64911952 611.691471 258.27833603 611.6920323 268.90756102 C611.69251068 277.55312471 611.6945813 286.1986866 611.69773293 294.84424973 C611.70651292 319.43465927 611.71115575 344.02506449 611.71040245 368.61547561 C611.71034252 370.59464621 611.71034252 370.59464621 611.71028137 372.61380005 C611.71026 373.27413655 611.71023864 373.93447306 611.71021662 374.61481976 C611.70960307 395.39117955 611.71713369 416.16752305 611.73078918 436.94387817 C611.74618451 460.37600011 611.75474093 483.80811211 611.75382596 507.2402395 C611.75349515 519.61539412 611.75619219 531.99053033 611.76700401 544.36568069 C611.77614092 554.88939315 611.77825768 565.4130788 611.77149459 575.93679352 C611.76824723 581.29469601 611.76810793 586.65254715 611.77684784 592.01044464 C611.85383768 642.32547424 611.85383768 642.32547424 607.71247864 663.56448364 C607.45700256 664.91328613 607.45700256 664.91328613 607.19636536 666.28933716 C605.58021 674.46394113 603.33493965 682.28867133 600.52497864 690.12698364 C600.30616028 690.75121216 600.08734192 691.37544067 599.8618927 692.01858521 C593.0672346 711.17971827 581.4085808 727.38977846 567.52497864 742.12698364 C566.92556458 742.79085083 566.32615051 743.45471802 565.70857239 744.13870239 C539.1160329 772.4543006 497.25410378 784.87280603 459.42480278 786.33025253 C458.01510011 786.37058128 456.60526914 786.4066014 455.19535828 786.43884087 C454.41664785 786.45931333 453.63793742 786.4797858 452.8356297 786.50087865 C450.27758258 786.56599428 447.71944765 786.62432446 445.16120911 786.68139648 C443.81692042 786.71285378 443.81692042 786.71285378 442.44547439 786.74494658 C422.39249571 787.20815522 402.34396824 787.27121126 382.28653669 787.25770831 C377.16334889 787.25539142 372.04016408 787.25896402 366.91697693 787.26168823 C356.94858723 787.26607786 346.98020516 787.26520075 337.01181519 787.26227559 C328.90231078 787.25999638 320.79280847 787.25971979 312.68330383 787.26079941 C311.51932383 787.26095264 310.35534382 787.26110587 309.15609169 787.26126375 C306.79004987 787.26158354 304.42400805 787.26190775 302.05796623 787.26223634 C280.00549344 787.26507063 257.95302485 787.2618355 235.90055275 787.25643598 C217.03740356 787.25196031 198.17426053 787.25275413 179.31111145 787.25735474 C157.30063336 787.26272058 135.29015891 787.26480602 113.27968025 787.26174247 C110.92832057 787.26142398 108.57696088 787.26110961 106.2256012 787.26079941 C105.06923074 787.26064513 103.91286029 787.26049086 102.7214483 787.26033191 C94.6270065 787.25947348 86.53256705 787.2609148 78.43812561 787.26327896 C68.5675743 787.26609916 58.69703092 787.26529183 48.82648051 787.25999822 C43.80448319 787.25739242 38.78249905 787.25630252 33.76050186 787.25964737 C-20.47230834 787.29273535 -20.47230834 787.29273535 -39.47502136 784.81448364 C-40.50715759 784.68332153 -41.53929382 784.55215942 -42.60270691 784.41702271 C-69.7495988 780.78813227 -97.04430749 771.6469833 -118.47502136 754.12698364 C-119.2999408 753.45796021 -119.2999408 753.45796021 -120.14152527 752.77542114 C-138.56799459 737.74078896 -155.38758093 717.89951328 -163.47502136 695.12698364 C-163.47502136 694.46698364 -163.47502136 693.80698364 -163.47502136 693.12698364 C-164.46502136 692.79698364 -165.45502136 692.46698364 -166.47502136 692.12698364 C-165.81502136 692.12698364 -165.15502136 692.12698364 -164.47502136 692.12698364 C-164.66612488 691.60604126 -164.85722839 691.08509888 -165.05412292 690.54837036 C-169.98558494 676.92602251 -173.43109772 663.47359959 -175.47502136 649.12698364 C-175.63623065 648.03755179 -175.79743994 646.94811995 -175.96353436 645.82567501 C-176.71951573 639.69099319 -176.8436944 633.52682791 -177.02844238 627.35343933 C-177.04939476 626.66782592 -177.07034713 625.98221252 -177.09193442 625.27582294 C-177.65576442 606.38201059 -177.62502056 587.48432995 -177.62040508 568.58385575 C-177.62019751 563.25793784 -177.62575281 557.93202503 -177.63046265 552.60610962 C-177.63869174 542.21937958 -177.64151386 531.83265522 -177.64207502 521.44592219 C-177.64255354 512.99252766 -177.6446248 504.53913498 -177.64777565 496.08574104 C-177.65655811 472.02798638 -177.66119837 447.97023614 -177.66044518 423.91247987 C-177.66040522 422.62145215 -177.66036526 421.33042443 -177.6603241 420.00027466 C-177.66026278 418.06132449 -177.66026278 418.06132449 -177.66020022 416.08320362 C-177.65979358 395.12552774 -177.6693739 374.1678698 -177.68346246 353.21019911 C-177.6978719 331.60206796 -177.70473026 309.99394555 -177.70386869 288.38580948 C-177.70353848 276.28984158 -177.70620825 264.19389253 -177.71704674 252.097929 C-177.72621179 241.805353 -177.72827791 231.51280444 -177.72153731 221.2202261 C-177.71830321 215.98488018 -177.71810095 210.74958671 -177.72689056 205.51424599 C-177.81068304 152.12548792 -177.22903486 98.36808589 -141.79533386 54.99026489 C-139.43739819 52.17118458 -139.43739819 52.17118458 -137.47502136 49.12698364 C-136.81502136 49.12698364 -136.15502136 49.12698364 -135.47502136 49.12698364 C-135.2468573 48.56495239 -135.01869324 48.00292114 -134.78361511 47.42385864 C-130.36023722 39.65984014 -120.88372723 33.75746924 -113.68986511 28.72073364 C-111.41395899 27.1732218 -111.41395899 27.1732218 -109.47502136 25.12698364 C-75.0070113 6.21956324 -39.07452109 -0.05038207 0 0 Z M59.52497864 110.12698364 C59.52497864 110.78698364 59.52497864 111.44698364 59.52497864 112.12698364 C58.86497864 112.12698364 58.20497864 112.12698364 57.52497864 112.12698364 C57.50211411 155.4239511 57.48448135 198.72091791 57.47391331 242.01789021 C57.47266253 247.12383478 57.47136821 252.22977933 57.470047 257.33572388 C57.46978469 258.35227059 57.46952238 259.3688173 57.46925212 260.41616846 C57.46489502 276.89867067 57.45700726 293.38116942 57.44782584 309.86366957 C57.4384904 326.76300962 57.43292326 343.66234786 57.43089014 360.56169039 C57.42951469 370.99830356 57.42516288 381.43490692 57.41706217 391.87151707 C57.41179606 399.01808291 57.41017403 406.16464364 57.41147726 413.31121128 C57.41212085 417.44086029 57.41110075 421.5704921 57.40577316 425.70013809 C57.40093925 429.47444552 57.40063993 433.24872403 57.40407974 437.02303273 C57.40450544 438.39450906 57.40320964 439.76598713 57.40009546 441.13745999 C57.39613146 442.98964579 57.39882228 444.84184237 57.40193081 446.69402981 C57.40155109 447.72648939 57.40117137 448.75894896 57.40078014 449.8226952 C57.26570714 452.09038711 57.26570714 452.09038711 58.52497864 453.12698364 C60.70979802 453.22837807 62.89795985 453.25776451 65.08512878 453.26069641 C65.77903202 453.26296197 66.47293525 453.26522752 67.18786585 453.26756173 C69.53121037 453.27393062 71.87449747 453.27307047 74.21784973 453.27224731 C75.89158198 453.27523747 77.56531355 453.27863966 79.23904419 453.28242493 C83.80416837 453.29129511 88.36927384 453.29360462 92.9344058 453.29424071 C95.79210957 453.29495083 98.64980856 453.29708466 101.50751114 453.29973793 C111.49510754 453.30900928 121.48269057 453.31307158 131.47029114 453.31228638 C140.74543843 453.31168875 150.02052696 453.32217356 159.29565942 453.33803004 C167.27553114 453.35118028 175.25538388 453.35646698 183.23526633 453.35583097 C187.99279121 453.35557768 192.75026417 453.35833299 197.50777817 453.36900902 C202.00080963 453.37881354 206.493741 453.3786862 210.98677635 453.37149239 C212.62038128 453.37046088 214.25399284 453.372722 215.88758659 453.37885284 C227.51645159 453.41960198 239.00511637 452.80267606 250.52497864 451.12698364 C250.85497864 450.79698364 251.18497864 450.46698364 251.52497864 450.12698364 C252.97562615 449.96186929 254.43158676 449.84288474 255.88825989 449.74417114 C283.18730407 447.21621282 310.51701055 432.92400604 330.18513489 414.29104614 C332.52497864 412.12698364 332.52497864 412.12698364 334.83357239 410.46292114 C335.39173645 410.02206177 335.94990051 409.58120239 336.52497864 409.12698364 C336.52497864 408.46698364 336.52497864 407.80698364 336.52497864 407.12698364 C337.18497864 407.12698364 337.84497864 407.12698364 338.52497864 407.12698364 C373.08539017 371.30035014 381.25599636 318.91945668 380.46638489 271.20901489 C379.36309172 232.99525829 370.91688358 192.83323171 345.52497864 163.12698364 C345.08927551 162.61296997 344.65357239 162.0989563 344.20466614 161.56936646 C316.82834371 129.6103117 277.12396156 113.74582946 235.78425598 110.35696411 C219.75657788 109.35793055 203.57305024 109.9235662 187.52497864 110.12698364 C144.85831197 110.12698364 102.1916453 110.12698364 59.52497864 110.12698364 Z " fill="#018793" transform="translate(294.4750213623047,118.87301635742188)"/>
<path d="M0 0 C2.77798764 0.16174601 4.98248974 -0.23006634 7.68359375 -0.84375 C9.68319387 -0.883742 11.68406617 -0.88721799 13.68359375 -0.84375 C14.67359375 -0.84375 15.66359375 -0.84375 16.68359375 -0.84375 C19.22804144 -0.57172845 21.76804631 -0.27107045 24.30859375 0.03515625 C26.83394802 0.30842365 26.83394802 0.30842365 29.68359375 -0.84375 C32.37644335 -1.02187624 34.97800743 -0.93102698 37.68359375 -0.84375 C38.17859375 -0.34875 38.17859375 -0.34875 38.68359375 0.15625 C41.66505727 0.32003335 44.63732721 0.43595621 47.62109375 0.53125 C75.78702282 1.71146435 101.48656568 9.00720519 121.37109375 29.90625 C141.36368793 53.11193967 144.9117482 82.53642243 144.93359375 112.03125 C144.93426849 112.8512851 144.93494324 113.67132019 144.93563843 114.51620483 C144.89427877 146.20814025 138.93575722 176.20021987 116.2109375 199.71484375 C101.90819324 213.15625 101.90819324 213.15625 95.68359375 213.15625 C95.35359375 213.81625 95.02359375 214.47625 94.68359375 215.15625 C69.83517276 224.74686863 44.18647111 224.4401991 17.99829102 224.2935791 C13.89471513 224.27284153 9.79111357 224.26392671 5.6875 224.25390625 C-2.31387132 224.2326812 -10.31511949 224.19870608 -18.31640625 224.15625 C-19.49224653 219.51203758 -19.45327553 215.03404078 -19.43666077 210.27885437 C-19.43751519 209.38436783 -19.43836962 208.48988129 -19.43924993 207.5682891 C-19.440897 204.57114046 -19.43539598 201.57404778 -19.42993164 198.5769043 C-19.42964958 196.42841086 -19.42980788 194.27991733 -19.43037415 192.13142395 C-19.43066137 186.29718693 -19.42477671 180.46297042 -19.41780019 174.62873816 C-19.41155421 168.53218168 -19.41096186 162.43562474 -19.40977478 156.33906555 C-19.40666515 144.79362219 -19.39845669 133.24818827 -19.38842529 121.70274907 C-19.37725276 108.55899086 -19.37175082 95.4152322 -19.36672986 82.27147043 C-19.35627379 55.23305837 -19.33868144 28.19465472 -19.31640625 1.15625 C-18.54554688 1.00414062 -17.7746875 0.85203125 -16.98046875 0.6953125 C-15.21111218 0.3372902 -13.44753101 -0.05062506 -11.69140625 -0.46875 C-7.66559829 -0.916062 -4.00729281 -0.50020109 0 0 Z " fill="#00949E" transform="translate(449.31640625,288.84375)"/>
<path d="M0 0 C8.25 0 16.5 0 25 0 C25 44.22 25 88.44 25 134 C16.75 134 8.5 134 0 134 C-0.33 130.7 -0.66 127.4 -1 124 C-1.99 125.0725 -2.98 126.145 -4 127.25 C-11.35559754 134.54663484 -20.23703102 136.89355217 -30.4375 137.3125 C-42.29349681 136.97793924 -53.03211131 131.91233002 -61.14453125 123.37890625 C-72.27703604 109.10586326 -73.32340936 91.36844448 -71.7265625 74.03125 C-69.65107357 61.96991811 -64.0754801 50.41716445 -54.25 42.89453125 C-42.79430146 35.34559946 -31.02985134 34.16371204 -17.62890625 36.6171875 C-10.24426089 38.98446389 -7.1696392 42.51587627 -1 48 C-0.67 32.16 -0.34 16.32 0 0 Z " fill="#F9FCFD" transform="translate(337,648)"/>
<path d="M0 0 C0.86625 0.680625 1.7325 1.36125 2.625 2.0625 C3.594375 2.743125 4.56375 3.42375 5.5625 4.125 C14.17004011 11.53516576 18.02653353 22.73619533 20.375 33.5 C20.76152047 39.00791676 20.625 44.54103777 20.625 50.0625 C-1.815 50.0625 -24.255 50.0625 -47.375 50.0625 C-45.27034249 62.46684378 -45.27034249 62.46684378 -37.6953125 71.5078125 C-31.67232914 75.2043216 -24.18302504 74.93917144 -17.375 74.0625 C-14.1715164 72.66946527 -14.1715164 72.66946527 -11.375 71.0625 C-10.385 70.7325 -9.395 70.4025 -8.375 70.0625 C-7.00165383 67.77358972 -6.22249184 65.60497553 -5.375 63.0625 C2.545 63.0625 10.465 63.0625 18.625 63.0625 C15.16842631 74.58441229 10.47506194 82.2128284 0.625 89.0625 C-5.7062347 92.16288645 -12.29044993 94.68297053 -19.375 95.0625 C-20.76912109 95.1553125 -20.76912109 95.1553125 -22.19140625 95.25 C-35.56156093 95.76485554 -48.60326408 92.20372472 -58.58984375 83.02734375 C-69.36116517 71.65427253 -72.87946586 57.73565098 -72.72851562 42.37646484 C-72.22728174 26.52673348 -66.8821472 13.98485775 -55.375 3.0625 C-40.44311518 -9.55786528 -16.50460606 -9.47486644 0 0 Z " fill="#FBFDFD" transform="translate(691.375,689.9375)"/>
<path d="M0 0 C1.17175781 0.63615234 1.17175781 0.63615234 2.3671875 1.28515625 C12.904443 7.65363222 19.07757856 16.75841597 22.74609375 28.359375 C24.68543092 36.33071949 24 43.54327071 24 52 C1.56 52 -20.88 52 -44 52 C-40.52991522 65.41759375 -40.52991522 65.41759375 -31.5 74.4375 C-25.31390564 77.14391628 -17.95548174 77.16852304 -11.52734375 75.26953125 C-6.60112791 73.01360063 -3.44370575 69.88741151 -1 65 C6.59 65 14.18 65 22 65 C19.6043162 75.78057708 15.32810108 83.52295112 6.05859375 89.79296875 C-7.61206341 97.80859126 -22.0930584 98.75118686 -37.26782227 94.83862305 C-43.04130718 93.19074953 -47.45916505 90.88000658 -52 87 C-52.91458984 86.28263672 -52.91458984 86.28263672 -53.84765625 85.55078125 C-62.53039882 77.97484982 -67.19007557 65.75227237 -68.2331543 54.48046875 C-69.0955486 38.16671592 -67.7080454 23.50608956 -57.16796875 10.3359375 C-43.35164658 -4.55083846 -18.351947 -10.26302263 0 0 Z " fill="#FBFDFD" transform="translate(489,688)"/>
<path d="M0 0 C6.55367165 4.56026319 12.1584596 10.78867847 13.6875 18.8125 C13.6875 21.1225 13.6875 23.4325 13.6875 25.8125 C6.0975 25.8125 -1.4925 25.8125 -9.3125 25.8125 C-10.3025 23.1725 -11.2925 20.5325 -12.3125 17.8125 C-16.28723422 13.55385619 -22.19564114 12.7105126 -27.8125 12.5 C-33.1626724 12.63694981 -37.21046779 13.97322182 -41.3125 17.5625 C-42.90072938 21.1360161 -42.55943639 23.13731905 -41.3125 26.8125 C-34.63624704 31.05956212 -27.72240997 32.07997447 -20 33.3125 C-6.18858145 35.53890988 5.174742 37.8782954 14.6875 48.8125 C18.81080708 54.90999653 18.45044698 62.7510018 17.6875 69.8125 C15.52765571 78.27769618 11.38846227 84.27092164 4 89 C-10.31859821 97.15157156 -27.35606211 97.62653272 -43.08984375 93.77734375 C-53.03747827 90.79908226 -59.98166615 85.95536833 -65.4375 76.95703125 C-67.53752071 72.5449685 -67.68202281 68.85631756 -68.3125 63.8125 C-60.3925 63.8125 -52.4725 63.8125 -44.3125 63.8125 C-42.9925 66.4525 -41.6725 69.0925 -40.3125 71.8125 C-32.87522071 76.99203379 -26.18031089 77.46249661 -17.3125 76.8125 C-13.74059526 75.96323594 -11.12475967 74.5461539 -8.375 72.0625 C-6.84023207 68.8124032 -6.93249476 66.35921553 -7.3125 62.8125 C-8.95476496 59.63468765 -10.06212118 58.90163362 -13.47265625 57.6875 C-14.76042969 57.39875 -16.04820312 57.11 -17.375 56.8125 C-18.07383301 56.65007813 -18.77266602 56.48765625 -19.49267578 56.3203125 C-23.32504981 55.4383322 -27.17268636 54.62856985 -31.01953125 53.8125 C-56.06545825 48.47775146 -56.06545825 48.47775146 -64.25 37.125 C-67.46930632 30.11827448 -67.58361958 21.78533499 -65.25390625 14.50390625 C-60.83154399 4.90414426 -54.89115921 0.62390689 -45.390625 -3.42578125 C-32.15036793 -8.278883 -12.22459723 -6.82732223 0 0 Z " fill="#FBFDFD" transform="translate(591.3125,689.1875)"/>
<path d="M0 0 C0.66 0.33 1.32 0.66 2 1 C2.95850667 25.84965466 3.15131667 50.67139634 3.14538372 75.5373528 C3.14517612 80.98920894 3.15073152 86.44106012 3.15544128 91.89291382 C3.16366831 102.52213588 3.16649236 113.15135239 3.16705366 123.78057738 C3.16753205 132.42614107 3.16960266 141.07170296 3.17275429 149.71726608 C3.18153428 174.30767563 3.18617711 198.89808084 3.18542381 223.48849197 C3.18536388 225.46766256 3.18536388 225.46766256 3.18530273 227.48681641 C3.18528137 228.14715291 3.18526 228.80748942 3.18523798 229.48783612 C3.18462444 250.26419591 3.19215505 271.0405394 3.20581055 291.81689453 C3.22120587 315.24901646 3.22976229 338.68112847 3.22884732 362.11325586 C3.22851651 374.48841048 3.23121356 386.86354668 3.24202538 399.23869705 C3.25116228 409.76240951 3.25327904 420.28609516 3.24651595 430.80980988 C3.24326859 436.16771236 3.24312929 441.52556351 3.2518692 446.883461 C3.32885904 497.1984906 3.32885904 497.1984906 -0.8125 518.4375 C-1.06797607 519.78630249 -1.06797607 519.78630249 -1.32861328 521.16235352 C-2.94476864 529.33695749 -5.19003898 537.16168769 -8 545 C-8.21881836 545.62422852 -8.43763672 546.24845703 -8.66308594 546.89160156 C-15.45774404 566.05273463 -27.11639784 582.26279481 -41 597 C-41.59941406 597.66386719 -42.19882812 598.32773437 -42.81640625 599.01171875 C-69.40894574 627.32731695 -111.27087486 639.74582239 -149.10017586 641.20326889 C-150.50987853 641.24359763 -151.9197095 641.27961776 -153.32962036 641.31185722 C-154.10833079 641.33232969 -154.88704122 641.35280216 -155.68934894 641.373895 C-158.24739606 641.43901064 -160.80553099 641.49734082 -163.36376953 641.55441284 C-164.25996199 641.57538437 -165.15615445 641.59635591 -166.07950425 641.61796294 C-186.13248293 642.08117158 -206.1810104 642.14422762 -226.23844194 642.13072467 C-231.36162975 642.12840778 -236.48481456 642.13198038 -241.60800171 642.13470459 C-251.57639141 642.13909422 -261.54477348 642.13821711 -271.51316345 642.13529195 C-279.62266786 642.13301273 -287.73217016 642.13273615 -295.8416748 642.13381577 C-297.00565481 642.133969 -298.16963482 642.13412223 -299.36888695 642.13428011 C-301.73492877 642.1345999 -304.10097059 642.13492411 -306.46701241 642.1352527 C-328.51948519 642.13808698 -350.57195379 642.13485186 -372.62442589 642.12945233 C-391.48757507 642.12497666 -410.35071811 642.12577049 -429.21386719 642.13037109 C-451.22434528 642.13573694 -473.23481973 642.13782238 -495.24529839 642.13475883 C-497.59665807 642.13444034 -499.94801776 642.13412597 -502.29937744 642.13381577 C-503.4557479 642.13366149 -504.61211835 642.13350721 -505.80353034 642.13334826 C-513.89797213 642.13248984 -521.99241159 642.13393116 -530.08685303 642.13629532 C-539.95740434 642.13911551 -549.82794771 642.13830819 -559.69849813 642.13301457 C-564.72049545 642.13040878 -569.74247959 642.12931888 -574.76447678 642.13266373 C-624.1554756 642.16271177 -624.1554756 642.16271177 -645.5 640.0625 C-646.25185452 639.9885699 -647.00370903 639.91463979 -647.77834702 639.83846939 C-649.52933343 639.63431527 -651.26793115 639.32797838 -653 639 C-653.33 638.34 -653.66 637.68 -654 637 C-652.37510429 636.9721976 -650.75005717 636.9532554 -649.125 636.9375 C-648.22007812 636.92589844 -647.31515625 636.91429687 -646.3828125 636.90234375 C-643.84362813 636.97564584 -641.51982023 637.17959837 -639.01520348 637.49816704 C-630.49795351 638.36116033 -621.92460792 638.13764499 -613.37393188 638.12698364 C-611.36349884 638.12813661 -609.353066 638.12972531 -607.34263361 638.13171089 C-601.83177896 638.13587989 -596.32094167 638.1338245 -590.81008697 638.13072467 C-584.86193586 638.128461 -578.91378772 638.13195495 -572.96563721 638.13470459 C-561.99294387 638.1388936 -551.02025568 638.13853167 -540.04756215 638.13579312 C-529.91388295 638.13327639 -519.78020578 638.13262142 -509.64652634 638.13381577 C-508.9740297 638.13389215 -508.30153306 638.13396854 -507.60865773 638.13404724 C-504.87875946 638.13435858 -502.14886119 638.13467698 -499.41896293 638.135007 C-473.82343798 638.13806444 -448.22791654 638.13529463 -422.63239214 638.1299101 C-399.88627387 638.12516141 -377.14016119 638.12559203 -354.39404297 638.13037109 C-328.83591672 638.13572304 -303.27779357 638.13785084 -277.71966684 638.13475883 C-274.99663758 638.13443811 -272.27360833 638.13412527 -269.55057907 638.13381577 C-268.88010263 638.13373669 -268.2096262 638.13365761 -267.51883229 638.13357614 C-257.38671605 638.13243788 -247.25460205 638.13377034 -237.12248611 638.13629532 C-225.60844006 638.13915038 -214.0944003 638.13835195 -202.580355 638.13301457 C-196.70246272 638.13037994 -190.82458182 638.12936856 -184.94668961 638.13266373 C-179.5720096 638.13563134 -174.1973516 638.13402605 -168.8226736 638.12868617 C-166.87271257 638.12756403 -164.9227497 638.12814872 -162.97278984 638.13056196 C-160.33326646 638.13357944 -157.69381961 638.13050732 -155.05430031 638.12584114 C-153.90478228 638.12935289 -153.90478228 638.12935289 -152.73204166 638.13293558 C-149.33677014 638.12084553 -146.25034298 638.02383846 -143 637 C-140.07224324 636.56404258 -137.12971123 636.2601633 -134.1875 635.9375 C-133.40568359 635.84662109 -132.62386719 635.75574219 -131.81835938 635.66210938 C-127.17935195 635.14666411 -122.66706389 634.9065341 -118 635 C-118 634.34 -118 633.68 -118 633 C-116.56274129 632.83126522 -115.12518162 632.66509263 -113.6875 632.5 C-112.88699219 632.4071875 -112.08648438 632.314375 -111.26171875 632.21875 C-109 632 -109 632 -106 632 C-105.67 631.34 -105.34 630.68 -105 630 C-103.28515625 629.5078125 -103.28515625 629.5078125 -101.0625 629.125 C-94.1222797 627.7149235 -87.83536792 624.98983288 -81.5625 621.75 C-78 620 -78 620 -75 620 C-74.67 619.34 -74.34 618.68 -74 618 C-72.02111039 617.27306096 -70.02045442 616.60183749 -68 616 C-68 615.34 -68 614.68 -68 614 C-67.01 614 -66.02 614 -65 614 C-64.67 613.01 -64.34 612.02 -64 611 C-62.34795544 610.29788106 -60.68076231 609.63028587 -59 609 C-58.67 608.34 -58.34 607.68 -58 607 C-57.01 607 -56.02 607 -55 607 C-55 606.01 -55 605.02 -55 604 C-54.175 603.690625 -53.35 603.38125 -52.5 603.0625 C-48.3738034 601.03851257 -45.82022301 597.6388229 -42.9296875 594.15625 C-41 592 -41 592 -38.8828125 590.44140625 C-36.85947002 588.89241585 -36.09755461 587.70610619 -35 585.4375 C-32.97080688 581.94982433 -32.41926325 581.53277318 -29 580 C-28.63451555 578.67511887 -28.3062434 577.33981486 -28 576 C-26.67189785 574.32916181 -25.33827304 572.66270287 -24 571 C-22.75983331 568.3205355 -22.75983331 568.3205355 -22 566 C-21.34 566 -20.68 566 -20 566 C-19.896875 565.484375 -19.79375 564.96875 -19.6875 564.4375 C-18.476333 560.14336247 -16.59257414 556.1515157 -14.5546875 552.19140625 C-9.74866521 542.32577759 -4.09204012 529.19817181 -5 518 C-4.34 518 -3.68 518 -3 518 C-3.01160156 517.07316406 -3.02320313 516.14632812 -3.03515625 515.19140625 C-3.04869141 513.39509766 -3.04869141 513.39509766 -3.0625 511.5625 C-3.07410156 510.36753906 -3.08570313 509.17257812 -3.09765625 507.94140625 C-3 505 -3 505 -2 504 C-0.48456384 490.71271025 -0.87955668 477.22358367 -0.91992188 463.8762207 C-0.92328179 461.43203739 -0.92609706 458.98785327 -0.92842102 456.54366875 C-0.93417366 451.22725223 -0.94262376 445.91085056 -0.95326233 440.59444237 C-0.9810748 426.44135444 -0.98764062 412.28824064 -0.99483001 398.13512976 C-0.99610367 395.71011552 -0.99754408 393.28510141 -0.99900532 390.86008728 C-1.02274629 349.67066798 -0.90948466 308.48166264 -0.78975868 267.29245156 C-0.77841859 263.37813642 -0.76724104 259.46382082 -0.75606883 255.5495052 C-0.69398371 233.80098654 -0.62960804 212.05247521 -0.5636909 190.30396785 C-0.51728571 174.99146624 -0.47184549 159.67896206 -0.42724609 144.36645508 C-0.4242591 143.34101387 -0.4212721 142.31557267 -0.41819459 141.25905748 C-0.40319722 136.10870661 -0.38821584 130.95835568 -0.37324238 125.80800474 C-0.25130281 83.87199569 -0.12664413 41.93599509 0 0 Z " fill="#055868" transform="translate(903,264)"/>
<path d="M0 0 C8.25 0 16.5 0 25 0 C25 44.22 25 88.44 25 134 C16.75 134 8.5 134 0 134 C0 89.78 0 45.56 0 0 Z " fill="#F8FCFC" transform="translate(728,648)"/>
<path d="M0 0 C8.25 0 16.5 0 25 0 C25 31.68 25 63.36 25 96 C16.75 96 8.5 96 0 96 C0 64.32 0 32.64 0 0 Z " fill="#FCFEFE" transform="translate(382,686)"/>
<path d="M0 0 C6.33917715 4.4934328 9.85118022 10.22252112 11.625 17.75 C12.90394701 28.50601856 12.70005561 39.41664389 6.625 48.75 C2.48844446 53.54614298 -2.06788006 56.34772549 -8.42578125 57.12109375 C-15.81681119 57.27156981 -20.77815267 56.77519784 -26.375 51.75 C-32.64173568 45.62252511 -34.71676808 38.30796504 -34.84326172 29.70996094 C-34.82803467 28.52321777 -34.82803467 28.52321777 -34.8125 27.3125 C-34.80492676 26.48137695 -34.79735352 25.65025391 -34.78955078 24.79394531 C-34.54681454 15.74714799 -32.18735612 8.8431221 -25.953125 2.15234375 C-18.65455575 -4.33326605 -8.27276012 -4.92647513 0 0 Z " fill="#017888" transform="translate(325.375,706.25)"/>
<path d="M0 0 C1.96266057 -0.00115379 3.92532092 -0.00274304 5.88798082 -0.00472724 C11.25312597 -0.00888505 16.61825324 -0.00684597 21.98339844 -0.00374103 C27.78030007 -0.00147269 33.5771987 -0.00497366 39.37409973 -0.00772095 C50.71859421 -0.01216211 62.06308207 -0.01120957 73.40757681 -0.00830831 C82.6281879 -0.00604801 91.84879713 -0.00574447 101.06940842 -0.00683212 C102.38276768 -0.00698536 103.69612695 -0.00713859 105.04928499 -0.00729647 C107.04855994 -0.00753604 109.04783489 -0.00777562 111.04710984 -0.00802336 C136.00887428 -0.0110795 160.97063512 -0.00831329 185.932399 -0.00292646 C208.09502046 0.00181994 230.25763616 0.00139325 252.42025757 -0.00338745 C277.34049326 -0.00874508 302.26072577 -0.01086384 327.18096197 -0.00777519 C329.83863219 -0.00745664 332.49630241 -0.00714227 335.15397263 -0.00683212 C336.46154233 -0.00667785 337.76911203 -0.00652357 339.11630506 -0.00636462 C348.32558055 -0.00550161 357.534854 -0.00695768 366.74412918 -0.00931168 C377.96731605 -0.01211745 389.19049593 -0.01135492 400.413682 -0.00603093 C406.13854229 -0.00340461 411.86339092 -0.0023708 417.58825111 -0.00568008 C422.83118107 -0.00866494 428.0740886 -0.00701374 433.31701653 -0.00170253 C435.21115815 -0.00058771 437.10530167 -0.00114875 438.99944206 -0.00357832 C448.20809942 -0.01448183 457.32143575 -0.00792678 466.47787476 1.12698364 C466.47787476 1.45698364 466.47787476 1.78698364 466.47787476 2.12698364 C460.10400899 2.87215375 453.89540347 3.22884918 447.47787476 3.12698364 C445.67264214 3.12698364 443.86794659 3.18453608 442.06326294 3.22572327 C404.26671416 4.06109825 366.48557077 4.18792031 328.68099976 4.00588989 C327.52064059 4.00032987 326.36028143 3.99476984 325.16475987 3.98904133 C310.49895162 3.91792239 295.83320583 3.83659044 281.16746348 3.7531271 C257.83017139 3.62127227 234.49273983 3.51505372 211.15532804 3.40690327 C207.24060002 3.38870707 203.32587303 3.3703009 199.41114616 3.35186005 C152.13514797 3.13004068 104.85961287 3.00738705 57.58309472 3.00343579 C51.3520146 3.00278528 45.12094035 2.99936303 38.88986206 2.99468994 C30.64676595 2.98868285 22.40368616 2.98844169 14.16058922 2.99272728 C11.19424675 2.99413668 8.22791724 2.99345995 5.2615757 2.99080849 C1.25821855 2.98740689 -2.74508886 2.9920398 -6.7484436 2.99758911 C-7.89405132 2.99556268 -9.03965904 2.99353624 -10.21998215 2.9914484 C-16.27745963 3.00737761 -22.222703 3.27771558 -28.24756718 3.91888618 C-30.52212524 4.12698364 -30.52212524 4.12698364 -33.77212524 4.06448364 C-36.63591096 4.01020602 -36.63591096 4.01020602 -39.70962524 5.06448364 C-43.85090929 6.21861198 -47.6951313 6.54129799 -51.97134399 6.78323364 C-54.49165184 6.97904799 -54.49165184 6.97904799 -56.41665649 8.09573364 C-59.35552504 9.53517946 -62.28908229 9.67388068 -65.52212524 10.12698364 C-81.47742927 14.76695854 -98.72727271 20.67510862 -111.55728149 31.54885864 C-113.52212524 33.12698364 -113.52212524 33.12698364 -115.86978149 34.47463989 C-119.24437254 36.57692562 -122.00355857 39.10250563 -124.89712524 41.81448364 C-125.47365845 42.35194214 -126.05019165 42.88940063 -126.64419556 43.44314575 C-130.89821678 47.45035688 -134.81962899 51.60267163 -138.52212524 56.12698364 C-139.23884399 56.95585083 -139.95556274 57.78471802 -140.69400024 58.63870239 C-147.75729548 66.94637011 -153.34860097 75.81513422 -157.56509399 85.88088989 C-158.23335131 87.4492489 -158.94847455 88.998096 -159.69790649 90.52932739 C-165.63131112 102.74516045 -168.86878004 115.68950152 -170.52212524 129.12698364 C-170.78122681 130.93102661 -170.78122681 130.93102661 -171.04556274 132.77151489 C-173.08180545 147.09899072 -173.66274716 161.22551535 -173.59742737 175.67778969 C-173.58425124 178.60057219 -173.57741924 181.52331447 -173.572052 184.44612122 C-173.56385166 188.61114467 -173.55318854 192.77615012 -173.54043579 196.94116211 C-173.5084856 207.67625954 -173.49606487 218.41137392 -173.49087524 229.14651489 C-173.49032639 230.19745897 -173.48977753 231.24840305 -173.48921204 232.33119392 C-173.48248136 255.93851453 -173.81933968 279.52946302 -174.52212524 303.12698364 C-174.85212524 303.12698364 -175.18212524 303.12698364 -175.52212524 303.12698364 C-175.58271118 302.29553833 -175.64329712 301.46409302 -175.70571899 300.60745239 C-175.83140259 298.97743286 -175.83140259 298.97743286 -175.95962524 297.31448364 C-176.04083618 296.23553833 -176.12204712 295.15659302 -176.20571899 294.04495239 C-176.42424986 291.0670846 -176.42424986 291.0670846 -177.52212524 288.12698364 C-177.61559768 286.55986106 -177.65271301 284.98906356 -177.65583801 283.41915894 C-177.660103 282.45013641 -177.66436798 281.48111389 -177.66876221 280.48272705 C-177.66830902 279.42012665 -177.66785583 278.35752625 -177.66738892 277.26272583 C-177.67074753 276.14165436 -177.67410614 275.02058289 -177.67756653 273.86553955 C-177.68710901 270.1349681 -177.68902296 266.40444157 -177.69009399 262.67385864 C-177.69331026 260.06198102 -177.69667461 257.45010357 -177.70018005 254.83822632 C-177.70658825 249.33681958 -177.70806217 243.83542486 -177.70742798 238.33401489 C-177.70689994 232.74609466 -177.71383204 227.1582452 -177.72793579 221.57034302 C-178.02950505 99.29035447 -178.02950505 99.29035447 -141.84243774 54.99026489 C-139.48450208 52.17118458 -139.48450208 52.17118458 -137.52212524 49.12698364 C-136.86212524 49.12698364 -136.20212524 49.12698364 -135.52212524 49.12698364 C-135.29396118 48.56495239 -135.06579712 48.00292114 -134.83071899 47.42385864 C-130.40734111 39.65984014 -120.93083111 33.75746924 -113.73696899 28.72073364 C-111.46106287 27.1732218 -111.46106287 27.1732218 -109.52212524 25.12698364 C-75.03739682 6.21039239 -39.09221839 -0.05027171 0 0 Z " fill="#09ADAB" transform="translate(294.5221252441406,118.87301635742188)"/>
<path d="M0 0 C0.66 0.33 1.32 0.66 2 1 C2.97070277 25.96252831 3.14118914 50.89548802 3.11606562 75.87451088 C3.11167396 81.37295972 3.11321361 86.87140769 3.1139679 92.36985779 C3.1144877 101.85566049 3.11139829 111.34145621 3.10573006 120.82725716 C3.09754055 134.54148006 3.09499227 148.25569966 3.09374207 161.96992474 C3.09156314 184.23003301 3.08494348 206.49013792 3.07543945 228.75024414 C3.06622778 250.35082989 3.05915759 271.95141463 3.05493164 293.55200195 C3.05480011 294.21998675 3.05466859 294.88797155 3.05453308 295.57619831 C3.05308348 302.95133512 3.05169171 310.32647195 3.05032361 317.70160878 C3.03998716 373.13440841 3.02240072 428.56720402 3 484 C2.67 484 2.34 484 2 484 C2 474.76 2 465.52 2 456 C1.34 456 0.68 456 0 456 C-1.06218541 407.46794414 -1.07280208 358.95583214 -0.90999443 310.41458589 C-0.87403663 299.62156805 -0.84501397 288.82853425 -0.81623887 278.03549527 C-0.76479182 258.80351542 -0.70821395 239.57155448 -0.64819336 220.33959961 C-0.59006021 201.70874763 -0.53447801 183.07789079 -0.48217773 164.44702148 C-0.47892802 163.2896838 -0.4756783 162.13234612 -0.4723301 160.9399376 C-0.45603497 155.13124768 -0.43978842 149.32255762 -0.42356598 143.5138675 C-0.28990232 95.67588848 -0.1478216 47.83793723 0 0 Z " fill="#076774" transform="translate(903,264)"/>
<path d="M0 0 C1.62489571 -0.0278024 3.24994283 -0.0467446 4.875 -0.0625 C5.77992188 -0.07410156 6.68484375 -0.08570313 7.6171875 -0.09765625 C10.3154822 -0.01976091 12.87835297 0.1935181 15.55371475 0.49900818 C20.89118286 1.04276274 26.16199176 1.13433339 31.52337646 1.11352539 C32.53476378 1.11367425 33.54615109 1.11382311 34.5881865 1.11397648 C37.95171642 1.11328619 41.3151906 1.10546302 44.67871094 1.09765625 C47.10078908 1.09573555 49.52286761 1.09427247 51.94494629 1.0932312 C57.14929595 1.09007665 62.35363293 1.08393105 67.55797577 1.07516479 C75.09767049 1.06255967 82.63735997 1.05652203 90.17706349 1.05223143 C102.43217411 1.04517472 114.6872781 1.03438283 126.94238281 1.02050781 C127.67472791 1.01968 128.40707302 1.01885219 129.16161039 1.01799929 C135.10063999 1.01125774 141.03966936 1.00433435 146.97869873 0.99739647 C152.16451 0.99134488 157.35032134 0.98536373 162.53613281 0.97949219 C163.26636484 0.97866406 163.99659686 0.97783593 164.74895713 0.97698271 C176.95573333 0.96326281 189.16250965 0.95352175 201.36929154 0.94658184 C208.88299534 0.94211914 216.39667921 0.93411768 223.91037372 0.92143703 C229.67753796 0.91195936 235.4446972 0.90765618 241.21186829 0.9051857 C243.56678217 0.90332244 245.92169547 0.89973913 248.2766037 0.89425278 C259.89610669 0.8680479 271.423566 0.87306947 283 2 C282.34 2.99 281.68 3.98 281 5 C277.91086293 5.29630951 275.02202022 5.39519083 271.93028259 5.36749268 C270.97841098 5.37076152 270.02653937 5.37403036 269.04582316 5.37739825 C265.83499599 5.38471898 262.62461812 5.37048249 259.41381836 5.35644531 C257.11913983 5.35723574 254.82446143 5.35933162 252.52978516 5.36264038 C246.27422901 5.36779379 240.01883623 5.3541921 233.76330638 5.33711338 C227.20464013 5.32208793 220.64597611 5.32325131 214.08729553 5.32244873 C203.04653202 5.31927073 192.00582754 5.30385256 180.96508789 5.28125 C169.65453582 5.25811232 158.34402283 5.24384257 147.03344727 5.24023438 C146.34018984 5.24001161 145.64693241 5.23978884 144.93266719 5.23955932 C143.53570118 5.23911666 142.13873518 5.23867463 140.74176917 5.23823325 C140.05232644 5.23801369 139.36288372 5.23779412 138.65254879 5.2375679 C137.96464856 5.23735192 137.27674833 5.23713593 136.56800264 5.2369134 C125.08651079 5.23295804 113.60502659 5.22025995 102.12354207 5.20722103 C98.24021317 5.20315159 94.35688463 5.20021066 90.47355461 5.19742584 C84.3184377 5.19246354 78.16334977 5.1821476 72.00824738 5.16798782 C69.76923193 5.16353381 67.53021263 5.16064296 65.29119301 5.15958023 C53.724812 5.15286963 42.17951057 4.99970768 30.62110901 4.54852295 C29.10642057 4.48981329 29.10642057 4.48981329 27.56113237 4.42991757 C21.18685499 4.15741629 14.84836067 3.6971646 8.5 3.0625 C7.37421794 2.95160101 7.37421794 2.95160101 6.22569281 2.83846164 C4.47333957 2.63455356 2.73337482 2.32822568 1 2 C0.67 1.34 0.34 0.68 0 0 Z " fill="#07616F" transform="translate(249,901)"/>
<path d="M0 0 C6.29951477 3.71540379 9.60724006 9.0627796 11.44140625 16.09375 C11.44140625 17.41375 11.44140625 18.73375 11.44140625 20.09375 C-2.74859375 20.09375 -16.93859375 20.09375 -31.55859375 20.09375 C-30.27741569 11.12550356 -27.97408419 6.86522756 -21.2421875 1.2578125 C-15.69505736 -2.57755822 -6.12771841 -2.17042851 0 0 Z " fill="#017282" transform="translate(477.55859375,703.90625)"/>
<path d="M0 0 C5.59379941 3.35627964 8.09374931 7.76752228 10.25390625 13.7109375 C10.734375 15.640625 10.734375 15.640625 10.734375 19.640625 C-3.455625 19.640625 -17.645625 19.640625 -32.265625 19.640625 C-30.14820634 10.11224102 -28.48838418 6.15959098 -21.265625 0.140625 C-15.05502815 -2.98551435 -6.26603537 -2.60834965 0 0 Z " fill="#01697A" transform="translate(676.265625,704.359375)"/>
<path d="M0 0 C8.25 0 16.5 0 25 0 C25 7.59 25 15.18 25 23 C16.75 23 8.5 23 0 23 C0 15.41 0 7.82 0 0 Z " fill="#FDFEFE" transform="translate(382,648)"/>
<path d="M0 0 C45.12977509 -0.01712114 90.25955054 -0.03304139 135.389328 -0.04234314 C136.05743471 -0.0424812 136.72554141 -0.04261925 137.41389378 -0.04276149 C151.93421573 -0.04575451 166.45453772 -0.04852468 180.97485976 -0.05106533 C188.09578868 -0.05231265 195.21671758 -0.0536092 202.33764648 -0.05493164 C203.04625841 -0.0550624 203.75487034 -0.05519316 204.48495536 -0.05532788 C227.44642858 -0.059588 250.40789934 -0.06709839 273.36937106 -0.07629722 C296.96844148 -0.0857343 320.56751053 -0.09188649 344.16658279 -0.09391499 C359.3721426 -0.09522899 374.57769568 -0.0994232 389.78325327 -0.10791647 C399.7495482 -0.11319991 409.71583946 -0.11480064 419.68213568 -0.11350138 C425.433235 -0.11286051 431.18432196 -0.11384723 436.93541908 -0.11920547 C442.20292167 -0.1240773 447.47040359 -0.12431377 452.73790713 -0.12089889 C454.64118622 -0.12047693 456.54446661 -0.12174068 458.44774316 -0.12488318 C467.68079259 -0.13923859 476.81949436 -0.14117966 486 1 C486 1.33 486 1.66 486 2 C479.62694402 2.74507544 473.41688675 3.10349817 467 3 C467 2.67 467 2.34 467 2 C312.89 1.67 158.78 1.34 0 1 C0 0.67 0 0.34 0 0 Z " fill="#21B2AD" transform="translate(275,119)"/>
<path d="M0 0 C2.39227401 3.92416877 2.91359814 8.18024898 3.75 12.625 C9.72896139 42.39685366 23.53085176 69.38627837 45 91 C45.99 91.495 45.99 91.495 47 92 C47 92.66 47 93.32 47 94 C47.59167969 94.26683594 48.18335938 94.53367187 48.79296875 94.80859375 C51.03804375 96.02053689 52.49055853 97.29081898 54.3125 99.0625 C67.47557776 110.82837956 84.68976956 117.79790064 101.18701172 123.36914062 C103.48980555 124.17043597 105.74819033 125.06578542 108 126 C108 126.33 108 126.66 108 127 C89.2723762 126.33115629 69.21854392 114.5083236 55 103 C54.44715332 102.55253418 53.89430664 102.10506836 53.32470703 101.64404297 C34.90297968 86.61010395 18.08589728 66.76818444 10 44 C10 43.34 10 42.68 10 42 C9.01 41.67 8.02 41.34 7 41 C7.66 41 8.32 41 9 41 C8.79842285 40.410979 8.5968457 39.82195801 8.38916016 39.21508789 C7.46285113 36.49920943 6.54389432 33.78089568 5.625 31.0625 C5.30789062 30.13630859 4.99078125 29.21011719 4.6640625 28.25585938 C2.0754178 20.57082042 -0.33226614 13.12451243 -0.125 4.9375 C-0.10695313 3.99777344 -0.08890625 3.05804687 -0.0703125 2.08984375 C-0.04710938 1.40019531 -0.02390625 0.71054687 0 0 Z " fill="#07707F" transform="translate(121,770)"/>
<path d="M0 0 C8.58 0 17.16 0 26 0 C26 0.33 26 0.66 26 1 C17.75 1 9.5 1 1 1 C1 45.55 1 90.1 1 136 C9.58 136 18.16 136 27 136 C27 91.78 27 47.56 27 2 C27.33 2 27.66 2 28 2 C28 46.55 28 91.1 28 137 C24.19487773 138.90256113 22.89785876 139.25538559 18.8671875 139.265625 C17.89652344 139.26820313 16.92585937 139.27078125 15.92578125 139.2734375 C14.91902344 139.26570312 13.91226563 139.25796875 12.875 139.25 C11.86050781 139.25773438 10.84601562 139.26546875 9.80078125 139.2734375 C8.83269531 139.27085937 7.86460937 139.26828125 6.8671875 139.265625 C5.98144043 139.26336914 5.09569336 139.26111328 4.18310547 139.25878906 C2 139 2 139 0 137 C-0.24609566 134.61432457 -0.24609566 134.61432457 -0.24050903 131.55844116 C-0.24463303 129.82520851 -0.24463303 129.82520851 -0.24884033 128.05696106 C-0.24164978 126.78310043 -0.23445923 125.50923981 -0.22705078 124.19677734 C-0.22648686 122.84674589 -0.22680286 121.49671383 -0.22793579 120.14668274 C-0.22851105 116.47537724 -0.21672892 112.80420169 -0.20278788 109.13292646 C-0.1903092 105.29855471 -0.18911228 101.46418018 -0.18673706 97.62979126 C-0.18051385 90.36601415 -0.1640917 83.10229705 -0.14403808 75.8385464 C-0.1217052 67.57022562 -0.11069223 59.30190202 -0.10064721 51.03355861 C-0.07972616 34.02233171 -0.04303948 17.01118749 0 0 Z " fill="#00364E" transform="translate(727,646)"/>
<path d="M0 0 C0.66 0 1.32 0 2 0 C3.13578974 9.61723361 3.24283776 19.20488664 3.25 28.875 C3.25067474 29.6950351 3.25134949 30.51507019 3.25204468 31.35995483 C3.21068502 63.05189025 -2.74783653 93.04396987 -25.47265625 116.55859375 C-39.77540051 130 -39.77540051 130 -46 130 C-46.33 130.66 -46.66 131.32 -47 132 C-48.85546875 132.78125 -48.85546875 132.78125 -51.1875 133.5 C-53.84454783 134.32431248 -56.41039815 135.16244927 -59 136.1875 C-63.03561421 137.28047885 -66.84587826 137.16616487 -71 137 C-68 135 -68 135 -65.9375 134.5 C-63.77936701 134.11802369 -63.77936701 134.11802369 -62 132 C-62 132.66 -62 133.32 -62 134 C-59.87255001 133.21494099 -57.74810326 132.4217394 -55.625 131.625 C-54.44164062 131.18414062 -53.25828125 130.74328125 -52.0390625 130.2890625 C-48.95506554 129.2049658 -48.95506554 129.2049658 -47 127 C-45.65421875 126.58814453 -45.65421875 126.58814453 -44.28125 126.16796875 C-40.47735514 124.81396332 -37.62736393 122.79019598 -34.5 120.3125 C-33.93047607 119.86986816 -33.36095215 119.42723633 -32.77416992 118.97119141 C-28.63200902 115.6814959 -25.31809748 112.12520227 -22 108 C-21.34 108 -20.68 108 -20 108 C-18.47700477 105.06279492 -17.19899698 102.0831351 -16 99 C-15.34 99 -14.68 99 -14 99 C-13.71898437 98.27425781 -13.43796875 97.54851562 -13.1484375 96.80078125 C-12.07918442 94.19311302 -10.87364856 91.71263324 -9.625 89.1875 C-6.34881629 82.0456128 -4.73052172 74.62711424 -3 67 C-2.7834375 66.1646875 -2.566875 65.329375 -2.34375 64.46875 C1.19637289 50.51650096 0.12365491 35.3983257 0.0625 21.125 C0.05747274 19.06901151 0.05291201 17.01302183 0.04882812 14.95703125 C0.03792482 9.97132408 0.02072847 4.9856756 0 0 Z " fill="#057D88" transform="translate(591,372)"/>
<path d="M0 0 C0.33 0 0.66 0 1 0 C1.76424282 22.60463014 2.16905295 45.1816827 2.12857056 67.79898071 C2.1249318 70.10573451 2.1233663 72.41248194 2.12231445 74.71923828 C2.10681577 102.15486905 1.73034124 129.57335561 1 157 C0.67 157 0.34 157 0 157 C-0.06058594 156.16855469 -0.12117188 155.33710938 -0.18359375 154.48046875 C-0.26738281 153.39378906 -0.35117188 152.30710937 -0.4375 151.1875 C-0.51871094 150.10855469 -0.59992188 149.02960938 -0.68359375 147.91796875 C-0.90212461 144.94010095 -0.90212461 144.94010095 -2 142 C-2.09157013 140.41036721 -2.12628141 138.81715191 -2.12698364 137.22488403 C-2.12980347 136.24140991 -2.13262329 135.25793579 -2.13552856 134.24465942 C-2.13350433 133.16634857 -2.1314801 132.08803772 -2.12939453 130.97705078 C-2.13114685 129.83991638 -2.13289917 128.70278198 -2.13470459 127.53118896 C-2.13912227 123.75254815 -2.13618188 119.97395384 -2.1328125 116.1953125 C-2.1334864 113.55947867 -2.13445715 110.9236449 -2.13571167 108.28781128 C-2.13753364 102.7444407 -2.13513115 97.20108341 -2.13037109 91.65771484 C-2.1249767 85.30342653 -2.12665545 78.94917055 -2.1321975 72.59488308 C-2.13678617 67.10918664 -2.13735005 61.62349976 -2.13475883 56.137802 C-2.13322102 52.87591058 -2.13333927 49.61403708 -2.13629532 46.35214615 C-2.14490635 34.15940324 -2.10401066 21.98257385 -1.55419922 9.80029297 C-1.51547762 8.91514574 -1.47675602 8.02999851 -1.43686104 7.11802864 C-1.12681702 1.12681702 -1.12681702 1.12681702 0 0 Z " fill="#0CACA7" transform="translate(119,265)"/>
<path d="M0 0 C0.33 0 0.66 0 1 0 C2.03516062 9.72292452 2.13115882 19.37858032 2.09765625 29.140625 C2.09578657 30.76015173 2.09436527 32.37967904 2.09336853 33.99920654 C2.08958663 38.22082129 2.07979434 42.44240055 2.06866455 46.66400146 C2.05653765 51.75117764 2.05202755 56.83836582 2.04621124 61.92555237 C2.03657942 69.61705945 2.01739286 77.30848895 2 85 C25.43 85 48.86 85 73 85 C69.33669831 87.44220112 67.59888959 87.24272492 63.23364258 87.22705078 C62.20886055 87.22748886 62.20886055 87.22748886 61.16337585 87.22793579 C58.90696477 87.22654332 56.65088459 87.21098629 54.39453125 87.1953125 C52.82940349 87.19158207 51.26427339 87.18873524 49.69914246 87.18673706 C45.58091782 87.17910294 41.46283439 87.1594564 37.34466553 87.1373291 C33.14190582 87.11686589 28.93912329 87.10773433 24.73632812 87.09765625 C16.49082064 87.07621026 8.24542789 87.04207703 0 87 C-1.03054487 82.76609664 -1.14183027 78.66741408 -1.12939453 74.33569336 C-1.13114685 73.58060989 -1.13289917 72.82552643 -1.13470459 72.04756165 C-1.13909151 69.56163203 -1.13619655 67.07577404 -1.1328125 64.58984375 C-1.13348638 62.85779303 -1.1344571 61.12574241 -1.13571167 59.39369202 C-1.1371843 55.76823016 -1.13504778 52.14279297 -1.13037109 48.51733398 C-1.12466981 43.87129474 -1.1279581 39.22531322 -1.13394356 34.57927608 C-1.13755725 31.00451726 -1.13640693 27.42977213 -1.13381577 23.85501289 C-1.13314896 22.14180049 -1.13396633 20.42858685 -1.13629532 18.7153759 C-1.13883554 16.32185448 -1.13496207 13.92842657 -1.12939453 11.53491211 C-1.13141876 10.82779083 -1.13344299 10.12066956 -1.13552856 9.39212036 C-1.12141488 6.11585582 -1.00805907 3.13346334 0 0 Z " fill="#087F89" transform="translate(431,426)"/>
<path d="M0 0 C0.99 0.495 0.99 0.495 2 1 C3.25397499 28.67678403 2.94443406 56.31740499 2.60510254 84.01281738 C2.53315156 90.00783877 2.4691057 96.00294478 2.40429688 101.99804688 C2.27705257 113.66545761 2.1413811 125.33275257 2 137 C1.34 137 0.68 137 0 137 C0 91.79 0 46.58 0 0 Z " fill="#006370" transform="translate(903,264)"/>
<path d="M0 0 C0.66 0 1.32 0 2 0 C2 41.25 2 82.5 2 125 C1.67 125 1.34 125 1 125 C-1.00385052 108.58318501 -1.28504402 92.32088611 -1.19723511 75.79704666 C-1.18739405 73.72772156 -1.1816311 71.65842428 -1.17724609 69.58908081 C-1.12800692 46.38446 -0.77028187 23.19244946 0 0 Z " fill="#047783" transform="translate(118,632)"/>
<path d="M0 0 C2.77798764 0.16174601 4.98248974 -0.23006634 7.68359375 -0.84375 C9.68319387 -0.883742 11.68406617 -0.88721799 13.68359375 -0.84375 C14.67359375 -0.84375 15.66359375 -0.84375 16.68359375 -0.84375 C19.22804144 -0.57172845 21.76804631 -0.27107045 24.30859375 0.03515625 C26.83394802 0.30842365 26.83394802 0.30842365 29.68359375 -0.84375 C32.37644335 -1.02187624 34.97800743 -0.93102698 37.68359375 -0.84375 C38.17859375 -0.34875 38.17859375 -0.34875 38.68359375 0.15625 C40.16998367 0.31280027 41.66308502 0.40691943 43.15625 0.47265625 C44.50493164 0.53549805 44.50493164 0.53549805 45.88085938 0.59960938 C47.29915039 0.65858398 47.29915039 0.65858398 48.74609375 0.71875 C49.69548828 0.76193359 50.64488281 0.80511719 51.62304688 0.84960938 C53.97640728 0.95604276 56.32987729 1.05806008 58.68359375 1.15625 C58.68359375 1.48625 58.68359375 1.81625 58.68359375 2.15625 C47.22953716 3.26912545 36.14985706 2.95851815 24.68359375 2.15625 C24.35359375 2.81625 24.02359375 3.47625 23.68359375 4.15625 C19.06359375 4.15625 14.44359375 4.15625 9.68359375 4.15625 C9.68359375 3.49625 9.68359375 2.83625 9.68359375 2.15625 C8.69359375 2.15625 7.70359375 2.15625 6.68359375 2.15625 C6.68359375 2.81625 6.68359375 3.47625 6.68359375 4.15625 C5.59820312 4.14464844 4.5128125 4.13304687 3.39453125 4.12109375 C1.94922048 4.11170862 0.50390784 4.10260919 -0.94140625 4.09375 C-1.65425781 4.08537109 -2.36710937 4.07699219 -3.1015625 4.06835938 C-7.28985063 4.04914704 -11.18925245 4.3295173 -15.31640625 5.15625 C-15.30593262 5.8675708 -15.29545898 6.5788916 -15.28466797 7.31176758 C-15.24312624 10.53072586 -15.21708586 13.74962776 -15.19140625 16.96875 C-15.17464844 18.08830078 -15.15789062 19.20785156 -15.140625 20.36132812 C-15.13417969 21.43447266 -15.12773437 22.50761719 -15.12109375 23.61328125 C-15.11062012 24.60303955 -15.10014648 25.59279785 -15.08935547 26.61254883 C-15.31640625 29.15625 -15.31640625 29.15625 -17.31640625 32.15625 C-17.3414624 31.32375732 -17.36651855 30.49126465 -17.39233398 29.63354492 C-17.48753319 26.54162167 -17.58676297 23.44986148 -17.6887207 20.3581543 C-17.75327631 18.36321681 -17.81318455 16.36813071 -17.87304688 14.37304688 C-17.91494141 13.11943359 -17.95683594 11.86582031 -18 10.57421875 C-18.03665771 9.41688232 -18.07331543 8.2595459 -18.11108398 7.06713867 C-18.19969134 4.0919054 -18.19969134 4.0919054 -19.31640625 1.15625 C-17.65164939 0.81350594 -15.98445302 0.48260698 -14.31640625 0.15625 C-13.45015625 -0.05 -12.58390625 -0.25625 -11.69140625 -0.46875 C-7.66559829 -0.916062 -4.00729281 -0.50020109 0 0 Z " fill="#08A3A4" transform="translate(449.31640625,288.84375)"/>
<path d="M0 0 C1.07547089 -0.00137466 2.15094177 -0.00274933 3.25900269 -0.00416565 C4.4285701 -0.00057037 5.59813751 0.0030249 6.80314636 0.00672913 C8.66229675 0.00651009 8.66229675 0.00651009 10.55900574 0.00628662 C13.9491214 0.00686314 17.33917587 0.01187205 20.72928071 0.01886058 C24.2753597 0.02511971 27.82143953 0.02569994 31.36752319 0.02688599 C38.07869032 0.02999175 44.78984112 0.03819497 51.50100106 0.04823548 C59.14304915 0.05942004 66.78509803 0.06491297 74.42715228 0.06993091 C90.14388306 0.08037821 105.86059757 0.09796305 121.57731628 0.12025452 C121.57731628 0.78025452 121.57731628 1.44025452 121.57731628 2.12025452 C120.65712346 2.11887183 120.65712346 2.11887183 119.71834087 2.1174612 C104.75153874 2.09532115 89.78474168 2.07880172 74.81792736 2.06844234 C67.57992144 2.06329873 60.34192649 2.05629313 53.10392761 2.04481506 C46.7910441 2.03480888 40.47816853 2.02838703 34.1652773 2.02616602 C30.82652119 2.02486895 27.48780573 2.02131239 24.14905357 2.01452446 C20.41052802 2.00722847 16.67204902 2.00626718 12.93351746 2.00672913 C11.84162613 2.00313385 10.7497348 1.99953857 9.62475586 1.99583435 C2.88942473 2.00479536 -3.72680002 2.39099075 -10.42268372 3.12025452 C-10.42268372 2.46025452 -10.42268372 1.80025452 -10.42268372 1.12025452 C-6.88451117 0.31394847 -3.62584365 -0.00358639 0 0 Z " fill="#02A7A8" transform="translate(274.4226837158203,119.87974548339844)"/>
<path d="M0 0 C0.66 0 1.32 0 2 0 C1.56459337 4.61531029 1.30737319 6.84189068 -2 10 C-3.03168596 11.58397436 -4.02779026 13.19134026 -5 14.8125 C-7.99847399 19.59471438 -11.23134564 24.10676027 -14.6875 28.5625 C-15.38262695 29.4738269 -15.38262695 29.4738269 -16.09179688 30.40356445 C-18.52088107 33.49103532 -20.48284434 35.33720527 -24 37 C-24.29350342 37.60803467 -24.58700684 38.21606934 -24.8894043 38.8425293 C-28.3752893 45.61429578 -36.7878839 50.08606445 -43 54.125 C-43.75539063 54.62386719 -44.51078125 55.12273438 -45.2890625 55.63671875 C-47.51818382 57.1036491 -49.7574328 58.55373019 -52 60 C-52.69585205 60.45632813 -53.3917041 60.91265625 -54.10864258 61.3828125 C-58.17471441 64.00413426 -62.12963247 66.05660652 -66.6875 67.75 C-67.76386719 68.15734375 -68.84023438 68.5646875 -69.94921875 68.984375 C-72.63666554 69.87904358 -75.2122276 70.52416501 -78 71 C-78 70.34 -78 69.68 -78 69 C-76.49373047 68.36384766 -76.49373047 68.36384766 -74.95703125 67.71484375 C-56.43077558 59.80821232 -39.88340249 50.46360479 -25.83984375 35.734375 C-24 34 -24 34 -22 34 C-21.75507812 33.44183594 -21.51015625 32.88367188 -21.2578125 32.30859375 C-19.76035076 29.56014689 -17.92036866 27.43213443 -15.875 25.0625 C-9.46686279 17.35206394 -4.39299841 9.01507956 0 0 Z " fill="#067582" transform="translate(655,492)"/>
<path d="M0 0 C3 0 3 0 4.39111328 1.30664062 C4.86274902 1.91701172 5.33438477 2.52738281 5.8203125 3.15625 C6.61659058 4.18274658 6.61659058 4.18274658 7.42895508 5.22998047 C7.9886499 5.97908691 8.54834473 6.72819336 9.125 7.5 C9.70467529 8.27102051 10.28435059 9.04204102 10.8815918 9.83642578 C22.48111566 25.56268788 30.887505 43.26287886 36 62.125 C36.20786133 62.88208252 36.41572266 63.63916504 36.62988281 64.41918945 C37.96508901 69.71967746 38.17307463 74.53733202 38 80 C36.53173227 77.28145229 35.62677114 74.842383 35.0234375 71.81640625 C34.04235728 67.14336627 32.88086777 62.54367323 31.625 57.9375 C31.33109375 56.81118164 31.33109375 56.81118164 31.03125 55.66210938 C29.77260257 51.05370722 28.12415228 46.97572344 25.90136719 42.7487793 C24.84534696 40.69995132 24.06963166 38.61275129 23.3125 36.4375 C18.65305102 24.64439851 11.14352046 14.48236268 3.1875 4.73046875 C1 2 1 2 0 0 Z " fill="#047783" transform="translate(863,168)"/>
<path d="M0 0 C0.33 0 0.66 0 1 0 C1.98600987 4.10837446 2.13389122 7.96861834 2.125 12.1875 C2.12886719 14.03408203 2.12886719 14.03408203 2.1328125 15.91796875 C2 19 2 19 1 21 C-7.76345572 22.64703246 -17.13720798 22.07837166 -26.01464844 21.96337891 C-26.89024414 21.95483887 -27.76583984 21.94629883 -28.66796875 21.9375 C-29.45453857 21.92589844 -30.2411084 21.91429687 -31.05151367 21.90234375 C-33.08138303 21.87324096 -33.08138303 21.87324096 -35 23 C-35 22.34 -35 21.68 -35 21 C-36.11375 21.185625 -37.2275 21.37125 -38.375 21.5625 C-42 22 -42 22 -44 21 C-45.81171098 20.84693099 -47.6283794 20.75053339 -49.4453125 20.68359375 C-50.52167969 20.64169922 -51.59804688 20.59980469 -52.70703125 20.55664062 C-53.83496094 20.51732422 -54.96289062 20.47800781 -56.125 20.4375 C-57.26066406 20.39431641 -58.39632813 20.35113281 -59.56640625 20.30664062 C-62.37747768 20.2003396 -65.18863945 20.09830595 -68 20 C-68 19.67 -68 19.34 -68 19 C-45.56 19 -23.12 19 0 19 C0 12.73 0 6.46 0 0 Z " fill="#00495C" transform="translate(513,721)"/>
<path d="M0 0 C0.33 0 0.66 0 1 0 C1.25112548 2.52033159 1.47626233 5.03876568 1.6875 7.5625 C1.76033203 8.26697266 1.83316406 8.97144531 1.90820312 9.69726562 C2.39238994 15.87776794 1.12136635 19.94523245 -2.46484375 25.109375 C-2.95082031 25.65078125 -3.43679688 26.1921875 -3.9375 26.75 C-4.66259766 27.57757812 -4.66259766 27.57757812 -5.40234375 28.421875 C-8.61958801 31.59978865 -12.03591656 33.66101659 -16.125 35.5625 C-16.99382813 35.97628906 -17.86265625 36.39007812 -18.7578125 36.81640625 C-26.86230699 39.77503496 -35.06310967 40.35065371 -43.625 40.625 C-45.13126953 40.68300781 -45.13126953 40.68300781 -46.66796875 40.7421875 C-49.11181005 40.83528622 -51.55566596 40.92110913 -54 41 C-54 40.34 -54 39.68 -54 39 C-56.31 38.67 -58.62 38.34 -61 38 C-57.15282308 36.61501631 -53.98024046 37.42963565 -50 38 C-35.22606671 38.86416708 -20.7196399 37.55702124 -9.1875 27.5625 C-3.44007675 20.8298042 -0.91591977 14.96002287 -0.375 6.125 C-0.30023437 4.97257813 -0.22546875 3.82015625 -0.1484375 2.6328125 C-0.09945312 1.76398437 -0.05046875 0.89515625 0 0 Z " fill="#064B5D" transform="translate(609,746)"/>
<path d="M0 0 C1.14109582 3.42328747 0.84733551 4.06602175 -0.375 7.3125 C-5.53080142 21.11751969 -3.96163919 37.36274609 1 51 C4.19345342 57.26582803 8.33012084 62.76407488 13 68 C3.89604197 63.91689436 -0.85795811 53.57327566 -4.265625 44.70703125 C-8.62007383 31.13771006 -8.70617177 17.27919685 -2.375 4.4375 C-1.59324574 2.95307067 -0.80509102 1.47190305 0 0 Z " fill="#084156" transform="translate(623,708)"/>
<path d="M0 0 C4.12498538 -0.02892385 8.24994485 -0.04677267 12.375 -0.0625 C14.1384375 -0.07506836 14.1384375 -0.07506836 15.9375 -0.08789062 C17.61972656 -0.09272461 17.61972656 -0.09272461 19.3359375 -0.09765625 C20.89127197 -0.10551147 20.89127197 -0.10551147 22.47802734 -0.11352539 C25 0 25 0 27 1 C26.28483813 7.79403779 23.77907446 14.33138831 20 20 C17.375 21.1875 17.375 21.1875 15 22 C16.63567595 18.59296991 18.58288299 15.5252279 20.68359375 12.390625 C22.4926798 9.10528179 23.6831105 5.51170533 25 2 C17.08 2 9.16 2 1 2 C0.67 3.32 0.34 4.64 0 6 C-3.24760389 9.80433598 -6.27017975 12.33580399 -11 14 C-14.68189783 14.23393274 -18.3166154 14.17695976 -22 14 C-22 13.67 -22 13.34 -22 13 C-20.98679687 12.86464844 -19.97359375 12.72929688 -18.9296875 12.58984375 C-10.12784752 11.47843101 -10.12784752 11.47843101 -3.125 6.5 C-1.5859727 4.29309293 -0.86469611 2.59408832 0 0 Z " fill="#04455B" transform="translate(685,751)"/>
<path d="M0 0 C0.33 0 0.66 0 1 0 C1.93049178 26.38503328 1.96447787 52.61573467 1 79 C-1.43739862 76.56260138 -1.23817697 75.26521757 -1.25994873 71.93920898 C-1.25432922 71.23731445 -1.24870972 70.53541992 -1.24291992 69.81225586 C-1.24481827 69.07229874 -1.24671661 68.33234161 -1.24867249 67.56996155 C-1.25238461 65.11814868 -1.24167089 62.6666304 -1.23046875 60.21484375 C-1.22927719 58.51615941 -1.22882374 56.81747441 -1.2290802 55.11878967 C-1.22751464 51.55693443 -1.21921875 47.9951796 -1.20581055 44.43334961 C-1.18880769 39.85754413 -1.18499652 35.28184896 -1.18575573 30.70601559 C-1.18548441 27.19827716 -1.18000955 23.69056307 -1.17275429 20.18283272 C-1.16956244 18.49505358 -1.16759902 16.80727167 -1.16686058 15.11948967 C-1.16470318 12.76572806 -1.15597247 10.41208577 -1.14526367 8.05834961 C-1.14571686 7.35443085 -1.14617004 6.65051208 -1.14663696 5.92526245 C-1.11447518 1.11447518 -1.11447518 1.11447518 0 0 Z " fill="#0C9B9C" transform="translate(431,340)"/>
<path d="M0 0 C0.33 0 0.66 0 1 0 C2.14904116 25.33391284 2.10739218 50.64553242 2 76 C1.01 76.495 1.01 76.495 0 77 C-1.3645895 51.27603622 -0.99510577 25.72454286 0 0 Z " fill="#047E87" transform="translate(118,554)"/>
<path d="M0 0 C5.50746287 1.04904055 7.68929878 3.49474589 10.7421875 7.90625 C13.21561686 12.0235113 14 15.22120361 14 20 C-0.19 20 -14.38 20 -29 20 C-29 19.34 -29 18.68 -29 18 C-15.47 18 -1.94 18 12 18 C8.73847736 8.95829775 8.73847736 8.95829775 3 3 C2 2 1 1 0 0 Z " fill="#0A5568" transform="translate(475,704)"/>
<path d="M0 0 C0.33 0 0.66 0 1 0 C0.84015625 1.26199219 0.6803125 2.52398438 0.515625 3.82421875 C-1.23780534 19.72633961 -1.74593383 36.3641383 7.109375 50.2578125 C7.40328125 50.83273437 7.6971875 51.40765625 8 52 C7.67 52.66 7.34 53.32 7 54 C0 44.60526316 0 44.60526316 0 39 C-0.66 39 -1.32 39 -2 39 C-2 35.7 -2 32.4 -2 29 C-2.66 29 -3.32 29 -4 29 C-4.5349432 18.39029322 -3.48897235 10.10867435 0 0 Z " fill="#095B6D" transform="translate(422,714)"/>
<path d="M0 0 C0.33 0 0.66 0 1 0 C1.78896639 8.05862833 2.13815029 16.01451752 2.09765625 24.109375 C2.0962413 25.20219788 2.09482635 26.29502075 2.09336853 27.42095947 C2.08783294 30.86400249 2.07529306 34.3069771 2.0625 37.75 C2.05747666 40.10416572 2.05291522 42.45833247 2.04882812 44.8125 C2.03788473 50.54168946 2.02121234 56.27083984 2 62 C1.67 62 1.34 62 1 62 C0.93941406 61.16855469 0.87882812 60.33710938 0.81640625 59.48046875 C0.69072266 57.85044922 0.69072266 57.85044922 0.5625 56.1875 C0.48128906 55.10855469 0.40007812 54.02960938 0.31640625 52.91796875 C0.09787539 49.94010095 0.09787539 49.94010095 -1 47 C-1.09592108 44.74639762 -1.1307431 42.49001687 -1.1328125 40.234375 C-1.13376923 39.56392151 -1.13472595 38.89346802 -1.13571167 38.20269775 C-1.13639245 36.77705797 -1.13454525 35.35141509 -1.13037109 33.92578125 C-1.12512196 31.79940294 -1.13026618 29.67324583 -1.13671875 27.546875 C-1.14074768 18.32385692 -0.73205682 9.19490041 0 0 Z " fill="#089D9D" transform="translate(118,360)"/>
<path d="M0 0 C2.47211325 0.98357614 4.93939092 1.97468854 7.39453125 3 C24.2868392 9.98615644 38.81116233 8.48579926 56 3 C55.67 3.66 55.34 4.32 55 5 C54.34 5 53.68 5 53 5 C53 5.66 53 6.32 53 7 C49.95365054 8.73334377 47.48929907 9.33688939 44.0078125 9.6328125 C43.05519531 9.71660156 42.10257813 9.80039062 41.12109375 9.88671875 C40.13238281 9.96535156 39.14367187 10.04398438 38.125 10.125 C37.14402344 10.21136719 36.16304687 10.29773438 35.15234375 10.38671875 C21.98670896 11.50606422 21.98670896 11.50606422 16 9 C13.01617932 8.25404483 10.01287914 7.61701664 7 7 C7 6.34 7 5.68 7 5 C6.01 5 5.02 5 4 5 C4 4.34 4 3.68 4 3 C2.68 2.34 1.36 1.68 0 1 C0 0.67 0 0.34 0 0 Z " fill="#084054" transform="translate(636,776)"/>
<path d="M0 0 C18.40316206 0.91699605 18.40316206 0.91699605 24.625 6.25 C26.43852233 9.87704465 26.63342206 11.98832698 26 16 C23.81056898 19.41293659 22.01607881 21.45478698 18.4375 23.375 C13.33127157 24.30340517 8.16978143 24.52626518 3 24 C2.34 23.34 1.68 22.68 1 22 C2.04800781 21.93941406 3.09601562 21.87882813 4.17578125 21.81640625 C5.55470048 21.73198262 6.93360605 21.64733553 8.3125 21.5625 C9.00279297 21.52318359 9.69308594 21.48386719 10.40429688 21.44335938 C13.47161535 21.25072585 16.06968152 20.97677283 19 20 C19.33 19.01 19.66 18.02 20 17 C20.99 17 21.98 17 23 17 C23.13536774 15.56510191 23.23217143 14.12652893 23.3125 12.6875 C23.37050781 11.88699219 23.42851563 11.08648438 23.48828125 10.26171875 C23.20348211 7.83532452 23.20348211 7.83532452 21.0625 6.34375 C17.02549645 4.57241171 12.99576525 3.68639437 8.6875 2.8125 C7.85154297 2.63525391 7.01558594 2.45800781 6.15429688 2.27539062 C4.10458877 1.84202377 2.05251318 1.41988068 0 1 C0 0.67 0 0.34 0 0 Z " fill="#07475C" transform="translate(559,743)"/>
<path d="M0 0 C0 0.33 0 0.66 0 1 C-0.73001221 1.0093457 -1.46002441 1.01869141 -2.2121582 1.02832031 C-5.57957643 1.08262063 -8.945693 1.16614882 -12.3125 1.25 C-13.46041016 1.26417969 -14.60832031 1.27835938 -15.79101562 1.29296875 C-24.55402043 1.54121251 -32.18742516 2.95937346 -39.68481445 7.69628906 C-40.44882568 8.12651367 -41.21283691 8.55673828 -42 9 C-42.66 8.67 -43.32 8.34 -44 8 C-33.23282443 1 -33.23282443 1 -28 1 C-28 0.34 -28 -0.32 -28 -1 C-19.13087259 -4.3787152 -8.35737944 -4.77564539 0 0 Z " fill="#0A5C6E" transform="translate(578,683)"/>
<path d="M0 0 C0.33 0.99 0.66 1.98 1 3 C0.67 3.66 0.34 4.32 0 5 C12.87 5 25.74 5 39 5 C39.33 3.68 39.66 2.36 40 1 C40.495 3.97 40.495 3.97 41 7 C26.81 7 12.62 7 -2 7 C-1 1 -1 1 0 0 Z " fill="#0C5567" transform="translate(646,717)"/>
<path d="M0 0 C8.25 0 16.5 0 25 0 C26.08644535 4.3457814 25.90680911 4.94960548 24.0625 8.75 C23.49208984 9.94882812 23.49208984 9.94882812 22.91015625 11.171875 C22.60980469 11.77515625 22.30945313 12.3784375 22 13 C21.505 12.01 21.505 12.01 21 11 C21.99 8.03 22.98 5.06 24 2 C16.41 2 8.82 2 1 2 C0.34 3.65 -0.32 5.3 -1 7 C-4.83447004 10.83447004 -7.55749455 12.61124961 -13 13 C-11.01902074 11.67934716 -9.01894894 10.38684309 -7 9.125 C-3.19616328 6.43061566 -1.46607612 4.39822836 0 0 Z " fill="#034B60" transform="translate(487,751)"/>
<path d="M0 0 C8.67611654 -0.02328301 17.35222214 -0.04099581 26.02836323 -0.05181217 C30.05806401 -0.05700634 34.08774325 -0.0640402 38.11743164 -0.07543945 C42.01428117 -0.08639257 45.91111011 -0.09230287 49.80797386 -0.09487724 C51.28653474 -0.09670929 52.76509463 -0.10028625 54.24364662 -0.10573006 C62.54601745 -0.13505186 70.74410053 0.03679239 79 1 C79 1.33 79 1.66 79 2 C72.62694402 2.74507544 66.41688675 3.10349817 60 3 C60 2.67 60 2.34 60 2 C30.3 1.505 30.3 1.505 0 1 C0 0.67 0 0.34 0 0 Z " fill="#16A4A5" transform="translate(682,119)"/>
<path d="M0 0 C0.99 0.495 0.99 0.495 2 1 C2.19350491 5.57107542 2.37201718 10.14240967 2.53710938 14.71459961 C2.59523985 16.26749064 2.65734981 17.82023832 2.72363281 19.37280273 C2.81861145 21.61415469 2.89891073 23.85564495 2.9765625 26.09765625 C3.00875885 26.78336197 3.0409552 27.46906769 3.0741272 28.17555237 C3.21872116 32.90762986 2.47697573 36.56655238 1 41 C0.67 41 0.34 41 0 41 C0 27.47 0 13.94 0 0 Z " fill="#04707B" transform="translate(903,264)"/>
<path d="M0 0 C0.78809052 -0.00095673 1.57618103 -0.00191345 2.38815308 -0.00289917 C4.05401693 -0.00357805 5.71988346 -0.00174417 7.38574219 0.00244141 C9.90045328 0.00775078 12.41498224 0.00250881 14.9296875 -0.00390625 C23.27190636 -0.00701045 31.51052532 0.11260034 39.8046875 1.1328125 C39.8046875 1.4628125 39.8046875 1.7928125 39.8046875 2.1328125 C38.58998779 2.12757568 37.37528809 2.12233887 36.1237793 2.11694336 C31.57072704 2.09869597 27.01767795 2.08730908 22.46459961 2.07788086 C20.50268 2.07288542 18.54076404 2.06608679 16.57885742 2.05737305 C1.66048033 1.92190408 1.66048033 1.92190408 -13.1953125 3.1328125 C-13.1953125 2.4728125 -13.1953125 1.8128125 -13.1953125 1.1328125 C-8.79690816 0.04482597 -4.5022984 -0.01216756 0 0 Z " fill="#08B1AE" transform="translate(277.1953125,119.8671875)"/>
<path d="M0 0 C0.33 0 0.66 0 1 0 C1.80639797 4.24580144 2.12846211 8.25880442 2.1328125 12.578125 C2.13410156 13.82207031 2.13539063 15.06601562 2.13671875 16.34765625 C2.13285156 17.63542969 2.12898437 18.92320312 2.125 20.25 C2.12886719 21.52230469 2.13273438 22.79460937 2.13671875 24.10546875 C2.12946607 31.13331668 1.89567756 38.02636472 1 45 C0.67 45 0.34 45 0 45 C-0.74008006 29.92653273 -1.27892258 15.05193494 0 0 Z " fill="#036D7C" transform="translate(675,377)"/>
<path d="M0 0 C9.55843847 8.71504684 13.99034004 19.97102013 18 32 C18.03954234 34.33299825 18.04401732 36.66708189 18 39 C16.04382307 36.06573461 15.15364396 33.44513178 14.1472168 30.09594727 C11.46044406 21.21490178 7.89017112 13.71726065 2.85546875 5.94140625 C1 3 1 3 0 0 Z " fill="#05868F" transform="translate(571,321)"/>
<path d="M0 0 C0 3 0 3 -1 5 C-1.33333333 8 -1.33333333 8 -1 11 C2.44450737 13.29633824 4.93812283 13.54016485 9 14 C9 14.66 9 15.32 9 16 C9.73605469 15.98839844 10.47210937 15.97679687 11.23046875 15.96484375 C12.20628906 15.95582031 13.18210937 15.94679688 14.1875 15.9375 C15.15042969 15.92589844 16.11335937 15.91429687 17.10546875 15.90234375 C19.85576513 15.99513378 22.32479591 16.37888315 25 17 C23 19 23 19 19.625 19.3125 C11.90201568 19.10110444 2.68254319 17.52896094 -3 12 C-4.125 8.5625 -4.125 8.5625 -4 5 C-2.0625 2.0625 -2.0625 2.0625 0 0 Z " fill="#0C5366" transform="translate(552,704)"/>
<path d="M0 0 C1.14109582 3.42328747 0.84733551 4.06602175 -0.375 7.3125 C-1.64759778 10.86880066 -2.5176786 14.2378931 -3 18 C-3.33 18 -3.66 18 -4 18 C-4.33 24.6 -4.66 31.2 -5 38 C-8.69299588 30.61400825 -7.859084 20.10290158 -5.77734375 12.140625 C-4.23981032 7.90661335 -2.15834985 3.94599075 0 0 Z " fill="#067081" transform="translate(623,708)"/>
<path d="M0 0 C0.33 0.66 0.66 1.32 1 2 C-1.64446095 8.61115237 -6.33008842 12.88083347 -12 17 C-15.15625 18.265625 -15.15625 18.265625 -18.5 19.25 C-19.6034375 19.58515625 -20.706875 19.9203125 -21.84375 20.265625 C-24.70830521 20.93213042 -27.07777256 21.15265367 -30 21 C-27.18666571 19.12444381 -25.05212013 18.28188517 -21.875 17.25 C-11.98890677 13.68944136 -5.95504929 8.61663081 0 0 Z " fill="#084A5D" transform="translate(507,764)"/>
<path d="M0 0 C13.86 0.495 13.86 0.495 28 1 C27.67 1.66 27.34 2.32 27 3 C18.74906834 4.44753187 10.34831859 4.09219002 2 4 C1.34 2.68 0.68 1.36 0 0 Z " fill="#01475B" transform="translate(727,781)"/>
<path d="M0 0 C0.33 0 0.66 0 1 0 C0.67 14.52 0.34 29.04 0 44 C-2.59342981 41.40657019 -2.24809752 39.61622006 -2.27789307 36.08230591 C-2.2738446 35.27397308 -2.26979614 34.46564026 -2.265625 33.6328125 C-2.26753845 32.80167938 -2.2694519 31.97054626 -2.27142334 31.11422729 C-2.27278565 29.35398049 -2.26908602 27.59372365 -2.26074219 25.83349609 C-2.25007009 23.14267266 -2.26062181 20.45252097 -2.2734375 17.76171875 C-2.27211538 16.05208186 -2.26955191 14.34244539 -2.265625 12.6328125 C-2.26967346 11.82852814 -2.27372192 11.02424377 -2.27789307 10.19558716 C-2.24560451 6.3337002 -2.2011744 3.26897349 0 0 Z " fill="#099195" transform="translate(432,375)"/>
<path d="M0 0 C8.77163325 -0.16470403 17.44232179 0.35382607 26.1875 1 C27.53447962 1.09671122 28.88148477 1.19306757 30.22851562 1.2890625 C33.48594415 1.52256992 36.7430725 1.75962219 40 2 C40 2.33 40 2.66 40 3 C35.57088594 3.02486762 31.14180975 3.04293889 26.71264648 3.05493164 C25.2084075 3.05993555 23.70417332 3.06674073 22.19995117 3.07543945 C20.02781991 3.08767884 17.85575341 3.09326786 15.68359375 3.09765625 C14.37962646 3.10289307 13.07565918 3.10812988 11.73217773 3.11352539 C8.06054093 3.00184153 4.60241874 2.72333715 1 2 C0.67 1.34 0.34 0.68 0 0 Z " fill="#036272" transform="translate(249,901)"/>
<path d="M0 0 C-7.04515499 4.69676999 -16.40418431 4.36158267 -24.625 4.625 C-26.13126953 4.68300781 -26.13126953 4.68300781 -27.66796875 4.7421875 C-30.11181005 4.83528622 -32.55566596 4.92110913 -35 5 C-35 4.34 -35 3.68 -35 3 C-37.31 2.67 -39.62 2.34 -42 2 C-38.15282308 0.61501631 -34.98024046 1.42963565 -31 2 C-21.70678746 2.54358499 -13.71855692 1.84370091 -4.73046875 -0.44140625 C-2 -1 -2 -1 0 0 Z " fill="#073349" transform="translate(590,782)"/>
<path d="M0 0 C1.32 0.33 2.64 0.66 4 1 C3.3503125 2.07314453 3.3503125 2.07314453 2.6875 3.16796875 C-2.51361911 12.47460086 -3.48709789 20.44349631 -1 30.8125 C-0.67 31.864375 -0.34 32.91625 0 34 C-3.15143994 31.42154914 -4.07118488 28.92960244 -5 25 C-5.52745532 18.67053618 -5.29053239 11.98968095 -3 6 C-2.22076172 5.22462891 -2.22076172 5.22462891 -1.42578125 4.43359375 C0.35258608 2.98246377 0.35258608 2.98246377 0 0 Z " fill="#075165" transform="translate(528,694)"/>
<path d="M0 0 C0.33 0 0.66 0 1 0 C1.33 2.31 1.66 4.62 2 7 C2.33 7 2.66 7 3 7 C3.02685412 9.31243792 3.04632841 11.6249627 3.0625 13.9375 C3.07410156 15.22527344 3.08570313 16.51304687 3.09765625 17.83984375 C3 21 3 21 2 22 C1.76321284 24.69235776 1.57801975 27.36498156 1.4375 30.0625 C1.39431641 30.82111328 1.35113281 31.57972656 1.30664062 32.36132812 C1.20026367 34.24065438 1.09960066 36.12030244 1 38 C0.67 38 0.34 38 0 38 C0 25.46 0 12.92 0 0 Z " fill="#016172" transform="translate(902,619)"/>
<path d="M0 0 C0.33 0 0.66 0 1 0 C1.82263738 9.4047463 2.2350018 18.53313305 1.1875 27.9375 C1.10516113 28.69981934 1.02282227 29.46213867 0.93798828 30.24755859 C0.48774726 33.84053076 0.04045181 35.93932229 -2 39 C-2.16013011 30.39189455 -1.65831987 21.8928988 -1 13.3125 C-0.90460937 12.02666016 -0.80921875 10.74082031 -0.7109375 9.41601562 C-0.47755759 6.2770558 -0.24050669 3.13842042 0 0 Z " fill="#07818D" transform="translate(674,406)"/>
<path d="M0 0 C2.31243792 -0.02685412 4.6249627 -0.04632841 6.9375 -0.0625 C8.22527344 -0.07410156 9.51304687 -0.08570313 10.83984375 -0.09765625 C14 0 14 0 15 1 C16.34747084 1.23075082 17.70377565 1.41153063 19.0625 1.5625 C20.361875 1.706875 21.66125 1.85125 23 2 C23 2.33 23 2.66 23 3 C14.09 3 5.18 3 -4 3 C-2.68 2.67 -1.36 2.34 0 2 C0 1.34 0 0.68 0 0 Z " fill="#0C6B79" transform="translate(401,903)"/>
<path d="M0 0 C1.60495567 0.11442461 3.20898119 0.24194694 4.8125 0.375 C5.70582031 0.44460938 6.59914063 0.51421875 7.51953125 0.5859375 C10 1 10 1 13 3 C13 3.66 13 4.32 13 5 C13.58394531 5.25007812 14.16789063 5.50015625 14.76953125 5.7578125 C17.29692051 7.16536028 18.79303954 8.69698689 20.6875 10.875 C21.28949219 11.55304687 21.89148438 12.23109375 22.51171875 12.9296875 C24.00766194 15.01065834 24.5789756 16.49630826 25 19 C23.38414912 17.44685378 21.91680908 15.89452186 20.52734375 14.1328125 C14.91233348 7.04162017 8.23800304 4.25415778 0 1 C0 0.67 0 0.34 0 0 Z " fill="#0B4E61" transform="translate(579,684)"/>
<path d="M0 0 C1.07765625 0.00902344 2.1553125 0.01804687 3.265625 0.02734375 C4.08546875 0.03894531 4.9053125 0.05054688 5.75 0.0625 C0.89220994 4.92029006 -9.39079516 3.11264369 -15.88769531 3.12841797 C-20.34195219 3.12342601 -24.79590916 3.10081096 -29.25 3.0625 C-29.25 2.7325 -29.25 2.4025 -29.25 2.0625 C-28.69538086 2.03744385 -28.14076172 2.0123877 -27.56933594 1.98657227 C-25.04601157 1.87022073 -22.52302464 1.74767246 -20 1.625 C-19.12730469 1.58568359 -18.25460937 1.54636719 -17.35546875 1.50585938 C-16.51113281 1.46396484 -15.66679688 1.42207031 -14.796875 1.37890625 C-14.02182617 1.34224854 -13.24677734 1.30559082 -12.44824219 1.26782227 C-8.15749781 0.86705416 -4.39405544 -0.04776147 0 0 Z " fill="#0D6775" transform="translate(698.25,902.9375)"/>
<path d="M0 0 C2.47211325 0.98357614 4.93939092 1.97468854 7.39453125 3 C11.35539673 4.63809622 15.18479059 6.13047211 19.375 7.0625 C22.72554301 7.92901974 24.4876635 8.69702487 27 11 C22.68390444 11.20074863 19.94596702 10.65180015 16 9 C13.01617932 8.25404483 10.01287914 7.61701664 7 7 C7 6.34 7 5.68 7 5 C6.01 5 5.02 5 4 5 C4 4.34 4 3.68 4 3 C2.68 2.34 1.36 1.68 0 1 C0 0.67 0 0.34 0 0 Z " fill="#074C61" transform="translate(636,776)"/>
<path d="M0 0 C0.33 0 0.66 0 1 0 C2.28736468 10.10086131 1.73019395 19.88962219 1 30 C0.34 30 -0.32 30 -1 30 C-1.02902996 25.75001434 -1.04680887 21.50005419 -1.0625 17.25 C-1.07087891 16.0434375 -1.07925781 14.836875 -1.08789062 13.59375 C-1.09111328 12.43359375 -1.09433594 11.2734375 -1.09765625 10.078125 C-1.10289307 9.00981445 -1.10812988 7.94150391 -1.11352539 6.84082031 C-1.01503008 4.37610765 -0.71565464 2.34754533 0 0 Z " fill="#0B9195" transform="translate(431,426)"/>
<path d="M0 0 C1.24523437 0.01804687 2.49046875 0.03609375 3.7734375 0.0546875 C5.18496094 0.08949219 5.18496094 0.08949219 6.625 0.125 C6.625 0.785 6.625 1.445 6.625 2.125 C8.935 2.125 11.245 2.125 13.625 2.125 C13.625 2.455 13.625 2.785 13.625 3.125 C4.715 3.125 -4.195 3.125 -13.375 3.125 C-13.375 2.795 -13.375 2.465 -13.375 2.125 C-8.75130977 0.31820413 -4.94971347 -0.09339082 0 0 Z " fill="#0B6573" transform="translate(584.375,902.875)"/>
<path d="M0 0 C-0.61746094 0.20753906 -1.23492188 0.41507813 -1.87109375 0.62890625 C-8.59844999 3.07614848 -13.56707139 6.39056648 -19 11 C-20.010625 11.804375 -21.02125 12.60875 -22.0625 13.4375 C-22.701875 13.953125 -23.34125 14.46875 -24 15 C-22.32258336 11.03519703 -19.87873138 8.15958323 -17 5 C-16.01 4.67 -15.02 4.34 -14 4 C-13.5875 3.525625 -13.175 3.05125 -12.75 2.5625 C-9.03619696 -0.75339557 -4.63471654 -1.42606663 0 0 Z " fill="#06495D" transform="translate(653,685)"/>
<path d="M0 0 C1.23556641 0.01740234 1.23556641 0.01740234 2.49609375 0.03515625 C3.32238281 0.04417969 4.14867187 0.05320312 5 0.0625 C5.63808594 0.07410156 6.27617187 0.08570313 6.93359375 0.09765625 C6.93359375 0.42765625 6.93359375 0.75765625 6.93359375 1.09765625 C12.54359375 1.42765625 18.15359375 1.75765625 23.93359375 2.09765625 C23.93359375 2.42765625 23.93359375 2.75765625 23.93359375 3.09765625 C13.70359375 3.09765625 3.47359375 3.09765625 -7.06640625 3.09765625 C-5.74640625 2.43765625 -4.42640625 1.77765625 -3.06640625 1.09765625 C-2.06640625 0.09765625 -2.06640625 0.09765625 0 0 Z " fill="#0F707E" transform="translate(475.06640625,902.90234375)"/>
<path d="M0 0 C1.2375 0.28875 2.475 0.5775 3.75 0.875 C12.38884131 2.62780838 21.23170339 3.20613093 30 4 C30 4.33 30 4.66 30 5 C29.44014404 4.99476318 28.88028809 4.98952637 28.3034668 4.98413086 C25.76482263 4.96333309 23.22619641 4.95033096 20.6875 4.9375 C19.80642578 4.92912109 18.92535156 4.92074219 18.01757812 4.91210938 C17.17001953 4.90888672 16.32246094 4.90566406 15.44921875 4.90234375 C14.66893311 4.89710693 13.88864746 4.89187012 13.0847168 4.88647461 C10.8038445 4.91862137 10.8038445 4.91862137 8 6 C7.67 5.34 7.34 4.68 7 4 C4.69034152 2.94647157 2.3570226 1.94280904 0 1 C0 0.67 0 0.34 0 0 Z " fill="#063F55" transform="translate(446,781)"/>
<path d="M0 0 C0.66 0.66 1.32 1.32 2 2 C-3.3493113 8.15619066 -8.19802245 11.56987585 -16 14 C-16 13.34 -16 12.68 -16 12 C-13.953125 10.6328125 -13.953125 10.6328125 -11.25 9.125 C-7.60924269 7.09171156 -4.84406572 5.05427927 -2 2 C-1.34 1.34 -0.68 0.68 0 0 Z " fill="#0A5568" transform="translate(606,768)"/>
<path d="M0 0 C0.33 0 0.66 0 1 0 C2.20484722 5.63526965 2.1129643 11.14536115 2.0625 16.875 C2.05798828 17.84953125 2.05347656 18.8240625 2.04882812 19.828125 C2.03710906 22.21881434 2.02070219 24.6093744 2 27 C1.67 27 1.34 27 1 27 C0.63278406 23.62628779 0.28357858 20.25094072 -0.0625 16.875 C-0.16626953 15.92367187 -0.27003906 14.97234375 -0.37695312 13.9921875 C-0.86812982 9.11429479 -1.16222641 4.82770969 0 0 Z " fill="#056E7B" transform="translate(118,730)"/>
<path d="M0 0 C0.66 0 1.32 0 2 0 C1.55397709 6.69034366 -1.07345542 12.02812122 -4 18 C-4.33 18 -4.66 18 -5 18 C-4.42934122 11.58008874 -2.32655091 5.98410537 0 0 Z " fill="#05737F" transform="translate(663,473)"/>
<path d="M0 0 C7.59 0 15.18 0 23 0 C23 0.33 23 0.66 23 1 C17.06 1.495 17.06 1.495 11 2 C11.33 2.66 11.66 3.32 12 4 C10.02 4 8.04 4 6 4 C6 3.34 6 2.68 6 2 C3.03 1.505 3.03 1.505 0 1 C0 0.67 0 0.34 0 0 Z " fill="#057080" transform="translate(495,902)"/>
<path d="M0 0 C0 0.33 0 0.66 0 1 C-11.50190114 2.6730038 -11.50190114 2.6730038 -17 2 C-17.66 1.34 -18.32 0.68 -19 0 C-17.67288808 -0.35729936 -16.33737094 -0.68325425 -15 -1 C-14.113125 -1.226875 -13.22625 -1.45375 -12.3125 -1.6875 C-7.92888147 -2.10104892 -4.21800383 -1.13417436 0 0 Z " fill="#046171" transform="translate(775,902)"/>
<path d="M0 0 C1.44715727 3.87186448 0.5441918 6.8232328 -0.4375 10.75 C-0.72496094 11.92046875 -1.01242187 13.0909375 -1.30859375 14.296875 C-1.53675781 15.18890625 -1.76492188 16.0809375 -2 17 C-4.14699969 13.55824478 -4.09856795 11.2279708 -3.625 7.25 C-3.51414062 6.26515625 -3.40328125 5.2803125 -3.2890625 4.265625 C-3.19367187 3.51796875 -3.09828125 2.7703125 -3 2 C-2.34 2 -1.68 2 -1 2 C-0.67 1.34 -0.34 0.68 0 0 Z " fill="#075C6B" transform="translate(901,780)"/>
<path d="M0 0 C0.94875 0.886875 1.8975 1.77375 2.875 2.6875 C7.14239617 6.37656322 11.89330071 8.67783895 17 11 C14 12 14 12 11.40625 10.92578125 C10.4471875 10.39339844 9.488125 9.86101563 8.5 9.3125 C7.5409375 8.79300781 6.581875 8.27351562 5.59375 7.73828125 C3.03198415 6.02143516 1.58270342 4.62536277 0 2 C0 1.34 0 0.68 0 0 Z " fill="#07465C" transform="translate(528,728)"/>
<path d="M0 0 C3.71656547 3.71656547 3.9466586 9.47977004 4.125 14.5625 C4.08375 15.366875 4.0425 16.17125 4 17 C2 16 2 16 1.3671875 14.1796875 C0.3330683 9.33738332 -0.2106585 4.95047466 0 0 Z " fill="#067985" transform="translate(668,336)"/>
<path d="M0 0 C0.33 0.66 0.66 1.32 1 2 C2.95695135 2.43147971 2.95695135 2.43147971 5.25 2.5625 C8.56286973 2.85838629 11.74945701 3.26600642 15 4 C15 4.33 15 4.66 15 5 C8.19796625 5.37634203 3.24309927 4.77471079 -3 2 C-2.01 1.34 -1.02 0.68 0 0 Z " fill="#066373" transform="translate(233,896)"/>
<path d="M0 0 C0.33 0 0.66 0 1 0 C1 2.31 1 4.62 1 7 C-5.93 7 -12.86 7 -20 7 C-20 6.67 -20 6.34 -20 6 C-14.06 5.67 -8.12 5.34 -2 5 C-1.34 3.35 -0.68 1.7 0 0 Z " fill="#EDF7F6" transform="translate(604,708)"/>
<path d="M0 0 C3.0916909 2.52956528 3.90931332 5.22454612 5 9 C5.66 9 6.32 9 7 9 C7.92091738 11.57856865 8.18506902 12.5943287 7.0234375 15.140625 C6.51683594 16.06101562 6.51683594 16.06101562 6 17 C5.18457569 14.91780951 4.37276811 12.83420239 3.5625 10.75 C3.11003906 9.58984375 2.65757812 8.4296875 2.19140625 7.234375 C1.29849367 4.81033692 0.54205635 2.51713525 0 0 Z " fill="#044D61" transform="translate(506,703)"/>
<path d="M0 0 C3.3 0 6.6 0 10 0 C10 0.33 10 0.66 10 1 C9.030625 1.2475 8.06125 1.495 7.0625 1.75 C6.051875 2.1625 5.04125 2.575 4 3 C3.03122943 5.03243548 3.03122943 5.03243548 3 7 C2.34 7 1.68 7 1 7 C0.67 4.69 0.34 2.38 0 0 Z " fill="#0B6979" transform="translate(445,741)"/>
<path d="M0 0 C0 0.66 0 1.32 0 2 C0.66 2.33 1.32 2.66 2 3 C0.39504433 2.88557539 -1.20898119 2.75805306 -2.8125 2.625 C-3.70582031 2.55539062 -4.59914063 2.48578125 -5.51953125 2.4140625 C-8 2 -8 2 -11 0 C-6.94952424 -1.35015859 -4.2079832 -0.62084998 0 0 Z " fill="#035365" transform="translate(587,723)"/>
<path d="M0 0 C1.60294922 0.15275391 1.60294922 0.15275391 3.23828125 0.30859375 C4.45064453 0.43427734 4.45064453 0.43427734 5.6875 0.5625 C5.6875 0.8925 5.6875 1.2225 5.6875 1.5625 C-0.68555598 2.30757544 -6.89561325 2.66599817 -13.3125 2.5625 C-9.52994896 -1.22005104 -5.04047946 -0.49850896 0 0 Z " fill="#0899A0" transform="translate(755.3125,119.4375)"/>
<path d="M0 0 C-3.68964734 2.45976489 -5.27428479 3.12465307 -9.625 3.0625 C-10.85089844 3.04896484 -10.85089844 3.04896484 -12.1015625 3.03515625 C-13.04128906 3.01775391 -13.04128906 3.01775391 -14 3 C-14 2.34 -14 1.68 -14 1 C-9.27616037 0.34843591 -4.78025483 -0.11950637 0 0 Z " fill="#09616F" transform="translate(667,903)"/>
<path d="M0 0 C1.96035175 0.44962196 3.91824309 0.90998248 5.875 1.375 C7.51082031 1.75785156 7.51082031 1.75785156 9.1796875 2.1484375 C12 3 12 3 14 5 C8.67061191 4.66328485 4.37173367 4.384568 0 1 C0 0.67 0 0.34 0 0 Z " fill="#056475" transform="translate(215,892)"/>
<path d="M0 0 C3.3 0 6.6 0 10 0 C10 0.33 10 0.66 10 1 C7.36 1.33 4.72 1.66 2 2 C2.33 4.97 2.66 7.94 3 11 C2.01 10.67 1.02 10.34 0 10 C0 6.7 0 3.4 0 0 Z " fill="#066C7B" transform="translate(645,741)"/>
<path d="M0 0 C1.28497537 3.85492611 0.4052209 5.40346836 -0.9375 9.1875 C-1.31777344 10.27417969 -1.69804688 11.36085938 -2.08984375 12.48046875 C-2.39019531 13.31191406 -2.69054687 14.14335938 -3 15 C-3.66 14.67 -4.32 14.34 -5 14 C-4.34580901 8.93001981 -2.1453591 4.58009223 0 0 Z " fill="#084B5E" transform="translate(623,708)"/>
<path d="M0 0 C0.33 0 0.66 0 1 0 C1.22142255 1.95689659 1.4267568 3.91561952 1.625 5.875 C1.74101562 6.96554687 1.85703125 8.05609375 1.9765625 9.1796875 C1.98429687 10.11039062 1.99203125 11.04109375 2 12 C1.34 12.66 0.68 13.32 0 14 C-0.19627391 12.41773035 -0.38165538 10.83410729 -0.5625 9.25 C-0.66691406 8.36828125 -0.77132813 7.4865625 -0.87890625 6.578125 C-0.99456676 4.11567549 -0.73638695 2.33461936 0 0 Z " fill="#05898F" transform="translate(431,426)"/>
<path d="M0 0 C0.66 0.66 1.32 1.32 2 2 C-1.96 2 -5.92 2 -10 2 C-10 1.34 -10 0.68 -10 0 C-6.31938873 -0.9464429 -3.66134991 -1.08850943 0 0 Z " fill="#0C6E7A" transform="translate(311,904)"/>
<path d="M0 0 C1.79258558 0.08693141 3.58415144 0.19510504 5.375 0.3125 C6.87160156 0.39951172 6.87160156 0.39951172 8.3984375 0.48828125 C9.25695312 0.65714844 10.11546875 0.82601562 11 1 C11.66 1.99 12.32 2.98 13 4 C11.02 4 9.04 4 7 4 C7 3.34 7 2.68 7 2 C4.69 1.67 2.38 1.34 0 1 C0 0.67 0 0.34 0 0 Z " fill="#054A5E" transform="translate(548,783)"/>
<path d="M0 0 C0.99 0 1.98 0 3 0 C2.34 2.97 1.68 5.94 1 9 C0.34 9 -0.32 9 -1 9 C-0.67 6.03 -0.34 3.06 0 0 Z " fill="#037280" transform="translate(667,460)"/>
<path d="M0 0 C3.3 0 6.6 0 10 0 C9.67 0.66 9.34 1.32 9 2 C5.44307323 2.85056945 3.50729422 3.16909807 0 2 C0 1.34 0 0.68 0 0 Z " fill="#025766" transform="translate(463,903)"/>
<path d="M0 0 C0.66 0.33 1.32 0.66 2 1 C-0.31 2.65 -2.62 4.3 -5 6 C-5.99 5.34 -6.98 4.68 -8 4 C-6.71349294 3.30289269 -5.42059335 2.61757124 -4.125 1.9375 C-3.40570313 1.55464844 -2.68640625 1.17179688 -1.9453125 0.77734375 C-1.30335938 0.52082031 -0.66140625 0.26429688 0 0 Z " fill="#095468" transform="translate(327,779)"/>
<path d="M0 0 C2.46800047 1.15173355 4.04783565 2.04783565 6 4 C5.67 4.99 5.34 5.98 5 7 C3.29115995 5.37660195 1.62553283 3.70680947 0 2 C0 1.34 0 0.68 0 0 Z " fill="#058C95" transform="translate(563,313)"/>
<path d="M0 0 C1.8871875 0.061875 1.8871875 0.061875 3.8125 0.125 C3.8125 0.455 3.8125 0.785 3.8125 1.125 C0.1825 1.455 -3.4475 1.785 -7.1875 2.125 C-4.09861478 0.06574319 -3.47814073 -0.1140374 0 0 Z " fill="#28BBB1" transform="translate(250.1875,119.875)"/>
<path d="M0 0 C2.97 0 5.94 0 9 0 C9 0.33 9 0.66 9 1 C6.03 1 3.06 1 0 1 C0 0.67 0 0.34 0 0 Z " fill="#0EB7B3" transform="translate(464,230)"/>
<path d="M0 0 C2.31 0 4.62 0 7 0 C7 0.33 7 0.66 7 1 C4.69 1 2.38 1 0 1 C0 0.67 0 0.34 0 0 Z " fill="#10BDB6" transform="translate(358,230)"/>
<path d="M0 0 C3 1 3 1 3 1 Z " fill="#0F939A" transform="translate(517,570)"/>
<path d="M0 0 C0.99 0.495 0.99 0.495 2 1 C1.01 1.495 1.01 1.495 0 2 C0 1.34 0 0.68 0 0 Z " fill="#0DA1A4" transform="translate(579,328)"/>
<path d="M0 0 C3 1 3 1 3 1 Z " fill="#0EB4B1" transform="translate(490,230)"/>
<path d="M0 0 C3 1 3 1 3 1 Z " fill="#0DB8B4" transform="translate(474,230)"/>
<path d="M0 0 C3 1 3 1 3 1 Z " fill="#0FBAB5" transform="translate(414,230)"/>
<path d="" fill="#107884" transform="translate(0,0)"/>
<path d="" fill="#117B86" transform="translate(0,0)"/>
<path d="" fill="#12888F" transform="translate(0,0)"/>
<path d="" fill="#119397" transform="translate(0,0)"/>
<path d="M0 0 C2 1 2 1 2 1 Z " fill="#119299" transform="translate(531,569)"/>
<path d="" fill="#0C959A" transform="translate(0,0)"/>
<path d="M0 0 C2 1 2 1 2 1 Z " fill="#12B2AF" transform="translate(499,288)"/>
<path d="" fill="#2AB7AB" transform="translate(0,0)"/>
<path d="M0 0 C2 1 2 1 2 1 Z " fill="#0DB2B0" transform="translate(515,230)"/>
<path d="M0 0 C2 1 2 1 2 1 Z " fill="#0EB2B1" transform="translate(507,230)"/>
<path d="M0 0 C2 1 2 1 2 1 Z " fill="#0FB4B0" transform="translate(499,230)"/>
<path d="M0 0 C2 1 2 1 2 1 Z " fill="#0EB6B3" transform="translate(496,230)"/>
<path d="M0 0 C2 1 2 1 2 1 Z " fill="#0DB7B4" transform="translate(446,230)"/>
<path d="M0 0 C2 1 2 1 2 1 Z " fill="#0EB8B4" transform="translate(443,230)"/>
<path d="M0 0 C2 1 2 1 2 1 Z " fill="#0DBBB5" transform="translate(440,230)"/>
<path d="M0 0 C2 1 2 1 2 1 Z " fill="#0FB9B5" transform="translate(427,230)"/>
<path d="M0 0 C2 1 2 1 2 1 Z " fill="#10BAB4" transform="translate(419,230)"/>
<path d="M0 0 C2 1 2 1 2 1 Z " fill="#11BBB6" transform="translate(389,230)"/>
<path d="M0 0 C2 1 2 1 2 1 Z " fill="#10BEB7" transform="translate(371,230)"/>
<path d="M0 0 C2 1 2 1 2 1 Z " fill="#12BDB6" transform="translate(355,230)"/>
<path d="" fill="#2AB6AC" transform="translate(0,0)"/>
<path d="" fill="#2BB8AC" transform="translate(0,0)"/>
<path d="M0 0 C2 1 2 1 2 1 Z " fill="#2BBCB1" transform="translate(239,122)"/>
<path d="M0 0 C2 1 2 1 2 1 Z " fill="#0E989E" transform="translate(781,121)"/>
<path d="M0 0 C2 1 2 1 2 1 Z " fill="#0E9B9F" transform="translate(774,120)"/>
<path d="" fill="#0E707C" transform="translate(0,0)"/>
<path d="" fill="#11747D" transform="translate(0,0)"/>
<path d="" fill="#0E747E" transform="translate(0,0)"/>
<path d="" fill="#096A79" transform="translate(0,0)"/>
<path d="" fill="#107B86" transform="translate(0,0)"/>
<path d="" fill="#0F7F89" transform="translate(0,0)"/>
<path d="" fill="#0F7884" transform="translate(0,0)"/>
<path d="" fill="#107B86" transform="translate(0,0)"/>
<path d="" fill="#0A646F" transform="translate(0,0)"/>
<path d="" fill="#107E89" transform="translate(0,0)"/>
<path d="" fill="#107D87" transform="translate(0,0)"/>
<path d="" fill="#0F838A" transform="translate(0,0)"/>
<path d="" fill="#127F86" transform="translate(0,0)"/>
<path d="" fill="#0F8089" transform="translate(0,0)"/>
<path d="" fill="#10838A" transform="translate(0,0)"/>
<path d="" fill="#12818B" transform="translate(0,0)"/>
<path d="" fill="#0F828A" transform="translate(0,0)"/>
<path d="" fill="#118089" transform="translate(0,0)"/>
<path d="" fill="#138590" transform="translate(0,0)"/>
<path d="" fill="#13858F" transform="translate(0,0)"/>
<path d="" fill="#12848C" transform="translate(0,0)"/>
<path d="" fill="#0E6875" transform="translate(0,0)"/>
<path d="" fill="#0D6572" transform="translate(0,0)"/>
<path d="" fill="#0E636E" transform="translate(0,0)"/>
<path d="" fill="#158A91" transform="translate(0,0)"/>
<path d="" fill="#0C6370" transform="translate(0,0)"/>
<path d="" fill="#118E94" transform="translate(0,0)"/>
<path d="" fill="#0D6973" transform="translate(0,0)"/>
<path d="" fill="#149295" transform="translate(0,0)"/>
<path d="" fill="#139298" transform="translate(0,0)"/>
<path d="" fill="#0C6975" transform="translate(0,0)"/>
<path d="" fill="#139398" transform="translate(0,0)"/>
<path d="" fill="#149398" transform="translate(0,0)"/>
<path d="" fill="#0B6A75" transform="translate(0,0)"/>
<path d="" fill="#0B6975" transform="translate(0,0)"/>
<path d="" fill="#11969A" transform="translate(0,0)"/>
<path d="" fill="#0A6976" transform="translate(0,0)"/>
<path d="" fill="#13999B" transform="translate(0,0)"/>
<path d="" fill="#129098" transform="translate(0,0)"/>
<path d="" fill="#10929A" transform="translate(0,0)"/>
<path d="" fill="#10929B" transform="translate(0,0)"/>
<path d="" fill="#0D8F96" transform="translate(0,0)"/>
<path d="" fill="#0D9097" transform="translate(0,0)"/>
<path d="" fill="#108E95" transform="translate(0,0)"/>
<path d="" fill="#0E8E96" transform="translate(0,0)"/>
<path d="" fill="#0D8F97" transform="translate(0,0)"/>
<path d="" fill="#0B6E7B" transform="translate(0,0)"/>
<path d="" fill="#0F999F" transform="translate(0,0)"/>
<path d="" fill="#0B949C" transform="translate(0,0)"/>
<path d="" fill="#0C8F96" transform="translate(0,0)"/>
<path d="" fill="#0B8E99" transform="translate(0,0)"/>
<path d="" fill="#0A8D94" transform="translate(0,0)"/>
<path d="" fill="#108F95" transform="translate(0,0)"/>
<path d="" fill="#0C8F97" transform="translate(0,0)"/>
<path d="" fill="#0A939B" transform="translate(0,0)"/>
<path d="" fill="#17A1A2" transform="translate(0,0)"/>
<path d="" fill="#0A727E" transform="translate(0,0)"/>
<path d="" fill="#0E9299" transform="translate(0,0)"/>
<path d="" fill="#0D989D" transform="translate(0,0)"/>
<path d="" fill="#0C949B" transform="translate(0,0)"/>
<path d="" fill="#0D9B9F" transform="translate(0,0)"/>
<path d="" fill="#1EB3AA" transform="translate(0,0)"/>
<path d="" fill="#0C969E" transform="translate(0,0)"/>
<path d="" fill="#0C959B" transform="translate(0,0)"/>
<path d="" fill="#0EA0A3" transform="translate(0,0)"/>
<path d="" fill="#22B5AB" transform="translate(0,0)"/>
<path d="" fill="#0E9FA3" transform="translate(0,0)"/>
<path d="" fill="#23B6AD" transform="translate(0,0)"/>
<path d="" fill="#0A9AA0" transform="translate(0,0)"/>
<path d="" fill="#0D99A1" transform="translate(0,0)"/>
<path d="" fill="#0EA5A8" transform="translate(0,0)"/>
<path d="" fill="#0CA6A7" transform="translate(0,0)"/>
<path d="" fill="#0C9CA3" transform="translate(0,0)"/>
<path d="" fill="#0C9DA0" transform="translate(0,0)"/>
<path d="" fill="#18B5B0" transform="translate(0,0)"/>
<path d="" fill="#12AFAE" transform="translate(0,0)"/>
<path d="" fill="#13B4AF" transform="translate(0,0)"/>
<path d="" fill="#17B6B1" transform="translate(0,0)"/>
<path d="" fill="#26B8AD" transform="translate(0,0)"/>
<path d="" fill="#0A7F88" transform="translate(0,0)"/>
<path d="" fill="#2BB7AB" transform="translate(0,0)"/>
<path d="" fill="#0CA3A9" transform="translate(0,0)"/>
<path d="" fill="#28B8AB" transform="translate(0,0)"/>
<path d="" fill="#0BA5AE" transform="translate(0,0)"/>
<path d="" fill="#0BA9AF" transform="translate(0,0)"/>
<path d="" fill="#0DA9AB" transform="translate(0,0)"/>
<path d="" fill="#0EB0AF" transform="translate(0,0)"/>
<path d="" fill="#0FB4B2" transform="translate(0,0)"/>
<path d="" fill="#0DB3B0" transform="translate(0,0)"/>
<path d="" fill="#0DB7B1" transform="translate(0,0)"/>
<path d="" fill="#0FB6B2" transform="translate(0,0)"/>
<path d="" fill="#0FB8B3" transform="translate(0,0)"/>
<path d="" fill="#0FB7B3" transform="translate(0,0)"/>
<path d="" fill="#10BBB5" transform="translate(0,0)"/>
<path d="" fill="#0FB9B5" transform="translate(0,0)"/>
<path d="" fill="#10BBB6" transform="translate(0,0)"/>
<path d="" fill="#10BBB5" transform="translate(0,0)"/>
<path d="" fill="#13BDB5" transform="translate(0,0)"/>
<path d="" fill="#10BEB7" transform="translate(0,0)"/>
<path d="" fill="#12BCB5" transform="translate(0,0)"/>
<path d="" fill="#11BEB4" transform="translate(0,0)"/>
<path d="" fill="#12BDB6" transform="translate(0,0)"/>
<path d="" fill="#11BDB7" transform="translate(0,0)"/>
<path d="" fill="#13BDB7" transform="translate(0,0)"/>
<path d="" fill="#12BDB6" transform="translate(0,0)"/>
<path d="" fill="#11BEB6" transform="translate(0,0)"/>
<path d="" fill="#29B7B0" transform="translate(0,0)"/>
<path d="" fill="#27B7AC" transform="translate(0,0)"/>
<path d="" fill="#2DB6AC" transform="translate(0,0)"/>
<path d="" fill="#29B8AE" transform="translate(0,0)"/>
<path d="" fill="#25B7AE" transform="translate(0,0)"/>
<path d="" fill="#29B3AA" transform="translate(0,0)"/>
<path d="" fill="#29B9AF" transform="translate(0,0)"/>
<path d="" fill="#0A8E95" transform="translate(0,0)"/>
<path d="" fill="#0D8F96" transform="translate(0,0)"/>
<path d="" fill="#0E9097" transform="translate(0,0)"/>
<path d="" fill="#2AB8AF" transform="translate(0,0)"/>
<path d="" fill="#0D8F96" transform="translate(0,0)"/>
<path d="" fill="#0E8C94" transform="translate(0,0)"/>
<path d="" fill="#2CB7AE" transform="translate(0,0)"/>
<path d="" fill="#0F9096" transform="translate(0,0)"/>
<path d="" fill="#0E8D94" transform="translate(0,0)"/>
<path d="" fill="#2DB6AD" transform="translate(0,0)"/>
<path d="" fill="#29BCB0" transform="translate(0,0)"/>
<path d="" fill="#2ABAAF" transform="translate(0,0)"/>
<path d="" fill="#0E959D" transform="translate(0,0)"/>
<path d="" fill="#29BAAF" transform="translate(0,0)"/>
<path d="" fill="#28B9AF" transform="translate(0,0)"/>
<path d="" fill="#2AB9AE" transform="translate(0,0)"/>
<path d="" fill="#2CBFB3" transform="translate(0,0)"/>
<path d="" fill="#2EBDB2" transform="translate(0,0)"/>
</svg>
