<?xml version="1.0" encoding="UTF-8"?>
<svg version="1.1" viewBox="0 0 1000 1000" fill="none" xmlns="http://www.w3.org/2000/svg">
<path d="M0 0 C1.02380971 -0.00145344 2.04761943 -0.00290688 3.10245368 -0.00440437 C6.5190804 -0.00804188 9.93566188 -0.00458841 13.35228825 -0.0011425 C15.83223479 -0.00229521 18.31218117 -0.00388374 20.79212719 -0.00586975 C26.17686862 -0.00917196 31.56159683 -0.00937755 36.9463377 -0.00682259 C44.95381681 -0.00303354 52.96128748 -0.00497726 60.96876654 -0.00803089 C75.27202334 -0.0132925 89.57527567 -0.01284187 103.8785329 -0.00995198 C116.39626488 -0.0074353 128.91399523 -0.00678025 141.43172741 -0.00797462 C142.26242419 -0.00805101 143.09312097 -0.00812739 143.94899038 -0.00820609 C147.32116637 -0.00851744 150.69334236 -0.00883584 154.06551834 -0.00916586 C185.69293057 -0.01222418 217.32033996 -0.00945252 248.94775175 -0.00406896 C277.03784475 0.00067613 305.12793321 0.0002523 333.21802616 -0.00452995 C364.78650468 -0.00988644 396.35498068 -0.01200684 427.92345959 -0.00891769 C431.28976126 -0.00859698 434.65606294 -0.00828414 438.02236462 -0.00797462 C438.85121748 -0.00789555 439.68007033 -0.00781647 440.53403995 -0.007735 C453.04224781 -0.00659825 465.55045385 -0.00792646 478.05866146 -0.01045418 C492.28398526 -0.01331459 506.5093039 -0.01259615 520.73462706 -0.00717343 C528.69281952 -0.0042397 536.65100079 -0.00404179 544.60919296 -0.00781961 C550.55415876 -0.01033012 556.49911472 -0.00760211 562.44407941 -0.00284503 C564.8470436 -0.00172863 567.25000929 -0.00229482 569.65297251 -0.00472082 C572.92269175 -0.00776848 576.19235054 -0.00463524 579.46206665 0 C580.85638134 -0.00351175 580.85638134 -0.00351175 582.278864 -0.00709444 C601.21454595 0.04643319 601.21454595 0.04643319 604.2939539 3.12584114 C606.25466926 3.92283295 608.23798281 4.66473374 610.2314539 5.37584114 C622.34876225 9.98308146 631.18705923 16.03171912 640.2939539 25.12584114 C641.03774296 25.85802864 641.78153202 26.59021614 642.54786015 27.34459114 C655.04573959 40.45391283 662.56420137 58.65630794 662.61013603 76.74336338 C662.61991288 77.56322979 662.62968972 78.3830962 662.63976284 79.22780704 C662.66979292 81.95239538 662.68605995 84.67687888 662.70211124 87.40158272 C662.72051578 89.36682822 662.73967915 91.33206674 662.75953948 93.29729807 C662.81080518 98.64807979 662.84932399 103.99888447 662.8849809 109.34979029 C662.90864038 112.75370872 662.93584254 116.15758048 662.96426547 119.56146228 C663.39431309 171.06606521 663.45849 222.57123395 663.46121097 274.07734609 C663.46171678 281.63643399 663.46403477 289.19552074 663.46670818 296.75460815 C663.47401845 317.86403987 663.48024249 338.97347073 663.47970963 360.08290386 C663.47969405 360.7456364 663.47967847 361.40836894 663.47966242 362.09118428 C663.47957938 365.44594122 663.47948035 368.80069817 663.47937771 372.15545512 C663.47934779 373.15392864 663.47934779 373.15392864 663.47931727 374.17257335 C663.47927683 375.51861456 663.47923503 376.86465577 663.47919188 378.21069698 C663.47857348 399.34737615 663.48621913 420.48403952 663.49976444 441.62071419 C663.51514866 465.63380027 663.52371782 489.64687447 663.52280122 513.65996689 C663.52247118 526.28554224 663.5251372 538.91109952 663.53597927 551.53667068 C663.54509654 562.21577213 663.54724689 572.89484717 663.54046985 583.57395083 C663.53721995 589.00296925 663.53709411 594.43193697 663.5458231 599.86095047 C663.55374912 604.84119922 663.55219562 609.82135755 663.54353897 614.80160426 C663.54201814 616.58761215 663.54376556 618.37362702 663.54939904 620.15962667 C663.57725773 629.62834336 663.26046329 638.98326078 662.38397026 648.41525364 C662.26376983 649.7173233 662.26376983 649.7173233 662.1411411 651.04569739 C660.38844282 668.30313811 652.9543299 683.38215317 641.2939539 696.12584114 C640.5720789 696.92892708 639.8502039 697.73201302 639.1064539 698.55943489 C633.78334213 704.19623003 628.02228546 708.30705836 621.2939539 712.12584114 C620.48055546 712.58861458 619.66715702 713.05138802 618.82911015 713.52818489 C609.55395657 718.47393129 598.96338065 721.97908682 588.41363943 722.43754655 C587.47328764 722.47883126 586.53293585 722.52011597 585.56408856 722.56265173 C584.55515963 722.60137141 583.5462307 722.64009109 582.50672817 722.67998409 C581.44290608 722.72210624 580.37908399 722.76422838 579.28302487 722.80762695 C567.81807021 723.22863065 556.36083997 723.26835442 544.88956547 723.25955391 C542.53054403 723.26142766 540.17152291 723.26373058 537.81250226 723.26641923 C531.40257708 723.27247327 524.99266506 723.27241131 518.58273768 723.27122486 C512.35719888 723.27054998 506.13166308 723.27554831 499.90612614 723.27983775 C485.62445506 723.28945464 471.34278761 723.29231977 457.06111367 723.2928948 C446.03209169 723.29335596 435.0030711 723.29542265 423.97404957 723.29859543 C420.78907025 723.29949307 417.60409093 723.30038289 414.41911161 723.30127031 C413.23116898 723.30160188 413.23116898 723.30160188 412.01922752 723.30194015 C389.77918703 723.30808418 367.53914702 723.3120417 345.29910564 723.31159687 C344.46251361 723.31158129 343.62592158 723.31156571 342.76397827 723.31154966 C338.52458835 723.31146657 334.28519843 723.31136753 330.04580851 723.31126495 C329.20397061 723.31124501 328.36213271 723.31122506 327.49478457 723.31120451 C325.79239236 723.31116408 324.09000016 723.31112228 322.38760796 723.31107912 C295.8796592 723.31046588 269.37172322 723.31798624 242.86377811 723.33165169 C213.02926508 723.34702601 183.19476044 723.35561724 153.3602432 723.35468847 C150.17715001 723.35461384 146.99405682 723.35456513 143.81096363 723.35453415 C143.02729748 723.35452249 142.24363133 723.35451084 141.43621772 723.35449883 C128.85486555 723.35446813 116.27352453 723.36083863 103.69217568 723.36946641 C91.04540578 723.37795968 78.39865213 723.3789196 65.75188096 723.37235709 C58.90812016 723.36899682 52.06439604 723.36875623 45.22063923 723.37771034 C38.94769666 723.38559295 32.67482616 723.38412595 26.40188532 723.37542621 C24.14119344 723.3738952 21.88049613 723.37569223 19.61981066 723.38128629 C-10.79666285 723.45152658 -37.06380115 720.05858795 -59.7060461 698.12584114 C-74.98375506 681.99361626 -82.97989105 661.03073586 -83.0219183 638.98576546 C-83.03166363 637.91035035 -83.04140895 636.83493525 -83.0514496 635.72693181 C-83.08156181 632.11543785 -83.0976418 628.50402538 -83.11351681 624.8924427 C-83.13192585 622.24854733 -83.15102823 619.60466392 -83.17081165 616.96077919 C-83.21788132 610.39915444 -83.25337633 603.83751129 -83.28478689 597.27579474 C-83.31129125 591.76677444 -83.34192675 586.25778969 -83.37483311 580.74880409 C-83.87770512 495.91512823 -83.89327147 411.07902774 -83.89165211 326.2441349 C-83.89162957 325.06065892 -83.89160703 323.87718293 -83.89158381 322.65784404 C-83.89137083 312.57244848 -83.89137083 312.57244848 -83.89123549 308.27356857 C-83.89081525 288.66673513 -83.90060649 269.05992022 -83.91448721 249.45309219 C-83.92884382 229.00647681 -83.93575951 208.55987056 -83.93489343 188.11325002 C-83.93456385 176.75449071 -83.93721249 165.39575148 -83.94807148 154.03699684 C-83.95716102 144.47718974 -83.95936003 134.91741212 -83.95256206 125.35760257 C-83.94930491 120.50229382 -83.9492143 115.64704181 -83.95791531 110.79173851 C-83.96580279 106.34591288 -83.96432675 101.90018886 -83.95563117 97.45436564 C-83.95410261 95.85552969 -83.95588782 94.25668604 -83.96149125 92.65785918 C-84.00073779 80.66091028 -83.56620586 68.66326916 -79.7060461 57.18834114 C-79.36057735 56.13388802 -79.0151086 55.07943489 -78.6591711 53.99302864 C-78.34463985 53.04685677 -78.0301086 52.10068489 -77.7060461 51.12584114 C-77.01475292 48.79848741 -76.35865813 46.46436756 -75.7060461 44.12584114 C-75.0460461 44.12584114 -74.3860461 44.12584114 -73.7060461 44.12584114 C-73.44694454 43.40654427 -73.18784298 42.68724739 -72.92088985 41.94615364 C-65.31325605 24.28470154 -48.54528252 13.13573363 -31.8466711 5.28990364 C-28.45464316 4.03265945 -25.29406257 3.51349116 -21.7060461 3.12584114 C-21.7060461 2.46584114 -21.7060461 1.80584114 -21.7060461 1.12584114 C-14.4489096 0.3595873 -7.29535129 -0.01832806 0 0 Z M163.2939539 99.12584114 C162.84221212 101.57721745 162.84221212 101.57721745 162.92481041 104.49443436 C162.91883726 105.6409702 162.91286412 106.78750605 162.90670997 107.96878541 C162.91544849 109.23919076 162.92418702 110.50959612 162.93319035 111.81849861 C162.93188318 113.17316109 162.92925841 114.52782283 162.92542285 115.8824805 C162.91868832 119.61777429 162.93075096 123.3528119 162.94575703 127.08807302 C162.95867064 131.11125214 162.95433126 135.13441593 162.95205021 139.15760994 C162.9504745 146.13229631 162.95991468 153.10689871 162.97676373 160.08156395 C163.001109 170.16583828 163.0089544 180.25007186 163.0127277 190.33437239 C163.01929922 206.69408423 163.03927936 223.05375128 163.06763554 239.4134388 C163.09515799 255.3086188 163.11640044 271.20378666 163.12915897 287.09898567 C163.12994714 288.07819477 163.13073531 289.05740388 163.13154737 290.06628598 C163.13546238 294.97852001 163.13925353 299.89075412 163.14298308 304.80298829 C163.1741008 345.57730374 163.22695564 386.35156988 163.2939539 427.12584114 C169.09549018 429.11482013 174.25958903 429.40923845 180.36527348 429.37980843 C181.3641134 429.38292841 182.36295332 429.38604839 183.39206111 429.38926291 C186.73067569 429.39722441 190.06910758 429.39092644 193.40772343 429.3846302 C195.80455475 429.38734085 198.20138524 429.39090219 200.59821415 429.39525032 C206.42698945 429.40342056 212.25570694 429.40222865 218.084484 429.39642504 C222.82159751 429.391904 227.5586966 429.39129755 232.29581165 429.39347267 C233.3080058 429.39393237 233.3080058 429.39393237 234.34064832 429.39440136 C235.71155693 429.39504082 237.08246553 429.39568925 238.45337413 429.39634654 C251.29915761 429.40204558 264.1449125 429.39549818 276.99069129 429.38474581 C288.01155223 429.37580661 299.03237105 429.37736619 310.05323124 429.38658333 C322.85688212 429.39728649 335.66050798 429.40150057 348.46416271 429.3953588 C349.82935102 429.39472171 351.19453934 429.39409297 352.55972767 429.39347267 C353.56723931 429.39300984 353.56723931 429.39300984 354.59510473 429.39253767 C359.32722769 429.39081117 364.05933477 429.39372477 368.79145527 429.39843178 C375.15917194 429.404201 381.5268089 429.40021603 387.89451694 429.38864326 C390.23385454 429.38599465 392.57319881 429.38676519 394.91253376 429.39116859 C398.10064753 429.39661729 401.28850429 429.38979799 404.4766016 429.37980843 C405.40665394 429.38426987 406.33670628 429.38873131 407.29494202 429.39332795 C414.33992422 429.49049703 414.33992422 429.49049703 420.2939539 426.12584114 C420.40858159 424.36246435 420.4535841 422.59451443 420.47095585 420.8275013 C420.48379108 419.69607704 420.49662632 418.56465279 420.5098505 417.39894295 C420.51723743 416.16670998 420.52462437 414.93447701 420.53223515 413.66490364 C420.54030689 412.40825905 420.54837864 411.15161446 420.55669498 409.85688972 C420.57055563 407.19194519 420.58156642 404.52712524 420.58911991 401.86216927 C420.60018765 398.44650396 420.63458604 395.0314896 420.67429161 391.61605453 C420.70670136 388.3615684 420.7112321 385.10702658 420.71973515 381.85240364 C420.74599728 380.01012688 420.74599728 380.01012688 420.77278996 378.1306324 C420.76986439 376.99290382 420.76693882 375.85517525 420.7639246 374.68297005 C420.76979084 373.68004921 420.77565708 372.67712837 420.78170109 371.64381599 C420.52648242 369.03888941 420.52648242 369.03888941 418.60673523 367.49101543 C415.78157089 365.82339486 414.07016122 365.7557569 410.80170536 365.76507759 C409.68553837 365.7609536 408.56937138 365.75682961 407.41938114 365.75258064 C405.58950657 365.76875938 405.58950657 365.76875938 403.72266483 365.78526497 C402.43460941 365.78482689 401.14655399 365.78438881 399.81946659 365.78393745 C396.29076467 365.78307682 392.76236876 365.80071337 389.23373795 365.82165933 C385.54486169 365.84041485 381.85597839 365.84217568 378.16706181 365.84573555 C371.18309862 365.85505934 364.19927633 365.87967757 357.21537519 365.90978402 C349.2638212 365.94331769 341.31226049 365.95981143 333.3606534 365.97487032 C317.00500442 366.00622689 300.64949714 366.0589938 284.2939539 366.12584114 C284.2939539 366.78584114 284.2939539 367.44584114 284.2939539 368.12584114 C283.6339539 368.12584114 282.9739539 368.12584114 282.2939539 368.12584114 C282.2939539 367.46584114 282.2939539 366.80584114 282.2939539 366.12584114 C281.3452039 366.12584114 280.3964539 366.12584114 279.4189539 366.12584114 C275.30743723 366.12584114 271.20791798 366.03742816 267.0986414 365.90709114 C266.39119785 365.8848951 265.68375431 365.86269905 264.95487309 365.8398304 C262.69289071 365.7687933 260.43092228 365.69732222 258.1689539 365.62584114 C256.63640271 365.5776355 255.10385064 365.52945806 253.57129765 365.48130989 C249.81217268 365.36314772 246.05306017 365.2445963 242.2939539 365.12584114 C242.24763928 356.44195611 242.21208918 347.75811351 242.19032955 339.07413197 C242.17988669 335.04192623 242.16571839 331.00980492 242.14307499 326.97764778 C242.12136443 323.08731251 242.10938905 319.1970585 242.10419941 315.30666733 C242.10050043 313.82148458 242.09327735 312.33630635 242.08249378 310.85115814 C242.06800241 308.77294317 242.06597494 306.6950652 242.06690311 304.61680794 C242.06246189 303.43322197 242.05802067 302.249636 242.05344486 301.03018379 C242.2939539 298.12584114 242.2939539 298.12584114 244.2939539 295.12584114 C247.01581675 294.13653598 249.586754 293.99365416 252.46509647 293.96762276 C253.70319317 293.95293953 253.70319317 293.95293953 254.96630192 293.93795967 C256.31378262 293.92932648 256.31378262 293.92932648 257.68848515 293.92051888 C259.11953335 293.90566948 259.11953335 293.90566948 260.57949162 293.8905201 C263.75512035 293.85880371 266.93076267 293.83403825 270.1064539 293.80943489 C272.34945855 293.7888053 274.59245985 293.76780755 276.8354578 293.74646187 C281.57013753 293.70240445 286.30483038 293.66154975 291.03955936 293.62315559 C296.96678159 293.57503066 302.89393255 293.52124919 308.82108402 293.4651413 C313.45199985 293.42164021 318.08293352 293.38037019 322.71387577 293.33978844 C325.01579998 293.31956558 327.31772063 293.29893367 329.61963749 293.27789116 C341.90690951 293.16764418 354.19000875 293.11012274 366.47754765 293.20445442 C368.54867353 293.21730384 370.61979982 293.23008727 372.69092655 293.24279976 C376.55169506 293.26721703 380.41155132 293.31148795 384.27198124 293.36715889 C385.98372759 293.37993099 387.6954789 293.39206111 389.40723515 293.40342903 C390.18457508 293.42030581 390.96191502 293.43718258 391.76281071 293.45457077 C394.11432408 293.49564235 394.11432408 293.49564235 397.2939539 293.12584114 C399.54121309 289.75495234 399.54635232 288.62092009 399.55274296 284.67637825 C399.56219944 283.00465805 399.56219944 283.00465805 399.57184696 281.29916573 C399.5677985 280.09599205 399.56375004 278.89281837 399.5595789 277.65318489 C399.56244907 275.8021994 399.56244907 275.8021994 399.56537724 273.91382027 C399.56708813 270.63479276 399.55903052 267.35595436 399.54786015 264.07695198 C399.5439548 262.06380888 399.54784973 260.05083991 399.55469608 258.03770638 C399.5670118 254.18028286 399.56556496 250.32311897 399.5595789 246.46568489 C399.56565159 244.65788803 399.56565159 244.65788803 399.57184696 242.81357002 C399.56554264 241.70224205 399.55923832 240.59091408 399.55274296 239.4459095 C399.55115177 238.46456535 399.54956059 237.48322121 399.54792118 236.47213936 C399.52135362 233.93530317 399.52135362 233.93530317 397.2939539 232.12584114 C396.3039539 232.45584114 395.3139539 232.78584114 394.2939539 233.12584114 C394.2939539 232.46584114 394.2939539 231.80584114 394.2939539 231.12584114 C393.53396689 231.1216092 392.77397989 231.11737726 391.99096298 231.11301708 C373.51359956 231.00979039 355.03627513 230.90116465 336.55897903 230.78650188 C327.62356409 230.73118296 318.68814516 230.67770313 309.75269413 230.62852669 C301.96613686 230.58566857 294.17960883 230.53938644 286.39309675 230.48896259 C282.2687874 230.46237479 278.14448381 230.43752201 274.02014065 230.41676712 C270.14028887 230.39718854 266.26049268 230.37304107 262.38069057 230.34535027 C260.95484775 230.33598631 259.52899272 230.32830867 258.10313129 230.32242203 C256.15985299 230.31414985 254.21660606 230.29928419 252.27336979 230.28405952 C251.18473228 230.27760697 250.09609476 230.27115442 248.97446823 230.26450634 C246.2939539 230.12584114 246.2939539 230.12584114 243.2939539 229.12584114 C242.05801648 226.00685116 242.16149411 222.83950558 242.14869022 219.51866341 C242.14231037 218.39392113 242.13593052 217.26917885 242.12935734 216.11035347 C242.12824451 214.89987846 242.12713169 213.68940346 242.12598515 212.44224739 C242.12099255 210.57076279 242.12099255 210.57076279 242.11589909 208.66147041 C242.11083637 206.02284871 242.10805798 203.38433002 242.10865116 200.74571419 C242.10875279 197.3720163 242.09509455 193.99852882 242.07787895 190.62488079 C242.06405923 187.39734425 242.06466961 184.1698095 242.06348515 180.94224739 C242.05629963 179.73379662 242.04911411 178.52534584 242.04171085 177.28027534 C242.04478748 176.15238091 242.04786411 175.02448647 242.05103397 173.86241341 C242.04960896 172.87298241 242.04818394 171.88355141 242.04671574 170.86413765 C242.32060275 167.83069061 242.74391769 165.75913974 244.2939539 163.12584114 C248.23230472 161.97444469 252.10268173 161.99400877 256.18377018 161.98108101 C256.86450086 161.97755416 257.54523155 161.97402732 258.24659044 161.9703936 C260.52044188 161.95974552 262.79425137 161.95603253 265.06812382 161.95225716 C266.70106526 161.94594918 268.33400499 161.93918311 269.96694279 161.93199348 C273.4792905 161.91734506 276.99163167 161.90561196 280.50399685 161.89604568 C286.05399406 161.88058472 291.60393444 161.85663833 297.15389347 161.83114815 C312.93418639 161.75995927 328.714511 161.70005318 344.49488163 161.6490345 C353.21317961 161.62077305 361.93142019 161.58542097 370.64965802 161.54238075 C376.17112479 161.51555292 381.69252666 161.49768261 387.21404588 161.4863435 C390.6415944 161.47724496 394.06906358 161.45989735 397.49656582 161.44016457 C399.09053653 161.43266542 400.68452753 161.42860659 402.27851582 161.42816925 C404.44753229 161.42709319 406.61614126 161.41390481 408.78508854 161.39758492 C410.60879364 161.39123701 410.60879364 161.39123701 412.46934128 161.38476086 C415.4291109 161.41708939 415.4291109 161.41708939 417.2939539 159.12584114 C418.3389938 156.06626772 418.42559407 153.19360227 418.43921757 149.97764778 C418.44559742 148.95300926 418.45197727 147.92837074 418.45855045 146.87268257 C418.45966328 145.77157646 418.4607761 144.67047035 418.46192265 143.53599739 C418.46525105 142.39932121 418.46857944 141.26264503 418.47200871 140.09152412 C418.47706983 137.68833508 418.47941728 135.28513902 418.47925663 132.88194466 C418.48144341 129.20596434 418.49960885 125.530284 418.51856327 121.85435677 C418.52149729 119.51907133 418.52348203 117.18378448 418.52442265 114.84849739 C418.53520092 113.19987457 418.53520092 113.19987457 418.54619694 111.51794624 C418.54312031 110.49015556 418.54004368 109.46236488 418.53687382 108.40342903 C418.53829884 107.50282249 418.53972385 106.60221596 418.54119205 105.67431831 C418.26166455 102.79300964 417.63966672 100.68871916 416.2939539 98.12584114 C413.5360446 97.20653804 411.91654764 96.99988361 409.07569981 96.99720669 C407.77891717 96.99237002 407.77891717 96.99237002 406.45593691 96.98743564 C405.03051789 96.98975854 405.03051789 96.98975854 403.57630253 96.99212837 C402.56721852 96.98986282 401.55813451 96.98759726 400.51847219 96.98526305 C397.12135565 96.97890918 393.72427886 96.9797533 390.32715702 96.98057747 C387.89811495 96.97758688 385.46907335 96.97418459 383.04003239 96.97039986 C377.11781675 96.96246682 371.19561051 96.95934481 365.27339065 96.95878748 C360.46131967 96.95831263 355.64925198 96.95625943 350.83718204 96.95308685 C337.2017323 96.94427963 323.56629042 96.93966768 309.93083781 96.94041733 C309.19553428 96.94045728 308.46023075 96.94049724 307.7026453 96.94053841 C306.96644689 96.94057929 306.23024848 96.94062017 305.47174102 96.94066229 C293.5335038 96.94106897 281.59529809 96.93149404 269.65706998 96.91740004 C257.40649383 96.90305106 245.15593307 96.89612901 232.9053483 96.89699382 C226.02449908 96.89732626 219.1436829 96.89455852 212.26284122 96.88381577 C205.79506268 96.87378276 199.32733601 96.87403093 192.85955334 96.8813324 C190.4806753 96.88238264 188.10179298 96.87998952 185.72292233 96.87397194 C182.48573294 96.86631105 179.24878896 96.87085744 176.01160526 96.87860298 C175.06132592 96.87345942 174.11104657 96.86831586 173.13197088 96.86301643 C171.83518825 96.86991462 171.83518825 96.86991462 170.51220798 96.87695217 C169.76464599 96.8767348 169.017084 96.87651744 168.24686861 96.87629348 C165.97089805 97.01999426 165.97089805 97.01999426 163.2939539 99.12584114 Z " fill="#38A966" transform="translate(221.70604610443115,150.87415885925293)"/>
<path d="M0 0 C9.4421014 7.65524954 15.41395522 19.01343146 17 31 C18.0434726 48.09922611 16.32808336 63.72218824 4.8125 77.1875 C-3.76052751 86.22969817 -13.70327466 92.36420179 -26.35253906 93.14526367 C-28.98515309 93.17003432 -31.61726102 93.18565376 -34.25 93.1875 C-35.15363281 93.19974609 -36.05726563 93.21199219 -36.98828125 93.22460938 C-49.69195043 93.25202737 -61.93374559 89.62912608 -71.4140625 80.75 C-82.40364513 68.623564 -86.57159251 54.50342184 -86.24609375 38.32421875 C-85.13292133 23.28755632 -79.19671968 10.17883608 -68 0 C-48.74898682 -14.8874502 -19.3479774 -14.18623785 0 0 Z " fill="#FCFEFD" transform="translate(725,671)"/>
<path d="M0 0 C1.18142578 -0.020625 2.36285156 -0.04125 3.58007812 -0.0625 C15.14711506 -0.11376665 25.02515183 2.03173419 33.72265625 10 C43.10533506 19.88069786 43.37454382 30.70381199 43.203125 43.6328125 C43.1956509 45.3000317 43.1899635 46.96725978 43.18597412 48.63449097 C43.17080959 52.99117928 43.13160896 57.3473216 43.0871582 61.70379639 C43.04600555 66.16183083 43.0279207 70.61995476 43.0078125 75.078125 C42.96510396 83.80236 42.8948313 92.52604886 42.8125 101.25 C34.8925 101.25 26.9725 101.25 18.8125 101.25 C18.4825 97.95 18.1525 94.65 17.8125 91.25 C16.1109375 92.85875 16.1109375 92.85875 14.375 94.5 C3.94504036 103.6516875 -7.564424 103.92178245 -20.80322266 103.42480469 C-28.57697373 102.85486758 -34.8685273 99.64451403 -40.46484375 94.3125 C-46.78930406 86.74035704 -49.02525013 77.93944963 -48.1875 68.25 C-46.87614703 61.16388166 -43.62201662 55.95373882 -38.1875 51.25 C-29.07906233 44.9879491 -18.12118511 43.76789908 -7.42578125 42.3203125 C-5.61291626 42.07003296 -5.61291626 42.07003296 -3.76342773 41.81469727 C-1.32114852 41.48329227 1.12342338 41.16831454 3.57006836 40.87084961 C4.70452393 40.7188208 5.83897949 40.56679199 7.0078125 40.41015625 C8.02891113 40.28261963 9.05000977 40.15508301 10.10205078 40.02368164 C13.3651604 39.09224637 14.72142332 37.8909252 16.8125 35.25 C17.47432423 31.44451068 16.95914552 29.56162173 15.3125 26.0625 C11.46682037 21.73611041 7.80228153 20.60250699 2.12890625 19.93359375 C-4.15848214 19.66326221 -9.04813585 20.49571271 -14.1875 24.25 C-16.9601849 27.16861569 -18.3710053 29.61701061 -20.1875 33.25 C-28.1075 33.25 -36.0275 33.25 -44.1875 33.25 C-44.1875 24.20932687 -41.17521546 17.18149239 -35.125 10.375 C-25.06404056 1.19184239 -12.88618789 0.05533521 0 0 Z " fill="#FCFEFD" transform="translate(467.1875,660.75)"/>
<path d="M0 0 C0.93368408 0.00563965 1.86736816 0.0112793 2.8293457 0.01708984 C15.05134775 0.23238978 25.00092835 3.17698032 34.19921875 11.5390625 C47.50505644 25.39472819 47.75 38.97854065 47.75 58.3125 C24.98 58.3125 2.21 58.3125 -21.25 58.3125 C-17.89753352 72.19118902 -17.89753352 72.19118902 -8.25 81.3125 C-2.32926443 84.13830561 4.26708156 84.4751361 10.4765625 82.40234375 C15.94706458 79.98171337 15.94706458 79.98171337 19.2421875 75.15625 C21.75 72.3125 21.75 72.3125 24.40576172 71.82861328 C27.78855908 71.72085461 31.11874966 71.79081617 34.5 71.9375 C36.26150391 71.97810547 36.26150391 71.97810547 38.05859375 72.01953125 C40.9575816 72.09023827 43.8528647 72.18888044 46.75 72.3125 C44.90411051 82.24969248 38.78256261 90.58039297 30.6875 96.5 C21.30280626 102.2763874 12.38090217 103.66476575 1.5625 103.75 C0.64831299 103.76015137 -0.26587402 103.77030273 -1.20776367 103.78076172 C-13.33076494 103.62568865 -24.52727829 99.33625051 -33.55859375 91.1640625 C-46.54762763 76.9451201 -48.15228742 60.61425793 -47.4765625 42.26269531 C-46.72548523 32.48250386 -42.98733468 23.49779576 -36.25 16.3125 C-35.425 15.425625 -34.6 14.53875 -33.75 13.625 C-23.55162224 4.19150057 -14.10478908 -0.08843128 0 0 Z " fill="#FCFEFD" transform="translate(284.25,660.6875)"/>
<path d="M0 0 C9.1997628 6.38946062 13.82538212 13.86589593 16.04418945 24.74414062 C17.31498387 31.90329438 17.27059598 39.00914857 17.23046875 46.2578125 C17.22927381 47.69701089 17.22882445 49.13621007 17.2290802 50.57540894 C17.22752875 53.56562299 17.21933488 56.55571503 17.20581055 59.54589844 C17.18866779 63.3849514 17.18500129 67.22387289 17.18575573 71.06295967 C17.18548472 74.02252463 17.18001718 76.98206068 17.17275429 79.94161606 C17.16956862 81.35865943 17.16760045 82.77570608 17.16686058 84.19275284 C17.16470467 86.15992664 17.1551787 88.12708828 17.14526367 90.09423828 C17.14145187 91.21355743 17.13764008 92.33287659 17.13371277 93.4861145 C17 96 17 96 16 97 C14.07332493 97.08748207 12.14348139 97.10697334 10.21484375 97.09765625 C8.46010742 97.09282227 8.46010742 97.09282227 6.66992188 97.08789062 C5.43822266 97.07951172 4.20652344 97.07113281 2.9375 97.0625 C1.08415039 97.05573242 1.08415039 97.05573242 -0.80664062 97.04882812 C-3.87114117 97.03699608 -6.93554721 97.02051173 -10 97 C-10.00586624 96.21596802 -10.01173248 95.43193604 -10.01777649 94.62414551 C-10.07585236 87.20949023 -10.14801328 79.79516528 -10.23571491 72.38080597 C-10.28030639 68.56964767 -10.31958655 64.75859349 -10.34643555 60.94726562 C-10.37258145 57.26418114 -10.41306173 53.58149981 -10.46318626 49.89866638 C-10.47977917 48.49862205 -10.49134039 47.09850811 -10.49761391 45.69837952 C-10.21455189 33.77756323 -10.21455189 33.77756323 -15.41596985 23.4564209 C-20.62199799 18.87520038 -25.24839158 18.59173172 -31.91796875 18.65625 C-38.00510348 19.33516997 -41.56578355 22.26384324 -45.375 26.875 C-49.42131684 34.65637854 -49.32082975 41.91800603 -49.37890625 50.5546875 C-49.40486443 52.53623141 -49.43082742 54.51777528 -49.4570837 56.49931526 C-49.49134028 59.25700235 -49.51701465 62.01474287 -49.54260254 64.77252197 C-49.5885215 69.62457853 -49.64342409 74.47652169 -49.70530701 79.32839966 C-49.73735308 81.90912946 -49.764215 84.48992958 -49.78553772 87.07077026 C-49.79902756 88.22932526 -49.8125174 89.38788025 -49.82641602 90.58154297 C-49.83592789 91.60633759 -49.84543976 92.6311322 -49.85523987 93.6869812 C-50 96 -50 96 -51 97 C-52.84159023 97.09959621 -54.68696967 97.13080411 -56.53125 97.1328125 C-57.65144531 97.13410156 -58.77164063 97.13539063 -59.92578125 97.13671875 C-61.10527344 97.13285156 -62.28476562 97.12898437 -63.5 97.125 C-65.26923828 97.13080078 -65.26923828 97.13080078 -67.07421875 97.13671875 C-68.19441406 97.13542969 -69.31460938 97.13414062 -70.46875 97.1328125 C-71.50451172 97.13168457 -72.54027344 97.13055664 -73.60742188 97.12939453 C-76 97 -76 97 -77 96 C-77.10064199 92.96134239 -77.1361459 89.9453727 -77.12939453 86.90625 C-77.13114685 85.95186035 -77.13289917 84.9974707 -77.13470459 84.01416016 C-77.13912487 80.84275523 -77.1361845 77.67140555 -77.1328125 74.5 C-77.13348549 72.30664052 -77.13445547 70.1132811 -77.13571167 67.91992188 C-77.13718888 63.31639905 -77.13503334 58.71289558 -77.13037109 54.109375 C-77.1246738 48.19395405 -77.12795268 42.27857846 -77.13394356 36.36315918 C-77.13754854 31.83202774 -77.13641087 27.30090715 -77.13381577 22.76977539 C-77.13314632 20.58797195 -77.13397552 18.40616754 -77.13629532 16.22436523 C-77.13882082 13.1808001 -77.1349827 10.13730954 -77.12939453 7.09375 C-77.13141876 6.18254395 -77.13344299 5.27133789 -77.13552856 4.33251953 C-77.11426229 -1.88573771 -77.11426229 -1.88573771 -76 -3 C-74.15840977 -3.09959621 -72.31303033 -3.13080411 -70.46875 -3.1328125 C-69.34855469 -3.13410156 -68.22835937 -3.13539063 -67.07421875 -3.13671875 C-65.89472656 -3.13285156 -64.71523438 -3.12898437 -63.5 -3.125 C-61.73076172 -3.13080078 -61.73076172 -3.13080078 -59.92578125 -3.13671875 C-58.24548828 -3.13478516 -58.24548828 -3.13478516 -56.53125 -3.1328125 C-55.49548828 -3.13168457 -54.45972656 -3.13055664 -53.39257812 -3.12939453 C-51 -3 -51 -3 -50 -2 C-49.76636119 -0.15108054 -49.58696365 1.70488031 -49.4375 3.5625 C-49.31181641 5.08037109 -49.31181641 5.08037109 -49.18359375 6.62890625 C-49.12300781 7.41136719 -49.06242188 8.19382812 -49 9 C-48.5153125 8.46890625 -48.030625 7.9378125 -47.53125 7.390625 C-35.64615998 -5.13443141 -15.47984677 -9.09133858 0 0 Z " fill="#FCFDFC" transform="translate(606,665)"/>
<path d="M0 0 C4.104375 -0.020625 8.20875 -0.04125 12.4375 -0.0625 C14.38160767 -0.07615601 14.38160767 -0.07615601 16.36499023 -0.09008789 C17.37762939 -0.09258545 18.39026855 -0.09508301 19.43359375 -0.09765625 C20.47572021 -0.10289307 21.51784668 -0.10812988 22.59155273 -0.11352539 C25 0 25 0 26 1 C26.08737645 2.85369611 26.10698153 4.71067541 26.09765625 6.56640625 C26.09515869 7.57904541 26.09266113 8.59168457 26.09008789 9.63500977 C26.08098389 10.93108154 26.07187988 12.22715332 26.0625 13.5625 C26.041875 17.666875 26.02125 21.77125 26 26 C34.25 26 42.5 26 51 26 C51 32.6 51 39.2 51 46 C42.75 46 34.5 46 26 46 C26.0739883 53.31463688 26.15681339 60.62804864 26.26245117 67.94213867 C26.29569657 70.43002978 26.32372966 72.91799624 26.34643555 75.40600586 C26.3799877 78.98323668 26.43230592 82.55977719 26.48828125 86.13671875 C26.49467117 87.24834885 26.5010611 88.35997894 26.50764465 89.5052948 C26.53733589 91.06634697 26.53733589 91.06634697 26.56762695 92.65893555 C26.58428154 94.02794258 26.58428154 94.02794258 26.60127258 95.42460632 C27.08745374 98.56486661 28.1082173 100.46085876 30 103 C32.65918166 103.88639389 34.48064641 104.17989025 37.23046875 104.31640625 C37.95387451 104.35451416 38.67728027 104.39262207 39.42260742 104.43188477 C40.33502197 104.47498779 41.24743652 104.51809082 42.1875 104.5625 C45.095625 104.706875 48.00375 104.85125 51 105 C51 111.6 51 118.2 51 125 C45.66122073 126.77959309 39.96249095 126.26995565 34.375 126.3125 C33.12847656 126.34150391 31.88195312 126.37050781 30.59765625 126.40039062 C21.95358646 126.45972162 15.73192762 125.44067279 8.6953125 120.32421875 C2.16877405 113.52168241 -0.13445216 106.63792638 -0.11352539 97.19995117 C-0.11344986 96.05914597 -0.11337433 94.91834076 -0.11329651 93.7429657 C-0.10813522 92.52196671 -0.10297394 91.30096771 -0.09765625 90.04296875 C-0.0962413 88.78486893 -0.09482635 87.5267691 -0.09336853 86.23054504 C-0.08872573 82.89821471 -0.07975228 79.56595368 -0.06866455 76.23364258 C-0.05840503 72.82829383 -0.05386121 69.4229379 -0.04882812 66.01757812 C-0.03780829 59.34503055 -0.02054835 52.67252476 0 46 C-5.28 46 -10.56 46 -16 46 C-16 39.4 -16 32.8 -16 26 C-10.72 26 -5.44 26 0 26 C0 17.42 0 8.84 0 0 Z " fill="#FDFEFE" transform="translate(355,637)"/>
<path d="M0 0 C1.07507813 -0.00128906 2.15015625 -0.00257813 3.2578125 -0.00390625 C4.38960937 -0.00003906 5.52140625 0.00382813 6.6875 0.0078125 C7.81929687 0.00394531 8.95109375 0.00007812 10.1171875 -0.00390625 C11.19226563 -0.00261719 12.26734375 -0.00132812 13.375 0 C14.86580078 0.00169189 14.86580078 0.00169189 16.38671875 0.00341797 C18.6875 0.1328125 18.6875 0.1328125 19.6875 1.1328125 C19.78382045 2.8917468 19.8093751 4.65458409 19.80775452 6.41615295 C19.80912918 7.56185257 19.81050385 8.70755219 19.81192017 9.88796997 C19.80832489 11.15607513 19.80472961 12.4241803 19.80102539 13.73071289 C19.80074352 15.07074481 19.80090125 16.41077689 19.8014679 17.75080872 C19.80175587 21.39940688 19.7958592 25.04797245 19.78889394 28.69656301 C19.78266034 32.50558766 19.7820566 36.314613 19.78086853 40.12364197 C19.77775523 47.34139004 19.76954186 54.55912304 19.75951904 61.77686447 C19.74835786 69.99196507 19.74284744 78.20706638 19.73782361 86.42217267 C19.72735925 103.3257295 19.70901379 120.22926557 19.6875 137.1328125 C11.1075 137.1328125 2.5275 137.1328125 -6.3125 137.1328125 C-6.33504646 119.41788453 -6.35347884 101.70296875 -6.36431217 83.98803043 C-6.36947527 75.76325531 -6.37651823 67.53848971 -6.38793945 59.3137207 C-6.39788586 52.14760804 -6.40435332 44.98150227 -6.40658849 37.8153829 C-6.40789568 34.01864261 -6.41098198 30.22192205 -6.41823006 26.42518806 C-6.4249896 22.85562348 -6.4271171 19.28608687 -6.42560768 15.71651649 C-6.42601636 13.77366404 -6.4314119 11.83081466 -6.43692017 9.88796997 C-6.4355455 8.74227036 -6.43417084 7.59657074 -6.43275452 6.41615295 C-6.43367631 5.41416398 -6.4345981 4.41217501 -6.43554783 3.37982273 C-6.1996148 -0.9286151 -3.74515915 0.00425034 0 0 Z " fill="#FEFEFE" transform="translate(765.3125,624.8671875)"/>
<path d="M0 0 C6.98160251 4.60118086 11.51865392 11.51750373 13.4296875 19.5546875 C15.02254666 29.0702896 14.5847222 39.09386802 9.51953125 47.4921875 C5.01060247 53.80236361 0.68249132 57.72790995 -7.12109375 59.23828125 C-14.30074219 59.94658737 -20.20194871 59.63536043 -26.12109375 55.23828125 C-32.17283063 49.81839625 -36.163549 42.49249758 -36.65234375 34.3359375 C-36.66910573 32.65760346 -36.65816434 30.97878956 -36.62109375 29.30078125 C-36.60900879 28.42268799 -36.59692383 27.54459473 -36.58447266 26.63989258 C-36.30667258 17.57771747 -34.14987839 10.39170389 -27.80078125 3.7109375 C-20.1900706 -2.96170881 -9.29779017 -4.09568627 0 0 Z " fill="#2EA15E" transform="translate(702.12109375,683.76171875)"/>
<path d="M0 0 C0.33 0 0.66 0 1 0 C1.3749395 78.98438464 1.72764521 157.96895597 2.17937243 345.70445871 C2.18470163 352.91243856 2.19522595 360.12039899 2.20800781 367.32836914 C2.22333288 376.05605268 2.23131698 384.78370509 2.22964984 393.51140261 C2.22892057 397.90102293 2.23102697 402.29058274 2.24188805 406.68019104 C2.39273869 471.52685484 2.39273869 471.52685484 -20 496 C-20.721875 496.80308594 -21.44375 497.60617187 -22.1875 498.43359375 C-27.51061176 504.07038889 -33.27166843 508.18121722 -40 512 C-40.81339844 512.46277344 -41.62679687 512.92554688 -42.46484375 513.40234375 C-51.73999733 518.34809015 -62.33057324 521.85324568 -72.88031447 522.31170541 C-73.82066625 522.35299012 -74.76101804 522.39427483 -75.72986533 522.43681059 C-76.73879426 522.47553027 -77.74772319 522.51424995 -78.78722572 522.55414295 C-79.85104781 522.5962651 -80.9148699 522.63838724 -82.01092903 522.68178581 C-93.47588368 523.10278951 -104.93311393 523.14251328 -116.40438843 523.13371277 C-118.76340986 523.13558652 -121.12243099 523.13788944 -123.48145163 523.14057809 C-129.89137681 523.14663213 -136.30128883 523.14657017 -142.71121621 523.14538372 C-148.93675501 523.14470884 -155.16229082 523.14970717 -161.38782776 523.1539966 C-175.66949883 523.1636135 -189.95116629 523.16647863 -204.23284023 523.16705366 C-215.26186221 523.16751482 -226.2908828 523.16958151 -237.31990433 523.17275429 C-240.50488365 523.17365193 -243.68986297 523.17454174 -246.87484229 523.17542917 C-248.06278491 523.17576074 -248.06278491 523.17576074 -249.27472638 523.17609901 C-271.51476687 523.18224304 -293.75480687 523.18620056 -315.99484825 523.18575573 C-316.83144029 523.18574015 -317.66803232 523.18572457 -318.52997563 523.18570852 C-322.76936555 523.18562542 -327.00875547 523.18552638 -331.24814539 523.18542381 C-332.08998329 523.18540387 -332.93182119 523.18538392 -333.79916933 523.18536337 C-335.50156153 523.18532294 -337.20395373 523.18528114 -338.90634594 523.18523798 C-365.41429469 523.18462474 -391.92223068 523.1921451 -418.43017578 523.20581055 C-448.26468881 523.22118487 -478.09919345 523.2297761 -507.93371069 523.22884732 C-511.11680388 523.2287727 -514.29989707 523.22872399 -517.48299026 523.22869301 C-518.26665642 523.22868135 -519.05032257 523.2286697 -519.85773618 523.22865769 C-532.43908835 523.22862699 -545.02042936 523.23499749 -557.60177822 523.24362527 C-570.24854811 523.25211854 -582.89530176 523.25307846 -595.54207294 523.24651595 C-602.38583374 523.24315568 -609.22955785 523.24291509 -616.07331467 523.2518692 C-622.34625723 523.25975181 -628.61912774 523.25828481 -634.89206858 523.24958507 C-637.15276046 523.24805406 -639.41345776 523.24985109 -641.67414324 523.25544515 C-672.09061675 523.32568544 -698.35775505 519.93274681 -721 498 C-736.82171074 481.29334612 -744.37186045 460.01933524 -744.22705078 437.27661133 C-744.22734283 436.05580872 -744.22763489 434.8350061 -744.22793579 433.57720947 C-744.22679032 430.26588229 -744.21683726 426.95481194 -744.20278788 423.64353013 C-744.19019063 420.16956242 -744.18910299 416.69559042 -744.18673706 413.22160339 C-744.1805485 406.65935862 -744.16417363 400.09718136 -744.14403808 393.53496617 C-744.12159687 386.05723291 -744.11066508 378.57949623 -744.10064721 371.10173762 C-744.07980473 355.73445279 -744.04468042 340.36723514 -744 325 C-743.67 325 -743.34 325 -743 325 C-742.99945523 325.60939769 -742.99891047 326.21879538 -742.99834919 326.84665966 C-742.98328602 341.77539424 -742.94045879 356.70386331 -742.86790943 371.63241863 C-742.83347067 378.85222841 -742.80793199 386.07185146 -742.80444336 393.29174805 C-742.80137369 399.59536011 -742.78048748 405.89863783 -742.73947543 412.20212108 C-742.71841041 415.53025209 -742.70806597 418.85751173 -742.71384621 422.18576622 C-742.74972746 449.14986762 -739.37708999 474.65763062 -720 495 C-714.18808658 501.05249759 -714.18808658 501.05249759 -707 505 C-706.57460938 505.44472656 -706.14921875 505.88945313 -705.7109375 506.34765625 C-703.29714594 508.67878371 -700.61677439 509.92816663 -697.625 511.4375 C-696.50351562 512.01371094 -695.38203125 512.58992187 -694.2265625 513.18359375 C-692.82498426 513.80571986 -691.41527559 514.40969714 -690 515 C-689.21031458 515.34131563 -688.42062916 515.68263125 -687.60701388 516.03428978 C-676.17448991 520.25519363 -664.46017555 519.55919796 -652.43782043 519.5146637 C-649.92742161 519.51999267 -647.41702599 519.52706038 -644.90663642 519.53571075 C-639.46133986 519.55043921 -634.01625705 519.55281672 -628.57095146 519.54411316 C-620.47318733 519.53120501 -612.37556227 519.5412302 -604.27780644 519.55561271 C-589.81127177 519.58051542 -575.34480264 519.58244331 -560.87825279 519.57433859 C-548.21504247 519.56725912 -535.55185754 519.56721484 -522.88864708 519.57420158 C-521.18840808 519.57511293 -519.48816907 519.57602369 -517.78793007 519.57693387 C-515.22563551 519.57831704 -512.66334097 519.57970814 -510.10104643 519.58112001 C-486.28525899 519.59409697 -462.46948005 519.59922003 -438.65369129 519.5875864 C-437.75634153 519.58714843 -436.85899177 519.58671046 -435.9344496 519.58625922 C-428.64789886 519.5826526 -421.36134824 519.57881772 -414.07479762 519.57496829 C-385.66205274 519.56012569 -357.24940402 519.56889385 -328.83666992 519.59692383 C-296.89308232 519.62837705 -264.94955162 519.64331341 -233.00594825 519.63312382 C-229.59744276 519.63208709 -226.18893726 519.63109985 -222.78043175 519.6301403 C-221.52160096 519.62976697 -221.52160096 519.62976697 -220.23733925 519.6293861 C-207.58824242 519.62595107 -194.93919597 519.6352331 -182.29010963 519.65091133 C-167.8973474 519.6687101 -153.50470745 519.6687684 -139.11195038 519.64555968 C-131.06604239 519.63309344 -123.02041568 519.63424098 -114.97452442 519.65544054 C-108.953642 519.66973889 -102.93310704 519.65766493 -96.9122357 519.63564359 C-94.48634617 519.63077599 -92.06042164 519.63423278 -89.63456152 519.64713103 C-71.70552129 519.73553564 -56.23604353 517.93893796 -40.28515625 509.234375 C-38 508 -38 508 -35 507 C-35 506.34 -35 505.68 -35 505 C-33.33779419 503.99260254 -31.66979326 502.99477045 -30 502 C-25.36231124 498.54842999 -25.36231124 498.54842999 -22 494 C-21.34 494 -20.68 494 -20 494 C-19.67 492.35 -19.34 490.7 -19 489 C-18.01 488.67 -17.02 488.34 -16 488 C-14.54421156 485.81044722 -13.2558815 483.67430184 -12 481.375 C-11.65710938 480.77042969 -11.31421875 480.16585938 -10.9609375 479.54296875 C-5.92613004 470.53027906 -1.44670319 460.51263936 -2 450 C-1.67 449.67 -1.34 449.34 -1 449 C-0.89615714 446.61228406 -0.85793152 444.25322582 -0.8613348 441.86475277 C-0.85849258 441.10551914 -0.85565036 440.34628551 -0.85272202 439.5640448 C-0.84431542 436.98734227 -0.84310218 434.41068435 -0.84178162 431.83396912 C-0.83722031 429.9810696 -0.83222094 428.12817111 -0.82681805 426.27527386 C-0.8131783 421.15822883 -0.80580179 416.04119049 -0.79939139 410.92413199 C-0.79141295 405.41556931 -0.77770645 399.90702065 -0.76467896 394.39846802 C-0.74287978 384.84608332 -0.72474794 375.29369722 -0.70907402 365.74130058 C-0.68640663 351.9299657 -0.65825953 338.11864631 -0.62875474 324.30732454 C-0.58104033 301.90191139 -0.53777808 279.49649163 -0.49731445 257.09106445 C-0.45798631 235.3202261 -0.41656909 213.54939337 -0.37231445 191.77856445 C-0.37095192 191.10786487 -0.36958939 190.4371653 -0.36818558 189.74614149 C-0.35450057 183.01089446 -0.340773 176.27564753 -0.32701423 169.54040065 C-0.21157251 113.02694556 -0.10331942 56.51347847 0 0 Z " fill="#248F50" transform="translate(883,351)"/>
<path d="M0 0 C0.82386917 15.01272709 0.82386917 15.01272709 -4 21 C-10.53322391 27.30682506 -18.22598683 28.46816144 -27.05078125 28.32421875 C-31.2380514 27.86389634 -34.6507625 26.56774875 -38 24 C-40.70225866 19.94661201 -40.63745591 16.75575656 -40 12 C-37.7325053 7.36194266 -34.12898425 5.63829598 -29.4609375 3.9140625 C-20.03451048 1.42446439 -9.76067387 -0.14269675 0 0 Z " fill="#2B9E5A" transform="translate(485,717)"/>
<path d="M0 0 C5.63243628 3.13668434 8.22824995 8.25682387 10.265625 14.26171875 C10.265625 16.24171875 10.265625 18.22171875 10.265625 20.26171875 C-4.254375 20.26171875 -18.774375 20.26171875 -33.734375 20.26171875 C-30.88772488 6.02846813 -30.88772488 6.02846813 -23.890625 0.9140625 C-15.62201963 -3.97352415 -8.57323066 -3.74750113 0 0 Z " fill="#31A25F" transform="translate(296.734375,682.73828125)"/>
<path d="M0 0 C3.80929659 3.80929659 3.12612247 8.93998914 3.12939453 14.06933594 C3.13114685 14.76096329 3.13289917 15.45259064 3.13470459 16.16517639 C3.13908601 18.43826853 3.13619953 20.71128215 3.1328125 22.984375 C3.1334863 24.56667089 3.13445696 26.14896667 3.13571167 27.73126221 C3.13718335 31.0397643 3.13504996 34.34823934 3.13037109 37.65673828 C3.12465542 41.90623994 3.12796773 46.15567869 3.13394356 50.40517807 C3.13754757 53.66842121 3.13641165 56.9316493 3.13381577 60.19489288 C3.13314702 61.76265724 3.13397311 63.33042295 3.13629532 64.89818573 C3.13882124 67.08157511 3.13498302 69.2648606 3.12939453 71.44824219 C3.12859894 72.69224792 3.12780334 73.93625366 3.12698364 75.21795654 C3 78 3 78 2 79 C0.07332493 79.08748207 -1.85651861 79.10697334 -3.78515625 79.09765625 C-5.53989258 79.09282227 -5.53989258 79.09282227 -7.33007812 79.08789062 C-9.17762695 79.07532227 -9.17762695 79.07532227 -11.0625 79.0625 C-12.91584961 79.05573242 -12.91584961 79.05573242 -14.80664062 79.04882812 C-17.87114117 79.03699608 -20.93554721 79.02051173 -24 79 C-24 78.67 -24 78.34 -24 78 C-23.31373535 77.97494385 -22.6274707 77.9498877 -21.92041016 77.92407227 C-18.82174183 77.80828573 -15.72339077 77.68548115 -12.625 77.5625 C-11.54476562 77.52318359 -10.46453125 77.48386719 -9.3515625 77.44335938 C-8.3203125 77.40146484 -7.2890625 77.35957031 -6.2265625 77.31640625 C-5.27346191 77.27974854 -4.32036133 77.24309082 -3.33837891 77.20532227 C-0.97867651 77.14236535 -0.97867651 77.14236535 1 76 C1.02329122 67.71503396 1.0409999 59.43008187 1.05181217 51.14509106 C1.05700459 47.2969922 1.06403513 43.44891594 1.07543945 39.60083008 C1.08639896 35.87904454 1.09230418 32.15728057 1.09487724 28.43548012 C1.09670817 27.02390517 1.10028283 25.61233124 1.10573006 24.20076561 C1.13581629 16.07237926 0.93094294 8.07910162 0 0 Z " fill="#027E21" transform="translate(621,685)"/>
<path d="M0 0 C15.84 0 31.68 0 48 0 C48 0.33 48 0.66 48 1 C39.585 1.495 39.585 1.495 31 2 C31 2.33 31 2.66 31 3 C23.74 3 16.48 3 9 3 C9 2.67 9 2.34 9 2 C6.03 1.67 3.06 1.34 0 1 C0 0.67 0 0.34 0 0 Z " fill="#2A9958" transform="translate(524,871)"/>
<path d="M0 0 C2 2 2 2 2.22705078 4.15478516 C2.21657715 5.02409668 2.20610352 5.8934082 2.1953125 6.7890625 C2.18886719 7.73007812 2.18242187 8.67109375 2.17578125 9.640625 C2.15902344 10.62546875 2.14226562 11.6103125 2.125 12.625 C2.11597656 13.61757813 2.10695313 14.61015625 2.09765625 15.6328125 C2.07404116 18.08878134 2.04110799 20.54427168 2 23 C1.01 23 0.02 23 -1 23 C-0.67 16.07 -0.34 9.14 0 2 C-5.28 2 -10.56 2 -16 2 C-16 1.67 -16 1.34 -16 1 C-10.74201496 0.10502382 -5.3283621 -0.64027162 0 0 Z " fill="#3A9F5F" transform="translate(406,740)"/>
<path d="M0 0 C0.33 0 0.66 0 1 0 C1.33 3.63 1.66 7.26 2 11 C9.26 11.33 16.52 11.66 24 12 C24 12.33 24 12.66 24 13 C20.20839703 13.05786668 16.41690689 13.09355054 12.625 13.125 C11.00464844 13.15013672 11.00464844 13.15013672 9.3515625 13.17578125 C8.3203125 13.18222656 7.2890625 13.18867187 6.2265625 13.1953125 C4.79691162 13.21102295 4.79691162 13.21102295 3.33837891 13.22705078 C1 13 1 13 -1 11 C-1.39764263 9.01178687 -1.73775349 7.01055661 -2 5 C-3.98 5.99 -3.98 5.99 -6 7 C-5.02433888 5.83040013 -4.044375 4.66438823 -3.0625 3.5 C-2.51722656 2.8503125 -1.97195313 2.200625 -1.41015625 1.53125 C-0.71212891 0.77328125 -0.71212891 0.77328125 0 0 Z " fill="#178C3D" transform="translate(485,751)"/>
<path d="M0 0 C2 2 2 2 2 5 C2.66 5 3.32 5 4 5 C5.19190363 13.34332544 5.09283549 21.59323022 5 30 C4.34 30.33 3.68 30.66 3 31 C2.98018066 30.41621582 2.96036133 29.83243164 2.93994141 29.23095703 C2.84337139 26.52859732 2.73424027 23.82687606 2.625 21.125 C2.5940625 20.2071875 2.563125 19.289375 2.53125 18.34375 C2.26580092 12.06145511 1.41690436 6.125489 0 0 Z " fill="#1A9245" transform="translate(329,688)"/>
<path d="M0 0 C1.5631897 0.00785522 1.5631897 0.00785522 3.15795898 0.01586914 C4.28266602 0.0190918 5.40737305 0.02231445 6.56616211 0.02563477 C7.75016602 0.03401367 8.93416992 0.04239258 10.15405273 0.05102539 C11.34192383 0.05553711 12.52979492 0.06004883 13.75366211 0.06469727 C16.69967499 0.07652864 19.64558954 0.09301252 22.59155273 0.11352539 C22.59155273 0.44352539 22.59155273 0.77352539 22.59155273 1.11352539 C21.89594238 1.10192383 21.20033203 1.09032227 20.48364258 1.07836914 C17.31011764 1.04876438 14.14001963 1.08058283 10.96655273 1.11352539 C9.87213867 1.09418945 8.77772461 1.07485352 7.65014648 1.05493164 C1.63733785 1.02400364 1.63733785 1.02400364 -3.38012695 3.89086914 C-4.95487817 5.99862295 -4.95487817 5.99862295 -6.14038086 8.20336914 C-7.6617764 10.49512862 -8.81514568 11.24140859 -11.40844727 12.11352539 C-12.39844727 11.78352539 -13.38844727 11.45352539 -14.40844727 11.11352539 C-13.43907227 10.86602539 -12.46969727 10.61852539 -11.47094727 10.36352539 C-10.46032227 9.95102539 -9.44969727 9.53852539 -8.40844727 9.11352539 C-7.43967669 7.08108991 -7.43967669 7.08108991 -7.40844727 5.11352539 C-6.74844727 5.44352539 -6.08844727 5.77352539 -5.40844727 6.11352539 C-5.09907227 5.30915039 -4.78969727 4.50477539 -4.47094727 3.67602539 C-3.00548176 0.14166741 -3.00548176 0.14166741 0 0 Z " fill="#05842A" transform="translate(308.408447265625,730.886474609375)"/>
<path d="M0 0 C1 3 1 3 0 6 C13.2 6 26.4 6 40 6 C40 6.33 40 6.66 40 7 C19.21 7.495 19.21 7.495 -2 8 C-1 1 -1 1 0 0 Z " fill="#068128" transform="translate(265,695)"/>
<path d="M0 0 C0.99 0.495 0.99 0.495 2 1 C2 1.66 2 2.32 2 3 C2.66 3 3.32 3 4 3 C4 3.66 4 4.32 4 5 C5.65 4.34 7.3 3.68 9 3 C8.06409496 4.1055189 7.12620142 5.20935453 6.1875 6.3125 C5.66542969 6.92738281 5.14335938 7.54226563 4.60546875 8.17578125 C3.13668249 9.84469411 1.57203741 11.42796259 0 13 C0 8.71 0 4.42 0 0 Z " fill="#168C3E" transform="translate(556,663)"/>
<path d="M0 0 C0.33 0 0.66 0 1 0 C1.09796875 0.99 1.1959375 1.98 1.296875 3 C2.11098686 10.41902862 3.26498672 16.43152836 7 23 C6.67 23.66 6.34 24.32 6 25 C3.36620292 21.34666857 1.53115106 18.51478398 1 14 C0.01 13.67 -0.98 13.34 -2 13 C-1.84660156 12.43796875 -1.69320313 11.8759375 -1.53515625 11.296875 C-0.98639581 8.94161122 -0.68502401 6.65451896 -0.4375 4.25 C-0.35371094 3.45078125 -0.26992188 2.6515625 -0.18359375 1.828125 C-0.12300781 1.22484375 -0.06242187 0.6215625 0 0 Z " fill="#128635" transform="translate(418,728)"/>
<path d="M0 0 C1.02218828 2.02166126 2.02101052 4.04584886 2.96484375 6.10546875 C3.28582031 6.79253906 3.60679687 7.47960937 3.9375 8.1875 C4.25589844 8.88230469 4.57429688 9.57710937 4.90234375 10.29296875 C5.96416596 12.33634383 5.96416596 12.33634383 9 13 C10.0625 14.9375 10.0625 14.9375 11 17 C11.66 17.66 12.32 18.32 13 19 C7.62273216 18.19459424 5.11152539 14.1304128 2 10 C0.13904265 6.52081886 -0.22430875 3.92540321 0 0 Z " fill="#108331" transform="translate(264,723)"/>
<path d="M0 0 C-1.65 1.65 -3.3 3.3 -5 5 C-5.99 4.67 -6.98 4.34 -8 4 C-10.05893621 3.77674186 -12.12233653 3.59294241 -14.1875 3.4375 C-15.81751953 3.31181641 -15.81751953 3.31181641 -17.48046875 3.18359375 C-18.31191406 3.12300781 -19.14335937 3.06242188 -20 3 C-20 2.67 -20 2.34 -20 2 C-17.60468244 1.66254646 -15.20885732 1.3299171 -12.8125 1 C-11.80219727 0.85691406 -11.80219727 0.85691406 -10.77148438 0.7109375 C-7.15335423 0.21675387 -3.65203599 -0.11346131 0 0 Z " fill="#148A37" transform="translate(469,763)"/>
<path d="M0 0 C-0.33 0.99 -0.66 1.98 -1 3 C-9.58 3 -18.16 3 -27 3 C-27 2.67 -27 2.34 -27 2 C-26.31373535 1.97494385 -25.6274707 1.9498877 -24.92041016 1.92407227 C-21.82174183 1.80828573 -18.72339077 1.68548115 -15.625 1.5625 C-14.54476562 1.52318359 -13.46453125 1.48386719 -12.3515625 1.44335938 C-10.8046875 1.38051758 -10.8046875 1.38051758 -9.2265625 1.31640625 C-8.27346191 1.27974854 -7.32036133 1.24309082 -6.33837891 1.20532227 C-3.93241596 0.99406576 -2.38877961 0 0 0 Z " fill="#088933" transform="translate(624,761)"/>
<path d="M0 0 C0 0.33 0 0.66 0 1 C-7.21805755 1.7938642 -13.80827843 2.07875823 -21 1 C-21 0.67 -21 0.34 -21 0 C-13.80827843 -1.07875823 -7.21805755 -0.7938642 0 0 Z " fill="#289350" transform="translate(416,580)"/>
<path d="M0 0 C0.80244141 0.0515625 1.60488281 0.103125 2.43164062 0.15625 C3.68170898 0.25292969 3.68170898 0.25292969 4.95703125 0.3515625 C6.22450195 0.43664062 6.22450195 0.43664062 7.51757812 0.5234375 C9.60224342 0.66477074 11.68599991 0.819395 13.76953125 0.9765625 C13.76953125 1.3065625 13.76953125 1.6365625 13.76953125 1.9765625 C11.2074205 2.17225839 8.64520734 2.35836862 6.08203125 2.5390625 C5.36080078 2.59513672 4.63957031 2.65121094 3.89648438 2.70898438 C-0.00360939 2.97611409 -3.44157903 2.98543846 -7.23046875 1.9765625 C-4.0556343 -0.1399938 -3.5634787 -0.25272899 0 0 Z " fill="#289350" transform="translate(618.23046875,579.0234375)"/>
<path d="M0 0 C8.58 0 17.16 0 26 0 C26 0.33 26 0.66 26 1 C17.42 1 8.84 1 0 1 C0 0.67 0 0.34 0 0 Z " fill="#4FB876" transform="translate(580,383)"/>
<path d="M0 0 C2 2 2 2 2 5 C2.66 5 3.32 5 4 5 C4 8.96 4 12.92 4 17 C3.67 17 3.34 17 3 17 C2.49622232 14.73000175 1.99709981 12.45896997 1.5 10.1875 C1.08234375 8.29064453 1.08234375 8.29064453 0.65625 6.35546875 C0 3 0 3 0 0 Z " fill="#128633" transform="translate(329,688)"/>
<path d="M0 0 C0.33 0.66 0.66 1.32 1 2 C0.00390625 4.1640625 0.00390625 4.1640625 -1.4375 6.625 C-1.91058594 7.44226563 -2.38367188 8.25953125 -2.87109375 9.1015625 C-3.24363281 9.72804688 -3.61617187 10.35453125 -4 11 C-5.18429132 7.44712603 -4.99184231 5.58589143 -4 2 C-1.9375 0.625 -1.9375 0.625 0 0 Z " fill="#1D8F43" transform="translate(244,680)"/>
<path d="M0 0 C0.33 0 0.66 0 1 0 C1 6.6 1 13.2 1 20 C0.01 20 -0.98 20 -2 20 C-1.67 19.34 -1.34 18.68 -1 18 C-0.84995027 16.6265365 -0.75161994 15.2471474 -0.68359375 13.8671875 C-0.64169922 13.06152344 -0.59980469 12.25585938 -0.55664062 11.42578125 C-0.51732422 10.58402344 -0.47800781 9.74226562 -0.4375 8.875 C-0.39431641 8.02550781 -0.35113281 7.17601562 -0.30664062 6.30078125 C-0.20045764 4.20071777 -0.09971503 2.10038052 0 0 Z " fill="#058028" transform="translate(407,743)"/>
<path d="M0 0 C0 3 0 3 -2.3125 5.5 C-3.199375 6.325 -4.08625 7.15 -5 8 C-5.598125 8.598125 -6.19625 9.19625 -6.8125 9.8125 C-7.204375 10.204375 -7.59625 10.59625 -8 11 C-8.66 10.67 -9.32 10.34 -10 10 C-6.7 6.7 -3.4 3.4 0 0 Z " fill="#198B3C" transform="translate(732,745)"/>
<path d="M0 0 C0 4.78571429 0 4.78571429 -1 7 C-4.0625 8.25 -4.0625 8.25 -7 9 C-6.02180976 7.68677212 -5.0424189 6.37443848 -4.0625 5.0625 C-3.51722656 4.33160156 -2.97195313 3.60070312 -2.41015625 2.84765625 C-1 1 -1 1 0 0 Z " fill="#138939" transform="translate(325,746)"/>
<path d="M0 0 C2.4375 1 2.4375 1 5 3 C5.76381481 5.72714162 5.85942648 8.14167178 6 11 C0 3.28571429 0 3.28571429 0 0 Z " fill="#138A3A" transform="translate(323,677)"/>
<path d="M0 0 C6.6 0 13.2 0 20 0 C20 0.33 20 0.66 20 1 C13.4 1 6.8 1 0 1 C0 0.67 0 0.34 0 0 Z " fill="#50B977" transform="translate(487,383)"/>
<path d="M0 0 C1.32 0.66 2.64 1.32 4 2 C0.71195019 4.91227269 -1.59885603 6.49701212 -6 7 C-2.25 4 -2.25 4 0 4 C0 2.68 0 1.36 0 0 Z " fill="#239044" transform="translate(300,736)"/>
<path d="M0 0 C-0.99 0.495 -0.99 0.495 -2 1 C-2 1.66 -2 2.32 -2 3 C-4.31 2.67 -6.62 2.34 -9 2 C-5.5647952 -0.29013653 -4.014669 -0.17842973 0 0 Z " fill="#219144" transform="translate(707,763)"/>
<path d="M0 0 C0.99 0.33 1.98 0.66 3 1 C1.87926138 1.83905565 0.75325453 2.67107831 -0.375 3.5 C-1.00148437 3.9640625 -1.62796875 4.428125 -2.2734375 4.90625 C-4 6 -4 6 -6 6 C-6 5.34 -6 4.68 -6 4 C-3.1875 1.8125 -3.1875 1.8125 0 0 Z " fill="#369D5F" transform="translate(175,164)"/>
<path d="M0 0 C0.33 0 0.66 0 1 0 C1 5.28 1 10.56 1 16 C0.67 16 0.34 16 0 16 C0 10.72 0 5.44 0 0 Z " fill="#4AB571" transform="translate(640,528)"/>
<path d="M0 0 C0.33 0 0.66 0 1 0 C1 2.97 1 5.94 1 9 C0.67 9 0.34 9 0 9 C0 6.03 0 3.06 0 0 Z " fill="#4AB572" transform="translate(640,559)"/>
<path d="M0 0 C2.64 0 5.28 0 8 0 C8 0.33 8 0.66 8 1 C5.36 1 2.72 1 0 1 C0 0.67 0 0.34 0 0 Z " fill="#52BA78" transform="translate(567,383)"/>
<path d="M0 0 C2.31 0 4.62 0 7 0 C7 0.33 7 0.66 7 1 C4.69 1 2.38 1 0 1 C0 0.67 0 0.34 0 0 Z " fill="#51B876" transform="translate(508,383)"/>
<path d="M0 0 C2.31 0 4.62 0 7 0 C7 0.33 7 0.66 7 1 C4.69 1 2.38 1 0 1 C0 0.67 0 0.34 0 0 Z " fill="#52B977" transform="translate(479,383)"/>
<path d="M0 0 C0.33 0 0.66 0 1 0 C1 1.98 1 3.96 1 6 C0.67 6 0.34 6 0 6 C0 4.02 0 2.04 0 0 Z " fill="#4AB472" transform="translate(640,571)"/>
<path d="M0 0 C0.33 0 0.66 0 1 0 C1 1.98 1 3.96 1 6 C0.67 6 0.34 6 0 6 C0 4.02 0 2.04 0 0 Z " fill="#4AB672" transform="translate(640,552)"/>
<path d="M0 0 C1.98 0 3.96 0 6 0 C6 0.33 6 0.66 6 1 C4.02 1 2.04 1 0 1 C0 0.67 0 0.34 0 0 Z " fill="#51BA78" transform="translate(472,383)"/>
<path d="M0 0 C1.65 0 3.3 0 5 0 C5 0.33 5 0.66 5 1 C3.35 1 1.7 1 0 1 C0 0.67 0 0.34 0 0 Z " fill="#51B977" transform="translate(540,383)"/>
<path d="M0 0 C1.65 0 3.3 0 5 0 C5 0.33 5 0.66 5 1 C3.35 1 1.7 1 0 1 C0 0.67 0 0.34 0 0 Z " fill="#51B976" transform="translate(525,383)"/>
<path d="M0 0 C0.66 0 1.32 0 2 0 C1.67 0.66 1.34 1.32 1 2 C0.67 1.34 0.34 0.68 0 0 Z " fill="#33985E" transform="translate(146,829)"/>
<path d="" fill="#4BB573" transform="translate(0,0)"/>
<path d="M0 0 C3 1 3 1 3 1 Z " fill="#4FB876" transform="translate(576,383)"/>
<path d="M0 0 C3 1 3 1 3 1 Z " fill="#51BA77" transform="translate(563,383)"/>
<path d="M0 0 C3 1 3 1 3 1 Z " fill="#50B876" transform="translate(532,383)"/>
<path d="M0 0 C3 1 3 1 3 1 Z " fill="#51B778" transform="translate(516,383)"/>
<path d="" fill="#359C5F" transform="translate(0,0)"/>
<path d="" fill="#4AB773" transform="translate(0,0)"/>
<path d="" fill="#4BB573" transform="translate(0,0)"/>
<path d="M0 0 C2 1 2 1 2 1 Z " fill="#50B775" transform="translate(603,518)"/>
<path d="M0 0 C2 1 2 1 2 1 Z " fill="#4FB976" transform="translate(587,518)"/>
<path d="M0 0 C2 1 2 1 2 1 Z " fill="#4FB875" transform="translate(563,518)"/>
<path d="M0 0 C2 1 2 1 2 1 Z " fill="#4FB775" transform="translate(531,518)"/>
<path d="M0 0 C2 1 2 1 2 1 Z " fill="#4FB775" transform="translate(507,518)"/>
<path d="M0 0 C2 1 2 1 2 1 Z " fill="#4FB674" transform="translate(491,518)"/>
<path d="M0 0 C2 1 2 1 2 1 Z " fill="#50B977" transform="translate(483,518)"/>
<path d="M0 0 C2 1 2 1 2 1 Z " fill="#4EB874" transform="translate(475,518)"/>
<path d="" fill="#4DB775" transform="translate(0,0)"/>
<path d="M0 0 C2 1 2 1 2 1 Z " fill="#52B977" transform="translate(556,383)"/>
<path d="M0 0 C2 1 2 1 2 1 Z " fill="#50BA76" transform="translate(552,383)"/>
<path d="M0 0 C2 1 2 1 2 1 Z " fill="#43A568" transform="translate(843,160)"/>
<path d="M0 0 C2 1 2 1 2 1 Z " fill="#47A769" transform="translate(197,152)"/>
<path d="" fill="#072510" transform="translate(0,0)"/>
<path d="" fill="#184D29" transform="translate(0,0)"/>
<path d="" fill="#35985A" transform="translate(0,0)"/>
<path d="" fill="#35975D" transform="translate(0,0)"/>
<path d="" fill="#35965D" transform="translate(0,0)"/>
<path d="" fill="#33985E" transform="translate(0,0)"/>
<path d="" fill="#339A5E" transform="translate(0,0)"/>
<path d="" fill="#359C61" transform="translate(0,0)"/>
<path d="" fill="#32975D" transform="translate(0,0)"/>
<path d="" fill="#339A5D" transform="translate(0,0)"/>
<path d="" fill="#32965B" transform="translate(0,0)"/>
<path d="" fill="#34995D" transform="translate(0,0)"/>
<path d="" fill="#379C5E" transform="translate(0,0)"/>
<path d="" fill="#359D60" transform="translate(0,0)"/>
<path d="" fill="#379D60" transform="translate(0,0)"/>
<path d="" fill="#3CA465" transform="translate(0,0)"/>
<path d="" fill="#3CA567" transform="translate(0,0)"/>
<path d="" fill="#3BA266" transform="translate(0,0)"/>
<path d="" fill="#3CA368" transform="translate(0,0)"/>
<path d="" fill="#3DA569" transform="translate(0,0)"/>
<path d="" fill="#3DA165" transform="translate(0,0)"/>
<path d="" fill="#40A569" transform="translate(0,0)"/>
<path d="" fill="#44A66B" transform="translate(0,0)"/>
<path d="" fill="#44A66A" transform="translate(0,0)"/>
<path d="" fill="#4FB876" transform="translate(0,0)"/>
<path d="" fill="#4EB773" transform="translate(0,0)"/>
<path d="" fill="#4EBA76" transform="translate(0,0)"/>
<path d="" fill="#4DB773" transform="translate(0,0)"/>
<path d="" fill="#50B875" transform="translate(0,0)"/>
<path d="" fill="#4FB976" transform="translate(0,0)"/>
<path d="" fill="#4EB875" transform="translate(0,0)"/>
<path d="" fill="#52BA77" transform="translate(0,0)"/>
<path d="" fill="#4FB976" transform="translate(0,0)"/>
<path d="" fill="#4FB774" transform="translate(0,0)"/>
<path d="" fill="#52B976" transform="translate(0,0)"/>
<path d="" fill="#4DB573" transform="translate(0,0)"/>
<path d="" fill="#46A96B" transform="translate(0,0)"/>
<path d="" fill="#47AA6D" transform="translate(0,0)"/>
<path d="" fill="#46A76B" transform="translate(0,0)"/>
<path d="" fill="#46A86C" transform="translate(0,0)"/>
<path d="" fill="#46A86A" transform="translate(0,0)"/>
<path d="" fill="#46A86D" transform="translate(0,0)"/>
<path d="" fill="#50B775" transform="translate(0,0)"/>
<path d="" fill="#46A86C" transform="translate(0,0)"/>
<path d="" fill="#4EB876" transform="translate(0,0)"/>
<path d="" fill="#47A96B" transform="translate(0,0)"/>
<path d="" fill="#4DB875" transform="translate(0,0)"/>
<path d="" fill="#4EB775" transform="translate(0,0)"/>
<path d="" fill="#4FB775" transform="translate(0,0)"/>
<path d="" fill="#4DB775" transform="translate(0,0)"/>
<path d="" fill="#4AA96B" transform="translate(0,0)"/>
<path d="" fill="#49AA6D" transform="translate(0,0)"/>
<path d="" fill="#51BA77" transform="translate(0,0)"/>
<path d="" fill="#51B978" transform="translate(0,0)"/>
<path d="" fill="#51B978" transform="translate(0,0)"/>
<path d="" fill="#51B776" transform="translate(0,0)"/>
<path d="" fill="#51B878" transform="translate(0,0)"/>
<path d="" fill="#54BB76" transform="translate(0,0)"/>
<path d="" fill="#51B977" transform="translate(0,0)"/>
<path d="" fill="#51B977" transform="translate(0,0)"/>
<path d="" fill="#50B577" transform="translate(0,0)"/>
<path d="" fill="#4FB575" transform="translate(0,0)"/>
<path d="" fill="#4FB476" transform="translate(0,0)"/>
<path d="" fill="#48A96C" transform="translate(0,0)"/>
<path d="" fill="#49AA6C" transform="translate(0,0)"/>
<path d="" fill="#4AAA6D" transform="translate(0,0)"/>
<path d="" fill="#49AB6E" transform="translate(0,0)"/>
<path d="" fill="#48AB6E" transform="translate(0,0)"/>
<path d="" fill="#48A96E" transform="translate(0,0)"/>
<path d="" fill="#47AA6E" transform="translate(0,0)"/>
<path d="" fill="#48AA6E" transform="translate(0,0)"/>
<path d="" fill="#47AB6E" transform="translate(0,0)"/>
<path d="" fill="#4AA96E" transform="translate(0,0)"/>
<path d="" fill="#50B273" transform="translate(0,0)"/>
<path d="" fill="#49AA6C" transform="translate(0,0)"/>
<path d="" fill="#49AA6E" transform="translate(0,0)"/>
<path d="" fill="#48A96C" transform="translate(0,0)"/>
<path d="" fill="#49AA6D" transform="translate(0,0)"/>
<path d="" fill="#48AA6D" transform="translate(0,0)"/>
<path d="" fill="#49AA6F" transform="translate(0,0)"/>
<path d="" fill="#51B672" transform="translate(0,0)"/>
<path d="" fill="#4CAA6E" transform="translate(0,0)"/>
<path d="" fill="#46A86D" transform="translate(0,0)"/>
<path d="" fill="#47A86B" transform="translate(0,0)"/>
<path d="" fill="#45A669" transform="translate(0,0)"/>
<path d="" fill="#44AA6C" transform="translate(0,0)"/>
<path d="" fill="#43A567" transform="translate(0,0)"/>
<path d="" fill="#42A567" transform="translate(0,0)"/>
<path d="" fill="#47A769" transform="translate(0,0)"/>
<path d="" fill="#46AA6C" transform="translate(0,0)"/>
<path d="" fill="#47A768" transform="translate(0,0)"/>
<path d="" fill="#46A368" transform="translate(0,0)"/>
<path d="" fill="#48A86B" transform="translate(0,0)"/>
<path d="" fill="#44A66A" transform="translate(0,0)"/>
<path d="" fill="#4DAD6F" transform="translate(0,0)"/>
<path d="" fill="#4DAD6F" transform="translate(0,0)"/>
<path d="" fill="#4DAC6F" transform="translate(0,0)"/>
<path d="" fill="#4AAA6D" transform="translate(0,0)"/>
<path d="" fill="#021105" transform="translate(0,0)"/>
</svg>
