<?xml version="1.0" encoding="UTF-8"?>
<svg version="1.1" viewBox="0 0 1000 1000" fill="none" xmlns="http://www.w3.org/2000/svg">
<path d="M0 0 C2.11272811 -0.00115403 4.22545603 -0.00274345 6.33818352 -0.00472724 C12.1090841 -0.00888186 17.87996803 -0.00684742 23.65086865 -0.00374103 C29.88820839 -0.00147131 36.12554534 -0.00497437 42.36288452 -0.00772095 C53.86424251 -0.01190471 65.36559313 -0.01155051 76.86695108 -0.00880948 C87.49512417 -0.00628915 98.12329533 -0.00563944 108.75146866 -0.00683212 C109.45777999 -0.00690851 110.16409133 -0.00698489 110.89180604 -0.00706359 C113.75932226 -0.00737496 116.62683847 -0.00769336 119.49435469 -0.00802336 C146.36974036 -0.01107929 173.24512269 -0.00831388 200.12050785 -0.00292646 C223.96853413 0.00181777 247.81655507 0.00139503 271.6645813 -0.00338745 C298.48930669 -0.00874896 325.31402911 -0.01086149 352.13875496 -0.00777519 C355.00152151 -0.0074545 357.86428805 -0.00714165 360.7270546 -0.00683212 C361.78429862 -0.00671351 361.78429862 -0.00671351 362.86290111 -0.00659249 C373.47987917 -0.00545776 384.09685509 -0.00678021 394.71383286 -0.00931168 C406.79428622 -0.01217782 418.87473191 -0.01134581 430.95518504 -0.00603093 C437.11420938 -0.00341019 443.27322291 -0.0023612 449.43224716 -0.00568008 C455.0788029 -0.0086767 460.72533788 -0.00699456 466.37189175 -0.00170253 C468.40605251 -0.00059263 470.44021504 -0.00113754 472.47437464 -0.00357832 C484.31358189 -0.01668576 496.06299671 0.27404627 507.87307739 1.12698364 C507.87307739 1.78698364 507.87307739 2.44698364 507.87307739 3.12698364 C509.04225708 3.23655396 510.21143677 3.34612427 511.41604614 3.45901489 C533.88058304 6.2899319 555.79021958 24.22579935 569.49417114 41.33401489 C586.16210438 63.06713736 591.19333722 87.38355223 591.12704468 114.22998047 C591.12935153 116.26801195 591.13252957 118.30604259 591.13649917 120.34407151 C591.14482498 125.92233096 591.14073193 131.50052171 591.13452673 137.07878137 C591.12999413 143.10343907 591.13699005 149.12808511 591.14248657 155.15274048 C591.15086067 166.26580831 591.15014238 177.37885731 591.14466364 188.49192527 C591.13962619 198.76071339 591.13832206 209.02949352 591.14070892 219.29828262 C591.14093808 220.32128065 591.14093808 220.32128065 591.14117186 221.36494531 C591.14179458 224.13364415 591.14243138 226.90234298 591.14309139 229.6710418 C591.1492055 255.62892804 591.14366889 281.58680041 591.1328976 307.54468451 C591.12340896 330.58661067 591.1242543 353.62851471 591.13381958 376.67044067 C591.14453892 402.57880019 591.1487697 428.48714746 591.14259505 454.39550889 C591.14195365 457.1596903 591.14132797 459.92387171 591.14070892 462.68805313 C591.14055077 463.36862754 591.14039261 464.04920195 591.14022967 464.75039983 C591.13795867 475.00918996 591.14060795 485.2679712 591.14566803 495.5267601 C591.15139614 507.19784771 591.14974481 518.86891429 591.13910654 530.53999959 C591.13385958 536.49206561 591.13177646 542.44408683 591.13840485 548.3961525 C591.14438669 553.8502507 591.14105237 559.3042628 591.13044974 564.75835325 C591.12822515 566.72592829 591.12933072 568.69351067 591.13420132 570.66108094 C591.1972875 598.27545075 585.74752655 622.8090757 567.97463989 644.55276489 C565.80027223 647.13164829 565.80027223 647.13164829 563.87307739 650.12698364 C563.21307739 650.12698364 562.55307739 650.12698364 561.87307739 650.12698364 C561.64104614 650.70061646 561.40901489 651.27424927 561.16995239 651.86526489 C553.16011641 665.83422585 529.3456648 675.84400767 514.89627075 679.91091919 C506.02066727 682.30360771 497.60581173 683.27585134 488.45120239 683.40823364 C487.46940002 683.42664307 486.48759766 683.44505249 485.4760437 683.46401978 C481.29778384 683.5423263 477.11937731 683.6106258 472.94094849 683.67922974 C469.88178478 683.73091922 466.82275991 683.7881499 463.76370239 683.84573364 C462.81682556 683.85930908 461.86994873 683.87288452 460.89437866 683.88687134 C460.01626526 683.90358887 459.13815186 683.9203064 458.23342896 683.93753052 C457.07596161 683.95632263 457.07596161 683.95632263 455.89511108 683.97549438 C453.66811164 684.05949001 453.66811164 684.05949001 450.87307739 685.12698364 C450.87307739 684.46698364 450.87307739 683.80698364 450.87307739 683.12698364 C450.05323364 683.29198364 449.23338989 683.45698364 448.38870239 683.62698364 C444.41468672 684.19217698 440.62621988 684.20030127 436.62307739 684.12698364 C431.60018227 683.82268447 431.60018227 683.82268447 426.87307739 685.12698364 C426.87307739 684.46698364 426.87307739 683.80698364 426.87307739 683.12698364 C425.88307739 683.78698364 424.89307739 684.44698364 423.87307739 685.12698364 C421.37307739 685.25198364 421.37307739 685.25198364 418.87307739 685.12698364 C417.88307739 685.12698364 416.89307739 685.12698364 415.87307739 685.12698364 C414.20641073 685.12698364 412.53974406 685.12698364 410.87307739 685.12698364 C410.87307739 684.46698364 410.87307739 683.80698364 410.87307739 683.12698364 C409.88307739 683.12698364 408.89307739 683.12698364 407.87307739 683.12698364 C407.87307739 683.78698364 407.87307739 684.44698364 407.87307739 685.12698364 C407.0813916 684.88359253 407.0813916 684.88359253 406.27371216 684.63528442 C403.29204216 684.00395757 400.51139409 683.99720596 397.46292114 683.99417114 C396.22606567 683.99288208 394.98921021 683.99159302 393.71487427 683.99026489 C392.4264563 683.99413208 391.13803833 683.99799927 389.81057739 684.00198364 C388.51829224 683.99811646 387.22600708 683.99424927 385.89456177 683.99026489 C384.65899536 683.99155396 383.42342896 683.99284302 382.15042114 683.99417114 C380.45260498 683.99586304 380.45260498 683.99586304 378.7204895 683.99758911 C375.79725447 684.00068277 375.79725447 684.00068277 372.87307739 685.12698364 C372.87307739 684.46698364 372.87307739 683.80698364 372.87307739 683.12698364 C368.94018194 683.24535493 365.00752073 683.36961157 361.07498169 683.4992981 C359.0800442 683.5638537 357.0849581 683.62376194 355.08987427 683.68362427 C353.83626099 683.7255188 352.58264771 683.76741333 351.29104614 683.81057739 C349.5550415 683.86556396 349.5550415 683.86556396 347.78396606 683.92166138 C344.8087328 684.01026873 344.8087328 684.01026873 341.87307739 685.12698364 C340.53338509 684.82020452 339.20041903 684.48342867 337.87307739 684.12698364 C336.20948145 684.03743412 334.54274318 683.99911208 332.8767395 683.99758911 C331.8856871 683.99443695 330.8946347 683.99128479 329.87355042 683.98803711 C328.80991776 683.99006134 327.7462851 683.99208557 326.65042114 683.99417114 C325.00487999 683.99273605 325.00487999 683.99273605 323.32609558 683.99127197 C321.00866641 683.99059186 318.69123532 683.9924344 316.37380981 683.99661255 C312.82078796 684.00196825 309.26789222 683.99665919 305.71487427 683.99026489 C303.46422295 683.9909256 301.2135717 683.99220662 298.96292114 683.99417114 C297.89726425 683.99214691 296.83160736 683.99012268 295.73365784 683.98803711 C294.7457576 683.99118927 293.75785736 683.99434143 292.74002075 683.99758911 C291.43574379 683.9987825 291.43574379 683.9987825 290.1051178 684 C287.70036922 684.03909049 287.70036922 684.03909049 284.87307739 685.12698364 C284.54307739 684.79698364 284.21307739 684.46698364 283.87307739 684.12698364 C281.80045663 684.03931252 279.72487445 684.02002491 277.65042114 684.02932739 C276.39036255 684.03255005 275.13030396 684.03577271 273.83206177 684.03909302 C272.4915663 684.04744961 271.15107151 684.05591457 269.81057739 684.06448364 C268.46617797 684.06949704 267.1217768 684.07406023 265.77737427 684.07815552 C262.47589799 684.08998877 259.17450936 684.10647393 255.87307739 684.12698364 C255.87307739 684.45698364 255.87307739 684.78698364 255.87307739 685.12698364 C254.22307739 685.12698364 252.57307739 685.12698364 250.87307739 685.12698364 C250.87307739 684.79698364 250.87307739 684.46698364 250.87307739 684.12698364 C241.96307739 684.12698364 233.05307739 684.12698364 223.87307739 684.12698364 C223.87307739 684.45698364 223.87307739 684.78698364 223.87307739 685.12698364 C222.22307739 685.12698364 220.57307739 685.12698364 218.87307739 685.12698364 C218.87307739 684.79698364 218.87307739 684.46698364 218.87307739 684.12698364 C217.12316405 684.09982981 215.37312794 684.08051814 213.62307739 684.06448364 C212.64854614 684.05288208 211.67401489 684.04128052 210.66995239 684.02932739 C208.21549061 684.11502787 206.21138825 684.41992298 203.87307739 685.12698364 C203.54307739 684.46698364 203.21307739 683.80698364 202.87307739 683.12698364 C201.88307739 683.78698364 200.89307739 684.44698364 199.87307739 685.12698364 C197.18557739 685.25198364 197.18557739 685.25198364 194.87307739 685.12698364 C194.87307739 684.79698364 194.87307739 684.46698364 194.87307739 684.12698364 C194.23918091 684.13222046 193.60528442 684.13745728 192.95217896 684.14285278 C169.69390882 684.30970743 169.69390882 684.30970743 159.87307739 683.12698364 C159.87307739 683.78698364 159.87307739 684.44698364 159.87307739 685.12698364 C159.21307739 684.79698364 158.55307739 684.46698364 157.87307739 684.12698364 C155.87347727 684.08699164 153.87260497 684.08351565 151.87307739 684.12698364 C151.87307739 684.45698364 151.87307739 684.78698364 151.87307739 685.12698364 C150.22307739 685.12698364 148.57307739 685.12698364 146.87307739 685.12698364 C146.87307739 684.79698364 146.87307739 684.46698364 146.87307739 684.12698364 C145.10232822 684.09992635 143.33146028 684.0805617 141.56057739 684.06448364 C140.08137817 684.0470813 140.08137817 684.0470813 138.57229614 684.02932739 C135.7734389 684.00368502 135.7734389 684.00368502 132.87307739 685.12698364 C130.18557739 684.18948364 130.18557739 684.18948364 127.87307739 683.12698364 C127.87307739 683.78698364 127.87307739 684.44698364 127.87307739 685.12698364 C126.88307739 684.79698364 125.89307739 684.46698364 124.87307739 684.12698364 C122.1039955 684.02986788 119.36082813 683.98702575 116.59182739 683.99417114 C115.37698669 683.99273605 115.37698669 683.99273605 114.13760376 683.99127197 C112.42621788 683.99059184 110.7148294 683.99243453 109.00344849 683.99661255 C106.38310962 684.00196316 103.76294217 683.99666195 101.14260864 683.99026489 C99.47984785 683.9909257 97.81708716 683.99220693 96.15432739 683.99417114 C95.36989258 683.99214691 94.58545776 683.99012268 93.7772522 683.98803711 C90.54782898 684.00196548 87.95890206 684.09837542 84.87307739 685.12698364 C84.54307739 684.79698364 84.21307739 684.46698364 83.87307739 684.12698364 C81.24187182 684.02597401 78.63749041 683.98727881 76.00588989 683.99417114 C75.21536224 683.99321442 74.42483459 683.99225769 73.61035156 683.99127197 C71.9340914 683.99059005 70.25782861 683.99244515 68.58157349 683.99661255 C66.01592044 684.00194655 63.4504436 683.99667531 60.88479614 683.99026489 C59.25849367 683.99092595 57.63219131 683.99220768 56.00588989 683.99417114 C55.23705475 683.99214691 54.4682196 683.99012268 53.67608643 683.98803711 C50.47739146 684.00209385 47.92993473 684.1080312 44.87307739 685.12698364 C44.87307739 684.46698364 44.87307739 683.80698364 44.87307739 683.12698364 C43.22307739 683.12698364 41.57307739 683.12698364 39.87307739 683.12698364 C39.87307739 683.78698364 39.87307739 684.44698364 39.87307739 685.12698364 C38.88307739 684.79698364 37.89307739 684.46698364 36.87307739 684.12698364 C35.24588258 684.04554509 33.6155602 684.01945344 31.98635864 684.02932739 C31.04856567 684.03255005 30.11077271 684.03577271 29.14456177 684.03909302 C28.16809692 684.04747192 27.19163208 684.05585083 26.18557739 684.06448364 C24.70347778 684.07125122 24.70347778 684.07125122 23.19143677 684.07815552 C20.75192265 684.08994061 18.3125305 684.10639353 15.87307739 684.12698364 C15.87307739 684.45698364 15.87307739 684.78698364 15.87307739 685.12698364 C13.20641073 685.12698364 10.53974406 685.12698364 7.87307739 685.12698364 C6.63557739 685.18885864 6.63557739 685.18885864 5.37307739 685.25198364 C2.87307739 685.12698364 2.87307739 685.12698364 -0.12692261 683.12698364 C-0.12692261 683.78698364 -0.12692261 684.44698364 -0.12692261 685.12698364 C-0.94410767 684.88600952 -0.94410767 684.88600952 -1.77780151 684.64016724 C-4.46956822 684.05213007 -6.95765861 683.96546476 -9.71286011 683.91604614 C-33.57844567 683.34558924 -33.57844567 683.34558924 -44.12692261 680.12698364 C-44.78418335 679.92975708 -45.44144409 679.73253052 -46.11862183 679.52932739 C-64.60747912 673.86523353 -81.83362312 664.35599644 -94.12692261 649.12698364 C-95.27218148 647.89728172 -96.41802996 646.66812868 -97.56442261 645.43948364 C-112.16209885 628.70956255 -119.60217692 606.89354054 -120.66934681 585.00949955 C-120.7123149 584.13091553 -120.75528299 583.25233152 -120.79955314 582.34712375 C-121.22872553 572.89941116 -121.26945037 563.4624449 -121.26063538 554.00672913 C-121.26250923 552.06435256 -121.2648122 550.12197638 -121.2675007 548.17960078 C-121.27355361 542.90272539 -121.2734929 537.62586599 -121.27230632 532.34898794 C-121.27210066 526.6345371 -121.27763654 520.92009119 -121.28236389 515.2056427 C-121.29063394 504.03522145 -121.29341703 492.86480547 -121.29397627 481.69438141 C-121.29445293 472.61082934 -121.29651515 463.52727901 -121.2996769 454.44372749 C-121.30704338 432.83835689 -121.31320286 411.2329879 -121.31267834 389.62761593 C-121.31266276 388.93837108 -121.31264718 388.24912622 -121.31263113 387.53899516 C-121.31254803 384.04634482 -121.31244899 380.55369449 -121.31234642 377.06104415 C-121.31232648 376.36750205 -121.31230653 375.67395996 -121.31228598 374.95940143 C-121.31224554 373.55689645 -121.31220375 372.15439147 -121.31216059 370.75188648 C-121.31154763 348.92370583 -121.31906235 327.09554071 -121.33273315 305.2673645 C-121.34811735 280.69382344 -121.35668541 256.12029357 -121.35576993 231.54674727 C-121.35543858 218.55336873 -121.35815899 205.56000773 -121.36894798 192.56663322 C-121.3780716 181.5088957 -121.38021276 170.45118366 -121.37343856 159.39344399 C-121.37018346 153.75866689 -121.37008017 148.12393865 -121.37879181 142.48916626 C-121.38670194 137.31947545 -121.38517975 132.14987187 -121.37650768 126.98018307 C-121.37498263 125.12177372 -121.37675074 123.2633577 -121.38236775 121.40495621 C-121.47749819 87.66512338 -115.42678127 56.83036178 -90.99411011 31.95901489 C-90.04061501 31.01274801 -89.08504578 30.06856417 -88.12692261 29.12698364 C-87.36637573 28.36772583 -86.60582886 27.60846802 -85.82223511 26.82620239 C-79.4062182 20.77446484 -71.55091129 15.23964222 -63.29879761 12.02542114 C-60.95773288 11.33489823 -60.95773288 11.33489823 -60.12692261 9.12698364 C-58.41207886 8.38088989 -58.41207886 8.38088989 -56.18942261 7.68948364 C-55.38246948 7.43682739 -54.57551636 7.18417114 -53.74411011 6.92385864 C-52.88043823 6.66088989 -52.01676636 6.39792114 -51.12692261 6.12698364 C-50.24262573 5.84338989 -49.35832886 5.55979614 -48.44723511 5.26760864 C-44.42650166 4.00292691 -41.39224797 3.12698364 -37.12692261 3.12698364 C-36.79692261 2.46698364 -36.46692261 1.80698364 -36.12692261 1.12698364 C-24.32489429 -0.70677631 -11.90711586 -0.01425312 0 0 Z " fill="#FE661F" transform="translate(277.1269226074219,169.87301635742188)"/>
<path d="M0 0 C2.66578758 0.00314362 5.33044379 -0.02031635 7.99609375 -0.0456543 C22.94424446 -0.101838 37.37750537 1.54139756 51.69140625 6.06567383 C52.93204834 6.44973389 52.93204834 6.44973389 54.19775391 6.84155273 C80.73068972 15.3016989 105.1642613 30.53016506 122.56640625 52.50317383 C122.99896729 53.04868896 123.43152832 53.5942041 123.87719727 54.15625 C127.2731124 58.60531612 129.945448 63.37837402 132.56640625 68.31567383 C124.06081698 75.37366828 115.53803282 82.39744661 106.8190918 89.19091797 C102.24979275 92.75833264 97.74647068 96.40225642 93.25390625 100.06567383 C91.91025946 101.15694675 90.56651302 102.248097 89.22265625 103.33911133 C87.02473838 105.12435429 84.83844014 106.92035535 82.66015625 108.72973633 C81.86609375 109.3768457 81.07203125 110.02395508 80.25390625 110.69067383 C79.59777344 111.2346582 78.94164062 111.77864258 78.265625 112.33911133 C77.70488281 112.66137695 77.14414062 112.98364258 76.56640625 113.31567383 C72.75981653 112.04681059 72.38798681 110.78072595 70.37890625 107.37817383 C59.23691651 89.39746805 43.76580251 76.7982758 22.99609375 71.78833008 C22.19429687 71.63235352 21.3925 71.47637695 20.56640625 71.31567383 C19.72078125 71.13649414 18.87515625 70.95731445 18.00390625 70.77270508 C-3.59342506 67.90124171 -22.36954305 71.05160019 -40.43359375 83.31567383 C-59.62797078 98.0846806 -69.36434938 119.72089746 -72.74609375 143.25317383 C-75.65857758 171.76190982 -71.40514327 201.67896688 -53.37109375 224.81567383 C-52.07581813 226.33057228 -50.76468497 227.83214681 -49.43359375 229.31567383 C-48.91667969 229.92540039 -48.39976562 230.53512695 -47.8671875 231.16333008 C-35.5793276 244.68305564 -16.01787643 252.66077578 1.9296875 253.60083008 C23.44266584 254.24797597 41.78699786 248.38122369 57.75390625 233.62817383 C66.34997146 224.61021585 70.69671675 213.67828265 75.56640625 202.31567383 C52.79640625 202.31567383 30.02640625 202.31567383 6.56640625 202.31567383 C6.53546875 188.98161133 6.53546875 188.98161133 6.50390625 175.37817383 C6.49480225 172.56809814 6.48569824 169.75802246 6.47631836 166.86279297 C6.47339942 164.65047249 6.47085081 162.43815148 6.46875 160.22583008 C6.46363403 159.06498901 6.45851807 157.90414795 6.45324707 156.70812988 C6.4530658 155.06378967 6.4530658 155.06378967 6.45288086 153.38623047 C6.45066025 152.42914688 6.44843964 151.47206329 6.44615173 150.48597717 C6.56640625 148.31567383 6.56640625 148.31567383 7.56640625 147.31567383 C9.31035696 147.21719909 11.05832508 147.18935318 12.80505371 147.18869019 C13.94089401 147.18587036 15.07673431 147.18305054 16.24699402 147.18014526 C17.5041774 147.18216949 18.76136078 147.18419373 20.05664062 147.1862793 C21.37191238 147.18452698 22.68718414 147.18277466 24.04231262 147.18096924 C27.65998307 147.17639518 31.27762513 147.17818435 34.8952961 147.18134832 C38.67315881 147.18387207 42.45101903 147.18153435 46.22888184 147.17996216 C52.57430459 147.1781405 58.91971573 147.18054666 65.26513672 147.18530273 C72.61157268 147.19074535 79.95798089 147.18898269 87.30441618 147.18347633 C93.60079292 147.17894508 99.89716129 147.17829471 106.19353914 147.180915 C109.95896135 147.18247771 113.72437049 147.1826717 117.48979187 147.17937851 C121.68526872 147.1759658 125.88069738 147.18068972 130.07617188 147.1862793 C131.96194695 147.18324295 131.96194695 147.18324295 133.88581848 147.18014526 C135.02165878 147.18296509 136.15749908 147.18578491 137.32775879 147.18869019 C138.3210746 147.18906721 139.31439041 147.18944424 140.3378067 147.18983269 C142.56640625 147.31567383 142.56640625 147.31567383 143.56640625 148.31567383 C143.66762596 150.38442861 143.69718354 152.45669613 143.70011902 154.52792358 C143.70238458 155.18411324 143.70465013 155.8403029 143.70698434 156.51637709 C143.71335136 158.73123181 143.71249326 160.94602577 143.71166992 163.16088867 C143.71465976 164.74235616 143.71806188 166.32382291 143.72184753 167.9052887 C143.73071026 172.21314865 143.73302662 176.52098876 143.73366332 180.82885695 C143.73461066 184.41992582 143.73828699 188.01099002 143.74183542 191.6020571 C143.74998884 200.0723536 143.75241887 208.54263948 143.75170898 217.01293945 C143.75110816 225.76126779 143.76165885 234.50953446 143.77745265 243.25784719 C143.79051328 250.75849206 143.79589349 258.25911674 143.79525357 265.7597729 C143.79499812 270.24403905 143.7978751 274.72825047 143.80843163 279.21250534 C143.81808766 283.42970869 143.81820902 287.64680471 143.81091499 291.86401176 C143.80986599 293.41403421 143.81225067 294.96406324 143.81827545 296.51407433 C143.82595411 298.62599614 143.82137831 300.73754346 143.81364441 302.84945679 C143.81418918 304.03266195 143.81473394 305.21586712 143.81529522 306.43492699 C143.56640625 309.31567383 143.56640625 309.31567383 141.56640625 312.31567383 C139.47912598 312.68989563 139.47912598 312.68989563 136.87304688 312.68798828 C135.89863647 312.69421707 134.92422607 312.70044586 133.92028809 312.7068634 C132.33746033 312.69304878 132.33746033 312.69304878 130.72265625 312.67895508 C129.64262329 312.67945358 128.56259033 312.67995209 127.4498291 312.6804657 C125.16331139 312.67812219 122.87679125 312.66837752 120.59033203 312.65185547 C117.08082122 312.6282707 113.57206984 312.63129161 110.0625 312.63793945 C107.84504753 312.63236278 105.62759828 312.62525297 103.41015625 312.61645508 C102.35493774 312.61736649 101.29971924 312.61827789 100.21252441 312.61921692 C99.23811401 312.60968491 98.26370361 312.60015289 97.25976562 312.59033203 C96.39975952 312.58572464 95.53975342 312.58111725 94.65368652 312.57637024 C92.56640625 312.31567383 92.56640625 312.31567383 90.56640625 310.31567383 C90.39145019 307.80646537 90.33471056 305.40942442 90.37109375 302.90161133 C90.37392365 302.17197174 90.37675354 301.44233215 90.37966919 300.69058228 C90.39087623 298.35711355 90.41598115 296.0240268 90.44140625 293.69067383 C90.4514354 292.1099502 90.46056136 290.52922056 90.46875 288.94848633 C90.4908172 285.07073469 90.5253501 281.19326905 90.56640625 277.31567383 C89.90640625 277.31567383 89.24640625 277.31567383 88.56640625 277.31567383 C88.56640625 278.30567383 88.56640625 279.29567383 88.56640625 280.31567383 C87.16796875 281.82348633 87.16796875 281.82348633 85.19140625 283.44067383 C81.97684126 286.11478656 78.9138878 288.87714385 75.87890625 291.75317383 C63.91374813 302.49628074 48.84719555 309.78479964 33.44140625 314.12817383 C32.75022705 314.32306396 32.05904785 314.5179541 31.34692383 314.71875 C19.97067041 317.71848492 8.67895189 318.68123002 -3.05859375 318.62817383 C-4.37456543 318.62253418 -5.69053711 318.61689453 -7.04638672 318.61108398 C-45.90446318 318.1297071 -81.2581644 302.6578745 -108.625 275.15551758 C-138.67618025 244.04057873 -151.93246883 203.41392081 -151.74609375 160.69067383 C-151.7439386 159.80382904 -151.74178345 158.91698425 -151.73956299 158.00326538 C-151.6897411 145.24267026 -151.46445573 132.77406875 -148.43359375 120.31567383 C-148.23491699 119.47665527 -148.03624023 118.63763672 -147.83154297 117.77319336 C-144.71862475 105.01139453 -140.31459449 93.05493583 -134.43359375 81.31567383 C-134.12728027 80.70175781 -133.8209668 80.0878418 -133.50537109 79.45532227 C-116.49239623 46.09114141 -85.7474057 20.34886086 -50.43359375 8.31567383 C-33.51630568 2.82864093 -17.78621484 -0.04368885 0 0 Z " fill="#FEFEFD" transform="translate(508.43359375,255.684326171875)"/>
<path d="M0 0 C2.01333959 1.2594658 3.94789005 2.5295851 5.7421875 4.08984375 C6.0721875 2.10984375 6.4021875 0.12984375 6.7421875 -1.91015625 C9.55475031 -1.93699937 12.36705991 -1.95691813 15.1796875 -1.97265625 C15.98212891 -1.98103516 16.78457031 -1.98941406 17.61132812 -1.99804688 C19.65513971 -2.00667055 21.69902652 -1.96243775 23.7421875 -1.91015625 C25.65729464 0.00495089 24.89016085 3.47151503 24.90332031 6.00537109 C24.91076767 7.09099335 24.91076767 7.09099335 24.91836548 8.19854736 C24.93303854 10.60763487 24.93980185 13.01665627 24.9453125 15.42578125 C24.95106507 17.1019389 24.95682279 18.77809653 24.96258545 20.45425415 C24.97311366 23.98008532 24.97894263 27.50589359 24.98242188 31.03173828 C24.98787371 35.52486092 25.01182219 40.01767544 25.04039383 44.51070213 C25.05913947 47.98024331 25.06423237 51.44971256 25.06575775 54.91930008 C25.06876413 56.57371305 25.07672367 58.22812537 25.08994293 59.88248825 C25.19097435 73.51312671 24.35765705 85.72203951 14.8046875 96.21875 C6.08970478 104.66917074 -4.53740439 107.40908539 -16.43359375 107.234375 C-25.67284074 106.76155046 -34.84231947 103.43363921 -42.11328125 97.6015625 C-43.2578125 96.08984375 -43.2578125 96.08984375 -43.1953125 92.83984375 C-42.13099149 88.58255971 -40.59171949 85.77892254 -38.2578125 82.08984375 C-34.25621225 82.66252357 -31.58274489 83.91183467 -28.1953125 86.08984375 C-21.60116536 90.31660062 -15.55403192 91.10273498 -7.84765625 89.62890625 C-2.21103655 88.02919782 0.49613071 85.95892894 3.7421875 81.08984375 C4.83725242 77.804649 4.84179358 75.3532096 4.8046875 71.90234375 C4.79566406 70.81566406 4.78664063 69.72898437 4.77734375 68.609375 C4.76574219 67.77792969 4.75414062 66.94648437 4.7421875 66.08984375 C4.23429687 66.49976563 3.72640625 66.9096875 3.203125 67.33203125 C-4.37311525 73.26249646 -10.6235829 75.10195032 -20.2578125 74.08984375 C-29.1319993 72.07627147 -35.87156152 68.0749482 -41.01171875 60.5078125 C-47.55025251 49.24262783 -48.93794349 36.96061329 -46.7578125 24.15234375 C-43.81763816 13.46080071 -38.48693772 5.89032376 -29.26953125 -0.23046875 C-20.45383406 -4.9786597 -8.76757728 -4.64847022 0 0 Z " fill="#FEFBF9" transform="translate(290.2578125,649.91015625)"/>
<path d="M0 0 C9.67142999 10.34618092 13.34752097 21.36933178 12.96484375 35.390625 C12.08058051 46.4999603 8.58404546 55.98939433 0.58203125 63.9765625 C-9.20163262 72.11518554 -18.92008319 73.99788225 -31.328125 73.08935547 C-41.07392516 72.03659802 -47.89201429 67.05015401 -54.3125 59.875 C-61.5597402 50.24677201 -63.55209689 37.64420647 -62.3125 25.875 C-59.85150437 13.79248474 -54.52452369 4.00310334 -44.3125 -3.125 C-30.83998956 -11.73314467 -12.60000347 -8.0830211 0 0 Z " fill="#FEFBFA" transform="translate(537.3125,654.125)"/>
<path d="M0 0 C0.79019531 -0.01160156 1.58039062 -0.02320313 2.39453125 -0.03515625 C10.57436717 0.00500661 18.1091347 2.12028853 24.5 7.375 C31.57246553 14.9901967 32.77457103 22.83902794 32.9140625 32.90625 C32.93342865 33.78277222 32.9527948 34.65929443 32.9727478 35.56237793 C33.03202621 38.33315622 33.07871987 41.10397725 33.125 43.875 C33.16322751 45.76564207 33.20228195 47.65626761 33.2421875 49.546875 C33.3376845 54.1561141 33.42190406 58.76543457 33.5 63.375 C35.48 64.035 37.46 64.695 39.5 65.375 C39.5 69.665 39.5 73.955 39.5 78.375 C33.85893884 81.19553058 28.71237279 81.13035054 22.5 80.375 C19.5049766 79.05718971 18.61564742 78.01955927 16.5 75.375 C15.859375 72.69921875 15.859375 72.69921875 15.5 70.375 C14.64728516 71.08076172 14.64728516 71.08076172 13.77734375 71.80078125 C12.61912109 72.73470703 12.61912109 72.73470703 11.4375 73.6875 C10.68339844 74.30238281 9.92929687 74.91726563 9.15234375 75.55078125 C1.05569958 81.11945994 -7.04682225 81.36320201 -16.5 80.375 C-23.13991919 78.40823913 -27.68258514 75.10112229 -31.5 69.375 C-34.44632462 63.30410336 -34.23084459 56.97497408 -33.5 50.375 C-30.95965769 43.52027467 -25.901062 39.450531 -19.5 36.25 C-9.01369239 31.85474896 2.33813871 32.09711134 13.5 32.375 C13.26322861 25.51875841 13.26322861 25.51875841 10.625 19.3125 C6.64003867 15.6791529 2.35226725 16.09358517 -2.7734375 16.16796875 C-6.41607119 16.44455841 -8.57649686 17.1645464 -11.5 19.375 C-13.10896832 21.64470452 -14.26647363 23.86050393 -15.5 26.375 C-21.36809507 25.85106294 -26.04873741 24.61391142 -31.5 22.375 C-31.13322381 15.0394761 -26.65359583 10.52859583 -21.6875 5.5625 C-14.95616149 0.94295396 -8.0290688 -0.11788192 0 0 Z " fill="#FEFBFA" transform="translate(741.5,646.625)"/>
<path d="M0 0 C4.89252499 3.63926736 7.97554079 8.91874672 9.1484375 14.8671875 C9.25839955 16.36243388 9.32360785 17.86137049 9.35375977 19.36035156 C9.3836776 20.68126801 9.3836776 20.68126801 9.41419983 22.02886963 C9.43091232 22.97067078 9.44762482 23.91247192 9.46484375 24.8828125 C9.48562485 25.85377869 9.50640594 26.82474487 9.52781677 27.82513428 C9.59312612 30.92241435 9.65211073 34.01977818 9.7109375 37.1171875 C9.75414042 39.21875861 9.79775528 41.3203213 9.84179688 43.421875 C9.94878848 48.57022698 10.0501084 53.71866308 10.1484375 58.8671875 C12.1284375 59.1971875 14.1084375 59.5271875 16.1484375 59.8671875 C16.1484375 64.1571875 16.1484375 68.4471875 16.1484375 72.8671875 C12.18357794 74.84961728 10.49840133 75.16346759 6.2109375 75.1796875 C5.19128906 75.19644531 4.17164063 75.21320313 3.12109375 75.23046875 C-0.29049294 74.81354685 -2.10470138 73.90365351 -4.8515625 71.8671875 C-7.1640625 68.6796875 -7.1640625 68.6796875 -8.8515625 65.8671875 C-9.27566406 66.26550781 -9.69976562 66.66382813 -10.13671875 67.07421875 C-10.72324219 67.60402344 -11.30976563 68.13382813 -11.9140625 68.6796875 C-12.48253906 69.20175781 -13.05101562 69.72382812 -13.63671875 70.26171875 C-19.32536194 74.38523259 -24.42935715 75.40212432 -31.2890625 75.3046875 C-32.41501831 75.29223999 -32.41501831 75.29223999 -33.5637207 75.27954102 C-40.23623873 75.07527284 -44.64282673 73.85862739 -49.58203125 69.25390625 C-55.44524286 62.97288859 -56.38544195 56.47557187 -56.22265625 48.05859375 C-55.44638516 41.38266236 -52.0237221 37.58187666 -46.9140625 33.4921875 C-36.38553988 25.75253432 -21.31751446 26.55683185 -8.8515625 26.8671875 C-9.63866012 19.62088468 -9.63866012 19.62088468 -12.7890625 13.2421875 C-17.45413336 10.13214026 -22.44959356 10.42053484 -27.8515625 10.8671875 C-32.1539924 12.22165617 -34.01001874 13.75269924 -36.2265625 17.5546875 C-36.7628125 18.6478125 -37.2990625 19.7409375 -37.8515625 20.8671875 C-43.71965757 20.34325044 -48.40029991 19.10609892 -53.8515625 16.8671875 C-53.58225562 10.40382238 -51.34498142 6.49677063 -46.8515625 1.8671875 C-34.26650595 -8.2212384 -13.53284847 -8.27959084 0 0 Z " fill="#FEFCFB" transform="translate(381.8515625,652.1328125)"/>
<path d="M0 0 C6.29657432 4.78712157 8.99541898 12.29847902 10.3125 19.875 C10.58267169 23.91753953 10.56959544 27.94583242 10.54296875 31.99609375 C10.54251053 33.13659683 10.54205231 34.27709991 10.5415802 35.4521637 C10.53857235 37.84824675 10.53073034 40.24432811 10.51831055 42.64038086 C10.49993878 46.3247766 10.49780185 50.00892239 10.49804688 53.69335938 C10.49313555 56.02343969 10.48730892 58.3535183 10.48046875 60.68359375 C10.47935593 61.79077255 10.4782431 62.89795135 10.47709656 64.03868103 C10.47071671 65.05386307 10.46433685 66.0690451 10.45776367 67.11499023 C10.45395187 68.0124144 10.45014008 68.90983856 10.44621277 69.8344574 C10.3125 71.875 10.3125 71.875 9.3125 72.875 C7.96982587 72.96131874 6.62275678 72.98206473 5.27734375 72.97265625 C4.46845703 72.96943359 3.65957031 72.96621094 2.82617188 72.96289062 C1.97603516 72.95451172 1.12589844 72.94613281 0.25 72.9375 C-0.60400391 72.93298828 -1.45800781 72.92847656 -2.33789062 72.92382812 C-4.45445663 72.91200373 -6.57098685 72.89406769 -8.6875 72.875 C-8.68892502 72.25383301 -8.69035004 71.63266602 -8.69181824 70.99267578 C-8.71156867 64.50297396 -8.76595701 58.01420596 -8.84008789 51.52490234 C-8.86322498 49.10602528 -8.87765347 46.68704809 -8.88305664 44.26806641 C-8.89237702 40.78224597 -8.93343905 37.29799123 -8.98046875 33.8125 C-8.9765361 32.73822754 -8.97260345 31.66395508 -8.96855164 30.55712891 C-9.09856575 23.80292726 -10.17001768 19.05220345 -14.6875 13.875 C-18.81332738 11.12444841 -23.87767061 11.34812823 -28.6875 11.875 C-32.8087 13.19689434 -34.81461331 14.67539215 -37 18.3125 C-39.04623192 22.63232295 -39.80345042 25.89407964 -39.89282227 30.64355469 C-39.91276749 31.58422791 -39.93271271 32.52490112 -39.95326233 33.49407959 C-39.97833107 35.00521332 -39.97833107 35.00521332 -40.00390625 36.546875 C-40.02468735 37.58442932 -40.04546844 38.62198364 -40.06687927 39.690979 C-40.13221408 43.00225258 -40.19118517 46.31360482 -40.25 49.625 C-40.29320049 51.87110185 -40.33681527 54.11719578 -40.38085938 56.36328125 C-40.48787907 61.86710708 -40.58919192 67.37101195 -40.6875 72.875 C-46.6275 72.875 -52.5675 72.875 -58.6875 72.875 C-58.6875 47.465 -58.6875 22.055 -58.6875 -4.125 C-52.7475 -4.125 -46.8075 -4.125 -40.6875 -4.125 C-40.3575 -1.485 -40.0275 1.155 -39.6875 3.875 C-39.26339844 3.47667969 -38.83929687 3.07835937 -38.40234375 2.66796875 C-27.06074291 -7.5768619 -12.9973332 -8.02613097 0 0 Z " fill="#FEFCFB" transform="translate(686.6875,652.125)"/>
<path d="M0 0 C1.27484253 0.00845947 1.27484253 0.00845947 2.57543945 0.01708984 C12.51129211 0.20928004 20.56528302 2.11537899 27.8125 9.3125 C30.21924264 12.51469148 31.8125 15.20453463 31.8125 19.3125 C30.087273 19.98929658 28.35711061 20.65352 26.625 21.3125 C25.18060547 21.869375 25.18060547 21.869375 23.70703125 22.4375 C20.84372678 23.30306033 18.77623292 23.6701919 15.8125 23.3125 C13.75 20.9375 13.75 20.9375 11.8125 18.3125 C8.5368052 16.17013711 5.74144781 16.01462717 1.875 16 C0.85535156 15.98324219 -0.16429687 15.96648438 -1.21484375 15.94921875 C-4.61504557 16.36474933 -6.47655135 17.2417038 -9.1875 19.3125 C-10.34561388 22.25979537 -10.34561388 22.25979537 -10.1875 25.3125 C-7.87474288 28.91012218 -3.68251222 29.93900327 0.30444336 30.93505859 C1.16175049 31.10859863 2.01905762 31.28213867 2.90234375 31.4609375 C3.85173828 31.66203125 4.80113281 31.863125 5.77929688 32.0703125 C7.75447646 32.48067197 9.73105455 32.88435847 11.70898438 33.28125 C20.4467043 35.15319542 25.48678748 38.06361351 30.8125 45.3125 C33.80966072 51.62011349 33.82987615 58.81643696 31.875 65.5 C29.28998386 71.37064413 24.21301441 75.42962258 18.703125 78.48046875 C9.16586895 82.08230481 -5.35328512 82.20269853 -14.9375 78.75 C-21.58271651 75.42151102 -27.77886651 70.53840048 -30.1875 63.3125 C-30.078125 61.27734375 -30.078125 61.27734375 -29.1875 59.3125 C-26.82421875 58.046875 -26.82421875 58.046875 -23.875 57.0625 C-22.90949219 56.72734375 -21.94398438 56.3921875 -20.94921875 56.046875 C-18.1875 55.3125 -18.1875 55.3125 -14.1875 55.3125 C-13.630625 56.7046875 -13.630625 56.7046875 -13.0625 58.125 C-10.71087418 62.1227639 -9.62306965 62.9359439 -5.1875 64.3125 C4.3592288 65.1944859 4.3592288 65.1944859 12.8125 61.3125 C14.267776 58.40194799 14.26317148 56.53158202 13.8125 53.3125 C8.97820002 49.16546722 4.23158016 48.36078678 -1.9375 47.375 C-10.52856804 45.82409433 -18.04157592 44.13950684 -24.625 38.0625 C-28.68176259 30.92259784 -30.27880339 24.40322998 -28.1875 16.3125 C-25.12165528 8.60682779 -19.09521069 4.85756059 -11.98046875 1.16796875 C-7.97690817 -0.05829666 -4.16530972 -0.02848214 0 0 Z " fill="#FEFCFA" transform="translate(434.1875,646.6875)"/>
<path d="M0 0 C5.94 0 11.88 0 18 0 C18 36.96 18 73.92 18 112 C12.06 112 6.12 112 0 112 C0 75.04 0 38.08 0 0 Z " fill="#FEFEFD" transform="translate(561,613)"/>
<path d="M0 0 C4.83093452 2.60833727 7.68147407 6.09776979 9.8984375 11.0859375 C11.95979096 18.77783976 12.01074649 28.21791315 9.7421875 35.859375 C6.66786432 41.04729537 2.54138209 45.30131014 -3.2578125 47.234375 C-9.38996667 47.9968098 -14.42314269 47.6766623 -19.49609375 43.94140625 C-24.94455795 38.66207398 -26.51226473 32.90117283 -26.78710938 25.49487305 C-26.79806641 24.70765869 -26.80902344 23.92044434 -26.8203125 23.109375 C-26.83513672 22.35760986 -26.84996094 21.60584473 -26.86523438 20.83129883 C-26.74505026 14.29771838 -24.78434434 9.09777775 -20.44140625 4.17578125 C-19.86519531 3.72074219 -19.28898437 3.26570312 -18.6953125 2.796875 C-18.11652344 2.32378906 -17.53773438 1.85070312 -16.94140625 1.36328125 C-12.09426984 -1.88688678 -5.3908478 -1.82803835 0 0 Z " fill="#FE541B" transform="translate(520.2578125,663.765625)"/>
<path d="M0 0 C5.94 0 11.88 0 18 0 C18 25.41 18 50.82 18 77 C12.06 77 6.12 77 0 77 C0 51.59 0 26.18 0 0 Z " fill="#FEFEFD" transform="translate(595,648)"/>
<path d="M0 0 C5.18119584 1.75965142 7.90411029 4.52815931 11 9 C14.35513656 16.98842039 14.18421668 26.93416262 11.125 35.0234375 C8.81261633 39.08616714 5.14191486 41.92904257 1 44 C-4.53042052 44.50502343 -9.41030524 44.73807257 -14.5 42.375 C-20.4331587 36.73849923 -23.03328718 30.84859395 -23.375 22.75 C-23.22201932 16.13583521 -21.79809721 10.06606643 -17.24609375 5.078125 C-11.58542713 0.11470124 -7.48853429 -0.62308298 0 0 Z " fill="#FE5F1C" transform="translate(284,663)"/>
<path d="M0 0 C0.54372522 6.52470265 0.02832478 11.65704229 -4 17 C-9.24361218 21.46264866 -14.23511015 21.68342818 -21.01953125 21.44140625 C-24 21 -24 21 -27.3125 19 C-29.15665084 15.72150962 -29.7966697 13.65314113 -29.55078125 9.9296875 C-28.5187387 6.31387884 -26.0611684 4.92740233 -23 3 C-15.58801902 -0.15403446 -7.91818187 -0.1433876 0 0 Z " fill="#FE571A" transform="translate(373,691)"/>
<path d="M0 0 C0.3221077 6.03653699 0.56806924 10.83245145 -3 16 C-8.44067984 21.03262885 -12.9296397 21.33635345 -20.10546875 21.29296875 C-23.80550516 20.91847114 -25.59615657 19.8182992 -28 17 C-29.42662219 14.14675563 -29.31033868 12.16545451 -29 9 C-26.56236778 4.63257561 -23.7197623 3.05803683 -19.13671875 1.55859375 C-12.79147292 -0.10021823 -6.50981513 -0.13562115 0 0 Z " fill="#FE471A" transform="translate(755,691)"/>
<path d="M0 0 C-1.03898438 0.01417969 -2.07796875 0.02835938 -3.1484375 0.04296875 C-14.29101379 0.35995238 -22.44552336 2.30097102 -31 10 C-31 7.03 -31 4.06 -31 1 C-36.94 1 -42.88 1 -49 1 C-49 26.41 -49 51.82 -49 78 C-43.06 78 -37.12 78 -31 78 C-31.01571045 76.618125 -31.0314209 75.23625 -31.04760742 73.8125 C-31.10211074 68.6613554 -31.13642429 63.51023606 -31.16479492 58.35888672 C-31.17983512 56.13390815 -31.20027246 53.90895899 -31.22631836 51.68408203 C-31.26291135 48.47681394 -31.2797745 45.26993955 -31.29296875 42.0625 C-31.30845261 41.07572266 -31.32393646 40.08894531 -31.33988953 39.07226562 C-31.34165188 31.75842161 -30.18955084 26.35731129 -26.125 20.125 C-22.57418979 16.57418979 -19.46060725 15.88473922 -14.5625 15.6875 C-10.35740975 15.8062484 -7.515413 16.54738628 -4 19 C-1.48961822 22.03888321 -0.0935584 23.92407843 0.25 27.875 C0.1675 28.57625 0.085 29.2775 0 30 C-0.2475 29.46375 -0.495 28.9275 -0.75 28.375 C-3.47661669 22.83772107 -3.47661669 22.83772107 -8 19 C-9.93359586 18.85148156 -11.87342097 18.77869167 -13.8125 18.75 C-14.85019531 18.72421875 -15.88789062 18.6984375 -16.95703125 18.671875 C-20.54844214 19.05913882 -22.22507126 19.68206292 -25 22 C-28.36689927 28.06601323 -28.44063666 33.49157464 -28.44140625 40.33203125 C-28.45461411 41.40498947 -28.46782196 42.47794769 -28.48143005 43.5834198 C-28.52217256 46.99314035 -28.5439692 50.40259165 -28.5625 53.8125 C-28.586265 57.24018069 -28.61429596 60.66760713 -28.65428162 64.09513855 C-28.67869852 66.22404596 -28.69350826 68.35308904 -28.69789124 70.48213196 C-28.70807785 71.4404039 -28.71826447 72.39867584 -28.72875977 73.38598633 C-28.73303482 74.23091141 -28.73730988 75.07583649 -28.74171448 75.94636536 C-29 78 -29 78 -31 80 C-32.84765625 80.25878906 -32.84765625 80.25878906 -35.0625 80.265625 C-36.25746094 80.26949219 -36.25746094 80.26949219 -37.4765625 80.2734375 C-38.30929687 80.26570312 -39.14203125 80.25796875 -40 80.25 C-41.24910156 80.26160156 -41.24910156 80.26160156 -42.5234375 80.2734375 C-43.32007813 80.27085937 -44.11671875 80.26828125 -44.9375 80.265625 C-45.66839844 80.26336914 -46.39929688 80.26111328 -47.15234375 80.25878906 C-49 80 -49 80 -51 78 C-51.19815532 75.57690712 -51.27283408 73.26812163 -51.25878906 70.84399414 C-51.2622937 70.1072496 -51.26579834 69.37050507 -51.26940918 68.61143494 C-51.27823159 66.16924696 -51.27237506 63.72734732 -51.265625 61.28515625 C-51.26697165 59.59126225 -51.26891218 57.89736863 -51.27142334 56.20347595 C-51.27437541 52.65001757 -51.27007487 49.09665962 -51.26074219 45.54321289 C-51.24935626 40.98548657 -51.2559011 36.427996 -51.26788712 31.87027836 C-51.27511091 28.37102988 -51.27281525 24.87183736 -51.26763153 21.3725872 C-51.26629602 19.69204111 -51.26793931 18.01148997 -51.27259064 16.33094978 C-51.27766346 13.98229627 -51.26993479 11.63402537 -51.25878906 9.28540039 C-51.26283752 8.58867218 -51.26688599 7.89194397 -51.27105713 7.17410278 C-51.23915603 3.54988194 -51.07193103 2.10789655 -49 -1 C-47.15234375 -1.37231445 -47.15234375 -1.37231445 -44.9375 -1.36328125 C-44.14085937 -1.36263672 -43.34421875 -1.36199219 -42.5234375 -1.36132812 C-41.27433594 -1.3371582 -41.27433594 -1.3371582 -40 -1.3125 C-38.75089844 -1.31733398 -38.75089844 -1.31733398 -37.4765625 -1.32226562 C-31.26700255 -1.26700255 -31.26700255 -1.26700255 -29 1 C-28.375 3.125 -28.375 3.125 -28 5 C-26.989375 4.21625 -25.97875 3.4325 -24.9375 2.625 C-18.15059135 -2.15699352 -7.30961199 -4.87307466 0 0 Z " fill="#FE3110" transform="translate(677,647)"/>
<path d="M0 0 C3.0717718 1.71077974 5.40485654 3.80971307 7 7 C7.35032356 12.34243433 7.4561069 15.64786539 4 20 C-0.2418919 22.82792793 -4.01873743 22.78122286 -9 22 C-12.12291165 20.31987353 -14.39164837 18.21670326 -16 15 C-16.54802111 9.30058046 -15.60961802 6.43467357 -12 2 C-7.97818385 -0.68121076 -4.72763609 -0.81344335 0 0 Z " fill="#FEFBFA" transform="translate(608,613)"/>
<path d="M0 0 C0.83265381 0.00523682 1.66530762 0.01047363 2.52319336 0.01586914 C3.42231445 0.0190918 4.32143555 0.02231445 5.24780273 0.02563477 C6.66609375 0.03820312 6.66609375 0.03820312 8.11303711 0.05102539 C9.06243164 0.05553711 10.01182617 0.06004883 10.98999023 0.06469727 C13.34356776 0.07652429 15.69702188 0.09300514 18.05053711 0.11352539 C18.05053711 0.44352539 18.05053711 0.77352539 18.05053711 1.11352539 C11.78053711 1.11352539 5.51053711 1.11352539 -0.94946289 1.11352539 C-0.94946289 38.07352539 -0.94946289 75.03352539 -0.94946289 113.11352539 C4.99053711 112.78352539 10.93053711 112.45352539 17.05053711 112.11352539 C17.38053711 75.81352539 17.71053711 39.51352539 18.05053711 2.11352539 C18.38053711 2.11352539 18.71053711 2.11352539 19.05053711 2.11352539 C19.07386714 16.69923734 19.09145038 31.28494642 19.10234928 45.87067318 C19.10751202 52.6426296 19.11455429 59.41457445 19.12597656 66.18652344 C19.13698425 72.71576965 19.14281336 79.24500833 19.14541435 85.77426338 C19.1472691 88.27146151 19.15089065 90.76865894 19.15626717 93.26585197 C19.16347395 96.75016608 19.1645282 100.2344297 19.1640625 103.71875 C19.16765778 104.76243744 19.17125305 105.80612488 19.17495728 106.88143921 C19.17358261 107.82519913 19.17220795 108.76895905 19.17079163 109.74131775 C19.17171342 110.56632247 19.17263521 111.39132719 19.17358494 112.24133205 C19.05053711 114.11352539 19.05053711 114.11352539 18.05053711 115.11352539 C14.91230261 115.36319106 11.76004098 115.2987433 8.61303711 115.30102539 C7.285625 115.31939453 7.285625 115.31939453 5.93139648 115.33813477 C5.08512695 115.34006836 4.23885742 115.34200195 3.36694336 115.34399414 C2.58778564 115.34810303 1.80862793 115.35221191 1.00585938 115.35644531 C-0.94946289 115.11352539 -0.94946289 115.11352539 -2.94946289 113.11352539 C-3.19835186 111.12107754 -3.19835186 111.12107754 -3.19670105 108.62779236 C-3.20089554 107.68410294 -3.20509003 106.74041351 -3.20941162 105.76812744 C-3.20379211 104.72960632 -3.19817261 103.69108521 -3.19238281 102.62109375 C-3.19428116 101.53000809 -3.1961795 100.43892242 -3.19813538 99.31477356 C-3.20185188 95.69423323 -3.19112711 92.07389176 -3.17993164 88.45336914 C-3.17874031 85.94755578 -3.17828658 83.44174197 -3.17854309 80.93592834 C-3.17697675 75.67926712 -3.1689167 70.42265754 -3.15527344 65.16601562 C-3.13953937 59.0811642 -3.13427559 52.99637593 -3.13500899 46.91150564 C-3.13561849 41.06596474 -3.13041302 35.22044515 -3.12221718 29.37491035 C-3.11902393 26.8832976 -3.11706158 24.39168297 -3.11632347 21.90006828 C-3.11416733 18.4255336 -3.10543913 14.95107992 -3.09472656 11.4765625 C-3.09517975 10.43601715 -3.09563293 9.3954718 -3.09609985 8.32339478 C-3.09183487 7.38252518 -3.08756989 6.44165558 -3.08317566 5.47227478 C-3.08149981 4.6498677 -3.07982397 3.82746061 -3.07809734 2.9801321 C-2.89944039 0.3876519 -2.59296884 0.15099944 0 0 Z " fill="#FE2A03" transform="translate(561.949462890625,611.886474609375)"/>
<path d="M0 0 C0.33 0 0.66 0 1 0 C1 18.15 1 36.3 1 55 C23.77 55 46.54 55 70 55 C66.60219178 66.3260274 66.60219178 66.3260274 63.9375 71.0625 C63.17759766 72.44115234 63.17759766 72.44115234 62.40234375 73.84765625 C61 76 61 76 59 77 C60.67926332 72.63221913 62.63305917 68.41834992 64.625 64.1875 C64.94984375 63.49462891 65.2746875 62.80175781 65.609375 62.08789062 C66.40499885 60.39133977 67.20232699 58.69558835 68 57 C67.16283951 57.00222061 66.32567902 57.00444122 65.46315002 57.00672913 C57.59032586 57.02673032 49.71751017 57.04197325 41.84466648 57.05181217 C37.79674258 57.05704041 33.74883959 57.06413699 29.70092773 57.07543945 C25.79764029 57.08627043 21.89437301 57.09227728 17.9910717 57.09487724 C16.49866353 57.09673111 15.00625652 57.100351 13.51385689 57.10573006 C11.43051861 57.11294331 9.34726469 57.11399083 7.26391602 57.11352539 C6.07588882 57.115746 4.88786163 57.11796661 3.66383362 57.12025452 C1 57 1 57 0 56 C-0.09365006 54.2507128 -0.11744438 52.49763746 -0.11352539 50.74584961 C-0.11344986 49.62476303 -0.11337433 48.50367645 -0.11329651 47.34861755 C-0.10813522 46.1288472 -0.10297394 44.90907684 -0.09765625 43.65234375 C-0.0962413 42.41078018 -0.09482635 41.16921661 -0.09336853 39.89002991 C-0.08870591 36.58394509 -0.07971497 33.27792854 -0.06866455 29.97186279 C-0.05844827 26.6003885 -0.05387045 23.22890717 -0.04882812 19.85742188 C-0.03777395 13.23826225 -0.02101736 6.61913507 0 0 Z " fill="#FD4618" transform="translate(514,403)"/>
<path d="M0 0 C0.99 0.495 0.99 0.495 2 1 C4.44022934 1.12203618 6.85386176 1.18560857 9.29541016 1.20532227 C10.04672714 1.21522186 10.79804413 1.22512146 11.5721283 1.23532104 C14.06107406 1.26696523 16.55003893 1.29170495 19.0390625 1.31640625 C20.76256818 1.33697326 22.48606879 1.35796967 24.20956421 1.37937927 C28.7502024 1.43462607 33.2908863 1.48402383 37.831604 1.53222656 C42.46329832 1.58242256 47.09492609 1.63811854 51.7265625 1.69335938 C60.81765151 1.80097284 69.90879825 1.90241072 79 2 C78.67 2.66 78.34 3.32 78 4 C77.01 3.505 77.01 3.505 76 3 C76 3.66 76 4.32 76 5 C75.01 4.67 74.02 4.34 73 4 C70.23091811 3.90288424 67.48775074 3.8600421 64.71875 3.8671875 C63.9088562 3.86623077 63.0989624 3.86527405 62.26452637 3.86428833 C60.55314049 3.86360819 58.84175201 3.86545089 57.13037109 3.86962891 C54.51003223 3.87497951 51.88986478 3.86967831 49.26953125 3.86328125 C47.60677045 3.86394206 45.94400977 3.86522328 44.28125 3.8671875 C43.49681519 3.86516327 42.71238037 3.86313904 41.9041748 3.86105347 C38.67475158 3.87498183 36.08582467 3.97139178 33 5 C32.505 4.505 32.505 4.505 32 4 C29.36879443 3.89899037 26.76441302 3.86029517 24.1328125 3.8671875 C23.34228485 3.86623077 22.5517572 3.86527405 21.73727417 3.86428833 C20.061014 3.86360641 18.38475122 3.86546151 16.70849609 3.86962891 C14.14284305 3.8749629 11.57736621 3.86969167 9.01171875 3.86328125 C7.38541628 3.86394231 5.75911392 3.86522404 4.1328125 3.8671875 C3.36397736 3.86516327 2.59514221 3.86313904 1.80300903 3.86105347 C-1.39568594 3.87511021 -3.94314266 3.98104755 -7 5 C-7 4.34 -7 3.68 -7 3 C-8.65 3 -10.3 3 -12 3 C-12 3.66 -12 4.32 -12 5 C-12.99 4.67 -13.98 4.34 -15 4 C-16.62719482 3.91856145 -18.25751719 3.8924698 -19.88671875 3.90234375 C-20.82451172 3.90556641 -21.76230469 3.90878906 -22.72851562 3.91210938 C-24.19321289 3.92467773 -24.19321289 3.92467773 -25.6875 3.9375 C-27.16959961 3.94426758 -27.16959961 3.94426758 -28.68164062 3.95117188 C-31.12115474 3.96295697 -33.56054689 3.97940989 -36 4 C-36 4.33 -36 4.66 -36 5 C-38.66666667 5 -41.33333333 5 -44 5 C-45.2375 5.061875 -45.2375 5.061875 -46.5 5.125 C-49 5 -49 5 -52 3 C-52 3.66 -52 4.32 -52 5 C-52.5662207 4.84152588 -53.13244141 4.68305176 -53.71582031 4.51977539 C-56.0345345 3.99214152 -58.17358397 3.795844 -60.546875 3.68359375 C-61.39121094 3.64169922 -62.23554688 3.59980469 -63.10546875 3.55664062 C-63.97816406 3.51732422 -64.85085938 3.47800781 -65.75 3.4375 C-66.63816406 3.39431641 -67.52632813 3.35113281 -68.44140625 3.30664062 C-70.62745963 3.20086385 -72.81362089 3.09877454 -75 3 C-75 2.67 -75 2.34 -75 2 C-73.61271446 1.9845388 -73.61271446 1.9845388 -72.19740295 1.96876526 C-63.50040776 1.87096818 -54.80348344 1.76847962 -46.10660648 1.66066074 C-41.63498006 1.60539123 -37.16334715 1.55196493 -32.69165039 1.50268555 C-28.37982234 1.45510123 -24.06807632 1.40276084 -19.75634575 1.34705925 C-18.10766061 1.32660872 -16.45895294 1.30790019 -14.81022835 1.29092598 C-12.5089004 1.26694141 -10.2077289 1.23687923 -7.90649414 1.20532227 C-6.5941127 1.18977798 -5.28173126 1.1742337 -3.92958069 1.15821838 C-1.11039828 1.33304645 -1.11039828 1.33304645 0 0 Z " fill="#FB521A" transform="translate(329,850)"/>
<path d="M0 0 C0.99 0 1.98 0 3 0 C3 0.66 3 1.32 3 2 C11.91 2 20.82 2 30 2 C30 2.33 30 2.66 30 3 C24.00778403 3.71396616 18.16469615 4.09251226 12.12890625 3.9375 C9.80993536 3.9032147 9.80993536 3.9032147 7 5 C7 4.34 7 3.68 7 3 C3.06710455 3.11837128 -0.86555666 3.24262793 -4.7980957 3.37231445 C-6.79303319 3.43687006 -8.78811929 3.4967783 -10.78320312 3.55664062 C-12.03681641 3.59853516 -13.29042969 3.64042969 -14.58203125 3.68359375 C-15.73936768 3.72025146 -16.8967041 3.75690918 -18.08911133 3.79467773 C-21.0643446 3.88328509 -21.0643446 3.88328509 -24 5 C-25.3396923 4.69322087 -26.67265836 4.35644503 -28 4 C-29.66359594 3.91045048 -31.33033421 3.87212844 -32.99633789 3.87060547 C-34.48291649 3.86587723 -34.48291649 3.86587723 -35.99952698 3.86105347 C-37.06315964 3.8630777 -38.1267923 3.86510193 -39.22265625 3.8671875 C-40.31968369 3.86623077 -41.41671112 3.86527405 -42.54698181 3.86428833 C-44.86441098 3.86360822 -47.18184207 3.86545076 -49.49926758 3.86962891 C-53.05228944 3.87498461 -56.60518517 3.86967555 -60.15820312 3.86328125 C-62.40885445 3.86394196 -64.65950569 3.86522298 -66.91015625 3.8671875 C-67.97581314 3.86516327 -69.04147003 3.86313904 -70.13941956 3.86105347 C-71.12731979 3.86420563 -72.11522003 3.86735779 -73.13305664 3.87060547 C-74.4373336 3.87179886 -74.4373336 3.87179886 -75.76795959 3.87301636 C-78.17270818 3.91210685 -78.17270818 3.91210685 -81 5 C-81.33 4.67 -81.66 4.34 -82 4 C-83.73455867 3.93703791 -85.47162498 3.9406705 -87.20703125 3.97265625 C-88.7993457 3.99102539 -88.7993457 3.99102539 -90.42382812 4.00976562 C-92.67129129 4.04474056 -94.91869537 4.0837606 -97.16601562 4.12695312 C-98.23142578 4.13791016 -99.29683594 4.14886719 -100.39453125 4.16015625 C-101.37268799 4.17699463 -102.35084473 4.19383301 -103.35864258 4.21118164 C-106.10747463 3.9914072 -107.60603663 3.28745233 -110 2 C-101.04203587 1.79377602 -92.08372108 1.60765118 -83.125 1.4375 C-82.45516586 1.42476673 -81.78533173 1.41203346 -81.09519958 1.39891434 C-54.04359644 0.89216044 -27.04582214 1.19951627 0 2 C0 1.34 0 0.68 0 0 Z " fill="#FA451A" transform="translate(643,850)"/>
<path d="M0 0 C1.30324219 -0.00515625 2.60648437 -0.0103125 3.94921875 -0.015625 C7.3125 0.25 7.3125 0.25 10.3125 2.25 C10.61508563 4.8052766 10.72206046 7.11977432 10.70068359 9.67797852 C10.70594055 10.44409958 10.71119751 11.21022064 10.71661377 11.9995575 C10.72985974 14.54287887 10.72105371 17.08557801 10.7109375 19.62890625 C10.71295838 21.39810811 10.71586993 23.16730917 10.71963501 24.93650818 C10.72406577 28.6531463 10.71760864 32.36956857 10.70361328 36.08618164 C10.6866081 40.8317408 10.69630236 45.5767877 10.71433067 50.32232761 C10.72522302 53.98139735 10.72169579 57.64034778 10.7139473 61.29942131 C10.71195577 63.04757689 10.7143675 64.79574356 10.72138596 66.54388618 C10.7740809 83.37521857 10.7740809 83.37521857 7.3125 91.25 C6.3125 88.25 6.3125 88.25 7.23779297 84.65649414 C9.03079269 77.16362383 8.55771113 69.40178438 8.5078125 61.74609375 C8.50407654 60.05501982 8.50123232 58.3639437 8.49923706 56.67286682 C8.49164649 52.24895113 8.47203795 47.82516938 8.4498291 43.40130615 C8.42927144 38.87627982 8.42021424 34.35123158 8.41015625 29.82617188 C8.38878719 20.96737998 8.35364301 12.10872215 8.3125 3.25 C2.7025 2.92 -2.9075 2.59 -8.6875 2.25 C-8.6875 4.56 -8.6875 6.87 -8.6875 9.25 C-11.6575 7.27 -14.6275 5.29 -17.6875 3.25 C-16.3675 2.92 -15.0475 2.59 -13.6875 2.25 C-12.77355469 1.90453125 -11.85960937 1.5590625 -10.91796875 1.203125 C-7.15452713 0.09275045 -3.91903278 -0.01559814 0 0 Z " fill="#FE1B03" transform="translate(305.6875,645.75)"/>
<path d="M0 0 C0.66 0.33 1.32 0.66 2 1 C3.95518326 1.09134117 5.91353798 1.11752051 7.87084961 1.11352539 C9.71802834 1.11341209 9.71802834 1.11341209 11.6025238 1.11329651 C12.95246419 1.10818782 14.30240417 1.10297179 15.65234375 1.09765625 C17.0323532 1.09579084 18.41236331 1.09436752 19.79237366 1.09336853 C23.42937034 1.08954735 27.06632719 1.07972405 30.70330811 1.06866455 C34.40050725 1.05846329 38.09771273 1.05386798 41.79492188 1.04882812 C48.2962752 1.03924846 54.79759887 1.02474037 61.29893494 1.00672913 C63.19928538 1.00199481 65.09964366 1 67 1 C68.78906379 0.98847938 70.57812611 0.9767307 72.3671875 0.96484375 C74.53645748 0.95552787 76.70572837 0.9464218 78.875 0.9375 C79.96425781 0.92912109 81.05351563 0.92074219 82.17578125 0.91210938 C83.22894531 0.90888672 84.28210938 0.90566406 85.3671875 0.90234375 C86.32737793 0.89710693 87.28756836 0.89187012 88.27685547 0.88647461 C90.95360817 0.99806597 93.39299591 1.40054907 96 2 C96 2.33 96 2.66 96 3 C95.44289841 3.01030746 94.88579681 3.02061493 94.31181335 3.03123474 C88.52066308 3.1393002 82.72966839 3.25389827 76.9387207 3.37231445 C74.7766444 3.41566313 72.61453387 3.45733825 70.45239258 3.49731445 C67.34706298 3.55501844 64.24190564 3.61871272 61.13671875 3.68359375 C60.16788254 3.70030624 59.19904633 3.71701874 58.20085144 3.73423767 C56.84979057 3.7641555 56.84979057 3.7641555 55.47143555 3.79467773 C54.67867722 3.81022202 53.88591888 3.8257663 53.06913757 3.84178162 C50.80260226 3.93081226 50.80260226 3.93081226 48 5 C48 4.34 48 3.68 48 3 C47.18015625 3.165 46.3603125 3.33 45.515625 3.5 C41.54160933 4.06519334 37.75314249 4.07331763 33.75 4 C28.72710487 3.69570083 28.72710487 3.69570083 24 5 C24 4.34 24 3.68 24 3 C23.01 3.66 22.02 4.32 21 5 C18.5 5.125 18.5 5.125 16 5 C15.01 5 14.02 5 13 5 C11.33333333 5 9.66666667 5 8 5 C8 4.34 8 3.68 8 3 C7.01 3 6.02 3 5 3 C5 3.66 5 4.32 5 5 C1.37 4.34 -2.26 3.68 -6 3 C-6 2.67 -6 2.34 -6 2 C-4.02 2 -2.04 2 0 2 C0 1.34 0 0.68 0 0 Z " fill="#F7431C" transform="translate(680,850)"/>
<path d="M0 0 C0.66 0.33 1.32 0.66 2 1 C1.52949219 1.36351562 1.05898438 1.72703125 0.57421875 2.1015625 C-0.04839844 2.60429688 -0.67101562 3.10703125 -1.3125 3.625 C-1.92738281 4.11226562 -2.54226563 4.59953125 -3.17578125 5.1015625 C-7.40391904 9.50172303 -8.43084807 13.90156958 -8.4375 19.875 C-8.26503479 27.30668256 -6.95025513 32.04974487 -1.6875 37.3125 C4.39115462 41.12932965 9.054161 42.46386281 16.125 42.25 C17.15947266 42.24226562 17.15947266 42.24226562 18.21484375 42.234375 C21.91929478 42.17771036 25.39735727 41.86912004 29 41 C28 44 28 44 25.6875 45.1875 C20.4496854 46.34159474 15.34115048 46.15556749 10 46 C10 45.34 10 44.68 10 44 C9.01 43.95875 8.02 43.9175 7 43.875 C1.9815255 43.16388013 -1.25723678 40.22489661 -5 37 C-5.969375 36.195625 -6.93875 35.39125 -7.9375 34.5625 C-10.60738406 31.24537132 -10.79148306 29.23984437 -11 25 C-11.061875 24.22269531 -11.12375 23.44539062 -11.1875 22.64453125 C-11.5000257 16.34518511 -10.51019146 11.31080841 -7 6 C-4.82983852 3.74619204 -2.54158437 1.82051689 0 0 Z " fill="#FD250B" transform="translate(717,684)"/>
<path d="M0 0 C0.33 0 0.66 0 1 0 C1 15.51 1 31.02 1 47 C7.27 47 13.54 47 20 47 C20 47.66 20 48.32 20 49 C16.87507749 49.05791844 13.75029234 49.09356746 10.625 49.125 C9.73554687 49.14175781 8.84609375 49.15851562 7.9296875 49.17578125 C6.65351562 49.18544922 6.65351562 49.18544922 5.3515625 49.1953125 C4.17327881 49.21102295 4.17327881 49.21102295 2.97119141 49.22705078 C1 49 1 49 -1 47 C-1.25739912 44.50805356 -1.39742717 42.11886122 -1.44921875 39.62109375 C-1.47095657 38.89382584 -1.4926944 38.16655792 -1.51509094 37.41725159 C-1.55901188 35.87993611 -1.59821091 34.34247959 -1.63305664 32.80493164 C-1.68737196 30.44306774 -1.75752285 28.08206989 -1.83007812 25.72070312 C-1.8707274 24.22919188 -1.91047191 22.73765563 -1.94921875 21.24609375 C-1.96997971 20.53569443 -1.99074066 19.8252951 -2.01213074 19.09336853 C-2.0475267 17.39594322 -2.02917383 15.69754365 -2 14 C-1.67 13.67 -1.34 13.34 -1 13 C-0.76518307 10.81707226 -0.58636677 8.62796826 -0.4375 6.4375 C-0.35371094 5.23996094 -0.26992188 4.04242187 -0.18359375 2.80859375 C-0.12300781 1.88175781 -0.06242188 0.95492187 0 0 Z " fill="#FE2E13" transform="translate(677,678)"/>
<path d="M0 0 C3.34252724 -0.07427838 5.8035914 -0.06546953 9 1 C10.99956611 1.04165763 13.00043389 1.04165763 15 1 C17.64130136 1 20.2492652 1.09087346 22.88671875 1.21875 C23.82451172 1.26386719 24.76230469 1.30898438 25.72851562 1.35546875 C26.70498047 1.40316406 27.68144531 1.45085938 28.6875 1.5 C29.67556641 1.54769531 30.66363281 1.59539063 31.68164062 1.64453125 C34.12112547 1.76238076 36.56057615 1.88089555 39 2 C36.3359375 4.9765625 36.3359375 4.9765625 33.3125 5.1875 C32.549375 5.125625 31.78625 5.06375 31 5 C31 4.67 31 4.34 31 4 C29.25008666 3.97284617 27.50005055 3.95353449 25.75 3.9375 C24.77546875 3.92589844 23.8009375 3.91429687 22.796875 3.90234375 C20.34241322 3.98804423 18.33831086 4.29293934 16 5 C15.505 4.01 15.505 4.01 15 3 C14.01 3.66 13.02 4.32 12 5 C9.3125 5.125 9.3125 5.125 7 5 C7 4.67 7 4.34 7 4 C6.3608667 4.00523682 5.7217334 4.01047363 5.06323242 4.01586914 C2.10466537 4.0369427 -0.85388579 4.0497552 -3.8125 4.0625 C-4.81732422 4.07087891 -5.82214844 4.07925781 -6.85742188 4.08789062 C-13.62868824 4.10966319 -20.26910926 3.7369831 -27 3 C-27 2.67 -27 2.34 -27 2 C-18.09 1.67 -9.18 1.34 0 1 C0 0.67 0 0.34 0 0 Z " fill="#FB4C1B" transform="translate(465,850)"/>
<path d="M0 0 C0.99 0.66 1.98 1.32 3 2 C-0.77287545 4.39112106 -4.5453074 6.74371872 -8.4375 8.9375 C-19.30566429 14.78879189 -19.30566429 14.78879189 -26.9375 24 C-28.60174703 27.13270029 -31.22191906 28.8258497 -34 31 C-34.66 30.67 -35.32 30.34 -36 30 C-33.6973446 27.30540326 -31.35681405 24.64731598 -29 22 C-28.50628906 21.42636719 -28.01257813 20.85273438 -27.50390625 20.26171875 C-21.69215837 13.93672561 -14.21314041 9.55435777 -7 5 C-6.06414062 4.40703125 -5.12828125 3.8140625 -4.1640625 3.203125 C-2 2 -2 2 0 2 C0 1.34 0 0.68 0 0 Z " fill="#FD9A27" transform="translate(216,179)"/>
<path d="M0 0 C0.33 0 0.66 0 1 0 C1 4.62 1 9.24 1 14 C-6.09538547 17.54769273 -10.38109631 17.93000106 -17.75 15.8125 C-21.69996563 14.39351407 -23.74644565 12.62528308 -26 9 C-27.98 10.32 -29.96 11.64 -32 13 C-32.66 12.67 -33.32 12.34 -34 12 C-32.71372289 10.82739389 -31.42080217 9.6620717 -30.125 8.5 C-29.40570312 7.8503125 -28.68640625 7.200625 -27.9453125 6.53125 C-26 5 -26 5 -24 5 C-23.5875 5.928125 -23.175 6.85625 -22.75 7.8125 C-20.97393545 11.04747472 -20.13483485 12.20638481 -17 14 C-13.82601021 14.3997534 -13.82601021 14.3997534 -10.4375 14.25 C-9.30183594 14.23453125 -8.16617188 14.2190625 -6.99609375 14.203125 C-3.94897229 14.12262038 -3.94897229 14.12262038 -1 13 C-0.505 6.565 -0.505 6.565 0 0 Z " fill="#FD1605" transform="translate(781,712)"/>
<path d="M0 0 C0.99 0 1.98 0 3 0 C4.19960121 6.570826 4.12713266 13.05044374 4.09765625 19.71484375 C4.0962413 20.92572159 4.09482635 22.13659943 4.09336853 23.38417053 C4.08779026 27.23530594 4.0752417 31.08638229 4.0625 34.9375 C4.05748219 37.5553377 4.05291978 40.17317631 4.04882812 42.79101562 C4.03782794 49.19403042 4.02111144 55.59701099 4 62 C3.67 62 3.34 62 3 62 C2.99191315 61.37074615 2.98382629 60.74149231 2.97549438 60.09317017 C2.88901081 53.50609134 2.78949138 46.91929839 2.68261719 40.33251953 C2.64448473 37.87879258 2.60960527 35.42501272 2.578125 32.97119141 C2.53213143 29.43112358 2.47419462 25.89141507 2.4140625 22.3515625 C2.39673569 20.722827 2.39673569 20.722827 2.37905884 19.06118774 C2.2537075 12.49812691 1.54005409 6.38412925 0 0 Z " fill="#FD0B00" transform="translate(694,662)"/>
<path d="M0 0 C1.30324219 -0.01675781 2.60648437 -0.03351562 3.94921875 -0.05078125 C7.3125 0.3125 7.3125 0.3125 10.3125 3.3125 C4.0425 2.9825 -2.2275 2.6525 -8.6875 2.3125 C-8.6875 4.6225 -8.6875 6.9325 -8.6875 9.3125 C-11.6575 7.3325 -14.6275 5.3525 -17.6875 3.3125 C-16.3675 2.9825 -15.0475 2.6525 -13.6875 2.3125 C-12.77355469 1.96832031 -11.85960937 1.62414062 -10.91796875 1.26953125 C-7.1625397 0.15697972 -3.91260673 0.01167942 0 0 Z " fill="#FE3604" transform="translate(305.6875,645.6875)"/>
<path d="M0 0 C10.23 0 20.46 0 31 0 C31 0.33 31 0.66 31 1 C32.98 1.33 34.96 1.66 37 2 C37 2.33 37 2.66 37 3 C32.37357074 3.07426356 27.74748991 3.12865492 23.12060547 3.16479492 C21.54730178 3.17986364 19.97403998 3.20032245 18.40087891 3.22631836 C16.13693904 3.26278738 13.87355543 3.27974508 11.609375 3.29296875 C10.90818542 3.30845261 10.20699585 3.32393646 9.48455811 3.33988953 C4.8751627 3.34147112 3.91715389 2.93786541 0 0 Z " fill="#FE752A" transform="translate(497,253)"/>
<path d="M0 0 C-1 3 -1 3 -3.3125 4.1875 C-8.5503146 5.34159474 -13.65884952 5.15556749 -19 5 C-19 4.34 -19 3.68 -19 3 C-20.65 2.67 -22.3 2.34 -24 2 C-19.65748482 0.55249494 -15.33151043 0.95851405 -10.8046875 1.0390625 C-7.02250421 1.08093169 -3.63793278 0 0 0 Z " fill="#FD3618" transform="translate(746,725)"/>
<path d="M0 0 C2 2 2 2 3.375 4.5 C5.20431718 7.31433412 5.91631513 7.84233757 9 9 C11.40837755 9.28878735 13.82810468 9.49045026 16.25 9.625 C17.51328125 9.69976563 18.7765625 9.77453125 20.078125 9.8515625 C21.04234375 9.90054688 22.0065625 9.94953125 23 10 C18.92626808 12.71582128 15.7786755 12.50972539 11 12 C5.75098746 10.3378127 2.65189925 8.0945537 -1 4 C-1.99 4.66 -2.98 5.32 -4 6 C-2.84826645 3.53199953 -1.95216435 1.95216435 0 0 Z " fill="#FD2C09" transform="translate(373,717)"/>
<path d="M0 0 C0.33 0 0.66 0 1 0 C1 1.65 1 3.3 1 5 C10.9 4.505 10.9 4.505 21 4 C20.67 4.99 20.34 5.98 20 7 C16.85418577 7.02888514 13.70840531 7.04675923 10.5625 7.0625 C9.21575195 7.07506836 9.21575195 7.07506836 7.84179688 7.08789062 C6.56079102 7.09272461 6.56079102 7.09272461 5.25390625 7.09765625 C4.46314697 7.10289307 3.6723877 7.10812988 2.85766602 7.11352539 C1 7 1 7 0 6 C-0.04080783 4.00041636 -0.04254356 1.99954746 0 0 Z " fill="#FD3F1A" transform="translate(560,720)"/>
<path d="M0 0 C0.66 0.33 1.32 0.66 2 1 C3 4 3 4 3 12 C-2.28 12 -7.56 12 -13 12 C-13 11.67 -13 11.34 -13 11 C-8.38 10.67 -3.76 10.34 1 10 C0.67 6.7 0.34 3.4 0 0 Z " fill="#FD380A" transform="translate(370,667)"/>
<path d="M0 0 C0 4.16296888 -1.36283323 5.82187594 -4 9 C-8.14245288 10.70136458 -10.75100463 11.27656221 -15 10 C-14.33613281 9.69707031 -13.67226563 9.39414062 -12.98828125 9.08203125 C-7.77378998 6.60800254 -3.76754403 4.39546803 0 0 Z M-2 5 C0 6 0 6 0 6 Z " fill="#FD340E" transform="translate(463,716)"/>
<path d="M0 0 C0.66 0.33 1.32 0.66 2 1 C1.73445312 1.50015625 1.46890625 2.0003125 1.1953125 2.515625 C-0.41375842 5.85996849 -1.76210245 9.30036936 -3.125 12.75 C-3.40214844 13.44738281 -3.67929688 14.14476562 -3.96484375 14.86328125 C-4.64480082 16.57489731 -5.32261437 18.28736464 -6 20 C-6.66 20 -7.32 20 -8 20 C-6.75329358 12.87596329 -4.01709555 6.02564332 0 0 Z " fill="#FE9E27" transform="translate(170,223)"/>
<path d="M0 0 C5.65570522 0.84935502 9.64149796 3.37909061 14 7 C16.125 10.1875 16.125 10.1875 17 13 C16.67 13.99 16.34 14.98 16 16 C15.69707031 15.46890625 15.39414062 14.9378125 15.08203125 14.390625 C11.11926655 7.70879407 7.10282285 4.30363853 0 1 C0 0.67 0 0.34 0 0 Z " fill="#FD3613" transform="translate(450,680)"/>
<path d="M0 0 C0 0.99 0 1.98 0 3 C-5.60563042 3.82622671 -10.42289352 4.06795656 -16 3 C-15.67 2.34 -15.34 1.68 -15 1 C-12.45058627 0.68758629 -9.99638487 0.48696579 -7.4375 0.375 C-6.72658203 0.33632812 -6.01566406 0.29765625 -5.28320312 0.2578125 C-3.52257575 0.16328217 -1.76132272 0.08054183 0 0 Z " fill="#FC9927" transform="translate(256,170)"/>
<path d="M0 0 C3 5.625 3 5.625 3 9 C1.35 7.35 -0.3 5.7 -2 4 C-3.98 5.32 -5.96 6.64 -8 8 C-8.66 7.67 -9.32 7.34 -10 7 C-8.71372289 5.82739389 -7.42080217 4.6620717 -6.125 3.5 C-5.04605469 2.52546875 -5.04605469 2.52546875 -3.9453125 1.53125 C-2 0 -2 0 0 0 Z " fill="#FC2A14" transform="translate(757,717)"/>
<path d="M0 0 C0.66 0.99 1.32 1.98 2 3 C-0.31 5.31 -2.62 7.62 -5 10 C-5.33 8.68 -5.66 7.36 -6 6 C-4.21482174 3.35301155 -2.87978754 1.43989377 0 0 Z " fill="#FD411B" transform="translate(733,663)"/>
<path d="M0 0 C0.66 0.33 1.32 0.66 2 1 C0.91103333 6.75762166 -0.29336293 12.39247819 -2 18 C-2.33 18 -2.66 18 -3 18 C-2.57045059 11.74892565 -1.98598493 5.95795479 0 0 Z " fill="#FD9F26" transform="translate(161,243)"/>
<path d="M0 0 C0.99 0 1.98 0 3 0 C4.0712828 6.02596573 4.09945415 11.88909517 4 18 C3.67 18 3.34 18 3 18 C2.01 12.06 1.02 6.12 0 0 Z " fill="#FD280A" transform="translate(694,662)"/>
<path d="M0 0 C0.33 0.66 0.66 1.32 1 2 C0.360625 2.763125 -0.27875 3.52625 -0.9375 4.3125 C-3.14232781 6.88246713 -3.14232781 6.88246713 -4 10 C-4.66 10 -5.32 10 -6 10 C-6.33 10.66 -6.66 11.32 -7 12 C-7.99 11.67 -8.98 11.34 -10 11 C-9.44570313 10.45730469 -8.89140625 9.91460938 -8.3203125 9.35546875 C-7.23363281 8.28232422 -7.23363281 8.28232422 -6.125 7.1875 C-5.40570313 6.47980469 -4.68640625 5.77210938 -3.9453125 5.04296875 C-1.84641063 2.95600806 -1.84641063 2.95600806 0 0 Z " fill="#FE350D" transform="translate(310,739)"/>
<path d="M0 0 C0.33 0.99 0.66 1.98 1 3 C-0.14453125 5.26171875 -0.14453125 5.26171875 -1.8125 7.6875 C-2.35519531 8.49574219 -2.89789063 9.30398437 -3.45703125 10.13671875 C-3.96621094 10.75160156 -4.47539062 11.36648437 -5 12 C-5.66 12 -6.32 12 -7 12 C-5.44298069 7.32894208 -2.91552627 3.91294315 0 0 Z " fill="#FD9D28" transform="translate(178,211)"/>
<path d="M0 0 C0.99 0 1.98 0 3 0 C1.54970393 3.79308202 -0.15366299 7.3842567 -2 11 C-2.391875 11.78375 -2.78375 12.5675 -3.1875 13.375 C-3.455625 13.91125 -3.72375 14.4475 -4 15 C-4.59720137 9.17728663 -2.528243 5.0790596 0 0 Z " fill="#FE280F" transform="translate(713,655)"/>
<path d="M0 0 C2.64 0 5.28 0 8 0 C8 1.32 8 2.64 8 4 C4.31245243 3.50168276 2.39509338 2.89932357 0 0 Z " fill="#FE480D" transform="translate(288,648)"/>
<path d="M0 0 C6.75 0.75 6.75 0.75 9 3 C6.36 3 3.72 3 1 3 C0.67 2.01 0.34 1.02 0 0 Z " fill="#FE2F10" transform="translate(711,670)"/>
<path d="M0 0 C0 3 0 3 -2 6 C-4.625 6.6875 -4.625 6.6875 -7 7 C-4.66666667 4.66666667 -2.33333333 2.33333333 0 0 Z " fill="#FD3D0D" transform="translate(641,323)"/>
<path d="M0 0 C1.98 0 3.96 0 6 0 C5.67 0.66 5.34 1.32 5 2 C3.35 1.67 1.7 1.34 0 1 C0 0.67 0 0.34 0 0 Z " fill="#F45A1E" transform="translate(248,854)"/>
<path d="M0 0 C1.65 0 3.3 0 5 0 C5 0.33 5 0.66 5 1 C3.35 1 1.7 1 0 1 C0 0.67 0 0.34 0 0 Z " fill="#F54C1E" transform="translate(520,854)"/>
<path d="M0 0 C1.65 0 3.3 0 5 0 C5 0.33 5 0.66 5 1 C3.35 1 1.7 1 0 1 C0 0.67 0 0.34 0 0 Z " fill="#F64F1C" transform="translate(464,854)"/>
<path d="M0 0 C1.65 0 3.3 0 5 0 C5 0.33 5 0.66 5 1 C3.35 1 1.7 1 0 1 C0 0.67 0 0.34 0 0 Z " fill="#F8511D" transform="translate(416,854)"/>
<path d="M0 0 C1.65 0 3.3 0 5 0 C5 0.33 5 0.66 5 1 C3.35 1 1.7 1 0 1 C0 0.67 0 0.34 0 0 Z " fill="#F7521D" transform="translate(384,854)"/>
<path d="M0 0 C4 1 4 1 4 1 Z " fill="#F4471D" transform="translate(673,854)"/>
<path d="M0 0 C3 1 3 1 3 1 Z " fill="#EF441E" transform="translate(754,854)"/>
<path d="M0 0 C3 1 3 1 3 1 Z " fill="#F2451E" transform="translate(714,854)"/>
<path d="M0 0 C3 1 3 1 3 1 Z " fill="#F64A1D" transform="translate(570,854)"/>
<path d="M0 0 C3 1 3 1 3 1 Z " fill="#F7501D" transform="translate(450,854)"/>
<path d="M0 0 C3 1 3 1 3 1 Z " fill="#F6521D" transform="translate(394,854)"/>
<path d="M0 0 C3 1 3 1 3 1 Z " fill="#F6521D" transform="translate(370,854)"/>
<path d="M0 0 C3 1 3 1 3 1 Z " fill="#F5541D" transform="translate(354,854)"/>
<path d="M0 0 C3 1 3 1 3 1 Z " fill="#F6541D" transform="translate(338,854)"/>
<path d="M0 0 C2 1 2 1 2 1 Z " fill="#ED441F" transform="translate(771,854)"/>
<path d="M0 0 C2 1 2 1 2 1 Z " fill="#F1441E" transform="translate(760,854)"/>
<path d="M0 0 C2 1 2 1 2 1 Z " fill="#F1451F" transform="translate(747,854)"/>
<path d="M0 0 C2 1 2 1 2 1 Z " fill="#F0451F" transform="translate(744,854)"/>
<path d="M0 0 C2 1 2 1 2 1 Z " fill="#F2461F" transform="translate(731,854)"/>
<path d="M0 0 C2 1 2 1 2 1 Z " fill="#F3451E" transform="translate(723,854)"/>
<path d="M0 0 C2 1 2 1 2 1 Z " fill="#F2471E" transform="translate(707,854)"/>
<path d="M0 0 C2 1 2 1 2 1 Z " fill="#F3471E" transform="translate(667,854)"/>
<path d="M0 0 C2 1 2 1 2 1 Z " fill="#F4461E" transform="translate(659,854)"/>
<path d="M0 0 C2 1 2 1 2 1 Z " fill="#F5481E" transform="translate(635,854)"/>
<path d="M0 0 C2 1 2 1 2 1 Z " fill="#F44A1D" transform="translate(627,854)"/>
<path d="M0 0 C2 1 2 1 2 1 Z " fill="#F4491E" transform="translate(611,854)"/>
<path d="M0 0 C2 1 2 1 2 1 Z " fill="#F4481D" transform="translate(587,854)"/>
<path d="M0 0 C2 1 2 1 2 1 Z " fill="#F4491E" transform="translate(579,854)"/>
<path d="M0 0 C2 1 2 1 2 1 Z " fill="#F54C1D" transform="translate(555,854)"/>
<path d="M0 0 C2 1 2 1 2 1 Z " fill="#F54C1C" transform="translate(547,854)"/>
<path d="M0 0 C2 1 2 1 2 1 Z " fill="#F54C1D" transform="translate(539,854)"/>
<path d="M0 0 C2 1 2 1 2 1 Z " fill="#F54B1D" transform="translate(515,854)"/>
<path d="M0 0 C2 1 2 1 2 1 Z " fill="#F44D1C" transform="translate(507,854)"/>
<path d="M0 0 C2 1 2 1 2 1 Z " fill="#F44E1D" transform="translate(491,854)"/>
<path d="M0 0 C2 1 2 1 2 1 Z " fill="#F64F1D" transform="translate(459,854)"/>
<path d="M0 0 C2 1 2 1 2 1 Z " fill="#F7501E" transform="translate(443,854)"/>
<path d="M0 0 C2 1 2 1 2 1 Z " fill="#F7541D" transform="translate(379,854)"/>
<path d="M0 0 C2 1 2 1 2 1 Z " fill="#F8541D" transform="translate(347,854)"/>
<path d="M0 0 C2 1 2 1 2 1 Z " fill="#F7551D" transform="translate(331,854)"/>
<path d="M0 0 C2 1 2 1 2 1 Z " fill="#F5551D" transform="translate(307,854)"/>
<path d="M0 0 C2 1 2 1 2 1 Z " fill="#F6571E" transform="translate(267,854)"/>
<path d="M0 0 C2 1 2 1 2 1 Z " fill="#F35B1E" transform="translate(236,852)"/>
<path d="" fill="#F99427" transform="translate(0,0)"/>
<path d="" fill="#F49125" transform="translate(0,0)"/>
<path d="M0 0 C2 1 2 1 2 1 Z " fill="#F8791F" transform="translate(552,168)"/>
<path d="M0 0 C2 1 2 1 2 1 Z " fill="#F78D25" transform="translate(320,168)"/>
<path d="" fill="#762C0A" transform="translate(0,0)"/>
<path d="" fill="#F0441F" transform="translate(0,0)"/>
<path d="" fill="#F0431F" transform="translate(0,0)"/>
<path d="" fill="#F3441E" transform="translate(0,0)"/>
<path d="" fill="#F1461E" transform="translate(0,0)"/>
<path d="" fill="#F24520" transform="translate(0,0)"/>
<path d="" fill="#F44720" transform="translate(0,0)"/>
<path d="" fill="#F4461F" transform="translate(0,0)"/>
<path d="" fill="#F3481F" transform="translate(0,0)"/>
<path d="" fill="#F4481E" transform="translate(0,0)"/>
<path d="" fill="#F6491D" transform="translate(0,0)"/>
<path d="" fill="#F5471D" transform="translate(0,0)"/>
<path d="" fill="#F5471C" transform="translate(0,0)"/>
<path d="" fill="#F6491E" transform="translate(0,0)"/>
<path d="" fill="#F64B1E" transform="translate(0,0)"/>
<path d="" fill="#F54A1E" transform="translate(0,0)"/>
<path d="" fill="#F54A1E" transform="translate(0,0)"/>
<path d="" fill="#F6491F" transform="translate(0,0)"/>
<path d="" fill="#F54B1F" transform="translate(0,0)"/>
<path d="" fill="#F54B1F" transform="translate(0,0)"/>
<path d="" fill="#F74C1F" transform="translate(0,0)"/>
<path d="" fill="#F64C1F" transform="translate(0,0)"/>
<path d="" fill="#F84D1D" transform="translate(0,0)"/>
<path d="" fill="#F84C20" transform="translate(0,0)"/>
<path d="" fill="#F64E1F" transform="translate(0,0)"/>
<path d="" fill="#F74E1E" transform="translate(0,0)"/>
<path d="" fill="#F44D1D" transform="translate(0,0)"/>
<path d="" fill="#F6501E" transform="translate(0,0)"/>
<path d="" fill="#F64D1D" transform="translate(0,0)"/>
<path d="" fill="#F7501D" transform="translate(0,0)"/>
<path d="" fill="#F64E1C" transform="translate(0,0)"/>
<path d="" fill="#F8511E" transform="translate(0,0)"/>
<path d="" fill="#F6521D" transform="translate(0,0)"/>
<path d="" fill="#F8531C" transform="translate(0,0)"/>
<path d="" fill="#F8501C" transform="translate(0,0)"/>
<path d="" fill="#F4511C" transform="translate(0,0)"/>
<path d="" fill="#F6541F" transform="translate(0,0)"/>
<path d="" fill="#F9521E" transform="translate(0,0)"/>
<path d="" fill="#F7531E" transform="translate(0,0)"/>
<path d="" fill="#F7551E" transform="translate(0,0)"/>
<path d="" fill="#F6541C" transform="translate(0,0)"/>
<path d="" fill="#F8551E" transform="translate(0,0)"/>
<path d="" fill="#F7551D" transform="translate(0,0)"/>
<path d="" fill="#F8551E" transform="translate(0,0)"/>
<path d="" fill="#F9551D" transform="translate(0,0)"/>
<path d="" fill="#F9541E" transform="translate(0,0)"/>
<path d="" fill="#F7581E" transform="translate(0,0)"/>
<path d="" fill="#F7541D" transform="translate(0,0)"/>
<path d="" fill="#F8581F" transform="translate(0,0)"/>
<path d="" fill="#F9581D" transform="translate(0,0)"/>
<path d="" fill="#F7561E" transform="translate(0,0)"/>
<path d="" fill="#F8581D" transform="translate(0,0)"/>
<path d="" fill="#F6571D" transform="translate(0,0)"/>
<path d="" fill="#F7591F" transform="translate(0,0)"/>
<path d="" fill="#F6581D" transform="translate(0,0)"/>
<path d="" fill="#F85A1F" transform="translate(0,0)"/>
<path d="" fill="#F7581C" transform="translate(0,0)"/>
<path d="" fill="#F95B20" transform="translate(0,0)"/>
<path d="" fill="#ED4421" transform="translate(0,0)"/>
<path d="" fill="#EC441F" transform="translate(0,0)"/>
<path d="" fill="#F65C1E" transform="translate(0,0)"/>
<path d="" fill="#EB4322" transform="translate(0,0)"/>
<path d="" fill="#F55B20" transform="translate(0,0)"/>
<path d="" fill="#F45C1E" transform="translate(0,0)"/>
<path d="" fill="#F35C21" transform="translate(0,0)"/>
<path d="" fill="#F15F1F" transform="translate(0,0)"/>
<path d="" fill="#F46021" transform="translate(0,0)"/>
<path d="" fill="#F66320" transform="translate(0,0)"/>
<path d="" fill="#F76521" transform="translate(0,0)"/>
<path d="" fill="#F16421" transform="translate(0,0)"/>
<path d="" fill="#F04520" transform="translate(0,0)"/>
<path d="" fill="#F65521" transform="translate(0,0)"/>
<path d="" fill="#F75B22" transform="translate(0,0)"/>
<path d="" fill="#F75A20" transform="translate(0,0)"/>
<path d="" fill="#F85C21" transform="translate(0,0)"/>
<path d="" fill="#F75E20" transform="translate(0,0)"/>
<path d="" fill="#F85F20" transform="translate(0,0)"/>
<path d="" fill="#F75E1F" transform="translate(0,0)"/>
<path d="" fill="#F3621F" transform="translate(0,0)"/>
<path d="" fill="#F26320" transform="translate(0,0)"/>
<path d="" fill="#F36520" transform="translate(0,0)"/>
<path d="" fill="#F69225" transform="translate(0,0)"/>
<path d="" fill="#EF6220" transform="translate(0,0)"/>
<path d="" fill="#F59327" transform="translate(0,0)"/>
<path d="" fill="#F06220" transform="translate(0,0)"/>
<path d="" fill="#F49327" transform="translate(0,0)"/>
<path d="" fill="#F59326" transform="translate(0,0)"/>
<path d="" fill="#F39224" transform="translate(0,0)"/>
<path d="" fill="#F49126" transform="translate(0,0)"/>
<path d="" fill="#F59225" transform="translate(0,0)"/>
<path d="" fill="#F29027" transform="translate(0,0)"/>
<path d="" fill="#F49525" transform="translate(0,0)"/>
<path d="" fill="#F06A20" transform="translate(0,0)"/>
<path d="" fill="#F59226" transform="translate(0,0)"/>
<path d="" fill="#F16A20" transform="translate(0,0)"/>
<path d="" fill="#F36E1F" transform="translate(0,0)"/>
<path d="" fill="#F16B20" transform="translate(0,0)"/>
<path d="" fill="#F59327" transform="translate(0,0)"/>
<path d="" fill="#F49227" transform="translate(0,0)"/>
<path d="" fill="#F79327" transform="translate(0,0)"/>
<path d="" fill="#F67120" transform="translate(0,0)"/>
<path d="" fill="#F7701E" transform="translate(0,0)"/>
<path d="" fill="#F7711F" transform="translate(0,0)"/>
<path d="" fill="#F5701E" transform="translate(0,0)"/>
<path d="" fill="#F67220" transform="translate(0,0)"/>
<path d="" fill="#F8731F" transform="translate(0,0)"/>
<path d="" fill="#F97620" transform="translate(0,0)"/>
<path d="" fill="#F87720" transform="translate(0,0)"/>
<path d="" fill="#F8761E" transform="translate(0,0)"/>
<path d="" fill="#F87821" transform="translate(0,0)"/>
<path d="" fill="#F87C20" transform="translate(0,0)"/>
<path d="" fill="#F97C21" transform="translate(0,0)"/>
<path d="" fill="#F97D1F" transform="translate(0,0)"/>
<path d="" fill="#F87B22" transform="translate(0,0)"/>
<path d="" fill="#F87E1F" transform="translate(0,0)"/>
<path d="" fill="#F97E21" transform="translate(0,0)"/>
<path d="" fill="#FA8222" transform="translate(0,0)"/>
<path d="" fill="#FA8522" transform="translate(0,0)"/>
<path d="" fill="#F88523" transform="translate(0,0)"/>
<path d="" fill="#F78523" transform="translate(0,0)"/>
<path d="" fill="#F88822" transform="translate(0,0)"/>
<path d="" fill="#F88A24" transform="translate(0,0)"/>
<path d="" fill="#F88C24" transform="translate(0,0)"/>
<path d="" fill="#F78B24" transform="translate(0,0)"/>
<path d="" fill="#F58A25" transform="translate(0,0)"/>
<path d="" fill="#F88F26" transform="translate(0,0)"/>
<path d="" fill="#F79026" transform="translate(0,0)"/>
<path d="" fill="#F69228" transform="translate(0,0)"/>
<path d="" fill="#F79126" transform="translate(0,0)"/>
<path d="" fill="#F49224" transform="translate(0,0)"/>
<path d="" fill="#F59224" transform="translate(0,0)"/>
</svg>
