<?xml version="1.0" encoding="utf-8"?>
<svg xmlns="http://www.w3.org/2000/svg" viewBox="0 0 500 500" xmlns:bx="https://boxy-svg.com" width="500px" height="500px"><defs><bx:export><bx:file format="svg"/></bx:export></defs><g transform="matrix(1, 0, 0, 1, 2.517525, 21.685822)"><path d="M 419.808 89.851 C 420.515 90.378 420.515 90.378 421.237 90.916 C 432.672 99.755 441.444 112.078 443.581 126.612 C 443.754 128.116 443.899 129.621 444.029 131.13 C 444.103 131.97 444.103 131.97 444.179 132.829 C 444.702 139.283 444.733 145.729 444.728 152.201 C 444.731 153.509 444.733 154.817 444.736 156.125 C 444.74 158.845 444.74 161.565 444.737 164.285 C 444.733 167.728 444.744 171.171 444.757 174.613 C 444.766 177.309 444.766 180.004 444.765 182.699 C 444.765 183.967 444.768 185.234 444.774 186.502 C 444.93 223.779 429.992 255.742 405.064 282.954 C 404.247 283.872 403.463 284.818 402.703 285.784 C 401.688 287.032 400.711 288.019 399.483 289.047 C 397.737 290.535 396.04 292.062 394.367 293.632 C 375.669 311.107 353.922 320.627 329.311 326.498 C 328.058 326.801 326.805 327.104 325.552 327.408 C 322.244 328.21 318.935 329.004 315.625 329.796 C 312.876 330.455 310.128 331.118 307.38 331.781 C 290.865 335.766 274.338 339.692 257.781 343.495 C 257.176 343.634 256.571 343.773 255.947 343.916 C 255.064 344.119 255.064 344.119 254.163 344.326 C 247.805 345.79 241.461 347.314 235.118 348.843 C 217.324 353.133 199.514 357.356 181.703 361.58 C 175.942 362.946 170.182 364.313 164.422 365.681 C 160.284 366.664 156.145 367.647 152.006 368.629 C 149.56 369.209 147.114 369.789 144.667 370.371 C 142.385 370.913 140.102 371.455 137.82 371.995 C 136.991 372.192 136.162 372.389 135.334 372.586 C 124.982 375.049 115.468 376.867 104.812 376.79 C 104.111 376.787 103.41 376.784 102.687 376.781 C 100.978 376.774 99.268 376.765 97.559 376.753 C 97.559 376.364 97.559 375.975 97.559 375.574 C 97.197 375.553 96.834 375.531 96.462 375.508 C 92.811 375.224 89.637 374.514 86.218 373.218 C 85.735 373.036 85.252 372.854 84.755 372.666 C 71.974 367.636 61.816 357.7 56.146 345.245 C 51.746 335.106 50.246 325.246 50.266 314.238 C 50.266 313.247 50.266 312.256 50.256 311.265 C 50.256 308.594 50.256 305.924 50.256 303.253 C 50.256 301.01 50.246 298.768 50.246 296.526 C 50.236 291.226 50.236 285.927 50.246 280.627 C 50.246 275.192 50.236 269.758 50.226 264.322 C 50.216 259.63 50.206 254.937 50.216 250.244 C 50.216 247.453 50.216 244.663 50.206 241.872 C 50.146 219.363 50.146 219.363 52.196 209.442 C 52.336 208.765 52.336 208.765 52.476 208.074 C 56.716 187.2 67.333 168.018 85.187 155.832 C 87.047 154.649 88.951 153.555 90.885 152.498 C 92.311 151.757 92.311 151.757 93.435 150.53 C 94.606 150.118 95.786 149.729 96.969 149.352 C 98.093 148.9 99.216 148.448 100.337 147.989 C 104.806 146.179 109.316 144.622 113.946 143.277 C 114.551 143.101 115.155 142.925 115.778 142.744 C 123.394 140.572 131.112 138.839 138.834 137.091 C 141.05 136.586 143.266 136.079 145.481 135.572 C 146.844 135.26 148.206 134.95 149.569 134.641 C 154.92 133.565 154.92 133.565 160.005 131.678 C 161.066 131.484 162.131 131.31 163.198 131.147 C 166.753 130.574 170.236 129.821 173.737 128.984 C 174.348 128.84 174.958 128.695 175.587 128.547 C 177.549 128.083 179.511 127.617 181.472 127.15 C 182.839 126.826 184.205 126.502 185.573 126.179 C 193.013 124.416 200.45 122.643 207.88 120.837 C 212.147 119.8 216.417 118.781 220.69 117.77 C 221.837 117.498 222.985 117.226 224.132 116.954 C 225.843 116.549 227.554 116.144 229.265 115.741 C 230.851 115.368 232.435 114.993 234.021 114.617 C 234.501 114.504 234.982 114.392 235.478 114.276 C 237.864 113.732 237.864 113.732 240.126 112.826 C 241.192 112.632 242.262 112.458 243.333 112.295 C 246.809 111.733 250.202 110.986 253.618 110.139 C 254.558 109.91 254.558 109.91 255.517 109.675 C 256.902 109.337 258.288 108.998 259.673 108.657 C 263.65 107.68 267.628 106.713 271.607 105.746 C 272.052 105.637 272.497 105.529 272.956 105.418 C 281.999 103.218 291.052 101.057 300.106 98.902 C 300.821 98.732 301.535 98.561 302.272 98.386 C 308.816 96.828 315.36 95.27 321.904 93.715 C 325.383 92.889 328.862 92.061 332.34 91.233 C 333.633 90.925 334.927 90.618 336.221 90.311 C 347.35 88.207 347.35 88.207 357.95 84.548 C 358.595 84.476 359.24 84.403 359.904 84.328 C 364.106 83.842 368.195 82.698 372.3 81.704 C 388.224 77.925 406.402 79.814 419.808 89.851 Z M 349.215 131.011 C 347.151 131.507 345.086 131.998 343.021 132.488 C 340.612 133.061 338.203 133.633 335.796 134.21 C 330.481 135.48 325.159 136.709 319.821 137.878 C 317.488 138.214 317.488 138.214 315.533 139.337 C 315.405 140.429 315.315 141.526 315.241 142.623 C 315.19 143.339 315.14 144.054 315.089 144.791 C 315.035 145.594 314.981 146.396 314.928 147.199 C 314.87 148.04 314.812 148.882 314.753 149.724 C 314.594 152.031 314.437 154.339 314.281 156.647 C 314.115 159.096 313.946 161.545 313.778 163.994 C 313.49 168.173 313.205 172.353 312.921 176.532 C 312.48 183.014 312.036 189.496 311.591 195.979 C 311.444 198.126 311.296 200.273 311.149 202.42 C 311.113 202.949 311.077 203.478 311.039 204.023 C 310.783 207.752 310.528 211.481 310.273 215.21 C 309.471 226.934 308.663 238.658 307.838 250.382 C 307.795 250.997 307.752 251.612 307.707 252.246 C 307.359 257.196 307.011 262.146 306.659 267.097 C 306.49 269.481 306.322 271.866 306.155 274.251 C 306.096 275.089 306.036 275.928 305.976 276.766 C 305.896 277.879 305.818 278.993 305.74 280.106 C 305.675 281.02 305.675 281.02 305.609 281.954 C 305.517 283.708 305.503 285.45 305.518 287.206 C 307.439 287.832 308.702 287.742 310.656 287.277 C 311.204 287.149 311.753 287.021 312.318 286.889 C 312.906 286.747 313.494 286.604 314.1 286.456 C 315.01 286.241 315.01 286.241 315.939 286.022 C 317.88 285.563 319.818 285.096 321.756 284.629 C 323.064 284.318 324.373 284.008 325.681 283.699 C 328.074 283.131 330.467 282.562 332.859 281.986 C 333.34 281.871 333.82 281.755 334.316 281.636 C 335.333 281.374 336.335 281.058 337.331 280.726 C 338.516 271.352 339.111 261.947 339.724 252.522 C 339.925 249.442 340.129 246.364 340.334 243.285 C 340.401 242.231 340.401 242.231 340.47 241.158 C 340.513 240.508 340.557 239.858 340.601 239.189 C 340.638 238.619 340.675 238.049 340.714 237.462 C 340.849 236.116 341.085 234.895 341.455 233.596 C 342.5 233.356 342.5 233.356 343.567 233.112 C 346.205 232.505 348.84 231.89 351.476 231.273 C 352.607 231.01 353.739 230.748 354.871 230.489 C 371.397 226.697 387.579 221.296 399.189 208.264 C 399.579 207.832 399.969 207.4 400.371 206.955 C 412.475 192.739 415.967 174.592 415.095 156.421 C 414.355 148.688 411.423 141.581 406.258 135.802 C 405.937 135.433 405.616 135.064 405.285 134.684 C 399.582 128.538 392.027 126.077 383.835 125.235 C 372.121 124.851 360.516 128.29 349.215 131.011 Z M 253.664 153.096 C 252.933 153.267 252.202 153.439 251.449 153.615 C 250.657 153.801 249.865 153.988 249.073 154.176 C 248.272 154.364 247.47 154.553 246.668 154.741 C 245.056 155.119 243.444 155.499 241.833 155.88 C 239.774 156.366 237.715 156.848 235.654 157.33 C 234.543 157.592 233.432 157.853 232.32 158.115 C 231.809 158.235 231.298 158.354 230.772 158.477 C 228.316 159.03 228.316 159.03 225.987 159.956 C 225.72 161.231 225.72 161.231 225.636 162.801 C 225.588 163.42 225.54 164.039 225.49 164.676 C 225.443 165.363 225.395 166.05 225.345 166.758 C 225.291 167.48 225.236 168.202 225.18 168.945 C 225.03 170.952 224.885 172.958 224.742 174.965 C 224.587 177.115 224.426 179.264 224.266 181.413 C 223.957 185.585 223.653 189.758 223.353 193.931 C 223.113 197.258 222.872 200.585 222.629 203.913 C 221.745 216.014 220.875 228.117 220.01 240.219 C 219.652 245.234 219.292 250.249 218.932 255.263 C 218.49 261.427 218.048 267.591 217.607 273.755 C 217.577 274.183 217.546 274.611 217.514 275.051 C 217.366 277.132 217.217 279.212 217.069 281.293 C 216.815 284.852 216.56 288.411 216.298 291.97 C 216.212 293.125 216.127 294.28 216.043 295.436 C 215.939 296.848 215.835 298.259 215.729 299.67 C 215.502 302.791 215.322 305.875 215.383 309.004 C 215.829 308.9 216.276 308.796 216.736 308.69 C 222.003 307.466 227.271 306.244 232.539 305.021 C 233.935 304.697 235.332 304.373 236.728 304.049 C 246.055 301.884 255.382 299.72 264.718 297.592 C 265.364 297.445 266.012 297.297 266.679 297.145 C 269.632 296.471 272.585 295.8 275.539 295.131 C 280.188 294.076 284.833 293.004 289.451 291.818 C 290.155 291.638 290.859 291.458 291.584 291.273 C 293.232 290.916 293.232 290.916 293.736 289.563 C 293.911 287.903 294.057 286.251 294.18 284.588 C 294.218 284.09 294.257 283.593 294.297 283.081 C 294.377 282.027 294.457 280.972 294.536 279.916 C 294.655 278.315 294.779 276.713 294.904 275.111 C 294.982 274.085 295.06 273.058 295.137 272.032 C 295.174 271.557 295.211 271.083 295.249 270.594 C 295.463 267.679 295.537 264.798 295.503 261.874 C 295.114 261.874 294.726 261.874 294.325 261.874 C 294.325 262.457 294.325 263.04 294.325 263.641 C 294.131 263.253 293.936 262.864 293.736 262.463 C 289.226 262.838 284.974 263.805 280.587 264.893 C 279.454 265.17 278.321 265.446 277.189 265.722 C 275.616 266.107 274.043 266.494 272.471 266.882 C 269.714 267.561 266.956 268.238 264.198 268.911 C 262.733 269.269 261.269 269.629 259.806 269.991 C 256.591 270.778 253.432 271.516 250.141 271.889 C 249.478 269.091 249.478 269.091 250.141 267.765 C 250.251 266.905 250.33 266.04 250.394 265.175 C 250.434 264.629 250.476 264.083 250.518 263.521 C 250.582 262.617 250.582 262.617 250.648 261.695 C 250.719 260.744 250.719 260.744 250.791 259.773 C 250.948 257.649 251.101 255.526 251.255 253.403 C 251.365 251.91 251.475 250.416 251.585 248.922 C 251.82 245.745 252.053 242.568 252.284 239.391 C 252.643 234.46 253.005 229.529 253.369 224.6 C 253.398 224.194 253.428 223.79 253.459 223.372 C 253.579 221.741 253.699 220.111 253.819 218.48 C 253.968 216.452 254.118 214.424 254.267 212.395 C 254.976 202.74 255.695 193.086 256.449 183.434 C 256.485 182.972 256.521 182.511 256.558 182.036 C 256.905 177.593 257.255 173.15 257.61 168.708 C 257.717 167.35 257.824 165.992 257.931 164.635 C 257.979 164.054 258.026 163.473 258.075 162.875 C 258.351 159.341 258.443 155.841 258.389 152.297 C 256.741 152.297 255.27 152.719 253.664 153.096 Z M 114.054 195.303 C 113.603 195.712 113.152 196.119 112.687 196.539 C 93.443 214.439 86.21 244.157 85.263 269.452 C 85.25 269.864 85.238 270.277 85.224 270.701 C 85.19 271.805 85.142 272.909 85.093 274.013 C 84.666 290.748 88.366 306.837 100.058 319.242 C 108.117 327.051 118.393 329.715 129.371 329.623 C 147.333 329.06 166.505 320.519 179.469 308.288 C 180.625 307.236 180.625 307.236 181.803 306.647 C 181.803 306.258 181.803 305.87 181.803 305.469 C 182.139 305.335 182.476 305.2 182.823 305.062 C 189.894 300.985 195.279 289.626 197.419 282.003 C 198.884 275.955 199.09 269.681 199.55 263.494 C 199.65 262.216 199.751 260.937 199.852 259.658 C 200.132 256.078 200.398 252.496 200.655 248.913 C 200.689 248.433 200.724 247.951 200.76 247.455 C 201.086 242.834 201.345 238.232 201.244 233.596 C 200.82 233.694 200.396 233.792 199.96 233.892 C 196.648 234.657 193.337 235.421 190.025 236.185 C 189.352 236.341 188.679 236.496 187.986 236.656 C 186.588 236.978 185.19 237.301 183.792 237.622 C 183.114 237.778 182.436 237.934 181.736 238.095 C 181.127 238.235 180.516 238.376 179.888 238.52 C 178.973 238.734 178.06 238.951 177.149 239.18 C 175.887 239.494 174.623 239.788 173.356 240.076 C 172.857 240.191 172.357 240.304 171.843 240.422 C 171.308 240.544 170.774 240.667 170.223 240.792 C 168.495 241.189 166.768 241.587 165.041 241.984 C 163.844 242.259 162.648 242.533 161.451 242.805 C 159.723 243.199 157.995 243.597 156.269 243.996 C 155.734 244.117 155.199 244.237 154.648 244.362 C 154.149 244.478 153.65 244.594 153.135 244.713 C 152.697 244.814 152.26 244.914 151.809 245.017 C 150.503 245.402 149.396 245.866 148.223 246.557 C 146.996 249.012 147.11 252.063 146.834 254.767 C 146.716 255.924 146.591 257.079 146.466 258.235 C 146.013 262.608 145.748 266.903 145.866 271.3 C 147.327 271.021 148.788 270.738 150.248 270.453 C 150.873 270.334 150.873 270.334 151.51 270.213 C 153.575 269.954 153.575 269.954 155.292 268.943 C 156.2 268.82 157.107 268.698 158.015 268.58 C 163.286 267.783 163.286 267.783 168.253 265.998 C 167.871 275.199 165.413 284.591 158.827 291.33 C 152.66 296.897 145.479 299.899 137.154 299.719 C 131.775 299.319 128.217 297.142 124.658 293.097 C 115.149 279.571 118.265 257.364 120.85 242.369 C 122.17 235.622 124.134 229.236 127.015 222.992 C 127.273 222.421 127.531 221.848 127.797 221.259 C 131.535 213.707 137.272 208.533 144.688 204.729 C 145.121 204.505 145.554 204.281 146 204.051 C 150.474 202.176 157.033 201.93 161.617 203.522 C 165.249 205.686 167.62 208.941 168.842 212.977 C 169.316 215.323 169.69 217.676 170.02 220.046 C 174.595 219.598 179.012 218.554 183.461 217.417 C 185.05 217.027 186.647 216.681 188.247 216.333 C 188.919 216.183 189.592 216.033 190.286 215.879 C 191.699 215.565 193.113 215.255 194.529 214.949 C 195.202 214.798 195.875 214.647 196.568 214.492 C 197.489 214.289 197.489 214.289 198.43 214.082 C 200.114 213.551 201.145 213.013 202.422 211.799 C 203.823 203.814 201.42 193.805 196.966 187.118 C 196.06 185.899 195.127 184.706 194.174 183.521 C 193.77 182.998 193.77 182.998 193.358 182.465 C 187.369 175.596 177.712 173.402 169.035 172.756 C 148.337 172.178 128.685 181.034 114.054 195.303 Z" fill="#A3A4E3" style="stroke-width: 1;"/><path d="M 378.252 156.857 C 381.826 159.786 383.705 163.413 384.35 167.946 C 384.998 176.827 382.173 185.346 376.802 192.358 C 368.527 201.557 354.903 203.862 343.222 205.907 C 342.494 203.714 342.665 201.761 342.827 199.472 C 342.855 199.067 342.883 198.661 342.911 198.244 C 343.003 196.906 343.101 195.57 343.199 194.233 C 343.265 193.303 343.33 192.373 343.396 191.443 C 343.533 189.495 343.673 187.547 343.815 185.6 C 343.997 183.103 344.173 180.605 344.348 178.107 C 344.482 176.187 344.619 174.268 344.757 172.348 C 344.823 171.427 344.888 170.506 344.953 169.585 C 345.044 168.299 345.137 167.012 345.232 165.726 C 345.311 164.628 345.311 164.628 345.392 163.508 C 345.579 161.723 345.579 161.723 346.168 159.956 C 347.141 159.513 347.141 159.513 348.405 159.201 C 348.868 159.083 349.332 158.965 349.81 158.843 C 350.309 158.724 350.808 158.606 351.322 158.483 C 351.833 158.358 352.343 158.232 352.869 158.102 C 353.895 157.85 354.923 157.601 355.951 157.355 C 357.131 157.067 358.305 156.751 359.476 156.428 C 365.154 154.918 372.98 153.547 378.252 156.857 Z" fill="#A3A3E2" style="stroke-width: 1;"/><path d="M 217.739 261.874 C 217.934 261.874 218.128 261.874 218.328 261.874 C 218.479 268.268 218.262 274.603 217.813 280.984 C 217.767 281.686 217.72 282.387 217.673 283.109 C 217.599 284.097 217.599 284.097 217.523 285.105 C 217.48 285.695 217.437 286.285 217.392 286.892 C 217.15 288.384 217.15 288.384 215.972 290.152 C 215.99 289.824 216.008 289.495 216.026 289.157 C 216.358 282.949 216.633 276.773 216.524 270.557 C 216.561 268.943 216.561 268.943 217.15 267.765 C 217.284 266.762 217.391 265.755 217.482 264.746 C 217.556 263.942 217.556 263.942 217.631 263.122 C 217.667 262.71 217.703 262.298 217.739 261.874 Z" fill="#9F9EDA" style="stroke-width: 1;"/><path d="M 253.676 224.17 C 253.87 224.17 254.064 224.17 254.265 224.17 C 254.328 229.322 254.272 234.363 253.676 239.487 C 253.481 239.487 253.287 239.487 253.086 239.487 C 252.892 235.794 252.698 232.1 252.497 228.294 C 252.692 228.294 252.886 228.294 253.086 228.294 C 253.281 226.933 253.475 225.572 253.676 224.17 Z" fill="#AAA9E9" style="stroke-width: 1;"/><path d="M 219.507 228.294 C 219.701 228.294 219.895 228.294 220.096 228.294 C 220.29 231.988 220.485 235.682 220.685 239.487 C 220.49 239.487 220.296 239.487 220.096 239.487 C 219.901 240.848 219.707 242.209 219.507 243.611 C 219.312 243.611 219.118 243.611 218.917 243.611 C 218.833 238.476 219.083 233.412 219.507 228.294 Z" fill="#AAAAEA" style="stroke-width: 1;"/><path d="M 251.908 249.502 C 252.103 249.502 252.297 249.502 252.497 249.502 C 252.612 250.57 252.721 251.638 252.829 252.706 C 252.89 253.3 252.952 253.895 253.015 254.508 C 253.051 255.238 253.051 255.238 253.086 255.983 C 252.892 256.177 252.698 256.372 252.497 256.572 C 252.36 257.76 252.254 258.951 252.166 260.144 C 252.117 260.795 252.067 261.445 252.017 262.116 C 251.981 262.619 251.945 263.123 251.908 263.641 C 251.714 263.641 251.519 263.641 251.319 263.641 C 251.125 259.948 250.93 256.254 250.73 252.448 C 250.924 252.448 251.119 252.448 251.319 252.448 C 251.514 251.476 251.708 250.504 251.908 249.502 Z" fill="#ACABE9" style="stroke-width: 1;"/><path d="M 344.989 183.521 C 345.184 183.521 345.378 183.521 345.579 183.521 C 345.655 187.882 345.46 192.146 344.989 196.482 C 344.795 196.482 344.601 196.482 344.4 196.482 C 344.269 194.764 344.148 193.046 344.032 191.327 C 343.976 190.598 343.976 190.598 343.917 189.854 C 343.887 189.383 343.857 188.912 343.825 188.427 C 343.794 187.995 343.763 187.563 343.732 187.119 C 343.825 185.673 344.269 184.765 344.989 183.521 Z" fill="#ABAAE9" style="stroke-width: 1;"/><path d="M 217.739 254.805 C 217.934 254.805 218.128 254.805 218.328 254.805 C 218.523 257.721 218.717 260.637 218.917 263.641 C 218.723 263.641 218.529 263.641 218.328 263.641 C 218.134 265.002 217.94 266.363 217.739 267.765 C 217.545 267.765 217.35 267.765 217.15 267.765 C 217.089 263.39 217.151 259.143 217.739 254.805 Z" fill="#ABABE9" style="stroke-width: 1;"/><path d="M 61.036 354.955 C 61.616 355.538 62.196 356.122 62.8 356.722 C 62.216 356.528 61.636 356.334 61.036 356.133 C 61.036 355.745 61.036 355.356 61.036 354.955 Z" fill="#A6A5DC" style="stroke-width: 1;"/><path d="M 180.035 362.025 C 182.392 362.614 182.392 362.614 182.392 362.614 L 180.035 362.025 Z" fill="#A8A7DE" style="stroke-width: 1;"/><path d="M 337.92 254.215 C 338.509 256.572 338.509 256.572 338.509 256.572 L 337.92 254.215 Z" fill="#ACAAE5" style="stroke-width: 1;"/><path d="M 331.44 135.802 C 333.796 136.391 333.796 136.391 333.796 136.391 L 331.44 135.802 Z" fill="#AAA9E4" style="stroke-width: 1;"/><path d="M 260.156 343.173 C 261.923 343.762 261.923 343.762 261.923 343.762 L 260.156 343.173 Z" fill="#A8A8E0" style="stroke-width: 1;"/><path d="M 220.685 306.058 C 222.452 306.647 222.452 306.647 222.452 306.647 L 220.685 306.058 Z" fill="#ABAAE4" style="stroke-width: 1;"/><path d="M 137.03 300.756 C 138.797 301.345 138.797 301.345 138.797 301.345 L 137.03 300.756 Z" fill="#ABABE5" style="stroke-width: 1;"/><path d="M 281.953 291.919 C 283.721 292.508 283.721 292.508 283.721 292.508 L 281.953 291.919 Z" fill="#AAACE6" style="stroke-width: 1;"/><path d="M 357.361 129.911 C 359.128 130.5 359.128 130.5 359.128 130.5 L 357.361 129.911 Z" fill="#ABA9E4" style="stroke-width: 1;"/><path d="M 177.679 126.965 C 179.446 127.554 179.446 127.554 179.446 127.554 L 177.679 126.965 Z" fill="#A7A7DF" style="stroke-width: 1;"/><path d="M 385.05 126.376 C 386.817 126.965 386.817 126.965 386.817 126.965 L 385.05 126.376 Z" fill="#A9AAE4" style="stroke-width: 1;"/><path d="M 382.104 126.376 C 383.871 126.965 383.871 126.965 383.871 126.965 L 382.104 126.376 Z" fill="#AAA9E4" style="stroke-width: 1;"/><path d="M 375.624 79.836 C 377.391 80.425 377.391 80.425 377.391 80.425 L 375.624 79.836 Z" fill="#A5A6DB" style="stroke-width: 1;"/><path d="M 128.193 374.396 C 129.371 374.985 129.371 374.985 129.371 374.985 L 128.193 374.396 Z" fill="#A8A8DD" style="stroke-width: 1;"/><path d="M 79.296 370.861 C 80.474 371.45 80.474 371.45 80.474 371.45 L 79.296 370.861 Z" fill="#A6A8DE" style="stroke-width: 1;"/><path d="M 145.277 370.272 C 146.456 370.861 146.456 370.861 146.456 370.861 L 145.277 370.272 Z" fill="#A7A7DF" style="stroke-width: 1;"/><path d="M 161.184 366.738 C 162.362 367.327 162.362 367.327 162.362 367.327 L 161.184 366.738 Z" fill="#A8A7DF" style="stroke-width: 1;"/><path d="M 162.951 366.148 C 164.129 366.738 164.129 366.738 164.129 366.738 L 162.951 366.148 Z" fill="#A7A7DE" style="stroke-width: 1;"/><path d="M 190.64 359.668 C 191.818 360.257 191.818 360.257 191.818 360.257 L 190.64 359.668 Z" fill="#AAA8DD" style="stroke-width: 1;"/><path d="M 203.011 356.722 C 204.189 357.312 204.189 357.312 204.189 357.312 L 203.011 356.722 Z" fill="#A8A7DF" style="stroke-width: 1;"/><path d="M 208.313 355.544 C 209.492 356.133 209.492 356.133 209.492 356.133 L 208.313 355.544 Z" fill="#A8A7DE" style="stroke-width: 1;"/><path d="M 225.398 351.42 C 226.576 352.01 226.576 352.01 226.576 352.01 L 225.398 351.42 Z" fill="#A8A8DF" style="stroke-width: 1;"/><path d="M 270.76 340.816 C 271.938 341.405 271.938 341.405 271.938 341.405 L 270.76 340.816 Z" fill="#A9A8DE" style="stroke-width: 1;"/><path d="M 289.612 336.103 C 290.79 336.692 290.79 336.692 290.79 336.692 L 289.612 336.103 Z" fill="#A9A8DF" style="stroke-width: 1;"/><path d="M 302.573 333.158 C 303.751 333.747 303.751 333.747 303.751 333.747 L 302.573 333.158 Z" fill="#A8A8E0" style="stroke-width: 1;"/><path d="M 304.929 332.569 C 306.107 333.158 306.107 333.158 306.107 333.158 L 304.929 332.569 Z" fill="#AAA7DE" style="stroke-width: 1;"/><path d="M 256.621 297.81 C 257.799 298.399 257.799 298.399 257.799 298.399 L 256.621 297.81 Z" fill="#AAA9E3" style="stroke-width: 1;"/><path d="M 323.781 282.493 C 324.959 283.082 324.959 283.082 324.959 283.082 L 323.781 282.493 Z" fill="#ACACE5" style="stroke-width: 1;"/><path d="M 257.799 271.3 C 258.978 271.889 258.978 271.889 258.978 271.889 L 257.799 271.3 Z" fill="#AAA9E3" style="stroke-width: 1;"/><path d="M 277.24 266.587 C 278.419 267.176 278.419 267.176 278.419 267.176 L 277.24 266.587 Z" fill="#ABA9E5" style="stroke-width: 1;"/><path d="M 158.238 244.2 C 159.416 244.789 159.416 244.789 159.416 244.789 L 158.238 244.2 Z" fill="#A8A8E3" style="stroke-width: 1;"/><path d="M 164.129 243.022 C 165.307 243.611 165.307 243.611 165.307 243.611 L 164.129 243.022 Z" fill="#A9A8E4" style="stroke-width: 1;"/><path d="M 199.476 234.774 C 200.655 235.364 200.655 235.364 200.655 235.364 L 199.476 234.774 Z" fill="#AAA9E4" style="stroke-width: 1;"/><path d="M 347.346 230.651 C 348.524 231.24 348.524 231.24 348.524 231.24 L 347.346 230.651 Z" fill="#AAABE3" style="stroke-width: 1;"/><path d="M 366.787 225.938 C 367.965 226.527 367.965 226.527 367.965 226.527 L 366.787 225.938 Z" fill="#ACABE6" style="stroke-width: 1;"/><path d="M 195.353 212.977 C 196.531 213.566 196.531 213.566 196.531 213.566 L 195.353 212.977 Z" fill="#AAA9E3" style="stroke-width: 1;"/><path d="M 198.298 212.388 C 199.476 212.977 199.476 212.977 199.476 212.977 L 198.298 212.388 Z" fill="#AAA9E4" style="stroke-width: 1;"/><path d="M 346.168 205.907 C 347.346 206.497 347.346 206.497 347.346 206.497 L 346.168 205.907 Z" fill="#AAAAE4" style="stroke-width: 1;"/><path d="M 161.184 202.373 C 162.362 202.962 162.362 202.962 162.362 202.962 L 161.184 202.373 Z" fill="#AAA9E4" style="stroke-width: 1;"/><path d="M 363.252 201.194 C 364.43 201.784 364.43 201.784 364.43 201.784 L 363.252 201.194 Z" fill="#AAA9E4" style="stroke-width: 1;"/><path d="M 145.277 177.041 C 146.456 177.63 146.456 177.63 146.456 177.63 L 145.277 177.041 Z" fill="#AAA9E4" style="stroke-width: 1;"/><path d="M 234.824 158.189 C 236.002 158.778 236.002 158.778 236.002 158.778 L 234.824 158.189 Z" fill="#ABA8E5" style="stroke-width: 1;"/><path d="M 251.319 154.654 C 252.497 155.243 252.497 155.243 252.497 155.243 L 251.319 154.654 Z" fill="#AAA8E1" style="stroke-width: 1;"/><path d="M 102.861 145.817 C 104.039 146.406 104.039 146.406 104.039 146.406 L 102.861 145.817 Z" fill="#A8A8E0" style="stroke-width: 1;"/><path d="M 335.563 135.213 C 336.742 135.802 336.742 135.802 336.742 135.802 L 335.563 135.213 Z" fill="#AAA9E4" style="stroke-width: 1;"/><path d="M 337.92 134.624 C 339.098 135.213 339.098 135.213 339.098 135.213 L 337.92 134.624 Z" fill="#A9A8E5" style="stroke-width: 1;"/><path d="M 377.391 126.376 C 378.569 126.965 378.569 126.965 378.569 126.965 L 377.391 126.376 Z" fill="#AAA9E4" style="stroke-width: 1;"/><path d="M 375.624 126.376 C 376.802 126.965 376.802 126.965 376.802 126.965 L 375.624 126.376 Z" fill="#AAA8E3" style="stroke-width: 1;"/><path d="M 373.856 126.376 C 375.035 126.965 375.035 126.965 375.035 126.965 L 373.856 126.376 Z" fill="#AAAAE4" style="stroke-width: 1;"/><path d="M 277.24 103.4 C 278.419 103.989 278.419 103.989 278.419 103.989 L 277.24 103.4 Z" fill="#A6A6DF" style="stroke-width: 1;"/></g><path d="M -294.72 -324.63 C 43.2 -324.63 381.12 -324.63 729.28 -324.63 C 729.28 -324.3 729.28 -323.97 729.28 -323.63 C 391.69 -323.63 54.1 -323.63 -293.72 -323.63 C -293.72 13.958 -293.72 351.548 -293.72 699.368 C -294.05 699.368 -294.38 699.368 -294.72 699.368 C -294.72 361.448 -294.72 23.528 -294.72 -324.63 Z" fill="#747378" style="stroke-width: 1;"/><path d="M 220.28 698.368 C 277.7 698.368 335.12 698.368 394.28 698.368 C 394.28 698.698 394.28 699.028 394.28 699.368 C 336.86 699.368 279.44 699.368 220.28 699.368 C 220.28 699.038 220.28 698.708 220.28 698.368 Z" fill="#6B6A6E" style="stroke-width: 1;"/><path d="M 395.28 698.368 C 427.29 698.368 459.3 698.368 492.28 698.368 C 492.28 698.698 492.28 699.028 492.28 699.368 C 460.27 699.368 428.26 699.368 395.28 699.368 C 395.28 699.038 395.28 698.708 395.28 698.368 Z" fill="#646266" style="stroke-width: 1;"/><path d="M 3.28 698.368 C 21.43 698.368 39.58 698.368 58.28 698.368 C 58.28 698.698 58.28 699.028 58.28 699.368 C 40.13 699.368 21.98 699.368 3.28 699.368 C 3.28 699.038 3.28 698.708 3.28 698.368 Z" fill="#717075" style="stroke-width: 1;"/><path d="M 67.28 698.368 C 77.51 698.368 87.74 698.368 98.28 698.368 C 98.28 698.698 98.28 699.028 98.28 699.368 C 88.05 699.368 77.82 699.368 67.28 699.368 C 67.28 699.038 67.28 698.708 67.28 698.368 Z" fill="#716F74" style="stroke-width: 1;"/><path d="M -44.72 698.368 C -37.13 698.368 -29.54 698.368 -21.72 698.368 C -21.72 698.698 -21.72 699.028 -21.72 699.368 C -29.31 699.368 -36.9 699.368 -44.72 699.368 C -44.72 699.038 -44.72 698.708 -44.72 698.368 Z" fill="#706E73" style="stroke-width: 1;"/><path d="M -68.72 698.368 C -61.13 698.368 -53.54 698.368 -45.72 698.368 C -45.72 698.698 -45.72 699.028 -45.72 699.368 C -53.31 699.368 -60.9 699.368 -68.72 699.368 C -68.72 699.038 -68.72 698.708 -68.72 698.368 Z" fill="#6E6C71" style="stroke-width: 1;"/><path d="M 547.28 698.368 C 554.54 698.368 561.8 698.368 569.28 698.368 C 569.28 698.698 569.28 699.028 569.28 699.368 C 562.02 699.368 554.76 699.368 547.28 699.368 C 547.28 699.038 547.28 698.708 547.28 698.368 Z" fill="#575657" style="stroke-width: 1;"/><path d="M -98.72 698.368 C -91.79 698.368 -84.86 698.368 -77.72 698.368 C -77.72 698.698 -77.72 699.028 -77.72 699.368 C -84.65 699.368 -91.58 699.368 -98.72 699.368 C -98.72 699.038 -98.72 698.708 -98.72 698.368 Z" fill="#6B6A6E" style="stroke-width: 1;"/><path d="M 100.28 698.368 C 105.56 698.368 110.84 698.368 116.28 698.368 C 116.28 698.698 116.28 699.028 116.28 699.368 C 111 699.368 105.72 699.368 100.28 699.368 C 100.28 699.038 100.28 698.708 100.28 698.368 Z" fill="#706F74" style="stroke-width: 1;"/><path d="M -292.72 698.368 C -287.44 698.368 -282.16 698.368 -276.72 698.368 C -276.72 698.698 -276.72 699.028 -276.72 699.368 C -282 699.368 -287.28 699.368 -292.72 699.368 C -292.72 699.038 -292.72 698.708 -292.72 698.368 Z" fill="#636264" style="stroke-width: 1;"/><path d="M 659.28 698.368 C 664.23 698.368 669.18 698.368 674.28 698.368 C 674.28 698.698 674.28 699.028 674.28 699.368 C 669.33 699.368 664.38 699.368 659.28 699.368 C 659.28 699.038 659.28 698.708 659.28 698.368 Z" fill="#504F51" style="stroke-width: 1;"/><path d="M 139.28 698.368 C 144.23 698.368 149.18 698.368 154.28 698.368 C 154.28 698.698 154.28 699.028 154.28 699.368 C 149.33 699.368 144.38 699.368 139.28 699.368 C 139.28 699.038 139.28 698.708 139.28 698.368 Z" fill="#706E73" style="stroke-width: 1;"/><path d="M -12.72 698.368 C -7.77 698.368 -2.82 698.368 2.28 698.368 C 2.28 698.698 2.28 699.028 2.28 699.368 C -2.67 699.368 -7.62 699.368 -12.72 699.368 C -12.72 699.038 -12.72 698.708 -12.72 698.368 Z" fill="#717075" style="stroke-width: 1;"/><path d="M -148.72 698.368 C -143.77 698.368 -138.82 698.368 -133.72 698.368 C -133.72 698.698 -133.72 699.028 -133.72 699.368 C -138.67 699.368 -143.62 699.368 -148.72 699.368 C -148.72 699.038 -148.72 698.708 -148.72 698.368 Z" fill="#666568" style="stroke-width: 1;"/><path d="M -260.72 698.368 C -255.77 698.368 -250.82 698.368 -245.72 698.368 C -245.72 698.698 -245.72 699.028 -245.72 699.368 C -250.67 699.368 -255.62 699.368 -260.72 699.368 C -260.72 699.038 -260.72 698.708 -260.72 698.368 Z" fill="#5F5E60" style="stroke-width: 1;"/><path d="M 715.28 698.368 C 719.9 698.368 724.52 698.368 729.28 698.368 C 729.28 698.698 729.28 699.028 729.28 699.368 C 724.66 699.368 720.04 699.368 715.28 699.368 C 715.28 699.038 715.28 698.708 715.28 698.368 Z" fill="#504F51" style="stroke-width: 1;"/><path d="M 124.28 698.368 C 128.9 698.368 133.52 698.368 138.28 698.368 C 138.28 698.698 138.28 699.028 138.28 699.368 C 133.66 699.368 129.04 699.368 124.28 699.368 C 124.28 699.038 124.28 698.708 124.28 698.368 Z" fill="#706E73" style="stroke-width: 1;"/><path d="M -226.72 698.368 C -222.43 698.368 -218.14 698.368 -213.72 698.368 C -213.72 698.698 -213.72 699.028 -213.72 699.368 C -218.01 699.368 -222.3 699.368 -226.72 699.368 C -226.72 699.038 -226.72 698.708 -226.72 698.368 Z" fill="#5E5D60" style="stroke-width: 1;"/><path d="M 206.28 698.368 C 209.91 698.368 213.54 698.368 217.28 698.368 C 217.28 698.698 217.28 699.028 217.28 699.368 C 213.65 699.368 210.02 699.368 206.28 699.368 C 206.28 699.038 206.28 698.708 206.28 698.368 Z" fill="#6F6D71" style="stroke-width: 1;"/><path d="M -112.72 698.368 C -109.09 698.368 -105.46 698.368 -101.72 698.368 C -101.72 698.698 -101.72 699.028 -101.72 699.368 C -105.35 699.368 -108.98 699.368 -112.72 699.368 C -112.72 699.038 -112.72 698.708 -112.72 698.368 Z" fill="#6A696D" style="stroke-width: 1;"/><path d="M 195.28 698.368 C 198.58 698.368 201.88 698.368 205.28 698.368 C 205.28 698.698 205.28 699.028 205.28 699.368 C 201.98 699.368 198.68 699.368 195.28 699.368 C 195.28 699.038 195.28 698.708 195.28 698.368 Z" fill="#6F6C72" style="stroke-width: 1;"/><path d="M 609.28 698.368 C 612.25 698.368 615.22 698.368 618.28 698.368 C 618.28 698.698 618.28 699.028 618.28 699.368 C 615.31 699.368 612.34 699.368 609.28 699.368 C 609.28 699.038 609.28 698.708 609.28 698.368 Z" fill="#535253" style="stroke-width: 1;"/><path d="M 650.28 698.368 C 652.92 698.368 655.56 698.368 658.28 698.368 C 658.28 698.698 658.28 699.028 658.28 699.368 C 655.64 699.368 653 699.368 650.28 699.368 C 650.28 699.038 650.28 698.708 650.28 698.368 Z" fill="#504F50" style="stroke-width: 1;"/><path d="M 707.28 698.368 C 709.59 698.368 711.9 698.368 714.28 698.368 C 714.28 698.698 714.28 699.028 714.28 699.368 C 711.97 699.368 709.66 699.368 707.28 699.368 C 707.28 699.038 707.28 698.708 707.28 698.368 Z" fill="#505051" style="stroke-width: 1;"/><path d="M 699.28 698.368 C 701.59 698.368 703.9 698.368 706.28 698.368 C 706.28 698.698 706.28 699.028 706.28 699.368 C 703.97 699.368 701.66 699.368 699.28 699.368 C 699.28 699.038 699.28 698.708 699.28 698.368 Z" fill="#504F51" style="stroke-width: 1;"/><path d="M 691.28 698.368 C 693.59 698.368 695.9 698.368 698.28 698.368 C 698.28 698.698 698.28 699.028 698.28 699.368 C 695.97 699.368 693.66 699.368 691.28 699.368 C 691.28 699.038 691.28 698.708 691.28 698.368 Z" fill="#505051" style="stroke-width: 1;"/><path d="M 683.28 698.368 C 685.59 698.368 687.9 698.368 690.28 698.368 C 690.28 698.698 690.28 699.028 690.28 699.368 C 687.97 699.368 685.66 699.368 683.28 699.368 C 683.28 699.038 683.28 698.708 683.28 698.368 Z" fill="#504F50" style="stroke-width: 1;"/><path d="M 675.28 698.368 C 677.59 698.368 679.9 698.368 682.28 698.368 C 682.28 698.698 682.28 699.028 682.28 699.368 C 679.97 699.368 677.66 699.368 675.28 699.368 C 675.28 699.038 675.28 698.708 675.28 698.368 Z" fill="#504F50" style="stroke-width: 1;"/><path d="M 635.28 698.368 C 637.59 698.368 639.9 698.368 642.28 698.368 C 642.28 698.698 642.28 699.028 642.28 699.368 C 639.97 699.368 637.66 699.368 635.28 699.368 C 635.28 699.038 635.28 698.708 635.28 698.368 Z" fill="#505051" style="stroke-width: 1;"/><path d="M 587.28 698.368 C 589.59 698.368 591.9 698.368 594.28 698.368 C 594.28 698.698 594.28 699.028 594.28 699.368 C 591.97 699.368 589.66 699.368 587.28 699.368 C 587.28 699.038 587.28 698.708 587.28 698.368 Z" fill="#535255" style="stroke-width: 1;"/><path d="M 579.28 698.368 C 581.59 698.368 583.9 698.368 586.28 698.368 C 586.28 698.698 586.28 699.028 586.28 699.368 C 583.97 699.368 581.66 699.368 579.28 699.368 C 579.28 699.038 579.28 698.708 579.28 698.368 Z" fill="#545455" style="stroke-width: 1;"/><path d="M 531.28 698.368 C 533.59 698.368 535.9 698.368 538.28 698.368 C 538.28 698.698 538.28 699.028 538.28 699.368 C 535.97 699.368 533.66 699.368 531.28 699.368 C 531.28 699.038 531.28 698.708 531.28 698.368 Z" fill="#59585A" style="stroke-width: 1;"/><path d="M 523.28 698.368 C 525.59 698.368 527.9 698.368 530.28 698.368 C 530.28 698.698 530.28 699.028 530.28 699.368 C 527.97 699.368 525.66 699.368 523.28 699.368 C 523.28 699.038 523.28 698.708 523.28 698.368 Z" fill="#5A595A" style="stroke-width: 1;"/><path d="M 515.28 698.368 C 517.59 698.368 519.9 698.368 522.28 698.368 C 522.28 698.698 522.28 699.028 522.28 699.368 C 519.97 699.368 517.66 699.368 515.28 699.368 C 515.28 699.038 515.28 698.708 515.28 698.368 Z" fill="#5A595C" style="stroke-width: 1;"/><path d="M 171.28 698.368 C 173.59 698.368 175.9 698.368 178.28 698.368 C 178.28 698.698 178.28 699.028 178.28 699.368 C 175.97 699.368 173.66 699.368 171.28 699.368 C 171.28 699.038 171.28 698.708 171.28 698.368 Z" fill="#6F6E73" style="stroke-width: 1;"/><path d="M 163.28 698.368 C 165.59 698.368 167.9 698.368 170.28 698.368 C 170.28 698.698 170.28 699.028 170.28 699.368 C 167.97 699.368 165.66 699.368 163.28 699.368 C 163.28 699.038 163.28 698.708 163.28 698.368 Z" fill="#706E72" style="stroke-width: 1;"/><path d="M 155.28 698.368 C 157.59 698.368 159.9 698.368 162.28 698.368 C 162.28 698.698 162.28 699.028 162.28 699.368 C 159.97 699.368 157.66 699.368 155.28 699.368 C 155.28 699.038 155.28 698.708 155.28 698.368 Z" fill="#6F6D73" style="stroke-width: 1;"/><path d="M -20.72 698.368 C -18.41 698.368 -16.1 698.368 -13.72 698.368 C -13.72 698.698 -13.72 699.028 -13.72 699.368 C -16.03 699.368 -18.34 699.368 -20.72 699.368 C -20.72 699.038 -20.72 698.708 -20.72 698.368 Z" fill="#716F74" style="stroke-width: 1;"/><path d="M -76.72 698.368 C -74.41 698.368 -72.1 698.368 -69.72 698.368 C -69.72 698.698 -69.72 699.028 -69.72 699.368 C -72.03 699.368 -74.34 699.368 -76.72 699.368 C -76.72 699.038 -76.72 698.708 -76.72 698.368 Z" fill="#6D6B6F" style="stroke-width: 1;"/><path d="M -188.72 698.368 C -186.41 698.368 -184.1 698.368 -181.72 698.368 C -181.72 698.698 -181.72 699.028 -181.72 699.368 C -184.03 699.368 -186.34 699.368 -188.72 699.368 C -188.72 699.038 -188.72 698.708 -188.72 698.368 Z" fill="#605F61" style="stroke-width: 1;"/><path d="M -204.72 698.368 C -202.41 698.368 -200.1 698.368 -197.72 698.368 C -197.72 698.698 -197.72 699.028 -197.72 699.368 C -200.03 699.368 -202.34 699.368 -204.72 699.368 C -204.72 699.038 -204.72 698.708 -204.72 698.368 Z" fill="#5F5E60" style="stroke-width: 1;"/><path d="M -236.72 698.368 C -234.41 698.368 -232.1 698.368 -229.72 698.368 C -229.72 698.698 -229.72 699.028 -229.72 699.368 C -232.03 699.368 -234.34 699.368 -236.72 699.368 C -236.72 699.038 -236.72 698.708 -236.72 698.368 Z" fill="#5D5D60" style="stroke-width: 1;"/><path d="M -268.72 698.368 C -266.41 698.368 -264.1 698.368 -261.72 698.368 C -261.72 698.698 -261.72 699.028 -261.72 699.368 C -264.03 699.368 -266.34 699.368 -268.72 699.368 C -268.72 699.038 -268.72 698.708 -268.72 698.368 Z" fill="#605F61" style="stroke-width: 1;"/><path d="M 643.28 698.368 C 645.26 698.368 647.24 698.368 649.28 698.368 C 649.28 698.698 649.28 699.028 649.28 699.368 C 647.3 699.368 645.32 699.368 643.28 699.368 C 643.28 699.038 643.28 698.708 643.28 698.368 Z" fill="#505051" style="stroke-width: 1;"/><path d="M 572.28 698.368 C 574.26 698.368 576.24 698.368 578.28 698.368 C 578.28 698.698 578.28 699.028 578.28 699.368 C 576.3 699.368 574.32 699.368 572.28 699.368 C 572.28 699.038 572.28 698.708 572.28 698.368 Z" fill="#555455" style="stroke-width: 1;"/><path d="M 540.28 698.368 C 542.26 698.368 544.24 698.368 546.28 698.368 C 546.28 698.698 546.28 699.028 546.28 699.368 C 544.3 699.368 542.32 699.368 540.28 699.368 C 540.28 699.038 540.28 698.708 540.28 698.368 Z" fill="#585759" style="stroke-width: 1;"/><path d="M 500.28 698.368 C 502.26 698.368 504.24 698.368 506.28 698.368 C 506.28 698.698 506.28 699.028 506.28 699.368 C 504.3 699.368 502.32 699.368 500.28 699.368 C 500.28 699.038 500.28 698.708 500.28 698.368 Z" fill="#5C5B5E" style="stroke-width: 1;"/><path d="M 59.28 698.368 C 61.26 698.368 63.24 698.368 65.28 698.368 C 65.28 698.698 65.28 699.028 65.28 699.368 C 63.3 699.368 61.32 699.368 59.28 699.368 C 59.28 699.038 59.28 698.708 59.28 698.368 Z" fill="#717076" style="stroke-width: 1;"/><path d="M -132.72 698.368 C -130.74 698.368 -128.76 698.368 -126.72 698.368 C -126.72 698.698 -126.72 699.028 -126.72 699.368 C -128.7 699.368 -130.68 699.368 -132.72 699.368 C -132.72 699.038 -132.72 698.708 -132.72 698.368 Z" fill="#686669" style="stroke-width: 1;"/><path d="M -196.72 698.368 C -194.74 698.368 -192.76 698.368 -190.72 698.368 C -190.72 698.698 -190.72 699.028 -190.72 699.368 C -192.7 699.368 -194.68 699.368 -196.72 699.368 C -196.72 699.038 -196.72 698.708 -196.72 698.368 Z" fill="#5F5E60" style="stroke-width: 1;"/><path d="M 629.28 698.368 C 630.93 698.368 632.58 698.368 634.28 698.368 C 634.28 698.698 634.28 699.028 634.28 699.368 C 632.63 699.368 630.98 699.368 629.28 699.368 C 629.28 699.038 629.28 698.708 629.28 698.368 Z" fill="#525152" style="stroke-width: 1;"/><path d="M 621.28 698.368 C 622.93 698.368 624.58 698.368 626.28 698.368 C 626.28 698.698 626.28 699.028 626.28 699.368 C 624.63 699.368 622.98 699.368 621.28 699.368 C 621.28 699.038 621.28 698.708 621.28 698.368 Z" fill="#525153" style="stroke-width: 1;"/><path d="M 597.28 698.368 C 598.93 698.368 600.58 698.368 602.28 698.368 C 602.28 698.698 602.28 699.028 602.28 699.368 C 600.63 699.368 598.98 699.368 597.28 699.368 C 597.28 699.038 597.28 698.708 597.28 698.368 Z" fill="#535254" style="stroke-width: 1;"/><path d="M 509.28 698.368 C 510.93 698.368 512.58 698.368 514.28 698.368 C 514.28 698.698 514.28 699.028 514.28 699.368 C 512.63 699.368 510.98 699.368 509.28 699.368 C 509.28 699.038 509.28 698.708 509.28 698.368 Z" fill="#5B5B5D" style="stroke-width: 1;"/><path d="M 493.28 698.368 C 494.93 698.368 496.58 698.368 498.28 698.368 C 498.28 698.698 498.28 699.028 498.28 699.368 C 496.63 699.368 494.98 699.368 493.28 699.368 C 493.28 699.038 493.28 698.708 493.28 698.368 Z" fill="#5E5C60" style="stroke-width: 1;"/><path d="M 189.28 698.368 C 190.93 698.368 192.58 698.368 194.28 698.368 C 194.28 698.698 194.28 699.028 194.28 699.368 C 192.63 699.368 190.98 699.368 189.28 699.368 C 189.28 699.038 189.28 698.708 189.28 698.368 Z" fill="#6F6D72" style="stroke-width: 1;"/><path d="M 181.28 698.368 C 182.93 698.368 184.58 698.368 186.28 698.368 C 186.28 698.698 186.28 699.028 186.28 699.368 C 184.63 699.368 182.98 699.368 181.28 699.368 C 181.28 699.038 181.28 698.708 181.28 698.368 Z" fill="#6F6D72" style="stroke-width: 1;"/><path d="M -164.72 698.368 C -163.07 698.368 -161.42 698.368 -159.72 698.368 C -159.72 698.698 -159.72 699.028 -159.72 699.368 C -161.37 699.368 -163.02 699.368 -164.72 699.368 C -164.72 699.038 -164.72 698.708 -164.72 698.368 Z" fill="#626163" style="stroke-width: 1;"/><path d="M -170.72 698.368 C -169.07 698.368 -167.42 698.368 -165.72 698.368 C -165.72 698.698 -165.72 699.028 -165.72 699.368 C -167.37 699.368 -169.02 699.368 -170.72 699.368 C -170.72 699.038 -170.72 698.708 -170.72 698.368 Z" fill="#616163" style="stroke-width: 1;"/><path d="M 118.28 698.368 C 122.28 699.368 122.28 699.368 122.28 699.368 L 118.28 698.368 Z" fill="#706F74" style="stroke-width: 1;"/><path d="M -121.72 698.368 C -117.72 699.368 -117.72 699.368 -117.72 699.368 L -121.72 698.368 Z" fill="#69686B" style="stroke-width: 1;"/><path d="M -210.72 698.368 C -206.72 699.368 -206.72 699.368 -206.72 699.368 L -210.72 698.368 Z" fill="#5F5F60" style="stroke-width: 1;"/><path d="M -241.72 698.368 C -237.72 699.368 -237.72 699.368 -237.72 699.368 L -241.72 698.368 Z" fill="#5E5D5F" style="stroke-width: 1;"/><path d="M -273.72 698.368 C -269.72 699.368 -269.72 699.368 -269.72 699.368 L -273.72 698.368 Z" fill="#616062" style="stroke-width: 1;"/><path d="M 605.28 698.368 C 608.28 699.368 608.28 699.368 608.28 699.368 L 605.28 698.368 Z" fill="#525153" style="stroke-width: 1;"/><path fill="#A6A6DE" style="stroke-width: 1;"/><path fill="#ABA9E4" style="stroke-width: 1;"/><path fill="#ACAAE4" style="stroke-width: 1;"/><path fill="#AAA9E4" style="stroke-width: 1;"/><path fill="#A9AAE4" style="stroke-width: 1;"/><path fill="#AAA9E4" style="stroke-width: 1;"/><path fill="#AAAAE6" style="stroke-width: 1;"/><path fill="#AAA9E4" style="stroke-width: 1;"/><path d="M -153.72 698.368 C -151.72 699.368 -151.72 699.368 -151.72 699.368 L -153.72 698.368 Z" fill="#636367" style="stroke-width: 1;"/><path fill="#A7A8DE" style="stroke-width: 1;"/><path fill="#A8A7DF" style="stroke-width: 1;"/><path fill="#ACA9E4" style="stroke-width: 1;"/><path fill="#AAA8E3" style="stroke-width: 1;"/><path fill="#AAAAE3" style="stroke-width: 1;"/><path fill="#A9ABE5" style="stroke-width: 1;"/><path fill="#ABA9E5" style="stroke-width: 1;"/><path fill="#AAABE3" style="stroke-width: 1;"/><path fill="#AAA9E3" style="stroke-width: 1;"/><path fill="#A9A9E5" style="stroke-width: 1;"/><path fill="#AAA8E6" style="stroke-width: 1;"/><path fill="#ABABE6" style="stroke-width: 1;"/><path fill="#ACAAE7" style="stroke-width: 1;"/><path fill="#A9A8E0" style="stroke-width: 1;"/><path fill="#AAA8E2" style="stroke-width: 1;"/><path fill="#A9A9E4" style="stroke-width: 1;"/><path fill="#535151" style="stroke-width: 1;"/><path fill="#535253" style="stroke-width: 1;"/><path fill="#545453" style="stroke-width: 1;"/><path fill="#6B696D" style="stroke-width: 1;"/><path fill="#646367" style="stroke-width: 1;"/><path fill="#646465" style="stroke-width: 1;"/><path fill="#615F62" style="stroke-width: 1;"/><path fill="#615F60" style="stroke-width: 1;"/><path fill="#605E60" style="stroke-width: 1;"/><path fill="#5F5E61" style="stroke-width: 1;"/><path fill="#A8A6DE" style="stroke-width: 1;"/><path fill="#A9A9DF" style="stroke-width: 1;"/><path fill="#A7A5DC" style="stroke-width: 1;"/><path fill="#A7A7DD" style="stroke-width: 1;"/><path fill="#A8A8DE" style="stroke-width: 1;"/><path fill="#A8A6DE" style="stroke-width: 1;"/><path fill="#A4A6DE" style="stroke-width: 1;"/><path fill="#A6A8DE" style="stroke-width: 1;"/><path fill="#A8A7DE" style="stroke-width: 1;"/><path fill="#A6A6DD" style="stroke-width: 1;"/><path fill="#A6A6DC" style="stroke-width: 1;"/><path fill="#AAA9E0" style="stroke-width: 1;"/><path fill="#A7A8DE" style="stroke-width: 1;"/><path fill="#A8A7DF" style="stroke-width: 1;"/><path fill="#A9A7DF" style="stroke-width: 1;"/><path fill="#A8A8DF" style="stroke-width: 1;"/><path fill="#A8A7DF" style="stroke-width: 1;"/><path fill="#A5A5DA" style="stroke-width: 1;"/><path fill="#A6A7DF" style="stroke-width: 1;"/><path fill="#A7A8DE" style="stroke-width: 1;"/><path fill="#A7A7DD" style="stroke-width: 1;"/><path fill="#A8A6DD" style="stroke-width: 1;"/><path fill="#A8A7DF" style="stroke-width: 1;"/><path fill="#A9A9DF" style="stroke-width: 1;"/><path fill="#A7A9DF" style="stroke-width: 1;"/><path fill="#A8A6DE" style="stroke-width: 1;"/><path fill="#A9A8DE" style="stroke-width: 1;"/><path fill="#A8A7DF" style="stroke-width: 1;"/><path fill="#A7A5DE" style="stroke-width: 1;"/><path fill="#A9A8E0" style="stroke-width: 1;"/><path fill="#A9AAE1" style="stroke-width: 1;"/><path fill="#A7A7DF" style="stroke-width: 1;"/><path fill="#A8AADD" style="stroke-width: 1;"/><path fill="#AAA6E1" style="stroke-width: 1;"/><path fill="#A5A8DD" style="stroke-width: 1;"/><path fill="#A6A7DE" style="stroke-width: 1;"/><path fill="#A8A6DF" style="stroke-width: 1;"/><path fill="#A9A7DE" style="stroke-width: 1;"/><path fill="#A8A6DC" style="stroke-width: 1;"/><path fill="#A8A9DF" style="stroke-width: 1;"/><path fill="#A8AADF" style="stroke-width: 1;"/><path fill="#ABA7DF" style="stroke-width: 1;"/><path fill="#AAAAE0" style="stroke-width: 1;"/><path fill="#A9A9E3" style="stroke-width: 1;"/><path fill="#A8A6DF" style="stroke-width: 1;"/><path fill="#A8AADF" style="stroke-width: 1;"/><path fill="#ABAAE4" style="stroke-width: 1;"/><path fill="#A7A8E2" style="stroke-width: 1;"/><path fill="#AAAAE6" style="stroke-width: 1;"/><path fill="#A9A7E3" style="stroke-width: 1;"/><path fill="#A9ABE5" style="stroke-width: 1;"/><path fill="#A7A8DE" style="stroke-width: 1;"/><path fill="#A8A9E0" style="stroke-width: 1;"/><path fill="#ABA8DF" style="stroke-width: 1;"/><path fill="#A9A9E0" style="stroke-width: 1;"/><path fill="#A7A7E0" style="stroke-width: 1;"/><path fill="#A6A7DF" style="stroke-width: 1;"/><path fill="#A7A7DE" style="stroke-width: 1;"/><path fill="#A6A6DC" style="stroke-width: 1;"/><path fill="#ABA9E6" style="stroke-width: 1;"/><path fill="#ABAAE3" style="stroke-width: 1;"/><path fill="#A9AAE5" style="stroke-width: 1;"/><path fill="#A6A8E0" style="stroke-width: 1;"/><path fill="#AAABE7" style="stroke-width: 1;"/><path fill="#ACAAE6" style="stroke-width: 1;"/><path fill="#AAABE4" style="stroke-width: 1;"/><path fill="#AAAAE3" style="stroke-width: 1;"/><path fill="#ABAAE4" style="stroke-width: 1;"/><path fill="#ABA9E1" style="stroke-width: 1;"/><path fill="#AAA9E3" style="stroke-width: 1;"/><path fill="#AAABE5" style="stroke-width: 1;"/><path fill="#ACAAE3" style="stroke-width: 1;"/><path fill="#ABA8E4" style="stroke-width: 1;"/><path fill="#A9A9E4" style="stroke-width: 1;"/><path fill="#ACAAE3" style="stroke-width: 1;"/><path fill="#A9A9E7" style="stroke-width: 1;"/><path fill="#AEABE5" style="stroke-width: 1;"/><path fill="#ABA8E4" style="stroke-width: 1;"/><path fill="#AAA8E4" style="stroke-width: 1;"/><path fill="#AEA9E4" style="stroke-width: 1;"/><path fill="#ABA9E4" style="stroke-width: 1;"/><path fill="#A9A9E5" style="stroke-width: 1;"/><path fill="#AAA9E5" style="stroke-width: 1;"/><path fill="#ABA9E6" style="stroke-width: 1;"/><path fill="#AAAAE6" style="stroke-width: 1;"/><path fill="#AEABE4" style="stroke-width: 1;"/><path fill="#ABA9E4" style="stroke-width: 1;"/><path fill="#ABA9E5" style="stroke-width: 1;"/><path fill="#ADABE5" style="stroke-width: 1;"/><path fill="#AAAAE4" style="stroke-width: 1;"/><path fill="#ABAAE5" style="stroke-width: 1;"/><path fill="#ABAAE6" style="stroke-width: 1;"/><path fill="#ABAAE5" style="stroke-width: 1;"/><path fill="#ABABE7" style="stroke-width: 1;"/><path fill="#ACACE7" style="stroke-width: 1;"/><path fill="#ABA9E5" style="stroke-width: 1;"/><path fill="#AAA8E4" style="stroke-width: 1;"/><path fill="#AAAAE7" style="stroke-width: 1;"/><path fill="#ABAAE1" style="stroke-width: 1;"/><path fill="#ABAAE5" style="stroke-width: 1;"/><path fill="#ACABE6" style="stroke-width: 1;"/><path fill="#AAA9E4" style="stroke-width: 1;"/><path fill="#ABA9E3" style="stroke-width: 1;"/><path fill="#ABA8E2" style="stroke-width: 1;"/><path fill="#A9A7E4" style="stroke-width: 1;"/><path fill="#ABAAE6" style="stroke-width: 1;"/><path fill="#ABA9E5" style="stroke-width: 1;"/><path fill="#A9A8DD" style="stroke-width: 1;"/><path fill="#AAA8E5" style="stroke-width: 1;"/><path fill="#A9A9E1" style="stroke-width: 1;"/><path fill="#ACA9E4" style="stroke-width: 1;"/><path fill="#A8A9E0" style="stroke-width: 1;"/><path fill="#AAAAE5" style="stroke-width: 1;"/><path fill="#ABA9E6" style="stroke-width: 1;"/><path fill="#ABA9E4" style="stroke-width: 1;"/><path fill="#ABAAE4" style="stroke-width: 1;"/><path fill="#ABA5E2" style="stroke-width: 1;"/><path fill="#AAA9E3" style="stroke-width: 1;"/><path fill="#A9A7E3" style="stroke-width: 1;"/><path fill="#A9A7E5" style="stroke-width: 1;"/><path fill="#ABAAE5" style="stroke-width: 1;"/><path fill="#A8AAE6" style="stroke-width: 1;"/><path fill="#A9A9E3" style="stroke-width: 1;"/><path fill="#AAAAE4" style="stroke-width: 1;"/><path fill="#ABAAE4" style="stroke-width: 1;"/><path fill="#A9A9E4" style="stroke-width: 1;"/><path fill="#A5A6DF" style="stroke-width: 1;"/><path fill="#AAAAE4" style="stroke-width: 1;"/><path fill="#ACA8E4" style="stroke-width: 1;"/><path fill="#A9A8E3" style="stroke-width: 1;"/><path fill="#AAA9E2" style="stroke-width: 1;"/><path fill="#A9A9E2" style="stroke-width: 1;"/><path fill="#A9ACE4" style="stroke-width: 1;"/><path fill="#AAA8E1" style="stroke-width: 1;"/><path fill="#ABABE5" style="stroke-width: 1;"/><path fill="#A9A9E4" style="stroke-width: 1;"/><path fill="#ABA9E4" style="stroke-width: 1;"/><path fill="#ABA7E4" style="stroke-width: 1;"/><path fill="#AEACE7" style="stroke-width: 1;"/><path fill="#ADA9E4" style="stroke-width: 1;"/><path fill="#AAAAE3" style="stroke-width: 1;"/><path fill="#ACABE4" style="stroke-width: 1;"/><path fill="#A8AAE1" style="stroke-width: 1;"/><path fill="#ACABE5" style="stroke-width: 1;"/><path fill="#ADAAE5" style="stroke-width: 1;"/><path fill="#A9A9E1" style="stroke-width: 1;"/><path fill="#ADABE6" style="stroke-width: 1;"/><path fill="#ABA8E5" style="stroke-width: 1;"/><path fill="#A9A9E5" style="stroke-width: 1;"/><path fill="#ACA8E5" style="stroke-width: 1;"/><path fill="#A9A8E4" style="stroke-width: 1;"/><path fill="#A9A7E3" style="stroke-width: 1;"/><path fill="#AAAAE2" style="stroke-width: 1;"/><path fill="#AAA8E5" style="stroke-width: 1;"/><path fill="#AAA8E1" style="stroke-width: 1;"/><path fill="#A9A9E6" style="stroke-width: 1;"/><path fill="#A9A9E3" style="stroke-width: 1;"/><path fill="#ABABE4" style="stroke-width: 1;"/><path fill="#ACACE5" style="stroke-width: 1;"/><path fill="#AAA9E3" style="stroke-width: 1;"/><path fill="#ADA9E3" style="stroke-width: 1;"/><path fill="#AAA9E3" style="stroke-width: 1;"/><path fill="#ABA7E3" style="stroke-width: 1;"/><path fill="#AAA8E2" style="stroke-width: 1;"/><path fill="#ABA9E3" style="stroke-width: 1;"/><path fill="#AAACE5" style="stroke-width: 1;"/><path fill="#AAA8E5" style="stroke-width: 1;"/><path fill="#AAAAE4" style="stroke-width: 1;"/><path fill="#A8A9E5" style="stroke-width: 1;"/><path fill="#A7A8E4" style="stroke-width: 1;"/><path fill="#ADAAE5" style="stroke-width: 1;"/><path fill="#AAAAE5" style="stroke-width: 1;"/><path fill="#ACABE3" style="stroke-width: 1;"/><path fill="#AAA9E4" style="stroke-width: 1;"/><path fill="#ABA7E2" style="stroke-width: 1;"/><path fill="#ABAAE4" style="stroke-width: 1;"/><path fill="#AAAAE4" style="stroke-width: 1;"/><path fill="#A9A7DA" style="stroke-width: 1;"/><path fill="#A9ABE5" style="stroke-width: 1;"/><path fill="#A7A4DE" style="stroke-width: 1;"/><path fill="#ACABE5" style="stroke-width: 1;"/><path fill="#AAABE4" style="stroke-width: 1;"/><path fill="#AAA9E4" style="stroke-width: 1;"/><path fill="#ABA9E3" style="stroke-width: 1;"/><path fill="#A9A8E3" style="stroke-width: 1;"/><path fill="#ABA8E6" style="stroke-width: 1;"/><path fill="#AAA7E0" style="stroke-width: 1;"/><path fill="#ABAAE4" style="stroke-width: 1;"/><path fill="#ABABE2" style="stroke-width: 1;"/><path fill="#A8A7DC" style="stroke-width: 1;"/><path fill="#ABA9E2" style="stroke-width: 1;"/><path fill="#858191" style="stroke-width: 1;"/><path fill="#A8A9E3" style="stroke-width: 1;"/><path fill="#AAA9E4" style="stroke-width: 1;"/><path fill="#ABA8E3" style="stroke-width: 1;"/><path fill="#A9A8E2" style="stroke-width: 1;"/><path fill="#A7A6E0" style="stroke-width: 1;"/><path fill="#A6A6DE" style="stroke-width: 1;"/><path fill="#ABAAE5" style="stroke-width: 1;"/><path fill="#ACAAE6" style="stroke-width: 1;"/><path fill="#AAA7DF" style="stroke-width: 1;"/><path fill="#A8A4DF" style="stroke-width: 1;"/><path fill="#A8A7DE" style="stroke-width: 1;"/><path fill="#A9A8E2" style="stroke-width: 1;"/><path fill="#A9A8E3" style="stroke-width: 1;"/><path fill="#A6A7DC" style="stroke-width: 1;"/><path fill="#AAABE5" style="stroke-width: 1;"/><path fill="#A9A7E0" style="stroke-width: 1;"/><path fill="#AAA5DE" style="stroke-width: 1;"/><path fill="#AAA7DF" style="stroke-width: 1;"/><path fill="#A6A8E0" style="stroke-width: 1;"/><path fill="#A7A7DE" style="stroke-width: 1;"/><path fill="#A6A5DE" style="stroke-width: 1;"/><path fill="#A6A5DB" style="stroke-width: 1;"/><path fill="#A7A8DD" style="stroke-width: 1;"/><path fill="#A7A4DB" style="stroke-width: 1;"/><path fill="#A6A5DD" style="stroke-width: 1;"/><path fill="#A7A6DD" style="stroke-width: 1;"/><path fill="#A8A4DD" style="stroke-width: 1;"/><path fill="#A6A3DA" style="stroke-width: 1;"/><path fill="#AAA7DC" style="stroke-width: 1;"/><path fill="#A7A5DC" style="stroke-width: 1;"/></svg>