<?xml version="1.0" encoding="UTF-8"?>
<svg version="1.1" xmlns="http://www.w3.org/2000/svg" width="1024" height="1024">
<path d="M0 0 C3.33556643 4.32722131 5.12232859 7.76089239 5.13142776 13.2187624 C5.13526891 14.08346726 5.13911005 14.94817212 5.1430676 15.83908015 C5.14220112 16.78963808 5.14133463 17.74019601 5.14044189 18.71955872 C5.14489858 20.23379355 5.14489858 20.23379355 5.1494453 21.77861899 C5.15815022 25.17769764 5.1596421 28.57674115 5.16113281 31.97583008 C5.16575993 34.40672888 5.17078444 36.83762695 5.17617798 39.26852417 C5.18931922 45.88684323 5.19578778 52.50515497 5.20018864 59.1234839 C5.20295232 63.25992794 5.20719011 67.39636965 5.21169281 71.53281212 C5.22388998 82.99444971 5.23418588 94.45608543 5.2375679 105.91772938 C5.23778747 106.65153735 5.23800703 107.38534531 5.23823325 108.14138989 C5.23845153 108.87693121 5.23866981 109.61247253 5.2388947 110.37030298 C5.23933816 111.86071956 5.23978472 113.35113615 5.24023438 114.84155273 C5.2404558 115.58084696 5.24067723 116.32014119 5.24090537 117.08183827 C5.24484623 129.03852511 5.26227641 140.99515074 5.2855939 152.95181397 C5.30936284 165.23973382 5.3217724 177.52762305 5.32293582 189.81556624 C5.32384989 196.70964144 5.32953356 203.60363704 5.34775543 210.4976902 C5.36485755 216.99096211 5.36636769 223.48412371 5.35761642 229.97741318 C5.35684853 232.3532864 5.36115592 234.72916788 5.37107468 237.10502052 C5.45524495 258.53381713 3.93512833 276.49265625 -11.6171875 292.68359375 C-19.17205461 299.64202398 -28.34186227 303.6130806 -38.2734375 305.7265625 C-39.31583588 305.96299469 -40.35823425 306.19942688 -41.43222046 306.44302368 C-44.55455606 307.14707734 -47.68011067 307.83471999 -50.80705261 308.51795959 C-54.92687135 309.42355318 -59.04154944 310.35217029 -63.15722656 311.27636719 C-74.22134581 313.75627897 -85.29216557 316.20559308 -96.36340714 318.6534729 C-106.36439712 320.86588432 -116.36371534 323.08585048 -126.36328125 325.3046875 C-127.46831434 325.54982338 -128.57334743 325.79495926 -129.71186638 326.0475235 C-149.75394862 330.49398665 -169.7871806 334.97867683 -189.8125 339.5 C-190.52461765 339.66076145 -191.23673531 339.8215229 -191.97043228 339.98715591 C-199.64079995 341.71886964 -207.31075601 343.4523999 -214.98046875 345.18701172 C-222.27139494 346.83590853 -229.56316151 348.4810645 -236.85518456 350.125103 C-268.16187688 357.18357015 -268.16187688 357.18357015 -299.45703125 364.29296875 C-304.51296804 365.44554426 -309.56895079 366.59791774 -314.625 367.75 C-315.90724457 368.04218414 -317.18948914 368.33436829 -318.5105896 368.63540649 C-338.75800323 373.24714359 -359.01750277 377.80434947 -379.28125 382.34375 C-380.53828106 382.62536232 -381.79531212 382.90697464 -383.09043503 383.19712067 C-395.80755024 386.04588263 -408.52510781 388.89265838 -421.24351215 391.7356596 C-449.82439853 398.12518138 -478.38784049 404.58405625 -506.92938709 411.14706326 C-515.792097 413.18411031 -524.65897339 415.20260172 -533.52734375 417.21484375 C-534.22704788 417.37366405 -534.92675201 417.53248436 -535.6476593 417.6961174 C-541.11006713 418.93595768 -546.57271501 420.17473839 -552.03546143 421.41308594 C-556.21761043 422.36115046 -560.39964302 423.3097251 -564.5814991 424.25908089 C-566.55004097 424.70581112 -568.5187248 425.15191563 -570.4874115 425.5980072 C-575.82468886 426.81009468 -581.15937469 428.02838679 -586.48071289 429.30883789 C-587.26825455 429.49809341 -588.0557962 429.68734894 -588.86720276 429.88233948 C-590.82350697 430.35595592 -592.77807402 430.83673381 -594.73242188 431.31835938 C-601.64929175 432.76126887 -608.18252965 433.45683181 -614.5 429.875 C-619.74672811 426.01070855 -622.30759961 421.20112819 -624 415 C-624.37997343 411.67462377 -624.50504765 408.35320567 -624.61592102 405.00923157 C-624.65350975 404.04057201 -624.69109849 403.07191245 -624.72982627 402.07389957 C-625.10283401 391.66758413 -625.14827919 381.26408049 -625.14526367 370.85229492 C-625.14826635 368.73872825 -625.15167137 366.62516212 -625.15544128 364.51159668 C-625.16416601 358.84458041 -625.16661426 353.17757928 -625.16725707 347.51055694 C-625.1679734 343.95742309 -625.17011844 340.40429296 -625.17275429 336.85116005 C-625.18196466 324.42136011 -625.18609401 311.99157081 -625.18530273 299.56176758 C-625.18470089 288.02592721 -625.19528472 276.49013344 -625.2110464 264.95430487 C-625.22415942 254.99783714 -625.22948516 245.0413846 -625.22884732 235.08490831 C-625.22859374 229.16075224 -625.23136808 223.23663782 -625.24202538 217.31249046 C-625.25177184 211.74479746 -625.25174107 206.17718545 -625.24450874 200.60948944 C-625.24347149 198.57995039 -625.245774 196.5504061 -625.2518692 194.52087593 C-625.29138929 180.43850392 -624.38654226 166.89111204 -622 153 C-621.34 153 -620.68 153 -620 153 C-619.7215625 151.7934375 -619.7215625 151.7934375 -619.4375 150.5625 C-615.02495502 139.62706245 -605.60147678 131.6361552 -595 127 C-592.26996616 126.10939991 -589.51246257 125.47730892 -586.70703125 124.87109375 C-585.8878421 124.68509109 -585.06865295 124.49908844 -584.22463989 124.30744934 C-581.42275306 123.67407835 -578.61771137 123.05596814 -575.8125 122.4375 C-573.7173297 121.96735996 -571.62236744 121.4962921 -569.52758789 121.02441406 C-564.08093839 119.80017973 -558.63202985 118.5863533 -553.18235493 117.37566566 C-545.77842966 115.72995656 -538.37779451 114.0696123 -530.97699165 112.40992928 C-511.01985968 107.93501384 -491.0579505 103.48156857 -471.09578991 99.02915096 C-459.59598776 96.46404238 -448.09681337 93.89612332 -436.59765625 91.328125 C-434.43394488 90.84493939 -432.27023333 90.36175458 -430.10652161 89.87857056 C-421.39620293 87.93342555 -412.68590646 85.98818112 -403.97561646 84.04290771 C-398.56304988 82.83411966 -393.1504757 81.62536564 -387.73789406 80.41664505 C-385.58722591 79.93636401 -383.43655935 79.45607584 -381.28589439 78.97578049 C-368.66073923 76.15632219 -356.03526966 73.33828023 -343.40925217 70.522686 C-335.51099226 68.76135802 -327.61294191 66.9990927 -319.71504593 65.23613358 C-315.14883097 64.21692786 -310.58250252 63.19823764 -306.01586914 62.1809082 C-283.63045511 57.2064843 -283.63045511 57.2064843 -261.2890625 52.0390625 C-260.4466098 51.84089935 -259.6041571 51.64273621 -258.73617554 51.43856812 C-254.76497429 50.51866714 -254.76497429 50.51866714 -251 49 C-249.73591309 48.87262451 -248.47182617 48.74524902 -247.16943359 48.61401367 C-241.08939684 47.98528655 -235.23193497 46.57201029 -229.2890625 45.17578125 C-227.33319535 44.72376082 -225.37732578 44.27175082 -223.421381 43.82006645 C-221.30261423 43.32996797 -219.18439224 42.83757204 -217.06628418 42.34463501 C-209.25336187 40.52733281 -201.43531493 38.73225308 -193.6171875 36.9375 C-192.77503189 36.74405313 -191.93287628 36.55060627 -191.06520081 36.35129738 C-164.78269175 30.31777266 -138.44966841 24.50882416 -112.12101746 18.68070316 C-106.88008092 17.52055395 -101.63924162 16.35996598 -96.3984375 15.19921875 C-95.3820369 14.97416845 -94.36563629 14.74911816 -93.31843567 14.51724815 C-80.95953273 11.77983976 -68.60683232 9.01764123 -56.26577759 6.20081902 C-54.14524619 5.71699813 -52.02445506 5.23433403 -49.90356445 4.75209045 C-43.72572182 3.34693524 -37.54988521 1.93399537 -31.37792969 0.50317383 C-29.28070195 0.02510134 -27.18337827 -0.45255051 -25.0859375 -0.9296875 C-24.17832672 -1.1441301 -23.27071594 -1.35857269 -22.33560181 -1.57951355 C-14.63209194 -3.3130764 -6.83271387 -4.76700968 0 0 Z M-38.97070312 55.79443359 C-39.73829956 55.96816498 -40.505896 56.14189636 -41.29675293 56.32089233 C-42.11663696 56.51148224 -42.936521 56.70207214 -43.78125 56.8984375 C-45.0569989 57.19096909 -45.0569989 57.19096909 -46.35852051 57.4894104 C-48.15439338 57.9025419 -49.94975329 58.31790871 -51.74462891 58.73535156 C-54.48833659 59.37229239 -57.23422701 59.99908717 -59.98046875 60.625 C-61.72670375 61.02803431 -63.47280229 61.43166043 -65.21875 61.8359375 C-66.03863403 62.02247894 -66.85851807 62.20902039 -67.70324707 62.4012146 C-68.47084351 62.58125031 -69.23843994 62.76128601 -70.02929688 62.94677734 C-70.70118042 63.10222015 -71.37306396 63.25766296 -72.06530762 63.41781616 C-72.7037561 63.60993683 -73.34220459 63.8020575 -74 64 C-74.68002075 64.18672272 -75.3600415 64.37344543 -76.06066895 64.56582642 C-81.09561605 68.28926916 -82.10242763 77.81172849 -83.56860352 83.66845703 C-83.8065715 84.60345032 -84.04453949 85.5384436 -84.28971863 86.50177002 C-85.07365034 89.58606824 -85.85122505 92.67193292 -86.62890625 95.7578125 C-87.18314516 97.94232245 -87.73783635 100.1267177 -88.29295349 102.31100464 C-89.75776271 108.07891528 -91.21743401 113.84811293 -92.67572021 119.61767578 C-94.97654683 128.71773089 -97.28423468 137.81604899 -99.59302902 146.91408539 C-100.15776351 149.13988536 -100.72219974 151.36576103 -101.28633499 153.59171295 C-105.46828143 170.08899938 -109.73476134 186.56192441 -114.12831116 203.00418091 C-114.32488626 203.74311207 -114.52146137 204.48204323 -114.7239933 205.24336624 C-115.24577714 207.20402069 -115.77040973 209.1639164 -116.29527283 211.12374878 C-117.07932559 213.83020234 -117.07932559 213.83020234 -117 216 C-119 215 -119 215 -119.92285156 212.71069336 C-120.40189941 211.1658728 -120.40189941 211.1658728 -120.890625 209.58984375 C-121.2628418 208.39810547 -121.63505859 207.20636719 -122.01855469 205.97851562 C-122.42949257 204.63164949 -122.83995621 203.2846386 -123.25 201.9375 C-123.68893925 200.5136138 -124.12807269 199.08978745 -124.56738281 197.66601562 C-132.00010251 173.46089385 -138.93308571 149.10063478 -145.9508667 124.7729187 C-147.23741832 120.31662701 -148.52788129 115.86147326 -149.81896973 111.40649414 C-150.73587589 108.23633344 -151.64681054 105.06449566 -152.55761719 101.89257812 C-153.1162258 99.96345168 -153.67512895 98.0344105 -154.234375 96.10546875 C-154.48582275 95.22344284 -154.73727051 94.34141693 -154.99633789 93.43266296 C-155.2318335 92.62496964 -155.4673291 91.81727631 -155.70996094 90.98510742 C-156.01302155 89.93319466 -156.01302155 89.93319466 -156.32220459 88.86003113 C-157.02272156 86.7099249 -157.02272156 86.7099249 -159 84 C-164.36074121 82.6503605 -168.88483125 83.28403074 -174.1640625 84.546875 C-174.91916107 84.71874329 -175.67425964 84.89061157 -176.45223999 85.06768799 C-178.03854835 85.43175069 -179.6234785 85.80186663 -181.20703125 86.17773438 C-183.62157882 86.7491903 -186.0405094 87.29780354 -188.4609375 87.84375 C-190.00812428 88.20178033 -191.55501074 88.56111149 -193.1015625 88.921875 C-193.81937897 89.08451843 -194.53719543 89.24716187 -195.27676392 89.41473389 C-199.35663847 90.39694948 -202.46919225 91.77355772 -206 94 C-203.37925954 104.18059916 -200.4430805 114.2169504 -197.21875 124.22265625 C-196.76361909 125.6444401 -196.3088295 127.06633326 -195.85435486 128.48832703 C-194.89890165 131.47566136 -193.94132196 134.46230121 -192.98190308 137.44836426 C-191.48044255 142.12163094 -189.98397615 146.79648691 -188.48852539 151.47167969 C-187.98873079 153.03402935 -187.48892918 154.59637677 -186.98912048 156.15872192 C-186.74350813 156.92649082 -186.49789577 157.69425972 -186.24484062 158.48529434 C-185.50734765 160.79002656 -184.76938177 163.09460682 -184.03126526 165.3991394 C-180.47365449 176.5078183 -176.94050295 187.623969 -173.4375 198.75 C-172.76033945 200.89933288 -172.08308257 203.0486354 -171.40582275 205.19793701 C-170.96382701 206.6006279 -170.52189095 208.0033376 -170.08001709 209.40606689 C-166.58180354 220.50661669 -163.0570877 231.598798 -159.53686523 242.69238281 C-159.28273361 243.49384735 -159.02860199 244.29531189 -158.76676941 245.12106323 C-158.26473241 246.70244091 -157.76150616 248.28344157 -157.2570343 249.86404419 C-155.93665968 254.00802311 -154.64488137 258.15853995 -153.38964844 262.32275391 C-153.12409149 263.19285599 -152.85853455 264.06295807 -152.58493042 264.95942688 C-152.0772536 266.62519737 -151.57695156 268.29323934 -151.0852356 269.96379089 C-150.85585297 270.71155289 -150.62647034 271.45931488 -150.39013672 272.22973633 C-150.19346405 272.88710281 -149.99679138 273.5444693 -149.79415894 274.22175598 C-148.84970905 276.33652455 -147.78437185 277.53401603 -146 279 C-137.95401454 279.63337546 -129.33925099 276.92537714 -121.5625 275.125 C-119.85610352 274.74021484 -119.85610352 274.74021484 -118.11523438 274.34765625 C-115.85067134 273.83351131 -113.58837894 273.30925042 -111.32861328 272.77441406 C-109.09958786 272.25582314 -106.86309775 271.76838142 -104.62060547 271.31152344 C-103.5585791 271.08239258 -102.49655273 270.85326172 -101.40234375 270.6171875 C-100.45738037 270.42495605 -99.51241699 270.23272461 -98.53881836 270.03466797 C-94.99632102 268.59096148 -93.996244 267.30644762 -92 264 C-90.51147973 260.09093929 -89.37100186 256.09941275 -88.2265625 252.078125 C-87.67926073 250.21148906 -87.13195434 248.34485448 -86.58448505 246.47826767 C-85.99715031 244.46769814 -85.41551758 242.45555715 -84.83547974 240.44287109 C-83.60917284 236.18887519 -82.36678062 231.93969047 -81.12084961 227.69140625 C-80.90825469 226.9663665 -80.69565977 226.24132675 -80.47662258 225.4943161 C-80.04042195 224.00671244 -79.60418137 222.51912049 -79.16790199 221.03153992 C-78.49667579 218.74095074 -77.82694561 216.44992843 -77.15751648 214.15881348 C-72.29442339 197.52638655 -67.28727781 180.93785319 -62.27285767 164.35054779 C-61.09221481 160.44384334 -59.91329469 156.53661926 -58.734375 152.62939453 C-58.27344964 151.10183657 -57.81252233 149.57427919 -57.35159302 148.04672241 C-57.01437918 146.92915621 -57.01437918 146.92915621 -56.67035294 145.78901291 C-56.00342922 143.57899541 -55.33632553 141.36903232 -54.66915894 139.15908813 C-50.02979037 123.79096366 -45.40482975 108.41855146 -40.80943298 93.03721619 C-39.58947601 88.95746108 -38.3588135 84.88111202 -37.11972046 80.80712891 C-36.52527733 78.8504561 -35.9337004 76.89294309 -35.34326172 74.93505859 C-34.64457603 72.61994064 -33.94095863 70.30630158 -33.23095703 67.99462891 C-32.93302246 67.00253418 -32.63508789 66.01043945 -32.328125 64.98828125 C-32.0693457 64.13790283 -31.81056641 63.28752441 -31.54394531 62.41137695 C-30.97001904 59.86709071 -30.9013893 57.59955216 -31 55 C-34.03621842 55 -36.10507396 55.13824592 -38.97070312 55.79443359 Z M-248.3125 100.875 C-250.06143555 101.27912109 -250.06143555 101.27912109 -251.84570312 101.69140625 C-258.70314864 103.10854159 -258.70314864 103.10854159 -265 106 C-266.15171176 109.45513528 -266.12952297 112.09729706 -266.1328125 115.74609375 C-266.13413177 116.46855286 -266.13545105 117.19101196 -266.1368103 117.93536377 C-266.13878429 120.43611414 -266.13220565 122.93676007 -266.125 125.4375 C-266.12411377 126.31274323 -266.12322754 127.18798645 -266.12231445 128.0897522 C-266.08111234 164.06038597 -265.47090657 200.03299648 -265 236 C-267.34412191 233.85277571 -268.76603815 231.83533608 -270.17388916 228.99279785 C-270.58019058 228.17998352 -270.986492 227.36716919 -271.40510559 226.52972412 C-271.84150864 225.64141907 -272.27791168 224.75311401 -272.72753906 223.83789062 C-273.19465805 222.89927185 -273.66177704 221.96065308 -274.14305115 220.99359131 C-275.15730803 218.95365838 -276.1687898 216.91234387 -277.17783356 214.86982727 C-278.7789675 211.62924573 -280.38758416 208.39247954 -281.99822998 205.15661621 C-286.00057644 197.1118117 -289.99002248 189.0606265 -293.97967529 181.00952148 C-297.34615661 174.21713563 -300.71765856 167.42728712 -304.09575653 160.64067078 C-305.67316349 157.46653992 -307.24323714 154.28885402 -308.81304932 151.11096191 C-315.75645136 134.86308507 -315.75645136 134.86308507 -327 122 C-336.36309866 120.37268063 -346.27159673 123.53055115 -355.32763672 125.68041992 C-358.01808189 126.31677681 -360.7134189 126.9280347 -363.41015625 127.53710938 C-365.12794701 127.93602652 -366.84540829 128.33636578 -368.5625 128.73828125 C-369.36558594 128.91966141 -370.16867187 129.10104156 -370.99609375 129.28791809 C-376.28142539 130.44246051 -376.28142539 130.44246051 -380 134 C-380.29253083 136.63460818 -380.40047472 139.03255728 -380.3742218 141.66760254 C-380.37819621 142.45617472 -380.38217061 143.2447469 -380.38626546 144.05721521 C-380.39591511 146.70824695 -380.38405442 149.35874858 -380.37231445 152.00976562 C-380.37474154 153.90679626 -380.37846005 155.80382562 -380.38337708 157.70085144 C-380.39280107 162.8598696 -380.38334796 168.01869854 -380.37004495 173.17770195 C-380.35874928 178.56951815 -380.36283649 183.96132478 -380.36479187 189.35314941 C-380.36567544 198.40880433 -380.35458123 207.46438447 -380.33618164 216.52001953 C-380.31501307 226.99863609 -380.31150377 237.47714308 -380.3177436 247.95577669 C-380.32343285 258.02421806 -380.31779677 268.09262073 -380.30657005 278.16105652 C-380.30191825 282.45127577 -380.30105273 286.74147141 -380.3031559 291.0316925 C-380.30503574 296.08120033 -380.29695833 301.1305962 -380.2810955 306.18007851 C-380.27684299 308.03648223 -380.27600857 309.8928973 -380.27878571 311.74930382 C-380.28199429 314.2771257 -380.27295929 316.80461028 -380.26069641 319.33239746 C-380.26447573 320.0725656 -380.26825506 320.81273374 -380.27214891 321.57533121 C-380.24027014 325.27263388 -380.10823358 326.83764963 -378 330 C-369.79027836 329.50493109 -362.0438044 328.07397844 -354.0625 326.125 C-352.39864258 325.74021484 -352.39864258 325.74021484 -350.70117188 325.34765625 C-349.10305664 324.96287109 -349.10305664 324.96287109 -347.47265625 324.5703125 C-346.51625244 324.34102051 -345.55984863 324.11172852 -344.57446289 323.87548828 C-341.76782191 322.92104404 -340.15198838 322.03686649 -338 320 C-337.40964998 317.58641488 -337.40964998 317.58641488 -337.51898193 314.81782532 C-337.51348328 313.74510376 -337.50798462 312.6723822 -337.50231934 311.56715393 C-337.51670044 310.39039597 -337.53108154 309.213638 -337.54589844 308.0012207 C-337.54531433 306.76207916 -337.54473022 305.52293762 -337.54412842 304.24624634 C-337.54643966 300.84739191 -337.56651446 297.44950634 -337.59442425 294.05082345 C-337.61941017 290.49942132 -337.62177766 286.94800662 -337.62652588 283.39653015 C-337.638964 276.67101315 -337.67179666 269.94575588 -337.71192384 263.22035331 C-337.75661575 255.56387603 -337.77862205 247.90738643 -337.79870558 240.25081122 C-337.84052877 224.50039033 -337.91089677 208.75022864 -338 193 C-337.34 193 -336.68 193 -336 193 C-335.46632813 194.15113281 -334.93265625 195.30226563 -334.3828125 196.48828125 C-329.76705196 206.37724626 -324.92366433 216.09970937 -319.79296875 225.73046875 C-317.12454928 230.743071 -314.52029109 235.78767381 -311.91821289 240.83496094 C-306.54328302 251.25844645 -301.08153798 261.62111017 -295.41870117 271.89111328 C-291.10140481 279.74272026 -286.97446484 287.68864294 -282.91943359 295.67871094 C-282.44973145 296.59297852 -281.9800293 297.50724609 -281.49609375 298.44921875 C-281.08544678 299.25705811 -280.6747998 300.06489746 -280.25170898 300.8972168 C-279.00616339 302.98964594 -277.87783972 304.45598518 -276 306 C-271.90253588 307.11768756 -271.90253588 307.11768756 -268 306 C-266.78957031 305.88527344 -265.57914063 305.77054688 -264.33203125 305.65234375 C-258.01703036 305.00377609 -251.88953912 303.50443915 -245.72338867 302.04370117 C-243.67604423 301.55979232 -241.62633678 301.08703374 -239.57617188 300.61523438 C-238.26286649 300.30795058 -236.94970976 300.00003059 -235.63671875 299.69140625 C-233.86880981 299.27677124 -233.86880981 299.27677124 -232.06518555 298.85375977 C-228.33519194 297.84058756 -228.33519194 297.84058756 -225 296 C-223.63363722 292.30899131 -223.8577267 288.43701464 -223.86628723 284.55622864 C-223.8628889 283.42744145 -223.8628889 283.42744145 -223.85942191 282.27585047 C-223.85308869 279.75265101 -223.85391085 277.22950536 -223.85473633 274.70629883 C-223.85174434 272.89767385 -223.84834172 271.08904952 -223.84455872 269.28042603 C-223.83571675 264.36492269 -223.83338047 259.44943676 -223.83274293 254.53392625 C-223.83203233 251.46170448 -223.82989779 248.38948714 -223.82724571 245.31726646 C-223.8179904 234.59554132 -223.8139109 223.87382862 -223.81469727 213.15209961 C-223.81529754 203.16494202 -223.80475603 193.17783853 -223.7889536 183.19069463 C-223.7758648 174.61219778 -223.77051396 166.03371858 -223.77115268 157.45521182 C-223.77140735 152.33364028 -223.76857347 147.21211677 -223.75797462 142.09055519 C-223.74827158 137.27002756 -223.74822961 132.44959365 -223.75549126 127.62906265 C-223.75653448 125.86386287 -223.75418984 124.09865718 -223.7481308 122.33346748 C-223.68502631 110.0382326 -223.68502631 110.0382326 -226 98 C-233.82346114 97.61674205 -240.72633849 99.04135781 -248.3125 100.875 Z M-536 174 C-536.82628906 174.71027344 -537.65257812 175.42054688 -538.50390625 176.15234375 C-561.56004364 196.25344714 -573.90539051 225.68870771 -576 256 C-577.01004682 287.03403059 -578.00494666 321.66226127 -555.1875 346.05859375 C-539.97943889 359.55574798 -523.67674411 362.23270037 -503.86035156 361.21875 C-486.65937777 359.90327778 -469.62373503 352.7955822 -457 341 C-456.21109375 340.28972656 -455.4221875 339.57945312 -454.609375 338.84765625 C-449.78377936 334.3016895 -446.27954683 329.68517297 -443.09375 323.87109375 C-442.55234375 322.94490234 -442.55234375 322.94490234 -442 322 C-441.67 322 -441.34 322 -441 322 C-440.97494385 322.60062256 -440.9498877 323.20124512 -440.92407227 323.82006836 C-440.8084472 326.52611437 -440.68557064 329.23178283 -440.5625 331.9375 C-440.52318359 332.88302734 -440.48386719 333.82855469 -440.44335938 334.80273438 C-440.40146484 335.70185547 -440.35957031 336.60097656 -440.31640625 337.52734375 C-440.26141968 338.77632446 -440.26141968 338.77632446 -440.20532227 340.05053711 C-440.20632897 342.00338858 -440.20632897 342.00338858 -439 343 C-432.27902134 342.7866356 -425.9868678 341.42083061 -419.5 339.75 C-418.69828369 339.55776855 -417.89656738 339.36553711 -417.07055664 339.16748047 C-416.31508545 338.96268066 -415.55961426 338.75788086 -414.78125 338.546875 C-414.10126953 338.36995117 -413.42128906 338.19302734 -412.72070312 338.01074219 C-410.09542737 336.46865342 -409.87731854 334.91220607 -409 332 C-408.71230432 328.90940091 -408.72675363 325.83312908 -408.74121094 322.73095703 C-408.7377063 321.80512817 -408.73420166 320.87929932 -408.73059082 319.92541504 C-408.72179947 316.8694709 -408.72761452 313.81375894 -408.734375 310.7578125 C-408.73302738 308.62938391 -408.73108603 306.50095562 -408.72857666 304.37252808 C-408.72562872 299.91222197 -408.72991164 295.451996 -408.73925781 290.99169922 C-408.75063823 285.28319969 -408.74409966 279.57488853 -408.73211288 273.86639595 C-408.72487359 269.47055654 -408.72719197 265.07476152 -408.73236847 260.67892075 C-408.73369996 258.5746445 -408.73207483 256.47036418 -408.72740936 254.36609268 C-408.72231171 251.41989785 -408.73010053 248.47400451 -408.74121094 245.52783203 C-408.73513824 244.23085892 -408.73513824 244.23085892 -408.72894287 242.90768433 C-408.62925386 234.90122517 -408.62925386 234.90122517 -412 228 C-418.90650922 227.62766633 -424.80530336 228.63763755 -431.46875 230.37109375 C-432.43026978 230.61287857 -433.39178955 230.85466339 -434.38244629 231.10377502 C-436.39717704 231.6124681 -438.41063945 232.126209 -440.42285156 232.64477539 C-443.51615435 233.44166163 -446.6130556 234.22307808 -449.7109375 235.00195312 C-451.67209979 235.49911412 -453.63304557 235.99713012 -455.59375 236.49609375 C-456.52280151 236.73154404 -457.45185303 236.96699432 -458.40905762 237.20957947 C-459.26084595 237.42973221 -460.11263428 237.64988495 -460.99023438 237.87670898 C-461.74252319 238.06990219 -462.49481201 238.2630954 -463.26989746 238.46214294 C-465.01155628 238.8564519 -465.01155628 238.8564519 -466 240 C-467.155 240.12375 -468.31 240.2475 -469.5 240.375 C-474.18014553 240.90818114 -478.70491297 242.03572606 -483 244 C-484.48125044 246.96250087 -484.12990684 249.63912895 -484.1328125 252.94140625 C-484.13424759 253.96571999 -484.13424759 253.96571999 -484.13571167 255.01072693 C-484.13639223 256.45401095 -484.1345466 257.89729803 -484.13037109 259.34057617 C-484.12501282 261.55719828 -484.13032443 263.77361852 -484.13671875 265.99023438 C-484.13605811 267.39062545 -484.13477723 268.7910164 -484.1328125 270.19140625 C-484.13112061 272.11255249 -484.13112061 272.11255249 -484.12939453 274.07250977 C-484.33493704 276.89012748 -484.33493704 276.89012748 -483 278 C-476.00743264 278.07928081 -469.2287106 276.18240013 -462.53491211 274.37231445 C-459.18935302 273.47975612 -456.49658614 273 -453 273 C-455.168399 287.62860218 -461.22991585 299.78457627 -472.6171875 309.36328125 C-481.57753922 315.51801464 -491.15660742 319.05941192 -502 318 C-510.18474902 316.17568847 -515.37476177 311.89656057 -520 305 C-532.03235042 282.56467995 -531.40906506 252.38187435 -524.25390625 228.4609375 C-518.88880516 213.65258993 -511.28360059 202.38186081 -497 195 C-488.96413104 191.52603204 -480.03084023 190.37431781 -471.625 193.25 C-464.01049101 196.6393851 -460.99734841 201.97826482 -457 209 C-456.34 209.99 -455.68 210.98 -455 212 C-446.94852713 211.38838018 -439.21740566 209.60626403 -431.38671875 207.72631836 C-429.11263617 207.18455452 -426.83405943 206.66547908 -424.5546875 206.14648438 C-423.10123352 205.80085971 -421.64809574 205.45390202 -420.1953125 205.10546875 C-419.51719513 204.95426071 -418.83907776 204.80305267 -418.14041138 204.64726257 C-415.13631305 203.90202367 -413.25219385 203.25415154 -411.05004883 201.03491211 C-408.51191228 196.11620295 -411.31536438 189.46319988 -412.71875 184.4140625 C-417.21786805 171.54158585 -426.58915656 162.0779026 -438.41796875 155.6953125 C-467.53012582 141.96599918 -512.83247875 152.75928249 -536 174 Z " fill="#1BACEB" transform="translate(822,303)"/>
<path d="M0 0 C3 1 3 1 3 1 Z " fill="#25A7DF" transform="translate(260,727)"/>
<path d="M0 0 C3 1 3 1 3 1 Z " fill="#25A8DF" transform="translate(508,671)"/>
<path d="M0 0 C2 1 2 1 2 1 Z " fill="#25A3D7" transform="translate(224,735)"/>
<path d="M0 0 C2 1 2 1 2 1 Z " fill="#27A3DA" transform="translate(233,733)"/>
<path d="M0 0 C2 1 2 1 2 1 Z " fill="#25A9E0" transform="translate(365,703)"/>
<path d="M0 0 C2 1 2 1 2 1 Z " fill="#24A7DF" transform="translate(409,693)"/>
<path d="M0 0 C2 1 2 1 2 1 Z " fill="#24A9E0" transform="translate(547,662)"/>
<path d="" fill="#27B2EC" transform="translate(0,0)"/>
<path d="M0 0 C2 1 2 1 2 1 Z " fill="#23AFE7" transform="translate(324,623)"/>
<path d="M0 0 C2 1 2 1 2 1 Z " fill="#21AFEA" transform="translate(320,623)"/>
<path d="M0 0 C2 1 2 1 2 1 Z " fill="#25A9E0" transform="translate(729,621)"/>
<path d="M0 0 C2 1 2 1 2 1 Z " fill="#26AAE0" transform="translate(757,615)"/>
<path d="" fill="#21ADE9" transform="translate(0,0)"/>
<path d="M0 0 C2 1 2 1 2 1 Z " fill="#22B0EA" transform="translate(697,576)"/>
<path d="M0 0 C2 1 2 1 2 1 Z " fill="#24B2EA" transform="translate(353,576)"/>
<path d="" fill="#23B0E9" transform="translate(0,0)"/>
<path d="" fill="#27A6DE" transform="translate(0,0)"/>
<path d="" fill="#22AFEA" transform="translate(0,0)"/>
<path d="" fill="#23AFEA" transform="translate(0,0)"/>
<path d="" fill="#27AAE1" transform="translate(0,0)"/>
<path d="" fill="#24B1EB" transform="translate(0,0)"/>
<path d="M0 0 C2 1 2 1 2 1 Z " fill="#22B0ED" transform="translate(360,455)"/>
<path d="M0 0 C2 1 2 1 2 1 Z " fill="#23B0EB" transform="translate(472,429)"/>
<path d="M0 0 C2 1 2 1 2 1 Z " fill="#26A8DF" transform="translate(275,417)"/>
<path d="M0 0 C2 1 2 1 2 1 Z " fill="#26A9E1" transform="translate(280,416)"/>
<path d="M0 0 C2 1 2 1 2 1 Z " fill="#25AAE2" transform="translate(353,400)"/>
<path d="M0 0 C2 1 2 1 2 1 Z " fill="#24ABE4" transform="translate(497,368)"/>
<path d="" fill="#24A3D8" transform="translate(0,0)"/>
<path d="" fill="#26A6D9" transform="translate(0,0)"/>
<path d="" fill="#29A5DB" transform="translate(0,0)"/>
<path d="" fill="#289CCD" transform="translate(0,0)"/>
<path d="" fill="#26A5DD" transform="translate(0,0)"/>
<path d="" fill="#24A9E1" transform="translate(0,0)"/>
<path d="" fill="#2AA7DD" transform="translate(0,0)"/>
<path d="" fill="#2AA0D3" transform="translate(0,0)"/>
<path d="" fill="#25A7DD" transform="translate(0,0)"/>
<path d="" fill="#24A7DD" transform="translate(0,0)"/>
<path d="" fill="#26A6DE" transform="translate(0,0)"/>
<path d="" fill="#28A8DE" transform="translate(0,0)"/>
<path d="" fill="#25AAE0" transform="translate(0,0)"/>
<path d="" fill="#25A7DE" transform="translate(0,0)"/>
<path d="" fill="#25A8E0" transform="translate(0,0)"/>
<path d="" fill="#29AAE0" transform="translate(0,0)"/>
<path d="" fill="#28A7E0" transform="translate(0,0)"/>
<path d="" fill="#27A8E0" transform="translate(0,0)"/>
<path d="" fill="#24A8E0" transform="translate(0,0)"/>
<path d="" fill="#25A9DF" transform="translate(0,0)"/>
<path d="" fill="#26A9E0" transform="translate(0,0)"/>
<path d="" fill="#25B3ED" transform="translate(0,0)"/>
<path d="" fill="#23AFEA" transform="translate(0,0)"/>
<path d="" fill="#23A7DF" transform="translate(0,0)"/>
<path d="" fill="#26AEE8" transform="translate(0,0)"/>
<path d="" fill="#24A7DE" transform="translate(0,0)"/>
<path d="" fill="#24A8E0" transform="translate(0,0)"/>
<path d="" fill="#24B0EB" transform="translate(0,0)"/>
<path d="" fill="#24B1EA" transform="translate(0,0)"/>
<path d="" fill="#24B1E9" transform="translate(0,0)"/>
<path d="" fill="#27A8DD" transform="translate(0,0)"/>
<path d="" fill="#23B0ED" transform="translate(0,0)"/>
<path d="" fill="#21AFEB" transform="translate(0,0)"/>
<path d="" fill="#24B1EB" transform="translate(0,0)"/>
<path d="" fill="#25B2EA" transform="translate(0,0)"/>
<path d="" fill="#25AFEC" transform="translate(0,0)"/>
<path d="" fill="#22AEEB" transform="translate(0,0)"/>
<path d="" fill="#27A4D7" transform="translate(0,0)"/>
<path d="" fill="#24AFEB" transform="translate(0,0)"/>
<path d="" fill="#26B0EB" transform="translate(0,0)"/>
<path d="" fill="#24B1EC" transform="translate(0,0)"/>
<path d="" fill="#25B1EC" transform="translate(0,0)"/>
<path d="" fill="#23AEEA" transform="translate(0,0)"/>
<path d="" fill="#23B0EA" transform="translate(0,0)"/>
<path d="" fill="#23B0E8" transform="translate(0,0)"/>
<path d="" fill="#23AFEB" transform="translate(0,0)"/>
<path d="" fill="#26B0EB" transform="translate(0,0)"/>
<path d="" fill="#23B0EA" transform="translate(0,0)"/>
<path d="" fill="#24B1EC" transform="translate(0,0)"/>
<path d="" fill="#23AFEA" transform="translate(0,0)"/>
<path d="" fill="#27A6DE" transform="translate(0,0)"/>
<path d="" fill="#24B2ED" transform="translate(0,0)"/>
<path d="" fill="#24B3EB" transform="translate(0,0)"/>
<path d="" fill="#24B1EC" transform="translate(0,0)"/>
<path d="" fill="#23B0EA" transform="translate(0,0)"/>
<path d="" fill="#24B2EB" transform="translate(0,0)"/>
<path d="" fill="#23B0EC" transform="translate(0,0)"/>
<path d="" fill="#29A8DE" transform="translate(0,0)"/>
<path d="" fill="#27A9DC" transform="translate(0,0)"/>
<path d="" fill="#28A6DF" transform="translate(0,0)"/>
<path d="" fill="#25AFED" transform="translate(0,0)"/>
<path d="" fill="#24B2EC" transform="translate(0,0)"/>
<path d="" fill="#29A8DE" transform="translate(0,0)"/>
<path d="" fill="#23AEE9" transform="translate(0,0)"/>
<path d="" fill="#24AEE8" transform="translate(0,0)"/>
<path d="" fill="#22AEE9" transform="translate(0,0)"/>
<path d="" fill="#25B4EC" transform="translate(0,0)"/>
<path d="" fill="#23AEEB" transform="translate(0,0)"/>
<path d="" fill="#28A8E0" transform="translate(0,0)"/>
<path d="" fill="#28AAE0" transform="translate(0,0)"/>
<path d="" fill="#28A9E1" transform="translate(0,0)"/>
<path d="" fill="#25AFEC" transform="translate(0,0)"/>
<path d="" fill="#23AFEB" transform="translate(0,0)"/>
<path d="" fill="#29AAE1" transform="translate(0,0)"/>
<path d="" fill="#26B2EA" transform="translate(0,0)"/>
<path d="" fill="#20AFE9" transform="translate(0,0)"/>
<path d="" fill="#25AFEA" transform="translate(0,0)"/>
<path d="" fill="#24AEEB" transform="translate(0,0)"/>
<path d="" fill="#26B1EA" transform="translate(0,0)"/>
<path d="" fill="#2CA4D8" transform="translate(0,0)"/>
<path d="" fill="#25AEEA" transform="translate(0,0)"/>
<path d="" fill="#2CA2D7" transform="translate(0,0)"/>
<path d="" fill="#27AAE1" transform="translate(0,0)"/>
<path d="" fill="#25B0EC" transform="translate(0,0)"/>
<path d="" fill="#24B1EC" transform="translate(0,0)"/>
<path d="" fill="#27A8DF" transform="translate(0,0)"/>
<path d="" fill="#24B0E8" transform="translate(0,0)"/>
<path d="" fill="#23AEE9" transform="translate(0,0)"/>
<path d="" fill="#23B0ED" transform="translate(0,0)"/>
<path d="" fill="#23B0EB" transform="translate(0,0)"/>
<path d="" fill="#22ADEB" transform="translate(0,0)"/>
<path d="" fill="#24B1E9" transform="translate(0,0)"/>
<path d="" fill="#24AFEA" transform="translate(0,0)"/>
<path d="" fill="#26B2EC" transform="translate(0,0)"/>
<path d="" fill="#27A7DC" transform="translate(0,0)"/>
<path d="" fill="#28A8E1" transform="translate(0,0)"/>
<path d="" fill="#25ACE3" transform="translate(0,0)"/>
<path d="" fill="#25B0EA" transform="translate(0,0)"/>
<path d="" fill="#23B2ED" transform="translate(0,0)"/>
<path d="" fill="#21AEEB" transform="translate(0,0)"/>
<path d="" fill="#23B1EA" transform="translate(0,0)"/>
<path d="" fill="#23B1E9" transform="translate(0,0)"/>
<path d="" fill="#26A8E1" transform="translate(0,0)"/>
<path d="" fill="#22AEEA" transform="translate(0,0)"/>
<path d="" fill="#25AEEC" transform="translate(0,0)"/>
<path d="" fill="#23B1EA" transform="translate(0,0)"/>
<path d="" fill="#22B0EA" transform="translate(0,0)"/>
<path d="" fill="#27A8E1" transform="translate(0,0)"/>
<path d="" fill="#26A9E0" transform="translate(0,0)"/>
<path d="" fill="#23ACE3" transform="translate(0,0)"/>
<path d="" fill="#23B2EC" transform="translate(0,0)"/>
<path d="" fill="#25A8E0" transform="translate(0,0)"/>
<path d="" fill="#25AFE8" transform="translate(0,0)"/>
<path d="" fill="#26A7DF" transform="translate(0,0)"/>
<path d="" fill="#26A9E1" transform="translate(0,0)"/>
<path d="" fill="#26A8DF" transform="translate(0,0)"/>
<path d="" fill="#27A6DE" transform="translate(0,0)"/>
<path d="" fill="#25A7E0" transform="translate(0,0)"/>
<path d="" fill="#28A8DF" transform="translate(0,0)"/>
<path d="" fill="#27A7DF" transform="translate(0,0)"/>
<path d="" fill="#28A8E0" transform="translate(0,0)"/>
<path d="" fill="#25A8DE" transform="translate(0,0)"/>
<path d="" fill="#25A8E1" transform="translate(0,0)"/>
<path d="" fill="#25A8DE" transform="translate(0,0)"/>
<path d="" fill="#23A8E0" transform="translate(0,0)"/>
<path d="" fill="#27A8E0" transform="translate(0,0)"/>
<path d="" fill="#2B9FD4" transform="translate(0,0)"/>
</svg>
